<svg xmlns="http://www.w3.org/2000/svg" width="512" height="512" fill="none" viewBox="0 0 512 512"><path fill="#000" d="M304.807 76.3661H206.325C203.034 76.3661 200.397 79.1722 200.325 82.6601C198.336 180.702 149.949 273.756 66.6648 339.667C64.0207 341.758 63.4183 345.689 65.3514 348.521L122.972 432.979C124.932 435.853 128.751 436.502 131.44 434.391C183.515 393.448 225.402 344.057 255.566 289.312C285.73 344.057 327.619 393.448 379.694 434.391C382.38 436.502 386.2 435.853 388.162 432.979L445.783 348.521C447.713 345.689 447.111 341.758 444.469 339.667C361.183 273.756 312.796 180.702 310.809 82.6601C310.737 79.1722 308.098 76.3661 304.807 76.3661Z"/><path fill="#000" d="M442.744 138.065L432.164 105.162C430.012 98.4825 424.771 93.2792 418.099 91.2221L385.255 81.0572C380.723 79.6533 380.675 73.2035 385.195 71.7393L417.871 61.0902C424.507 58.9242 429.688 53.6361 431.732 46.9319L441.818 13.8716C443.213 9.29741 449.62 9.24891 451.087 13.7992L461.666 46.7018C463.818 53.3817 469.06 58.5853 475.731 60.6546L508.575 70.8074C513.107 72.2113 513.155 78.6611 508.636 80.1374L475.96 90.7865C469.324 92.9403 464.143 98.2285 462.099 104.945L452.012 137.993C450.618 142.567 444.21 142.615 442.744 138.065Z"/></svg>