<svg xmlns="http://www.w3.org/2000/svg" width="106" height="102" fill="none" viewBox="0 0 106 102"><rect width="106" height="102" fill="#000" rx="10"/><path fill="#fff" fill-rule="evenodd" d="M33 37.1117C33 33.147 36.1259 30 40.0937 30H67.5415V38.3172H68.0045C71.2409 38.3172 73.7575 40.8527 73.7575 44.0835V65.121C73.7575 69.0857 70.6315 72.2328 66.6638 72.2328H40.0937C36.1259 72.2328 33 69.0857 33 65.121V37.1117ZM37.1931 45.5512C37.1931 47.2129 38.4549 48.469 40.0937 48.469H51.2822V38.3172H63.3484V34.1939H40.0937C38.4549 34.1939 37.1931 35.45 37.1931 37.1117V45.5512ZM55.4753 48.469H68.0045C68.912 48.469 69.5644 47.8244 69.5644 46.8966V44.0835C69.5644 43.1557 68.912 42.5111 68.0045 42.5111H55.4753V48.469ZM69.5644 52.4574C69.0703 52.5915 68.5476 52.6629 68.0045 52.6629H40.0937C39.0556 52.6629 38.0751 52.4475 37.1931 52.0583V65.121C37.1931 66.7827 38.4549 68.0389 40.0937 68.0389H66.6638C68.3026 68.0389 69.5644 66.7827 69.5644 65.121V52.4574Z" clip-rule="evenodd"/></svg>