<svg xmlns="http://www.w3.org/2000/svg" width="300" height="300" fill="none" viewBox="0 0 300 300"><g clip-path="url(#clip0)"><path fill="#2B479D" d="M149.998 0V300C232.844 300 300 232.843 300 150.002C300 67.1546 232.843 0 149.998 0Z"/><path fill="#2B479D" d="M149.998 0C67.1572 0 0 67.1546 0 150.002C0 232.843 67.1572 300 149.998 300C232.843 300 232.843 0 149.998 0Z"/><path fill="#F8D12E" d="M149.742 26.0146L153.401 37.2742H165.243L155.663 44.2327L159.322 55.4923L149.742 48.5293L140.164 55.4923L143.823 44.2327L134.24 37.2742H146.082L149.742 26.0146Z"/><path fill="#F8D12E" d="M149.742 238.572L153.401 249.837H165.243L155.663 256.795L159.322 268.054L149.742 261.096L140.164 268.054L143.823 256.795L134.24 249.837H146.082L149.742 238.572Z"/><path fill="#F8D12E" d="M208.079 44.8534L211.735 56.1155H223.578L213.997 63.0785L217.657 74.338L208.079 67.3751L198.499 74.338L202.157 63.0785L192.579 56.1155H204.422L208.079 44.8534Z"/><path fill="#F8D12E" d="M247.88 84.1219L251.537 95.3815H263.38L253.799 102.343L257.458 113.602L247.88 106.644L238.3 113.602L241.959 102.343L232.379 95.3815H244.218L247.88 84.1219Z"/><path fill="#F8D12E" d="M248.828 183.336L252.485 194.6H264.326L254.746 201.558L258.408 212.815L248.828 205.859L239.247 212.815L242.907 201.558L233.326 194.6H245.168L248.828 183.336Z"/><path fill="#F8D12E" d="M53.0457 84.1219L56.7026 95.3815H68.5423L58.9643 102.343L62.6212 113.602L53.0457 106.644L43.4657 113.602L47.1246 102.343L37.5465 95.3815H49.3888L53.0457 84.1219Z"/><path fill="#F8D12E" d="M257.105 131.438L260.762 142.698H272.604L263.024 149.656L266.683 160.919L257.105 153.963L247.525 160.919L251.186 149.656L241.604 142.698H253.444L257.105 131.438Z"/><path fill="#F8D12E" d="M43.9984 131.438L47.6553 142.698H59.495L49.9151 149.656L53.5764 160.919L43.9984 153.963L34.4178 160.919L38.0773 149.656L28.4973 142.698H40.3389L43.9984 131.438Z"/><path fill="#F8D12E" d="M51.7619 183.336L55.4189 194.6H67.2586L57.6812 201.558L61.3374 212.815L51.7619 205.859L42.182 212.815L45.8408 201.558L36.2609 194.6H48.1031L51.7619 183.336Z"/><path fill="#F8D12E" d="M209.795 224.279L213.452 235.538H225.295L215.712 242.501L219.374 253.761L209.795 246.802L200.213 253.761L203.875 242.501L194.294 235.538H206.137L209.795 224.279Z"/><path fill="#F8D12E" d="M93.2953 44.8534L96.9516 56.1155H108.794L99.2139 63.0785L102.875 74.338L93.2953 67.3751L83.7173 74.338L87.3761 63.0785L77.7961 56.1155H89.6359L93.2953 44.8534Z"/><path fill="#F8D12E" d="M88.9752 223.559L92.6341 234.823H104.476L94.8964 241.779L98.5552 253.039L88.9752 246.085L79.3972 253.039L83.056 241.779L73.4761 234.823H85.3158L88.9752 223.559Z"/><path fill="#fff" d="M164.336 192C148.83 192 135.294 183.533 128.018 171H164.5V157H122.968C122.583 154.718 122.336 152.389 122.336 150C122.336 147.61 122.583 145.282 122.968 143H164.5V129H128.018C135.294 116.467 148.83 108 164.336 108C169.476 108 174.569 108.964 179.47 110.864L182 97.8075C175.478 95.2818 171.213 94 164.336 94C140.886 94 120.787 108.504 112.459 129H98V143H108.822C108.534 145.299 108.336 147.625 108.336 150C108.336 152.376 108.534 154.701 108.822 157H98V171H112.459C120.787 191.496 140.886 206 164.336 206C171.213 206 175.478 204.718 182 202.193L179.471 189.136C174.569 191.036 169.476 192 164.336 192Z"/></g><defs><clipPath id="clip0"><rect width="300" height="300" fill="#fff"/></clipPath></defs></svg>