<svg width="2705" height="2630" viewBox="0 0 2705 2630" fill="none" xmlns="http://www.w3.org/2000/svg">
<path d="M436.645 1902.71C467.935 1904.69 499.286 1899.94 528.585 1888.78C483.853 1907.21 437.448 1922.76 389.055 1924.37C338.341 1926.09 285.029 1910.43 250.821 1872.96C258.003 1903.54 272.727 1931.82 293.65 1955.24C315.542 1980.08 342.661 1999.77 373.061 2012.9C403.462 2026.02 436.39 2032.25 469.483 2031.14C531.327 2028.05 587.812 1988.31 637.651 1953.31C692.933 1914.89 741.557 1867.69 781.595 1813.57C838.505 1736.2 879.281 1643.68 956.267 1586.34C956.802 1586.03 957.288 1585.59 957.891 1585.22C958.494 1584.85 959.056 1584.29 959.659 1583.92C971.408 1575.39 983.719 1566.85 991.223 1554.47C1021.2 1504.71 940.855 1458.25 886.262 1437.89C875.252 1433.61 863.906 1430.25 852.34 1427.84C819.771 1422.16 786.36 1423.59 754.396 1432.04C722.432 1440.48 692.671 1455.73 667.153 1476.75C618.957 1517.11 590.1 1575.18 556.554 1628.35C523.009 1681.52 479.807 1734.05 419.443 1751.15C381.017 1761.69 339.99 1756.74 305.171 1737.37C270.56 1717.62 245.1 1685.05 234.284 1646.7C229.752 1672.38 229.966 1698.68 234.916 1724.29C244.641 1776.3 272.53 1823.16 313.607 1856.51C348.972 1884.05 391.891 1900.17 436.645 1902.71Z" fill="#56BE89"/>
<path d="M688.454 1697.26C702.474 1811.1 622.196 1926 513.77 1964.52C442.712 1989.65 363.761 1984.02 293.621 1955.49C315.513 1980.33 342.632 2000.02 373.032 2013.14C403.433 2026.27 436.361 2032.5 469.454 2031.39C531.298 2028.3 587.783 1988.56 637.622 1953.56C692.904 1915.14 741.528 1867.94 781.566 1813.82C838.476 1736.45 879.252 1643.92 956.239 1586.59C956.773 1586.28 957.259 1585.83 957.862 1585.46C941.934 1564.72 921.914 1547.47 899.045 1534.79C876.176 1522.1 850.944 1514.24 824.914 1511.71C798.885 1509.18 772.612 1512.01 747.725 1520.05C722.838 1528.09 699.866 1541.15 680.236 1558.43C611.027 1619.26 590.069 1724.68 514.233 1776.78C451.721 1819.64 364.228 1813.99 298.59 1775.92C275.012 1761.84 253.57 1744.45 234.914 1724.29C244.639 1776.3 272.529 1823.16 313.605 1856.51C349.052 1884.12 392.087 1900.26 436.952 1902.75L443.25 1902.21C555.317 1890.11 656.589 1805.38 688.454 1697.26Z" fill="#259B5F"/>
<path d="M465.44 1670.44C477.287 1681.51 492.299 1688.61 508.377 1690.73C529.179 1693.63 550.376 1690.72 569.633 1682.34C603.738 1667.46 630.452 1640.65 656.783 1614.49C683.114 1588.32 710.389 1561.51 744.842 1547.98C768.143 1539.12 793.379 1536.61 817.97 1540.7C842.561 1544.79 865.625 1555.34 884.803 1571.26C883.901 1567.45 883.565 1563.52 883.805 1559.61C883.653 1544.31 884.467 1518.77 883.467 1513.79C879.65 1491.78 869.828 1471.25 855.085 1454.47C845.728 1444.67 834.462 1436.88 821.98 1431.6C754.345 1402.98 673.567 1444.67 634.425 1501.01C609.732 1536.47 597.37 1579.3 573.552 1615.29C549.735 1651.29 507.074 1681.79 465.44 1670.44Z" fill="#31335D"/>
<path d="M508.377 1690.73C529.179 1693.62 550.376 1690.72 569.633 1682.34C603.738 1667.46 630.452 1640.65 656.783 1614.48C683.114 1588.32 710.389 1561.51 744.842 1547.98C768.143 1539.12 793.379 1536.61 817.97 1540.7C842.561 1544.79 865.625 1555.34 884.803 1571.26C883.901 1567.45 883.565 1563.52 883.805 1559.61C871.95 1532.31 849.982 1510.67 822.511 1499.22C795.039 1487.77 764.201 1487.4 736.467 1498.2C688.353 1516.74 658.847 1563.95 626.291 1603.88C601.035 1634.91 571.567 1663.47 535.522 1680.62C526.797 1684.8 517.711 1688.19 508.377 1690.73Z" fill="#1A1C43"/>
<path d="M376.755 1343.06C377.389 1377.06 385.702 1410.46 401.07 1440.79C416.071 1471.47 440.653 1496.43 471.1 1511.9C532.799 1541.73 605.567 1523.03 672.123 1506.87C738.68 1490.72 815.182 1479.3 870.228 1520.04C904.212 1545.07 923.467 1586.28 930.641 1627.87C937.815 1669.47 934.201 1712.16 930.648 1754.3C932.233 1735.76 947.575 1711.92 953.034 1693.32C957.241 1679.2 961.045 1664.22 964.289 1648.68C980.436 1569.42 980.754 1476.71 930.082 1414.81C877.64 1350.91 784.641 1321.56 704.219 1336.78C665.086 1344.23 628.5 1361.2 591.432 1375.81C554.364 1390.41 515.176 1402.78 475.324 1400.55C435.471 1398.31 395.011 1378.73 376.755 1343.06Z" fill="#56BE89"/>
<path d="M401.071 1440.79C416.072 1471.47 440.654 1496.43 471.101 1511.9C532.8 1541.73 605.568 1523.03 672.124 1506.87C738.681 1490.72 815.183 1479.3 870.229 1520.04C904.213 1545.07 923.468 1586.28 930.642 1627.87C937.816 1669.47 934.202 1712.16 930.649 1754.3C932.234 1735.76 947.576 1711.92 953.035 1693.32C957.242 1679.2 961.046 1664.22 964.29 1648.68C961.807 1614.18 953.552 1580.34 939.869 1548.58C904.464 1467.94 822.05 1404.35 734.234 1409.89C644.721 1415.54 564.601 1487.99 475.941 1474.4C448.468 1469.96 422.648 1458.37 401.071 1440.79Z" fill="#259B5F"/>
<path d="M328.454 1779.9C335.982 1819.29 356.64 1854.97 387.056 1881.11C408.846 1900.39 434.601 1914.65 462.504 1922.89C528.624 1942.24 602.119 1927.61 660.755 1891.48C719.391 1855.35 764.103 1799.38 794.854 1737.78C813.451 1700.52 827.26 1660.35 851.069 1626.1C865.991 1604.33 894.672 1581.1 915.781 1564.77C930.496 1554.52 946.109 1545.63 962.427 1538.2C977.535 1531.42 991.509 1527.5 996.41 1532.73C933.721 1464.56 791.542 1409.41 705.645 1466.11C689.351 1477.32 675.909 1492.19 666.397 1509.54C642.168 1551.97 637.467 1603.77 625.983 1650.44C609.814 1715.48 577.498 1780.46 516.382 1813.69C455.265 1846.92 368.441 1836.98 328.454 1779.9Z" fill="#31335D"/>
<path d="M387.06 1881.11C408.85 1900.39 434.605 1914.65 462.508 1922.89C528.628 1942.24 602.123 1927.61 660.759 1891.48C719.395 1855.35 764.107 1799.38 794.858 1737.78C813.455 1700.52 827.264 1660.35 851.073 1626.1C865.995 1604.32 894.676 1581.1 915.785 1564.77C930.5 1554.52 946.112 1545.63 962.431 1538.2C925.865 1523.92 886.92 1518.61 849.399 1528.92C797.909 1543.09 758.315 1584.61 730.454 1629.94C702.592 1675.27 684.238 1725.91 658.764 1772.75C633.289 1819.6 598.598 1864.1 549.926 1885.94C498.795 1909.14 438.769 1903.26 387.06 1881.11Z" fill="#1A1C43"/>
<path d="M443.771 1976.36C471.168 1983.43 493.259 2001.07 521.417 2006.92C533.587 2009.38 545.932 2010.87 558.337 2011.38C626.832 2013.97 693.679 1990 744.924 1944.48C798.628 1895.07 800.806 1809.68 819.255 1743.77C838.64 1674.53 874.551 1601.98 941.504 1575.64C958.741 1568.78 984.889 1578.09 984.148 1552.49C984.165 1551.11 984.071 1549.72 983.866 1548.35C980.169 1517.43 921.581 1495.44 896.34 1489.17C873.157 1483.55 849.086 1482.6 825.532 1486.38C801.978 1490.15 779.411 1498.58 759.147 1511.17C686.214 1557.42 656.916 1649.36 649.932 1735.9C645.319 1793.57 651.055 1877.92 611.756 1924.02C572.456 1970.12 502.628 1991.52 443.771 1976.36Z" fill="#56BE89"/>
<path d="M558.583 2011.41C626.998 2013.93 693.746 1989.95 744.923 1944.48C798.628 1895.07 800.806 1809.68 819.255 1743.77C838.64 1674.53 874.551 1601.98 941.504 1575.64C958.741 1568.78 984.888 1578.09 984.148 1552.49C936.146 1536.2 883.913 1537.53 836.798 1556.23C789.683 1574.93 750.76 1609.79 726.997 1654.56C674.934 1752.06 699.903 1884.47 625.609 1966.12C606.955 1986.06 584.045 2001.54 558.583 2011.41Z" fill="#259B5F"/>
<path d="M873.567 480.514C875.436 518.57 882.564 556.184 894.749 592.285C907.831 632.246 929.337 668.933 957.814 699.869C1012.6 758.294 1100.51 788.884 1176.1 762.419C1219.16 747.404 1254.43 716.146 1287.15 684.373C1351.88 621.567 1412.52 552.372 1489.57 505.209C1517.94 487.771 1548.61 474.385 1580.69 465.439C1596.61 461.016 1612.89 457.956 1629.33 456.293C1641.07 455.124 1664.86 460.055 1674.97 454.762C1675.68 454.43 1676.36 454.062 1677.03 453.66C1726.9 424.338 1589.61 367.715 1570.8 361.955C1506.11 342.566 1436.71 334.875 1370.96 349.544C1305.21 364.213 1242.5 402.323 1206.24 459.177C1177.59 503.976 1164.23 560.716 1122.78 594.077C1081.33 627.438 1018.79 628.086 971.574 602.933C924.362 577.779 891.267 530.943 873.567 480.514Z" fill="#56BE89"/>
<path d="M894.711 592.468C907.794 632.428 929.3 669.115 957.776 700.051C1012.56 758.476 1100.47 789.066 1176.06 762.601C1219.12 747.585 1254.39 716.328 1287.12 684.555C1351.84 621.749 1412.48 552.554 1489.53 505.391C1517.91 487.953 1548.58 474.567 1580.65 465.621C1596.58 461.198 1612.85 458.138 1629.29 456.475C1641.03 455.306 1664.83 460.237 1674.94 454.944C1675.64 454.612 1676.33 454.244 1676.99 453.842C1626.59 420.342 1566.06 405.522 1505.88 411.948C1415.39 421.684 1333.91 474.15 1273.04 541.971C1237.49 581.518 1207.07 626.593 1164.69 659.576C1094.12 714.372 1019.85 703.924 952.999 648.881C932.06 631.701 912.565 612.834 894.711 592.468Z" fill="#259B5F"/>
<path d="M786.152 888.911C787.058 853.116 857.424 827.808 884.616 827.798C891.763 827.787 898.958 828.166 906.043 828.775C953.526 832.863 1000.67 848.961 1048.82 851.288C1115.38 854.866 1205.65 847.804 1259.41 804.219C1311.44 761.993 1331.15 692.246 1350.85 631.033C1361.32 596.131 1374.38 562.055 1389.9 529.088C1407.31 494.223 1431.96 470.177 1455.71 441.208L1458.87 437.421C1443.09 427.91 1419.52 427.829 1401.81 432.22L1397.79 433.684C1351.83 448.049 1320.51 503.248 1294.4 540.783C1239.04 620.782 1171.79 722.407 1064.39 729.74C991.052 734.719 906.989 714.201 844.63 767.177C827.027 782.349 812.746 800.993 802.684 821.94C792.621 842.888 786.993 865.687 786.152 888.911Z" fill="#56BE89"/>
<path d="M906.043 828.775C953.526 832.863 1000.67 848.961 1048.82 851.288C1115.38 854.866 1205.65 847.804 1259.41 804.219C1311.44 761.993 1331.15 692.247 1350.85 631.033C1361.32 596.131 1374.38 562.055 1389.9 529.088C1407.31 494.223 1431.96 470.178 1455.71 441.208C1409.92 448.779 1368.64 481.29 1340.57 519.757C1308.02 564.463 1288.88 617.254 1264.5 666.899C1235.41 726.089 1190.58 779.317 1128.89 806.124C1055.78 838.465 990.073 822.224 906.043 828.775Z" fill="#259B5F"/>
<path d="M1153.26 420.277C1162.87 441.049 1178.5 458.457 1198.12 470.247C1239.62 494.563 1291.89 491.209 1338.05 477.768C1384.2 464.326 1427.47 442.018 1473.73 429.293C1550.12 409.43 1631.08 417.181 1702.32 451.179C1708.9 454.279 1716.74 459.593 1725.07 463.742C1731.49 467.421 1738.77 469.307 1746.16 469.203C1762.77 467.751 1759.8 449.889 1758.95 437.198C1757.18 403.465 1748.26 370.495 1732.77 340.477C1715.48 306.377 1689.79 277.249 1658.11 255.845C1619.76 231.329 1575.07 218.598 1529.56 219.229C1484.05 219.861 1439.72 233.826 1402.07 259.397C1373.68 279.4 1350.26 305.842 1323.97 328.292C1297.69 350.742 1266.7 370.788 1232.09 373.725C1197.48 376.662 1159.34 358.272 1148.74 325.275C1142.93 340.573 1140.34 356.903 1141.12 373.247C1141.9 389.59 1146.03 405.599 1153.26 420.277Z" fill="#56BE89"/>
<path d="M1153.26 420.276C1162.87 441.049 1178.5 458.457 1198.12 470.246C1239.62 494.562 1291.89 491.209 1338.05 477.767C1384.2 464.325 1427.47 442.017 1473.73 429.293C1550.12 409.43 1631.08 417.18 1702.32 451.178C1708.9 454.278 1716.74 459.593 1725.07 463.741C1715.99 412.523 1690.6 365.61 1652.68 329.994C1595.12 277.52 1505.33 259.385 1435.14 293.834C1389.76 316.285 1356.45 356.286 1317.65 388.728C1278.85 421.17 1227.43 447.207 1179.13 432.456C1169.98 429.619 1161.28 425.52 1153.26 420.276Z" fill="#259B5F"/>
<path d="M1003.75 512.18C991.34 570.186 1001.61 634.227 1035.85 681.989C1040.96 689.118 1046.59 695.857 1052.71 702.15C1100.15 750.873 1180.72 767.714 1239.72 733.597C1265.2 718.888 1285.16 696.426 1302.58 672.817C1334.24 629.069 1357.63 579.921 1388.35 535.539C1419.84 490.114 1461.78 448.695 1516.9 435.039C1562.91 423.53 1619.33 432.838 1668.91 448.478C1677.34 451.192 1685.61 454.064 1693.62 457.009C1703.72 460.82 1713.41 464.801 1722.4 468.829C1712.74 464.43 1703.33 459.49 1694.22 454.032C1668.15 438.776 1641.71 419.4 1618.63 404.369C1599.1 391.62 1578.23 381.045 1556.4 372.83C1499.87 351.549 1438.02 347.53 1379.5 368.339C1348.2 378.725 1320.12 397.01 1297.96 421.425C1275.46 447.675 1262.43 480.579 1250.2 512.949C1237.97 545.32 1225.5 578.274 1203.81 605.193C1182.12 632.113 1148.96 652.289 1114.48 649.246C1092.39 646.448 1071.75 636.724 1055.53 621.469C1040.04 607.634 1027.48 590.835 1018.58 572.065C1009.69 553.294 1004.65 532.932 1003.75 512.18Z" fill="#31335D"/>
<path d="M1035.86 681.929C1040.96 689.078 1046.59 695.837 1052.7 702.15C1100.15 750.873 1180.72 767.714 1239.71 733.596C1265.19 718.888 1285.16 696.426 1302.57 672.817C1334.24 629.069 1357.63 579.921 1388.34 535.539C1419.84 490.114 1461.78 448.695 1516.89 435.039C1562.91 423.53 1619.33 432.838 1668.91 448.478C1630.95 414.722 1584.48 391.998 1534.53 382.768C1474.71 372.773 1409.77 387.48 1364.49 427.908C1319.21 468.336 1297.94 528.282 1270.98 582.213C1244.03 636.144 1203.42 691.617 1144.12 703.478C1107.76 710.994 1069.63 700.699 1037.16 682.697L1035.86 681.929Z" fill="#1A1C43"/>
<path d="M1736.83 418.594C1736.83 418.594 1799.11 404.297 1841.93 443.125C1846.21 303.288 1868.27 143.372 1857.23 140.714C1846.18 138.057 1736.83 418.594 1736.83 418.594Z" fill="white"/>
<g style="mix-blend-mode:multiply" opacity="0.2">
<path d="M1841.93 443.124C1846.21 303.287 1868.27 143.371 1857.23 140.714C1857.23 140.714 1838.43 284.722 1829 355.661C1819.57 426.601 1775.52 387.734 1736.99 418.304C1736.84 418.594 1799.11 404.296 1841.93 443.124Z" fill="#939393"/>
</g>
<path d="M1762.55 365.181C1755.75 361.771 1732.71 330.059 1722.04 314.628L1717.12 316.266L1706.93 361.184L1701.83 362.882L1667.99 329.965L1659.97 332.633L1641.8 405.328L1631.4 408.785C1363.6 546.447 1416.23 732.155 1427.7 915.336C1439.18 1098.52 1348.56 1172.61 1348.56 1172.61C1348.56 1172.61 1343.05 1177.91 1218.96 1281.43C1137.53 1349.36 1058.1 1314 989.836 1365.83C933.252 1408.78 883.674 1516.06 869.937 1570.6C864.73 1626.43 851.971 1752.35 842.592 1809.44C830.869 1880.8 761.431 1908.35 736.5 1920.49C716.555 1930.2 705.885 2002.86 703.043 2037.97C698.752 2058.58 689.645 2106.12 687.535 2131.46C685.426 2156.8 666.242 2239.03 656.915 2276.98L627.592 2393.5C624.955 2396.94 614.55 2405.69 594.023 2413.17C573.496 2420.64 570.858 2448.29 572.105 2461.18L582.841 2493.47C588.153 2516.35 605.09 2558.56 630.339 2544.33C655.588 2530.1 670.878 2495.87 675.367 2480.53C685.198 2448.36 707.283 2375.96 716.984 2343.72C726.684 2311.48 760.99 2208.81 776.93 2161.51C786.982 2130.41 808.756 2063.73 815.431 2045.79C822.107 2027.85 867.228 2009.45 888.954 2002.5C891.644 2008.16 892.212 2035.7 872.956 2100.61C853.701 2165.52 849.629 2275.37 850 2322.18C853.389 2343.14 852.762 2386.91 823.141 2394.33C793.521 2401.74 789.669 2421.19 791.445 2429.99C794.296 2438.15 802.667 2462.76 813.341 2495.84C824.016 2528.92 835.524 2530.47 839.943 2527.11C888.77 2505.81 897.067 2464.97 900.25 2434.94C903.432 2404.91 918.686 2327.1 917.235 2316.04C915.784 2304.97 933.442 2263.65 942.227 2219.4C950.78 2176.32 994.018 2045.29 1001.98 2021.16L1002.55 2019.43C1008.7 2000.77 1080.05 1944.23 1137.23 1885.92C1193.98 1828.05 1223.56 1747.88 1228.17 1735.38L1228.28 1735.1C1232.54 1723.55 1237.62 1674.26 1313.44 1645.2L1321.48 1642.12C1398.95 1612.43 1533.14 1561 1557.51 1552.5C1582.74 1543.71 1648.24 1503.7 1653.16 1502.06C1658.09 1500.42 1706.93 1457.24 1713.5 1455.06C1720.06 1452.87 1765.38 1401.54 1773.47 1396.62C1781.56 1391.7 1836.57 1395.7 1868.6 1395.79C1900.64 1395.88 1985.32 1389.8 2010.43 1386.12C2035.53 1382.43 2090.67 1375.24 2132.01 1376.49C2173.34 1377.74 2182 1421.46 2193.84 1437.58C2203.32 1450.47 2222.83 1508.1 2231.4 1535.3L2265.67 1638.38C2267.95 1645.24 2266.04 1649.67 2264.81 1651.02C2263.35 1651.91 2258.13 1654.21 2248.94 1656.3C2237.45 1658.9 2232.03 1664.55 2224.49 1679.01C2218.45 1690.59 2226.57 1707.83 2231.39 1715.01C2247.95 1731.93 2282.96 1767.52 2290.49 1774.58C2299.91 1783.4 2306.41 1784.07 2310.48 1782.31C2314.56 1780.55 2325.46 1751.81 2333.32 1727.31C2339.61 1707.72 2332.5 1661.68 2328.15 1641.1C2325.75 1630.22 2319.57 1604.21 2314.09 1587.23C2308.61 1570.25 2291.15 1503.82 2283.11 1472.73C2277.37 1450.59 2265.49 1403.38 2263.84 1391.61C2262.2 1379.84 2267.44 1351.65 2270.26 1339.03C2269.51 1293.5 2240.88 1290.25 2238.51 1286.78C2236.14 1283.32 2202.11 1275.38 2194.32 1276.35C2188.1 1277.12 2152.02 1266.51 2134.76 1261.1C2156.41 1248.72 2223.88 1235.66 2254.9 1230.68C2258.77 1233.79 2274.6 1246.42 2306.97 1272.13C2339.33 1297.83 2366.32 1343.63 2375.77 1363.31C2387.77 1375.04 2413.72 1419.38 2425.19 1440.08C2433.6 1451.53 2446.21 1475.51 2429.48 1479.78C2412.75 1484.04 2409.77 1501.32 2410.37 1509.43C2441.52 1558.03 2517.67 1578.09 2519.68 1577.43C2535.98 1563.09 2526.4 1533.66 2526.46 1528.98C2526.53 1524.3 2527.09 1505.27 2528.13 1491.35C2529.17 1477.43 2504.03 1442.03 2498.45 1433.15C2492.86 1424.26 2457.7 1373.35 2450.6 1361.13C2443.5 1348.9 2433.37 1317.83 2420.37 1303.71C2409.97 1292.42 2388.6 1251.4 2379.21 1232.31C2376.59 1216.29 2369.13 1179.46 2360.3 1160.19C2349.25 1136.1 2301.42 1117.77 2276.68 1126.8C2251.93 1135.84 2186.4 1136.76 2164.7 1137.9C2143 1139.04 2105.01 1138.7 2085.74 1134.37C2066.48 1130.04 1991.77 1128.33 1959.06 1131.1C1932.9 1133.32 1902.25 1130.81 1890.2 1129.28C1883.54 1046.4 1833.91 955.327 1809.93 920.148C1808.82 915.993 1799.02 894.399 1768.71 841.265C1738.4 788.13 1721.92 703.386 1717.47 667.656C1749.75 666.649 1821.37 649.928 1852.74 641.929C1884.11 633.93 1913.3 618.755 1936.78 601.631C1960.25 584.506 1996.52 615.601 1998.46 616.576C2038.57 629.01 2068.56 598.739 2078.54 582.049C2078.31 576.659 2079.79 559.836 2087.64 535.671C2097.44 505.464 2070.43 462.582 2044.47 465.54C2018.51 468.498 1912.76 439.23 1893.98 437.573C1875.2 435.916 1853.94 412.189 1819.36 398.361C1784.79 384.532 1771.06 369.444 1762.55 365.181Z" fill="white"/>
<path d="M2224.49 1679.02C2218.45 1690.59 2249.08 1732.85 2253.9 1740.02L2296.43 1697.43C2295.62 1683.76 2270.87 1510.24 2263.89 1485.99C2256.91 1461.74 2201.28 1376.08 2188.67 1350.2C2176.05 1324.32 2026 1325.78 1996.63 1320.51C1967.27 1315.23 1727.81 1348.45 1720.72 1363.9C1713.62 1379.35 1390.76 1509.67 1266.7 1563.1C1167.46 1605.85 1139.03 1796.12 1137.23 1885.92C1193.98 1828.05 1223.56 1747.88 1228.17 1735.38L1228.28 1735.1C1232.54 1723.56 1237.62 1674.26 1313.44 1645.2L1321.45 1642.13C1398.91 1612.44 1533.14 1561 1557.51 1552.5C1582.74 1543.71 1648.24 1503.7 1653.16 1502.06C1658.09 1500.42 1706.93 1457.24 1713.49 1455.06C1720.06 1452.87 1765.38 1401.54 1773.47 1396.62C1781.56 1391.7 1836.57 1395.7 1868.6 1395.79C1900.64 1395.88 1985.32 1389.8 2010.43 1386.12C2035.53 1382.43 2090.67 1375.24 2132.01 1376.49C2173.34 1377.74 2182 1421.46 2193.84 1437.58C2203.32 1450.47 2222.83 1508.1 2231.4 1535.3L2265.67 1638.38C2267.95 1645.24 2266.04 1649.67 2264.81 1651.02C2263.35 1651.91 2258.13 1654.21 2248.94 1656.3C2237.45 1658.9 2232.03 1664.55 2224.49 1679.02Z" fill="#E0DBE2"/>
<path d="M1888.71 1130.56C1862.54 1132.77 1816.05 1156.34 1804 1154.81C1763.05 1224.65 2017.33 1241.94 2134.77 1261.1C2156.41 1248.72 2223.88 1235.66 2254.9 1230.68C2258.77 1233.79 2274.6 1246.42 2306.97 1272.13C2339.33 1297.83 2366.32 1343.63 2375.77 1363.31C2387.77 1375.04 2413.72 1419.38 2425.19 1440.08C2433.6 1451.53 2446.21 1475.51 2429.48 1479.78C2412.75 1484.04 2409.77 1501.32 2410.37 1509.43C2441.52 1558.03 2517.67 1578.09 2519.68 1577.43C2535.98 1563.09 2526.4 1533.66 2526.46 1528.98C2526.53 1524.3 2527.09 1505.27 2528.13 1491.35C2529.17 1477.43 2504.03 1442.03 2498.45 1433.15C2492.86 1424.26 2457.7 1373.35 2450.6 1361.13C2443.5 1348.9 2433.37 1317.83 2420.37 1303.71C2409.97 1292.42 2388.6 1251.4 2379.21 1232.31C2376.59 1216.29 2369.13 1179.46 2360.3 1160.19C2349.25 1136.11 2301.42 1117.77 2276.68 1126.8C2251.93 1135.84 2186.4 1136.76 2164.7 1137.9C2143 1139.04 2105.01 1138.7 2085.74 1134.37C2066.48 1130.04 1921.41 1127.79 1888.71 1130.56Z" fill="#E0DBE2"/>
<path d="M2526.46 1528.98C2526.52 1524.3 2527.09 1505.27 2528.13 1491.35L2436.93 1464.72C2438.59 1468.19 2439.42 1476.06 2429.48 1479.78C2412.75 1484.04 2409.77 1501.32 2410.37 1509.43C2441.52 1558.03 2517.67 1578.09 2519.68 1577.43C2535.98 1563.09 2526.4 1533.66 2526.46 1528.98Z" fill="#259B5F"/>
<path d="M815.111 2046.23C821.786 2028.29 866.907 2009.9 888.633 2002.95C877.475 1934.76 831.362 1822.89 736.179 1920.93C716.234 1930.64 705.564 2003.3 702.722 2038.42C698.432 2059.03 689.324 2106.57 687.215 2131.91C685.105 2157.25 665.922 2239.48 656.594 2277.42L627.271 2393.94C624.635 2397.39 614.23 2406.14 593.703 2413.61C573.176 2421.09 570.538 2448.73 571.785 2461.62L582.52 2493.91C587.833 2516.8 604.769 2559 630.018 2544.77C655.267 2530.55 670.558 2496.31 675.047 2480.98C684.877 2448.81 706.963 2376.4 716.663 2344.16C726.364 2311.93 760.67 2209.26 776.61 2161.95C786.662 2130.86 808.436 2064.17 815.111 2046.23Z" fill="#E8E6E6"/>
<g style="mix-blend-mode:multiply">
<path d="M1890.24 1129.54C1890.24 1129.54 1887.38 1040.48 1811.87 924.239C1806.29 916.207 1783.01 866.749 1778.43 858.602C1799.62 962.531 1838.86 1080.24 1804.04 1155.61L1890.24 1129.54Z" fill="#E0DBE2"/>
</g>
<path d="M629.153 2545.6C654.402 2531.37 669.664 2499.44 674.153 2484.1L627.153 2394.1C624.517 2397.54 610.18 2407.13 589.653 2414.6C569.126 2422.07 567.906 2448.21 569.153 2461.1L579.18 2493.21C584.493 2516.09 603.904 2559.83 629.153 2545.6Z" fill="#259B5F"/>
<path d="M839.653 2527.6C876.046 2514.55 895.653 2475.1 895.653 2462.1L836.153 2387.6C794.653 2399.1 789.554 2420.48 791.33 2429.28C794.181 2437.45 802.552 2462.06 813.226 2495.14C823.901 2528.22 835.234 2530.96 839.653 2527.6Z" fill="#259B5F"/>
<path d="M2310.51 1782.92C2314.58 1781.16 2331.74 1743.54 2335.54 1714.76L2265.13 1650.7C2263.67 1651.59 2258.45 1653.9 2249.26 1655.98C2237.77 1658.58 2232.36 1664.23 2224.81 1678.7C2218.77 1690.27 2226.6 1708.44 2231.42 1715.62C2247.98 1732.53 2282.98 1768.13 2290.52 1775.18C2299.93 1784.01 2306.44 1784.68 2310.51 1782.92Z" fill="#259B5F"/>
<path d="M1698.4 361.616C1743.88 315.817 1810.49 303.453 1851.87 362.738C1893.26 422.023 1918.44 468.238 1972.55 458.017C1955.12 471.677 1906.92 477.339 1851.27 435.007C1857.33 448.807 1866.63 460.945 1878.37 470.39C1890.11 479.835 1903.96 486.311 1918.74 489.267C1918.74 489.267 1824.29 505.134 1769.1 426.068C1722.61 359.172 1698.4 361.616 1698.4 361.616Z" fill="#259B5F"/>
<path d="M1769.1 426.068C1824.29 505.134 1918.74 489.267 1918.74 489.267C1903.96 486.311 1890.11 479.835 1878.37 470.39C1866.63 460.945 1857.33 448.807 1851.27 435.007C1906.92 477.339 1955.12 471.677 1972.55 458.017C1918.45 468.238 1893.26 422.024 1851.87 362.738C1840.61 345.519 1823.82 332.655 1804.26 326.272C1858.94 347.559 1864.46 421.71 1898.43 450.565C1864.55 446.96 1835.12 403.804 1835.12 403.804C1829.53 411.172 1826.76 420.293 1827.31 429.523C1827.86 438.753 1831.68 447.484 1838.1 454.14C1786.15 429.661 1763.53 351.921 1698.41 361.784C1698.4 361.617 1722.61 359.172 1769.1 426.068Z" fill="#31335D"/>
<path d="M2036.45 551.062C2036.42 552.694 2035.91 554.281 2034.99 555.628C2034.07 556.976 2032.77 558.026 2031.26 558.651C2029.76 559.275 2028.1 559.447 2026.5 559.145C2024.89 558.843 2023.41 558.08 2022.23 556.95C2021.06 555.82 2020.23 554.372 2019.86 552.781C2019.5 551.191 2019.6 549.528 2020.16 547.995C2020.72 546.462 2021.72 545.126 2023.02 544.15C2024.33 543.174 2025.9 542.6 2027.53 542.498C2029.84 542.463 2032.08 543.343 2033.75 544.946C2035.42 546.549 2036.39 548.747 2036.45 551.062Z" fill="#3A3A3A"/>
<path d="M1811.91 503.938C1811.91 503.938 1788.83 521.185 1741.8 485.496L1714.54 494.515L1742.13 498.98C1742.13 498.98 1787.91 536.257 1811.91 503.938Z" fill="#3A3A3A"/>
<path d="M1050.55 912.528C1063.15 931.664 1080.11 947.539 1100.04 958.852C1135.33 978.978 1176.41 986.491 1216.54 980.152C1279.08 970.18 1333.59 929.777 1370.86 878.769C1408.13 827.762 1429.54 766.896 1443.27 705.259C1453.85 658.535 1460.61 610.681 1476.63 565.462C1487.5 534.267 1502.39 505.851 1527.93 484.165C1556.22 459.977 1591.76 445.907 1628.94 444.183C1666.12 442.458 1702.81 453.175 1733.21 474.641C1732.03 473.745 1730.9 472.781 1729.82 471.753C1722.7 464.874 1716.76 454.797 1709.83 448.313C1665.32 406.545 1600.36 389.355 1540.17 396.869C1471.1 405.615 1409.67 448.532 1367.29 503.665C1324.91 558.797 1299.78 625.258 1281.81 692.444C1270.9 732.812 1262.32 773.996 1246.49 812.651C1230.65 851.306 1205.76 887.721 1170.08 909.485C1134.4 931.249 1085.68 935.076 1050.55 912.528Z" fill="#56BE89"/>
<path d="M1099.21 957.839C1099.56 957.961 1099.63 958.511 1099.86 958.789C1135.15 978.915 1176.23 986.428 1216.36 980.089C1278.9 970.118 1333.42 929.714 1370.68 878.707C1407.95 827.699 1429.36 766.833 1443.1 705.196C1453.67 658.472 1460.43 610.619 1476.45 565.4C1487.32 534.204 1502.21 505.788 1527.76 484.102C1556.04 459.914 1591.58 445.845 1628.76 444.12C1665.94 442.395 1702.63 453.113 1733.03 474.578C1731.85 473.682 1730.72 472.718 1729.64 471.69C1687.29 446.217 1637.57 435.829 1588.56 442.216C1519.48 450.961 1458.1 493.957 1415.73 549.031C1373.37 604.105 1348.22 670.625 1330.26 737.811C1319.34 778.179 1310.76 819.363 1294.56 857.954C1278.35 896.545 1253.83 933.024 1218.17 954.73C1182.52 976.435 1134.28 980.563 1099.21 957.839Z" fill="#259B5F"/>
</svg>
