<svg version="1.1" id="Layer_1" xmlns="http://www.w3.org/2000/svg" xmlns:xlink="http://www.w3.org/1999/xlink" x="0" y="0" width="59.3" height="59.2" style="enable-background:new 0 0 59.3 59.2" xml:space="preserve"><style>.st2{fill:#bfb7d8}.st3{fill:#b6add2}.st4{fill:#b2a9d0}.st5{fill:#8d82b7}.st6{fill:#796faa}.st7{fill:#6a609f}.st8{fill:#605898}.st9{fill:#605797}.st10{fill:#8a80b6}.st12{fill:#665d9d}.st14{fill:#5a5293}.st17{fill:#585092}.st18{fill:#575092}.st19{fill:#534c8e}.st20{fill:#b5acd2}.st21{fill:#8d83b8}.st22{fill:#7268a5}.st23{fill:#5f5797}.st25{fill:#736aa6}.st26{fill:#615899}.st28{fill:#564f91}.st30{fill:#b7aed3}.st31{fill:#9187ba}.st32{fill:#776da8}.st33{fill:#655c9c}.st34{fill:#5a5294}.st35{fill:#b8b0d4}.st38{fill:#5e5697}.st39{fill:#b9b0d4}.st40{fill:#9b91c1}.st42{fill:#746ba7}.st43{fill:#bab2d5}.st45{fill:#887eb4}.st47{fill:#7b71ac}.st49{fill:#7067a4}.st50{fill:#69609f}.st51{fill:#6b62a0}.st52{fill:#bab3d6}.st53{fill:#a198c5}.st54{fill:#bbb3d6}.st56{fill:#8e84b8}.st57{fill:#8076af}.st58{fill:#958bbd}.st59{fill:#bdb6d7}.st60{fill:#beb7d8}.st63{fill:#786da9}.st64{fill:#8379b1}.st65{fill:#7f75ae}.st66{fill:#9389bc}.st67{fill:#a89fca}.st71{fill:#524b8d}.st74{fill:#5d5595}.st75{fill:#5e5696}.st76{fill:#635b9a}.st77{fill:#675e9d}.st78{fill:#6a619f}.st79{fill:#6c63a1}.st81{fill:#7e74ad}.st84{fill:#6e65a2}.st85{fill:#756ba7}.st87{fill:#8a81b6}.st89{fill:#8177af}.st90{fill:#867cb3}.st91{fill:#968cbe}.st93{fill:#a49bc7}.st94{fill:#a097c5}.st95{fill:#ada4cc}.st96{fill:#9a90c0}.st97{fill:#b0a8cf}.st98{fill:#b1a8cf}.st101{fill:#a399c6}.st102{fill:#aea5ce}.st107{fill:#857bb2}.st108{fill:#8c82b7}.st110{fill:#a79ec9}.st111{fill:#aca3cc}.st112{fill:#7c72ac}.st119{fill:#7269a5}.st120{fill:#7066a4}.st122{fill:#887db4}.st123{fill:#9e94c3}.st125{fill:#615898}.st126{fill:#615999}.st131{fill:#9f96c4}.st135{fill:#c5bedc}.st138{fill:#645b9a}.st145{fill:#d1cbe4}.st147{fill:#d4cee5}.st151{fill:#655c9b}</style><g id="g3344"><g id="g6470"><g id="g3370"><g id="g3372"><g id="g3378"><g id="g3380"><linearGradient id="path3392_1_" gradientUnits="userSpaceOnUse" x1="-1031.725" y1="138.389" x2="-1031.505" y2="138.389" gradientTransform="rotate(50 -64385.975 205909.884) scale(175.16)"><stop offset="0" style="stop-color:#1c63b7"/><stop offset=".25" style="stop-color:#1c63b7"/><stop offset=".85" style="stop-color:#00adef"/><stop offset="1" style="stop-color:#00adef"/></linearGradient><path id="path3392" d="M20.9 26.5c-1.3.9-2.7 1.7-4.2 2.4-1.4.7-2.5 1.2-3.9 1.8-3.9 1.6-9.8 3.6-11.1 4.1-.9.4-1.2.5-1.2.8.2.2.7.4 2.5.3 6.1-.3 12.1.9 17.5 3.6 4.1 1.9 7.8 4.7 10.9 8 2-.8 3.9-1.8 5.6-3-1-4.3-3-8.3-5.8-11.8-2.6-2.9-5.7-5.3-9.1-7.1.1 0-1.2.9-1.2.9z" style="fill:url(#path3392_1_)"/></g></g></g></g><g id="g3394"><defs><path id="SVGID_1_" d="M29.7.1c-.6.1-1.3.4-1.2.9.2.5.8.6 1.3.6 3.7 0 7.3 1 10.4 3 3.5 2.2 6.4 5.4 8.2 9.2 1.1 2.3 1.7 4.8 1.8 7.3v.9c0 1.5-.1 3-.4 4.5-.2 1.4-.6 2.8-1.2 4.1-1.2 2.8-2.9 5.5-4.8 7.9-.5.6-1 1.1-1.5 1.7-2.6 2.7-5.7 5-9.1 6.6-1.7.8-3.6 1.5-5.4 2-2.6.7-5.2 1.1-7.9 1.2h-1.8c-2.9 0-5.8-.3-8.6-.9-.9-.2-1.7-.5-2.5-.8-.4-.2-.5-.4-.5-.5 0 .1.1.1.1.2 2 2.6 4.4 4.8 7.2 6.5 2.8 1.8 5.9 3.1 9.1 3.9 1.4.3 2.7.6 4.1.7 2 .2 4.1.2 6.1-.1 3.4-.4 6.7-1.3 9.7-2.8 3-1.4 5.7-3.4 8-5.7 1.5-1.5 2.9-3.2 4-5.1.7-1.1 1.3-2.2 1.8-3.3.4-.8.8-1.7 1.1-2.6.8-2.1 1.3-4.3 1.5-6.5.1-1.2.2-2.3.2-3.5 0-1.1-.1-2.3-.2-3.4-.2-2.2-.7-4.4-1.4-6.6-.7-2.1-1.7-4.1-2.9-5.9-1.2-1.8-2.6-3.5-4.1-5.1-1.2-1.2-2.4-2.2-3.8-3.2-1.3-1-2.8-1.8-4.2-2.5-.9-.4-1.8-.8-2.8-1.1-.6-.2-1.3-.4-2-.7-1.6-.5-3.3-.8-5-1h-1.5c-.7 0-1.3.1-1.8.1"/></defs><clipPath id="SVGID_2_"><use xlink:href="#SVGID_1_" style="overflow:visible"/></clipPath><g style="clip-path:url(#SVGID_2_)"><g id="g3396"><g id="g3402"><g id="g3404"><g id="g3406"><path id="path3408" class="st2" d="M6.3 47.8c0 .1 0 .1.1.2 0 .1.1.3.2.3 0-.1-.1-.1-.1-.2-.1-.1-.2-.2-.2-.3z"/><path id="path3410" class="st2" d="M6.4 48c2 2.6 4.4 4.8 7.2 6.5 0 0 .3.1.4.2-2.8-1.7-5.2-3.9-7.3-6.4-.2-.1-.3-.2-.3-.3z"/><path id="path3412" class="st3" d="M6.5 48.1c0 .1.1.1.1.2.1.1.2.1.3.2 0-.1-.1-.1-.1-.2-.1-.1-.2-.1-.3-.2z"/><path id="path3414" class="st3" d="M6.7 48.3c2.1 2.5 4.6 4.7 7.4 6.4h.1C11.4 53 9 50.9 6.9 48.5c-.1-.1-.1-.2-.2-.2z"/><path id="path3416" class="st4" d="M6.8 48.3c0 .1 0 .1.1.2.8.4 1.6.7 2.5.8 0-.1-.1-.1-.1-.2-.9-.2-1.7-.5-2.5-.8z"/><path id="path3418" class="st4" d="M6.9 48.5c2 2.5 4.5 4.6 7.2 6.2.6.1 1.3.2 1.9.2-2.5-1.4-4.8-3.3-6.6-5.6-.9-.2-1.7-.4-2.5-.8z"/><path id="path3420" class="st5" d="M9.3 49.1c0 .1 0 .1.1.2.6.1 1.2.2 1.9.4 0 0-.1-.1-.1-.2-.7-.1-1.3-.2-1.9-.4z"/><path id="path3422" class="st6" d="M11.2 49.5c0 .1.1.1.1.2.7.1 1.4.2 2 .3 0 0-.1-.1-.1-.2-.7-.1-1.3-.2-2-.3z"/><path id="path3424" class="st7" d="M13.2 49.8c0 .1.1.1.1.2.7.1 1.4.1 2.1.2l-.1-.2c-.6-.1-1.4-.2-2.1-.2z"/><path id="path3426" class="st8" d="m15.3 49.9.1.2c.7 0 1.3.1 1.9.1l-.1-.2c-.6 0-1.2 0-1.9-.1z"/><path id="path3428" class="st5" d="M9.4 49.3c.9 1.1 1.9 2.2 3.1 3.1.6.1 1.2.1 1.9.2-1.1-.9-2.1-1.8-3.1-2.9-.6-.2-1.3-.3-1.9-.4z"/><path id="path3430" class="st6" d="M11.3 49.7c.9 1.1 1.9 2 3.1 2.9.7 0 1.4.1 2.1.1-1.1-.8-2.1-1.7-3.1-2.7-.7-.2-1.4-.2-2.1-.3z"/><path id="path3432" class="st7" d="M13.3 49.9c.9 1 2 1.9 3.1 2.7h2.1c-1.1-.8-2.1-1.6-3.1-2.6-.7.1-1.4 0-2.1-.1z"/><path id="path3434" class="st9" d="M15.4 50.1c.9 1 2 1.8 3.1 2.6.7 0 1.3 0 1.9-.1-1.1-.7-2.1-1.5-3-2.4-.6 0-1.3 0-2-.1z"/><path id="path3436" class="st10" d="M12.5 52.4c1.1.9 2.3 1.8 3.6 2.5H18c-1.2-.7-2.4-1.4-3.5-2.3-.8 0-1.4-.1-2-.2z"/><path id="path3438" d="M14.4 52.6c1.1.9 2.3 1.6 3.5 2.3.7 0 1.4-.1 2-.1-1.2-.6-2.4-1.3-3.5-2.1-.7 0-1.4 0-2-.1z" style="fill:#766ca7"/><path id="path3440" class="st12" d="M16.4 52.7c1.1.8 2.3 1.5 3.5 2.1.7 0 1.4-.1 2-.2-1.2-.5-2.4-1.1-3.5-1.9h-2z"/><path id="path3442" d="M18.5 52.7c1.1.8 2.3 1.4 3.5 1.9.6-.1 1.3-.2 1.8-.3-1.2-.4-2.4-1-3.4-1.7-.6 0-1.3 0-1.9.1z" style="fill:#5b5395"/><path id="path3444" class="st14" d="m17.2 50 .1.1h.8L18 50h-.8z"/><path id="path3446" d="M17.3 50.2h.8c.9.9 1.9 1.7 3 2.3l-.8.1c-1.1-.7-2.1-1.5-3-2.4z" style="fill:#595193"/><path id="path3448" d="m20.3 52.6.8-.1c1.1.7 2.2 1.2 3.5 1.6l-.8.2c-1.2-.5-2.4-1-3.5-1.7z" style="fill:#554d8f"/><path id="path3450" class="st17" d="m18 50 .1.1c.6 0 1.2 0 1.8-.1H18z"/><path id="path3452" class="st18" d="M18.1 50.2c.6 0 1.2 0 1.8-.1.9.8 1.9 1.6 3 2.2-.6.1-1.2.2-1.8.2-1-.7-2-1.5-3-2.3z"/><path id="path3454" class="st19" d="M21.1 52.5c.6 0 1.2-.1 1.8-.2 1 .6 2.2 1.1 3.3 1.5-.5.1-1.1.3-1.6.4-1.2-.5-2.4-1-3.5-1.7z"/><path id="path3456" class="st2" d="M13.6 54.5c2.8 1.8 5.9 3.1 9.1 3.9h.4c-3.2-.7-6.3-2-9.1-3.8-.2 0-.5-.1-.4-.1z"/><path id="path3458" class="st20" d="M14 54.7c1.4.9 2.8 1.6 4.4 2.3.6 0 1.2 0 1.7-.1-1.5-.5-2.9-1.2-4.3-2-.6-.1-1.2-.1-1.8-.2z"/><path id="path3460" class="st21" d="M15.8 54.8c1.4.8 2.8 1.5 4.3 2 .7-.1 1.5-.2 2.4-.3-1.5-.4-2.9-1-4.3-1.7h-2.4z"/><path id="path3462" class="st22" d="M18.2 54.8c1.4.7 2.8 1.3 4.3 1.7.9-.1 1.8-.3 2.6-.5-1.4-.3-2.8-.8-4.2-1.4-.9.1-1.8.2-2.7.2z"/><path id="path3464" class="st23" d="M20.9 54.7c1.4.6 2.8 1 4.2 1.4.9-.2 1.7-.4 2.4-.6-1.4-.2-2.7-.6-4.1-1.1-.8.1-1.7.2-2.5.3z"/><path id="path3466" class="st3" d="M18.3 57c1.5.6 3.1 1.2 4.7 1.5.4-.1 1-.2 1.7-.3-1.6-.3-3.1-.7-4.7-1.3-.5 0-1.1 0-1.7.1z"/><path id="path3468" d="M20.1 56.9c1.5.5 3.1 1 4.7 1.3.7-.2 1.5-.4 2.3-.6-1.5-.2-3.1-.6-4.6-1-.9.1-1.7.2-2.4.3z" style="fill:#8e85b9"/><path id="path3470" class="st25" d="M22.5 56.5c1.5.4 3 .8 4.5 1 .8-.2 1.6-.5 2.4-.8-1.5-.1-2.9-.4-4.4-.7-.8.2-1.7.4-2.5.5z"/><path id="path3472" class="st26" d="M25.1 56c1.4.3 2.9.6 4.4.7.8-.3 1.5-.6 2.2-.9-1.4-.1-2.8-.2-4.2-.5-.8.3-1.6.5-2.4.7z"/><path id="path3474" d="m23.4 54.3.4-.1c1.3.5 2.6.8 4 1l-.4.1c-1.4-.1-2.8-.5-4-1z" style="fill:#544d8f"/><path id="path3476" class="st28" d="m27.4 55.4.4-.1c1.4.2 2.8.3 4.2.4l-.4.2c-1.4-.1-2.8-.2-4.2-.5z"/><path id="path3478" class="st19" d="M23.8 54.2c.8-.1 1.6-.3 2.5-.5 1.3.4 2.6.7 3.9.8-.8.3-1.5.5-2.3.8-1.5-.2-2.8-.6-4.1-1.1z"/><path id="path3480" d="M27.8 55.3c.8-.2 1.6-.5 2.3-.8 1.3.1 2.6.2 4 .2-.7.3-1.4.7-2.2 1-1.3 0-2.7-.2-4.1-.4z" style="fill:#554e90"/><path id="path3482" class="st2" d="M22.7 58.4c1.4.3 2.7.6 4.1.7l.4-.1c-1.4-.1-2.8-.3-4.1-.6-.2.1-.4 0-.4 0z"/><path id="path3484" class="st30" d="M23.1 58.5c1.4.3 2.7.5 4.1.6.8-.1 1.5-.3 2.2-.6-1.6 0-3.1-.1-4.7-.3-.6.1-1.2.2-1.6.3z"/><path id="path3486" class="st31" d="M24.7 58.1c1.6.2 3.1.3 4.7.3.8-.2 1.7-.5 2.5-.9-1.7.1-3.3 0-5-.1-.7.4-1.5.6-2.2.7z"/><path id="path3488" class="st32" d="M27 57.5c1.7.1 3.3.2 5 .1.8-.3 1.7-.7 2.5-1-1.7.1-3.3.2-5 .1-.8.3-1.7.6-2.5.8z"/><path id="path3490" class="st33" d="M29.4 56.8c1.7.1 3.3 0 5-.1.8-.3 1.6-.7 2.3-1-1.7.2-3.4.3-5.1.3-.6.2-1.4.5-2.2.8z"/><path id="path3492" class="st34" d="M31.7 55.9c1.7 0 3.4-.1 5.1-.3.8-.4 1.6-.8 2.1-1.1-1.6.2-3.1.3-4.7.2-.8.4-1.7.8-2.5 1.2z"/><path id="path3494" class="st2" d="M26.8 59.1c2 .2 4.1.2 6.1-.1.1-.1.2 0 .3-.1-2 .2-4.1.2-6.2.1l-.2.1z"/><path id="path3496" class="st35" d="M27.1 59.1c2 .2 4.1.2 6.2-.1.4-.2 1-.5 1.8-.8-1.8.3-3.6.4-5.4.2-.9.3-1.7.5-2.6.7z"/><path id="path3498" class="st31" d="M29.7 58.4c1.8.1 3.6.1 5.4-.2.8-.4 1.7-.8 2.5-1.3-1.7.4-3.4.6-5.1.5-.9.4-1.9.7-2.8 1z"/><path id="path3500" d="M32.5 57.4c1.7 0 3.5-.1 5.1-.5.9-.5 1.8-1 2.6-1.5-1.6.5-3.3.8-5 .8-.8.5-1.7.8-2.7 1.2z" style="fill:#776da9"/><path id="path3502" d="M35.3 56.3c1.7 0 3.4-.3 5-.8.8-.5 1.5-.9 2-1.3-1.5.6-3 .9-4.6 1-.7.3-1.5.7-2.4 1.1z" style="fill:#665e9d"/><path id="path3504" class="st38" d="M37.7 55.2c1.6-.1 3.1-.4 4.6-1 .8-.6 1.3-1 1.4-1-1.5.7-3.2 1.2-4.8 1.4-.4.1-.8.3-1.2.6z"/><path id="path3506" class="st2" d="M33 59.1c3.4-.4 6.6-1.3 9.7-2.8l.2-.1c-3 1.5-6.2 2.5-9.6 2.9-.1-.1-.2-.1-.3 0z"/><path id="path3508" class="st39" d="M33.3 59c1.7-.2 3.4-.5 5-1 .3-.2.8-.5 1.3-.8-1.6.5-3.2.9-4.9 1.2-.6.3-1.1.5-1.4.6z"/><path id="path3510" class="st40" d="M34.7 58.4c1.6-.3 3.2-.6 4.8-1.2.5-.3 1.1-.7 1.7-1.2-1.5.5-3 1-4.5 1.3-.7.5-1.4.8-2 1.1z"/><path id="path3512" d="M36.7 57.4c1.5-.4 3-.8 4.5-1.3l1.8-1.3c-1.3.6-2.6 1-4.1 1.5-.7.3-1.5.7-2.2 1.1z" style="fill:#847ab1"/><path id="path3514" class="st42" d="M38.9 56.2c1.5-.5 2.8-1 4.1-1.5l1.7-1.3c-1.2.6-2.5 1.1-3.7 1.6-.7.4-1.3.8-2.1 1.2z"/><path id="path3516" class="st43" d="M38.2 58c1.6-.5 3.1-1.1 4.6-1.8.4-.3.8-.6 1.1-.9-1.4.7-2.9 1.4-4.5 1.9-.4.3-.8.6-1.2.8z"/><path id="path3518" d="M39.5 57.2c1.5-.5 3-1.2 4.5-1.9.4-.4.9-.8 1.3-1.2-1.3.8-2.7 1.4-4.2 2-.5.4-1.1.8-1.6 1.1z" style="fill:#9d93c2"/><path id="path3520" class="st45" d="m41.2 56 2.1-.9c.5-.4 1.1-.9 1.6-1.4-.6.3-1.3.6-1.9.9L41.2 56z"/><path id="path3522" d="M43 54.7c.7-.3 1.3-.6 1.9-.9s1-.9 1.5-1.3c-.6.3-1.1.7-1.7.9L43 54.7z" style="fill:#776ea9"/><path id="path3524" class="st10" d="M43.3 55.1c.7-.3 1.3-.7 2-1.1.5-.4 1-.9 1.4-1.4-.6.4-1.2.8-1.9 1.1s-1 1-1.5 1.4z"/><path id="path3526" class="st47" d="M44.9 53.8c.6-.3 1.2-.7 1.9-1.1l1.4-1.4c-.6.4-1.2.8-1.7 1.1-.7.3-1.1.9-1.6 1.4z"/><path id="path3528" class="st7" d="M41 55c.5-.3 1-.6 1.3-.9 1.2-.5 2.4-1.1 3.6-1.8-.4.3-.8.7-1.2 1-1.2.7-2.5 1.2-3.7 1.7z"/><path id="path3530" d="M44.7 53.4c.5-.3.9-.7 1.2-1 .5-.3 1.1-.6 1.6-1-.3.3-.8.7-1.2 1.1-.5.3-1 .6-1.6.9z" style="fill:#6e64a2"/><path id="path3532" class="st49" d="M46.4 52.4c.4-.4.8-.8 1.2-1.1.5-.3 1.1-.7 1.7-1.2-.3.4-.7.8-1.1 1.2-.7.4-1.2.8-1.8 1.1z"/><path id="path3534" class="st33" d="M42.3 54.1c.8-.6 1.3-1 1.4-1 1.2-.5 2.3-1.2 3.4-1.8-.4.4-.8.7-1.2 1.1-1.1.6-2.4 1.2-3.6 1.7z"/><path id="path3536" class="st50" d="M45.9 52.3c.4-.3.8-.7 1.2-1.1.5-.3 1-.6 1.5-1-.3.3-.6.7-1 1-.5.4-1.1.8-1.7 1.1z"/><path id="path3538" class="st51" d="m47.6 51.3 1-1c.5-.3 1-.7 1.6-1.1l-1 1c-.5.4-1.1.8-1.6 1.1z"/><path id="path3540" class="st2" d="M42.7 56.3c3-1.4 5.7-3.4 8-5.7l.1-.1c-2.3 2.3-5 4.3-7.9 5.7-.1 0-.2 0-.2.1z"/><path id="path3542" class="st52" d="M42.9 56.2c.7-.4 1.5-.8 2.2-1.2.4-.3.7-.6 1-.9L44 55.3c-.4.3-.8.6-1.1.9z"/><path id="path3544" class="st53" d="m44 55.3 2.1-1.2 1.2-1.2c-.6.4-1.3.8-1.9 1.2-.5.4-1 .8-1.4 1.2z"/><path id="path3546" class="st54" d="M45 55c.7-.4 1.3-.9 2-1.3.3-.3.6-.6 1-.9-.6.5-1.3.9-1.9 1.4-.4.2-.7.5-1.1.8z"/><path id="path3548" d="M46.1 54.1c.7-.4 1.3-.9 1.9-1.4.3-.3.7-.7 1-1.1-.6.5-1.2.9-1.8 1.3-.4.4-.8.8-1.1 1.2z" style="fill:#a69dc8"/><path id="path3550" class="st56" d="M45.3 54.1c.7-.4 1.3-.8 1.9-1.2l1.3-1.3c-.6.4-1.1.8-1.8 1.1-.4.5-.9.9-1.4 1.4z"/><path id="path3552" class="st57" d="M46.8 52.8c.6-.4 1.2-.8 1.8-1.1l1.2-1.3c-.5.3-1 .7-1.6 1.1l-1.4 1.3z"/><path id="path3554" class="st58" d="M47.3 52.9c.6-.4 1.2-.8 1.8-1.3l1.1-1.2c-.5.4-1 .8-1.6 1.2l-1.3 1.3z"/><path id="path3556" class="st10" d="M48.5 51.6c.6-.4 1.1-.8 1.6-1.2l1-1.2c-.4.3-.9.7-1.4 1l-1.2 1.4z"/><path id="path3558" class="st59" d="M47.1 53.6c.7-.6 1.4-1.3 2-2 .6-.5 1.1-.9 1.7-1.4-.5.7-1.1 1.3-1.7 1.9-.7.5-1.4 1-2 1.5z"/><path id="path3560" class="st60" d="M49 52.1c.6-.6 1.2-1.2 1.7-1.9.5-.5 1.1-.9 1.6-1.4-.5.6-1 1.1-1.5 1.7-.6.5-1.2 1-1.8 1.6z"/><path id="path3562" d="M49.1 51.6c.7-.8 1.4-1.7 2.1-2.4.4-.3.8-.7 1.2-1-.5.6-1.1 1.4-1.7 2.1-.5.4-1.1.9-1.6 1.3z" style="fill:#a39ac7"/><path id="path3564" d="M50.7 50.2c.6-.7 1.2-1.4 1.7-2.1l1.3-1.1c-.4.6-.9 1.2-1.4 1.8-.5.5-1.1 1-1.6 1.4z" style="fill:#b2aad0"/><path id="path3566" class="st63" d="m48.1 51.3 1.1-1.1c.6-.4 1.1-.7 1.5-1-.3.4-.6.7-1 1.1-.3.4-1 .7-1.6 1z"/><path id="path3568" class="st64" d="M49.8 50.3c.4-.4.7-.7 1-1.1s.8-.7 1.2-1c-.3.3-.5.7-.8 1s-.9.7-1.4 1.1z"/><path id="path3570" class="st25" d="m49.2 50.2 1-1c.5-.4 1-.7 1.4-1-.3.3-.6.7-.9 1s-.9.6-1.5 1z"/><path id="path3572" class="st65" d="M50.8 49.2c.3-.4.6-.7.9-1s.8-.6 1.1-.9c-.2.3-.5.6-.8 1-.3.3-.8.5-1.2.9z"/><path id="path3574" class="st66" d="M51.1 49.2c.6-.6 1.1-1.4 1.6-2l1-.9c-.4.5-.8 1.2-1.3 1.8-.4.4-.8.7-1.3 1.1z"/><path id="path3576" class="st67" d="M52.4 48.2c.4-.5.9-1.2 1.3-1.8.3-.3.7-.6 1-.9-.3.5-.7 1-1.1 1.5l-1.2 1.2z"/><path id="path3578" class="st28" d="M19.8 50c.9.9 1.9 1.6 3 2.2.6-.1 1.3-.2 1.9-.3-1-.6-2-1.3-2.9-2.1-.6.1-1.3.2-2 .2z"/><path id="path3580" d="M21.9 49.8c.9.8 1.9 1.5 2.9 2.1.6-.1 1.3-.3 1.9-.5-1-.5-1.9-1.1-2.8-1.8-.7.1-1.4.2-2 .2z" style="fill:#574f91"/><path id="path3582" class="st34" d="M23.9 49.6c.9.7 1.8 1.3 2.8 1.8 1.2-.4 2.5-.8 3.6-1.2-.9-.4-1.8-.9-2.6-1.5-1.3.4-2.6.7-3.8.9z"/><path id="path3584" d="M22.8 52.2c1.1.6 2.2 1.1 3.4 1.5.6-.1 1.2-.3 1.8-.5-1.1-.3-2.2-.8-3.3-1.3-.6.1-1.2.3-1.9.3z" style="fill:#514b8d"/><path id="path3586" class="st19" d="M24.7 51.9c1 .6 2.1 1 3.3 1.3.6-.2 1.2-.4 1.7-.6-1.1-.3-2.1-.7-3-1.2-.7.2-1.3.4-2 .5z"/><path id="path3588" class="st18" d="M26.7 51.4c1 .5 2 .9 3 1.2 1.1-.4 2.2-.9 3.3-1.5-.9-.3-1.9-.6-2.7-1-1.2.6-2.5 1-3.6 1.3z"/><path id="path3590" d="M26.2 53.8c1.3.4 2.6.7 3.9.8l1.5-.6c-1.3-.1-2.5-.4-3.7-.8-.5.2-1.1.4-1.7.6z" style="fill:#504a8c"/><path id="path3592" class="st71" d="M28 53.2c1.2.4 2.4.6 3.7.8.5-.2 1-.4 1.4-.6-1.2-.1-2.3-.4-3.4-.8-.6.3-1.1.5-1.7.6z"/><path id="path3594" class="st28" d="M29.7 52.7c1.1.4 2.2.6 3.4.8 1-.4 1.9-.9 2.8-1.5-1-.1-2-.4-2.9-.7-1.1.5-2.2.9-3.3 1.4z"/><path id="path3596" class="st71" d="M30.2 54.6c1.3.1 2.6.2 4 .2l1.3-.6c-1.4 0-2.6 0-3.8-.1-.5.1-1 .3-1.5.5z"/><path id="path3598" d="M31.7 54c1.2.1 2.4.1 3.8.1l1.2-.6c-1.3 0-2.5 0-3.6-.1-.4.2-.9.4-1.4.6z" style="fill:#534d8f"/><path id="path3600" class="st17" d="M33.1 53.4c1.1.1 2.3.1 3.6.1.8-.4 1.6-.9 2.4-1.5-1.1 0-2.1 0-3.2-.1-.9.6-1.8 1.1-2.8 1.5z"/><path id="path3602" class="st28" d="M34.2 54.8h2.5c.9-.4 1.7-.9 2.4-1.4-.8.1-1.6.2-2.4.2-.8.3-1.6.7-2.5 1.2z"/><path id="path3604" class="st34" d="M36.7 53.5c.8 0 1.6-.1 2.4-.2.8-.5 1.6-1.1 2.3-1.7-.7.3-1.5.4-2.4.4-.7.6-1.5 1.1-2.3 1.5z"/><path id="path3606" class="st14" d="M36.7 54.8c.8 0 1.7-.1 2.2-.2.9-.5 1.7-1 2.5-1.6-.7.2-1.5.3-2.2.5-.9.4-1.7.8-2.5 1.3z"/><path id="path3608" d="M39.1 53.3c.7-.1 1.5-.3 2.2-.5.8-.6 1.7-1.3 2.4-2-.7.3-1.5.5-2.3.7-.7.7-1.5 1.3-2.3 1.8z" style="fill:#5d5596"/><path id="path3610" class="st74" d="M38.9 54.5c1.7-.2 3.3-.7 4.8-1.4.2-.2.5-.4.8-.7-1.4.7-2.9 1.1-4.4 1.3-.4.3-.9.6-1.2.8z"/><path id="path3612" class="st75" d="M40.1 53.8c1.5-.2 3-.7 4.5-1.4l1-.9c-1.4.6-2.8 1.1-4.2 1.4-.6.3-1 .6-1.3.9z"/><path id="path3614" class="st26" d="M41.3 52.9c1.5-.3 2.9-.8 4.2-1.4.8-.7 1.6-1.4 2.3-2-1.3.6-2.7 1.1-4.1 1.5-.7.6-1.5 1.3-2.4 1.9z"/><path id="path3616" class="st76" d="M43.7 53.1c1.2-.5 2.3-1.2 3.4-1.8l.8-.8c-1.1.7-2.2 1.4-3.4 2-.3.2-.6.4-.8.6z"/><path id="path3618" class="st33" d="M44.5 52.4c1.2-.6 2.3-1.2 3.4-2l1-1c-1.1.7-2.2 1.4-3.3 2l-1.1 1z"/><path id="path3620" class="st50" d="M45.6 51.5c1.1-.6 2.2-1.3 3.3-2 .7-.7 1.3-1.4 1.9-2-.8.6-1.7 1.2-2.9 2-.8.6-1.6 1.3-2.3 2z"/><path id="path3622" class="st77" d="m47.1 51.3 1.8-1.8c.5-.3 1-.7 1.4-1-.6.7-1.2 1.3-1.7 1.9l-1.5.9z"/><path id="path3624" class="st78" d="M48.6 50.3c.5-.5 1.1-1.2 1.7-1.9.5-.4 1-.7 1.5-1.2-.5.7-1 1.3-1.6 1.9-.5.5-1.1.9-1.6 1.2z"/><path id="path3626" class="st79" d="M48.9 49.5c.7-.7 1.3-1.4 1.9-2 .4-.3.8-.6 1.2-1-.5.6-1.1 1.3-1.6 2-.6.3-1 .6-1.5 1z"/><path id="path3628" d="M50.3 48.4c.6-.7 1.2-1.4 1.6-2 .4-.3.8-.7 1.3-1.1-.4.6-.9 1.2-1.4 1.9-.5.5-1 .8-1.5 1.2z" style="fill:#6f65a2"/><path id="path3630" class="st22" d="M50.2 49.2c.6-.6 1.1-1.2 1.6-1.9.4-.3.8-.6 1.1-.9-.4.6-.8 1.2-1.3 1.8-.4.3-.8.6-1.4 1z"/><path id="path3632" class="st81" d="M51.6 48.2c.5-.6.9-1.2 1.3-1.8.3-.3.7-.6 1-.9-.4.6-.8 1.2-1.3 1.7l-1 1z"/><path id="path3634" class="st42" d="M51.8 47.3c.5-.7 1-1.4 1.4-1.9l.9-.8-1.2 1.8c-.3.3-.7.6-1.1.9z"/><path id="path3636" class="st81" d="m52.9 46.4 1.2-1.8.9-.8c-.3.6-.7 1.2-1.1 1.8-.3.2-.6.5-1 .8z"/><path id="path3638" class="st56" d="M52.7 47.2c.4-.6.8-1.1 1.2-1.7l.9-.8c-.4.6-.8 1.2-1.1 1.7l-1 .8z"/><path id="path3640" d="M53.7 46.4c.4-.5.8-1.1 1.1-1.7l.9-.8c-.3.5-.6 1.1-1 1.6-.4.3-.7.6-1 .9z" style="fill:#a49ac7"/><path id="path3642" class="st21" d="M53.9 45.5c.4-.6.7-1.2 1.1-1.8l.8-.8c-.3.6-.7 1.2-1 1.8l-.9.8z"/><path id="path3644" d="M54.8 44.7c.4-.6.7-1.2 1-1.8l.7-.7c-.3.6-.6 1.1-.9 1.7l-.8.8z" style="fill:#a299c6"/><path id="path3646" class="st76" d="M27.7 48.8c.8.5 1.6 1 2.5 1.4.9-.3 1.7-.7 2.6-1.1-.8-.3-1.6-.7-2.3-1.2-1 .3-1.9.6-2.8.9z"/><path id="path3648" class="st84" d="M30.5 47.9c.7.5 1.5.9 2.3 1.2.8-.4 1.6-.9 2.4-1.3-.8-.2-1.5-.5-2.1-1-.9.4-1.7.7-2.6 1.1z"/><path id="path3650" class="st76" d="M30.2 50.2c.9.4 1.8.7 2.8 1 1.6-.8 3.1-1.8 4.5-2.8-.8-.3-1.6-.4-2.3-.7-1.6.9-3.3 1.8-5 2.5z"/><path id="path3652" class="st76" d="M33 51.2c1.9.7 4 1 6 .8 1.4-1 2.7-2 4-3.1-1.9.1-3.7 0-5.5-.5-1.5 1.1-3 2-4.5 2.8z"/><path id="path3654" class="st76" d="M39.1 52c1.4-1 2.7-2 4-3.1h1.3c-.9 1-1.9 1.9-2.9 2.7-.8.3-1.6.4-2.4.4z"/><path id="path3656" class="st12" d="M41.5 51.6c1-.8 2-1.8 2.9-2.7.4 0 .9-.1 1.3-.2-1 1.2-.8 1.3-1.9 2.2-.8.3-1.5.5-2.3.7z"/><path id="path3658" class="st78" d="M43.7 50.9c1.4-.4 2.8-.9 4.1-1.5 1.1-.9.7-1 1.6-2.2-1.2.6-2.4 1.1-3.7 1.4-1.1 1.3-.8 1.3-2 2.3z"/><path id="path3660" class="st22" d="M47.8 49.4c1.2-.8 2.1-1.3 2.9-2 .3-.3.6-.7.8-1.1-.9.8-1.9 1.5-2.9 2.1-.1.4-.4.7-.8 1z"/><path id="path3662" class="st85" d="M48.7 48.4c1-.6 2-1.3 2.9-2.1.2-.3.4-.7.8-1.2-.9.8-1.9 1.5-3 2.1-.3.4-.5.8-.7 1.2z"/><path id="path3664" class="st42" d="M50.8 47.4c.3-.3.6-.7.8-1.1.4-.3.8-.7 1.2-1.1-.2.4-.5.8-.8 1.2-.4.4-.8.7-1.2 1z"/><path id="path3666" class="st85" d="M52 46.5c.3-.4.6-.8.8-1.2l1.2-1.2c-.2.4-.5.8-.7 1.2-.5.5-.9.8-1.3 1.2z"/><path id="path3668" class="st32" d="M51.6 46.4c.2-.3.4-.7.8-1.2l1.2-1.2c-.3.5-.6.9-.8 1.3-.4.4-.8.7-1.2 1.1z"/><path id="path3670" d="M52.8 45.3c.2-.4.5-.8.8-1.3.3-.5.8-.8 1.2-1.2-.3.5-.5 1-.8 1.4-.4.3-.8.7-1.2 1.1z" style="fill:#786ea9"/><path id="path3672" class="st6" d="M53.2 45.3c.7-.8.8-1.5 1.5-2.6l.6-.6c-.6 1-.6 1.6-1.2 2.4l-.9.8z"/><path id="path3674" class="st57" d="M54.1 44.6c.6-.8.6-1.4 1.2-2.4l.7-.7c-.5 1-.5 1.5-1 2.3l-.9.8z"/><path id="path3676" class="st21" d="M55 43.8c.5-.8.5-1.4 1-2.3.2-.3.5-.5.8-.8-.3.8-.6 1.6-1 2.4l-.8.7z"/><path id="path3678" class="st53" d="M55.8 42.9c.4-.8.7-1.6 1-2.4.3-.3.5-.6.8-1-.3.9-.7 1.8-1.1 2.6-.2.3-.4.6-.7.8z"/><path id="path3680" class="st6" d="M33.1 46.8c.6.5 1.4.8 2.1 1 1.6-1 3.1-2 4.5-3.2-.6-.1-1.2-.3-1.7-.7-1.6 1.1-3.2 2-4.9 2.9z"/><path id="path3682" class="st45" d="M38 43.9c.5.3 1.1.6 1.7.7 1.4-1.2 2.7-2.5 3.9-3.9-.6-.1-1.2-.3-1.3-.4-1.4 1.2-2.8 2.5-4.3 3.6z"/><path id="path3684" class="st6" d="M35.2 47.8c.8.2 1.6.4 2.3.7 1.4-1.1 2.8-2.2 4-3.5-.5-.2-1.2-.2-1.9-.4-1.3 1.1-2.8 2.2-4.4 3.2z"/><path id="path3686" class="st45" d="M39.7 44.5c.7.2 1.4.3 1.9.4 1.3-1.2 2.4-2.6 3.5-4-.2-.1-.9-.2-1.5-.3-1.2 1.5-2.5 2.7-3.9 3.9z"/><path id="path3688" class="st58" d="M42.2 40.2c.1.2.7.3 1.3.4.5-.5.9-1.1 1.3-1.7-.6-.1-1.1-.3-1.1-.4-.4.6-.9 1.2-1.5 1.7z"/><path id="path3690" class="st58" d="M43.5 40.6c.6.1 1.3.2 1.5.3.4-.6.8-1.1 1.2-1.7-.2 0-.8-.1-1.4-.3-.4.6-.8 1.2-1.3 1.7z"/><path id="path3692" class="st6" d="M37.6 48.4c1.8.5 3.7.6 5.5.5 1.4-1.4 2.6-2.9 3.8-4.4-1.8 0-3.1.2-4.5-.3a48.1 48.1 0 0 1-4.8 4.2z"/><path id="path3694" class="st87" d="M42.3 44.2c1.5.5 2.8.3 4.5.3 1.1-1.6 2.1-3.3 3-5-1.2.1-2.4 0-3.6-.3-1.1 1.7-2.4 3.4-3.9 5z"/><path id="path3696" class="st6" d="M43.1 48.9c.9.1 1.7 0 2.6-.2 1.2-1.4 2.3-2.9 3.3-4.5-.7.2-1.4.3-2.1.3-1.1 1.6-2.4 3-3.8 4.4z"/><path id="path3698" class="st87" d="M46.8 44.5c.7 0 1.4-.1 2.1-.3 1-1.6 1.9-3.2 2.6-4.9-.6.1-1.1.2-1.7.2-.8 1.8-1.8 3.4-3 5z"/><path id="path3700" class="st6" d="M45.7 48.7c1.3-.3 2.6-.8 3.8-1.4 1-1.4 1.8-2.8 2.6-4.3-1 .5-2 .9-3 1.2-1.1 1.6-2.2 3.1-3.4 4.5z"/><path id="path3702" class="st87" d="M48.9 44.2c1-.3 2-.7 3-1.2.8-1.5 1.4-3 2-4.6-.7.4-1.5.7-2.3.9-.8 1.7-1.7 3.3-2.7 4.9z"/><path id="path3704" class="st6" d="M49.4 47.2c1.9-2.7 3.5-5.7 4.5-8.8.6-.3 1.2-.7 1.8-1.2-.7 2.8-1.8 5.5-3.3 7.9-1 .8-2 1.5-3 2.1z"/><path id="path3706" d="M52.3 45.1c1.6-2.4 2.7-5.1 3.3-7.9.5-.5 1-.9 1.4-1.4-.6 2.8-.8 4.5-2.4 7-.6.8-1.4 1.6-2.3 2.3z" style="fill:#7a70ab"/><path id="path3708" class="st89" d="M54.7 42.8c.7-1 1.2-2.2 1.5-3.3l.6-.6c-.4 1.2-.9 2.3-1.5 3.4l-.6.5z"/><path id="path3710" class="st90" d="M55.3 42.2c.6-1.1 1.2-2.2 1.5-3.4.2-.2.4-.5.6-.7-.4 1.2-.8 2.3-1.4 3.3l-.7.8z"/><path id="path3712" class="st31" d="M56.3 39.4c.3-1.1.5-2.2.8-3.6l.6-.6c-.2 1.2-.5 2.4-.8 3.6-.2.2-.5.4-.6.6z"/><path id="path3714" class="st91" d="M56.8 38.8c.3-1.2.6-2.4.8-3.6.2-.2.4-.4.5-.7-.2 1.2-.5 2.4-.8 3.6-.1.2-.3.5-.5.7z"/><path id="path3716" d="M56 41.4c.5-1.1 1-2.2 1.4-3.3.2-.2.4-.5.6-.8-.3 1.1-.7 2.2-1.2 3.3-.3.3-.5.6-.8.8z" style="fill:#9288bb"/><path id="path3718" class="st93" d="m56.8 40.6 1.2-3.3.6-.9c-.3 1.1-.6 2.2-1 3.2-.3.3-.5.7-.8 1z"/><path id="path3720" class="st94" d="M57.4 38.1c.4-1.2.6-2.4.8-3.6.2-.2.3-.5.5-.7-.2 1.2-.4 2.3-.8 3.5-.1.3-.3.5-.5.8z"/><path id="path3722" class="st95" d="M58 37.3c.3-1.1.6-2.3.8-3.5.2-.2.3-.5.4-.8-.1 1.1-.3 2.2-.6 3.3-.2.5-.4.7-.6 1z"/><path id="path3724" class="st96" d="M43.8 38.5c0 .1.4.2.9.3 1.8-2.5 3.3-5.1 4.4-8-.2-.1-.6-.2-.4-.2-1.3 2.9-3 5.5-4.9 7.9z"/><path id="path3726" class="st96" d="M44.7 38.9c.7.1 1.5.3 1.6.3 1.6-2.4 2.9-5.1 3.8-7.8 0 0-.7-.4-1-.5-1.1 2.8-2.6 5.5-4.4 8z"/><path id="path3728" class="st35" d="M48.6 30.6c-.2.1.2.2.4.2-.2 0-.6-.1-.4-.2z"/><path id="path3730" class="st35" d="M49 30.9c.3.1 1 .5 1 .5 0-.1-.7-.4-1-.5z"/><path id="path3732" class="st35" d="M48.6 30.6c-.2.1.2.2.4.2.5-1.3.8-2.7 1-4.1-.1-.1-.5-.2-.3-.3-.2 1.5-.6 2.9-1.1 4.2z"/><path id="path3734" class="st35" d="M49 30.9c.3.1 1 .5 1 .5.4-1.3.7-2.6.9-3.9 0 0-.7-.5-.9-.6-.2 1.3-.5 2.7-1 4z"/><path id="path3736" class="st96" d="M46.2 39.2c1.2.3 2.4.4 3.6.3.9-1.7 1.6-3.5 2.2-5.4-1 0-1.9-.2-2.8-.6-.8 2-1.8 3.9-3 5.7z"/><path id="path3738" class="st97" d="M49.2 33.5c.9.4 1.9.6 2.8.6.3-.9.5-1.9.8-2.8-.9-.1-1.8-.3-2.5-.8-.3 1-.7 2.1-1.1 3z"/><path id="path3740" class="st52" d="M50.3 30.5c.8.5 1.6.7 2.5.8.2-1 .4-1.9.5-2.9-.8-.1-1.7-.5-2.3-1-.2 1.1-.4 2.1-.7 3.1z"/><path id="path3742" class="st96" d="M49.9 39.5c.6 0 1.2-.1 1.7-.2.8-1.7 1.4-3.4 1.9-5.2-.5.1-.9.1-1.4 0-.6 1.9-1.4 3.7-2.2 5.4z"/><path id="path3744" class="st97" d="M52.1 34.1h1.4l.6-2.7c-.4 0-.8 0-1.2-.1-.3 1-.5 1.9-.8 2.8z"/><path id="path3746" class="st52" d="M52.8 31.3c.4.1.8.1 1.2.1.2-.9.3-1.8.3-2.8-.4 0-.7-.1-1.1-.2 0 1-.2 2-.4 2.9z"/><path id="path3748" class="st96" d="M51.6 39.3c.8-.2 1.6-.5 2.3-.9.6-1.6 1-3.3 1.4-5-.6.3-1.2.6-1.9.7-.4 1.8-1.1 3.5-1.8 5.2z"/><path id="path3750" class="st97" d="M53.4 34.1c.7-.1 1.3-.3 1.9-.7.2-.8.3-1.7.4-2.5-.5.3-1.1.5-1.7.5-.1.9-.3 1.8-.6 2.7z"/><path id="path3752" class="st52" d="M54 31.4c.6 0 1.2-.2 1.7-.5.1-.9.2-1.7.2-2.6-.5.3-1 .4-1.6.3 0 .9-.1 1.9-.3 2.8z"/><path id="path3754" class="st96" d="M53.9 38.4c.6-.3 1.2-.7 1.8-1.2.4-1.5.8-3 1-4.5-.4.4-.9.6-1.4.8-.4 1.6-.9 3.3-1.4 4.9z"/><path id="path3756" class="st98" d="M55.3 33.4c.5-.1 1-.4 1.4-.8.1-.8.2-1.5.3-2.3-.4.3-.8.5-1.2.5-.2.9-.4 1.8-.5 2.6z"/><path id="path3758" class="st52" d="M55.7 30.8c.5 0 .9-.2 1.2-.5.1-.8.1-1.5.1-2.3-.3.2-.7.3-1.1.3 0 .8-.1 1.7-.2 2.5z"/><path id="path3760" d="M55.7 37.2c.5-.5 1-.9 1.4-1.4.3-1.4.6-2.8.7-4.2-.4.3-.8.7-1.1 1-.2 1.5-.6 3-1 4.6z" style="fill:#9b92c1"/><path id="path3762" d="M56.7 32.7c.4-.3.7-.7 1.1-1 .1-.7.2-1.4.2-2.1-.4.2-.7.5-1 .8-.1.8-.2 1.5-.3 2.3z" style="fill:#b1a9d0"/><path id="path3764" class="st54" d="M57 30.4c.4-.3.7-.6 1-.8v-2.1c-.3.2-.6.4-1 .6.1.7 0 1.5 0 2.3z"/><path id="path3766" class="st101" d="M57.1 35.8c.3-1.4.6-2.8.8-4.2.3-.3.6-.6.8-.9-.1 1.3-.3 2.6-.5 3.9-.3.4-.7.8-1.1 1.2z"/><path id="path3768" class="st102" d="M58.2 34.5c.2-1.3.4-2.6.4-3.9.2-.3.5-.7.6-1.1 0 1.2-.1 2.3-.2 3.5-.1.6-.4 1.1-.8 1.5z"/><path id="path3770" class="st3" d="M57.9 31.6c.3-.3.6-.6.8-.9 0-.6.1-1.3.1-1.9-.2.3-.5.6-.8.8 0 .6-.1 1.3-.1 2z"/><path id="path3772" d="M58 29.5c.3-.2.5-.5.8-.8 0-.6 0-1.3-.1-1.9-.2.2-.4.4-.7.6.1.8.1 1.4 0 2.1z" style="fill:#bcb4d6"/><path id="path3774" class="st39" d="M58.7 30.7c.1-1.3.1-2.5 0-3.8.2-.2.3-.4.4-.7.1 1.1.2 2.3.2 3.4-.2.4-.4.7-.6 1.1z"/><path id="path3776" class="st2" d="M49.8 26.5c-.1 0-.1.1 0 .1.3-1.5.5-3 .6-4.5l-.2-.1c0 1.6-.1 3.1-.4 4.5z"/><path id="path3778" class="st2" d="m49.8 26.6.2.1c.3-1.5.5-2.9.6-4.4 0-.1-.1-.1-.2-.1-.1 1.5-.3 3-.6 4.4z"/><path id="path3780" class="st2" d="m49.9 26.8.1.1c.3-1.4.5-2.9.5-4.4v-.1c-.1 1.4-.2 2.9-.6 4.4z"/><path id="path3782" class="st2" d="M50.1 26.8c.2.1.9.7.9.6.2-1.4.3-2.9.3-4.4-.3-.2-.5-.4-.7-.7-.1 1.6-.2 3.1-.5 4.5z"/><path id="path3784" class="st2" d="M50.2 22.1c-.1 0 .1.1.2.1v-.9l-.2-.1v.9z"/><path id="path3786" class="st2" d="M50.3 22.2c.1 0 .1.1.2.1v-.9c0-.1-.1-.1-.2-.2v1z"/><path id="path3788" class="st2" d="M50.5 22.3s.1.1 0 0v-.9c.1.3.1.6 0 .9z"/><path id="path3790" class="st2" d="M50.6 22.4c.2.3.4.5.7.7v-.9c-.3-.1-.5-.4-.7-.7v.9z"/><path id="path3792" class="st2" d="M50.2 21.1s.1.1.2.1c0-2.5-.5-5-1.4-7.3l-.6-.1c1 2.3 1.6 4.8 1.8 7.3z"/><path id="path3794" class="st2" d="M50.4 21.3c.1 0 .1.1.2.2 0-2.5-.5-4.9-1.4-7.3 0-.2-.1-.2-.2-.2.8 2.3 1.3 4.7 1.4 7.3z"/><path id="path3796" class="st2" d="M50.5 21.4c0 .1 0 .1 0 0 0-2.4-.5-4.9-1.4-7.2v-.1c.9 2.4 1.4 4.8 1.4 7.3z"/><path id="path3798" class="st2" d="M50.6 21.5c.1.3.4.5.7.7-.1-2.5-.6-4.9-1.5-7.2-1-.5-.7-.6-.6-.7.8 2.3 1.3 4.7 1.4 7.2z"/><path id="path3800" class="st2" d="M50.9 27.4c.7.5 1.5.9 2.3 1 .4-3.9 0-7.9-1.2-11.6-1-.6-1.4-1.4-2.3-1.9 1.5 4 1.9 8.3 1.2 12.5z"/><path id="path3802" class="st2" d="M53.3 28.4c.4.1.7.2 1.1.2.3-3.8-.2-7.6-1.4-11.2-.3-.2-.7-.4-.9-.5 1.2 3.7 1.6 7.6 1.2 11.5z"/><path id="path3804" class="st2" d="M54.4 28.6c.5 0 1.1-.1 1.6-.3.1-3.5-.4-7-1.4-10.4-.5-.1-1-.3-1.5-.5 1.1 3.6 1.6 7.4 1.3 11.2z"/><path id="path3806" class="st2" d="M55.9 28.3c.9.1 1.4-.5 2.1-.8-.1-2.9-.6-5.8-1.6-8.6-.7-.2-1.4-.6-2-1 1.1 3.3 1.6 6.8 1.5 10.4z"/><path id="path3808" class="st2" d="M58 27.4c.5-.3.9-.7 1.1-1.2-.2-2.2-.7-4.4-1.5-6.6-.4 0-.5-.5-1.2-.8 1 2.8 1.5 5.7 1.6 8.6z"/><path id="path3810" class="st2" d="m48.3 13.8.6.1C47 10 44.1 6.8 40.4 4.5c-.2 0-.3.1-.2.2 3.5 2.2 6.4 5.3 8.1 9.1z"/><path id="path3812" class="st2" d="M48.9 13.9c.1 0 .2.1.2.2-1.8-3.9-4.7-7.3-8.2-9.7h-.5c3.7 2.4 6.6 5.7 8.5 9.5z"/><path id="path3814" class="st2" d="M49.1 14.2v.1c-1.7-3.9-4.4-7.3-7.8-9.8h-.4c3.6 2.4 6.4 5.8 8.2 9.7z"/><path id="path3816" class="st2" d="M49.1 14.3c-.1.1-.2.2.7.7-1.4-3.8-3.7-7.2-6.8-9.8-.6-.2-1-.6-1.7-.7 3.4 2.5 6.1 5.9 7.8 9.8z"/><path id="path3818" class="st2" d="M49.8 15c1 .5 1.4 1.3 2.3 1.9-1.2-3.6-3.1-6.9-5.7-9.8-1.3-.5-2.1-1.5-3.4-1.9 3 2.6 5.3 6 6.8 9.8z"/><path id="path3820" class="st2" d="M52.1 16.9c.2.1.6.3.9.5-1.1-3.5-2.9-6.7-5.2-9.6-.4-.3-.9-.5-1.4-.7 2.6 2.8 4.5 6.1 5.7 9.8z"/><path id="path3822" class="st2" d="M53 17.4c.5.3 1 .4 1.5.5-1-3.2-2.6-6.3-4.8-8.9-.7-.3-1.4-.7-2-1.1 2.4 2.7 4.2 6 5.3 9.5z"/><path id="path3824" class="st2" d="M54.5 17.9c.6.4 1.3.8 2 1-.9-2.7-2.2-5.3-3.9-7.7-1-.5-1.5-1.8-2.8-2.2 2.1 2.6 3.7 5.6 4.7 8.9z"/><path id="path3826" class="st2" d="M56.5 18.9c.6.3.8.7 1.2.8-.7-2.1-1.7-4-2.9-5.9-.8-.6-1.2-2-2.2-2.5 1.6 2.3 2.9 4.8 3.9 7.6z"/><path id="path3828" class="st2" d="M40.2 4.7c-.2-.2.5-.2.9-.2-3-2.1-6.5-3.4-10.1-3.7-.6.1-1.3.4-1.2.8 3.7.1 7.3 1.1 10.4 3.1z"/><path id="path3830" class="st2" d="M41.1 4.5h.2c-2.8-2.1-6.1-3.4-9.6-3.7-.2 0-.5 0-.7.1 3.6.2 7.1 1.5 10.1 3.6z"/><path id="path3832" class="st2" d="M41.3 4.5c.5.1.9.3 1.3.5C40 2.8 36.8 1.3 33.5.7c-.6-.1-1.2-.1-1.8 0 3.5.4 6.8 1.7 9.6 3.8z"/><path id="path3834" class="st2" d="m42.6 5.1.3.1c-2.5-2.2-5.6-3.7-9-4.4l-.5-.1c3.5.6 6.6 2.1 9.2 4.4z"/><path id="path3836" class="st2" d="M29.8 1.6c-.2-.4.6-.7 1.2-.8-.4 0-1.1-.2-1.2-.7-.6.1-1.3.4-1.2.9s.7.6 1.2.6z"/><path id="path3838" class="st2" d="M30.9.8c.2-.1.5-.1.7-.1-.4 0-1-.2-1.2-.7-.3 0-.5.1-.8.1.3.6.9.7 1.3.7z"/><path id="path3840" class="st2" d="M31.7.8c.6-.1 1.2-.1 1.9 0-.4-.1-1-.2-1.1-.7h-1.9c0 .4.7.6 1.1.7z"/><path id="path3842" class="st2" d="M33.5.8h.5c-.4-.1-.9-.2-1.1-.7l-.5-.1c.1.5.7.7 1.1.8z"/><path id="path3844" class="st2" d="M42.9 5.2c1.3.4 2.1 1.4 3.4 1.9-2.1-2.3-4.6-4.1-7.5-5.2-1.6-.5-3.2-.8-4.9-1 3.4.6 6.5 2.1 9 4.3z"/><path id="path3846" class="st2" d="M34 .8c1.7.2 3.3.5 4.9 1-.4-.1-.7-.4-.9-.8-1.6-.5-3.3-.8-5-1 .1.5.7.7 1 .8z"/><path id="path3848" class="st2" d="M46.4 7.1c.5.2 1 .4 1.4.7-1.2-1.4-5.8-3.7-7.4-5.4-.5-.2-1-.4-1.5-.5 2.8 1.1 5.4 2.9 7.5 5.2z"/><path id="path3850" class="st2" d="M38.9 1.9c.5.1 1 .3 1.5.5-.2-.2-.4-.4-.5-.6-.7-.2-1.3-.5-2-.7.2.4.5.7 1 .8z"/><path id="path3852" class="st2" d="M47.8 7.8c.6.5 1.3.8 2 1.1-1.7-2.2-3.9-4-6.3-5.3-1-.4-2-.9-3.1-1.3 1.5 1.8 6.2 4.1 7.4 5.5z"/><path id="path3854" class="st2" d="M40.3 2.4c1.1.4 2.1.8 3.1 1.3-.3-.2-.6-.4-.8-.8-.9-.4-1.8-.8-2.7-1.1.1.2.3.4.4.6z"/><path id="path3856" class="st2" d="M49.7 8.9c1.3.4 1.8 1.7 2.8 2.2-1.4-2-3.1-3.7-5-5.1-1.3-.9-2.7-1.8-4.1-2.5C45.9 5 48 6.8 49.7 8.9z"/><path id="path3858" class="st2" d="M43.4 3.6c1.4.7 2.8 1.5 4.1 2.4-.3-.2-.5-.4-.7-.7-1.3-1-2.8-1.8-4.2-2.5.2.4.5.7.8.8z"/><path id="path3860" class="st2" d="M52.5 11.2c1.1.5 1.4 1.9 2.2 2.5-1-1.6-2.2-3.1-3.5-4.5-1.1-1.1-2.3-2.2-3.6-3.1 1.9 1.4 3.6 3.1 4.9 5.1z"/><path id="path3862" class="st2" d="M47.6 6.1c1.3.9 2.5 2 3.6 3.1l-.6-.6c-1.2-1.2-2.4-2.2-3.8-3.2.3.3.5.5.8.7z"/></g></g></g></g></g></g><g id="g3864"><g id="g3866"><g id="g3872"><g id="g3874"><linearGradient id="path3884_1_" gradientUnits="userSpaceOnUse" x1="-1029.157" y1="136.797" x2="-1028.937" y2="136.797" gradientTransform="scale(122.95) rotate(59.998 -396.023 959.927)"><stop offset="0" style="stop-color:#1c63b7"/><stop offset=".25" style="stop-color:#1c63b7"/><stop offset="1" style="stop-color:#00adef"/></linearGradient><path id="path3884" d="M22.6 3.2c-.7 0-1.5 0-2.2.1-2.1.4-3.2 1-3.1 1.9.3 1.6 5 .6 5.3 1.7.1.6-.3 1.2-1.4 1.6-.4.1-.9.3-1.3.3 2.1.9 4 2 5.8 3.3.2-.2.4-.3.5-.5.9-1 1.1-2.5.6-3.7-.1-.4.3-.9 1-.9.8.1 1.6.6 2.1 1.3.5.5.9 1.1 1.1 1.8.3.9.4 1.9.3 2.9-.1 1.1-.3 2.2-.7 3.2 1.9 1.6 3.6 3.5 5.1 5.6 4.3 6.2 5.8 13.3 6.4 18.6 2.8-2.8 5-6.2 6.6-9.8 1.1-2.7 1.6-5.6 1.6-8.5v-.9c-1.2-2.6-4.7-5.9-7.5-8.5-3.1-2.8-6.6-5.1-10.3-6.9-3.1-1.6-6.5-2.5-9.9-2.6" style="fill:url(#path3884_1_)"/></g></g></g></g><g id="g3886"><g id="g3888"><g id="g3894"><g id="g3896"><linearGradient id="path3908_1_" gradientUnits="userSpaceOnUse" x1="-1028.231" y1="147.39" x2="-1028.011" y2="147.39" gradientTransform="translate(97492.89 -13925.958) scale(94.81)"><stop offset="0" style="stop-color:#1c63b7"/><stop offset=".2" style="stop-color:#1c63b7"/><stop offset=".8" style="stop-color:#00adef"/><stop offset="1" style="stop-color:#00adef"/></linearGradient><path id="path3908" d="M8.1 46.7c-1.5.4-1.8.7-1.8 1 0 .1 0 .2.1.3.5.7 2.9 1.2 4.8 1.5 2.3.4 4.5.5 6.8.6 3.1 0 6.3-.4 9.3-1.2-7.9-2.8-10.5-2.6-12.4-2.7h-1.5c-1.8-.1-3.6.1-5.3.5" style="fill:url(#path3908_1_)"/></g></g></g></g><g id="g3910"><defs><path id="SVGID_3_" d="M17.5 3.7c-1 .2-2 .5-2.9.8-.5.2-1 .4-1.4.5-.4.2-.7.4-1 .6-.2.2-.5.4-.8.7-.2.2-.4.4-.6.7-.1.2-.2.4-.2.7.1.3.2.5.5.7.5.3 1 .4 1.5.5.8.1 1.7.1 2.5.2h2c.8 0 1.6-.1 2.4-.2.6-.1 1.1-.2 1.7-.4 1.1-.4 1.5-.9 1.4-1.6-.1-.5-.9-.6-1.8-.6-1 0-1.9-.1-2.8-.4-.3-.1-.6-.4-.6-.7 0-.3.1-.7.4-.9.8-.5 1.8-.9 2.8-1-1.2.1-2.1.2-3.1.4"/></defs><clipPath id="SVGID_4_"><use xlink:href="#SVGID_3_" style="overflow:visible"/></clipPath><g style="clip-path:url(#SVGID_4_)"><g id="g3912"><g id="g3918"><g id="g3920"><g id="g3922"><path id="path3924" class="st6" d="M11.1 8.4c.5.3 1 .4 1.5.5l-.4-.4c-.5 0-1-.2-1.4-.4l.3.3z"/><path id="path3926" class="st6" d="M10.8 8.1c.4.2.9.3 1.4.4-.1-.2-.2-.4-.3-.5-.4 0-.8-.1-1.2-.3 0 .1 0 .3.1.4z"/><path id="path3928" class="st107" d="M12.6 8.9c.4 0 .8.1 1.2.1-.1-.2-.3-.4-.4-.5-.4 0-.8 0-1.2-.1l.4.5z"/><path id="path3930" class="st108" d="M12.2 8.4c.4 0 .8.1 1.2.1l-.5-.5h-1.1l.4.4z"/><path id="path3932" d="M13.8 9c.4 0 .8.1 1.3.1-.1-.2-.3-.4-.5-.6h-1.2c.1.2.3.3.4.5z" style="fill:#8f85b9"/><path id="path3934" class="st40" d="M13.4 8.5h1.2c-.2-.2-.4-.3-.6-.5h-1l.4.5z"/><path id="path3936" class="st96" d="M15.1 9.1h2c-.2-.3-.4-.5-.6-.7-.6 0-1.3.1-1.9.1.1.2.3.4.5.6z"/><path id="path3938" class="st110" d="M14.5 8.5c.6 0 1.2-.1 1.9-.1-.3-.2-.5-.3-.8-.5-.5.1-1.1.1-1.7.1.2.2.4.3.6.5z"/><path id="path3940" class="st102" d="M17.1 9.1c.5 0 .9 0 1.3-.1-.2-.3-.4-.6-.7-.7-.4.1-.8.1-1.2.1.2.2.4.4.6.7z"/><path id="path3942" class="st30" d="M16.5 8.4c.4 0 .8-.1 1.2-.1-.3-.2-.7-.3-1-.5l-1 .1c.2.2.5.3.8.5z"/><path id="path3944" class="st43" d="M18.4 9c-.3-.6-1.1-.9-1.7-1.2l1-.1c.6.2 1.5.5 1.8 1.2-.4.1-.7.1-1.1.1z"/><path id="path3946" class="st2" d="M19.5 8.9c.6-.1 1.1-.2 1.7-.4-.3-.6-1.2-.8-2-1-.5.1-1.1.2-1.4.2.5.3 1.4.6 1.7 1.2z"/><path id="path3948" class="st2" d="M21.1 8.5c1.1-.4 1.5-.9 1.4-1.6-.1-.4-.9-.6-1.8-.6 0 .7-.8 1-1.6 1.2.8.2 1.7.4 2 1z"/><path id="path3950" class="st6" d="M10.7 7.7c0-.2.1-.5.2-.7H12c0 .4.1.7.3 1-.6 0-1.1-.1-1.6-.3z"/><path id="path3952" class="st91" d="M12.3 8c-.2-.3-.3-.6-.3-1l1.1-.1c.1.4.4.8.9 1.1h-1.7z"/><path id="path3954" class="st111" d="M14 8c-.4-.3-.7-.7-.9-1.1l.7-.1c.2.5.6.9 1.1 1.2H14z"/><path id="path3956" class="st20" d="M14.9 8c-.5-.3-.9-.7-1.1-1.2h.7c.4.5.8.9 1.4 1.1l-1 .1z"/><path id="path3958" class="st52" d="M15.8 7.9c-.6-.3-1-.7-1.4-1.2.5 0 .9-.1 1.4-.1.5.5 1.2.8 1.9 1-.6.2-1.3.3-1.9.3z"/><path id="path3960" class="st2" d="M17.7 7.7c.8-.1 3-.2 3-1.4-1 0-1.9-.1-2.8-.4-.1.7-1.6.7-2.1.8.5.4 1.2.8 1.9 1z"/><path id="path3962" class="st6" d="M10.8 7h1.1v-.3c-.3.1-.7.1-1 .1l-.1.2z"/><path id="path3964" class="st112" d="M11 6.8c.3 0 .7 0 1-.1 0-.1.1-.2.1-.3-.3.1-.7.2-1 .2l-.1.2z"/><path id="path3966" class="st107" d="M11.1 6.6c.3-.1.7-.1 1-.2.1-.2.2-.4.3-.5-.3.1-.6.3-.9.4-.1.1-.3.2-.4.3z"/><path id="path3968" class="st91" d="m12 7 1.1-.1c-.1-.2-.1-.5 0-.7-.3.1-.7.1-1 .2-.1.2-.2.4-.1.6z"/><path id="path3970" d="M12.1 6.4c.3-.1.6-.2 1-.2l.3-.6c-.3.1-.7.2-1 .4-.1 0-.2.2-.3.4z" style="fill:#9b90c1"/><path id="path3972" class="st111" d="M13.1 6.9c-.1-.5 0-1 .3-1.3l.6-.1c-.3.4-.4.9-.2 1.4-.1-.1-.7 0-.7 0z"/><path id="path3974" class="st20" d="M13.7 6.8c-.2-.5-.1-1 .2-1.4l.6-.1c-.3.5-.4 1.1-.1 1.6h-.7z"/><path id="path3976" class="st54" d="M14.4 6.8c-.3-.5-.2-1.1.1-1.5l.6-.1c-.4.5-.4 1.2 0 1.6h-.7z"/><path id="path3978" class="st60" d="M15.1 6.8c-.4-.5-.4-1.2 0-1.6l.6-.2c-.4.5-.3 1.2.1 1.7l-.7.1z"/><path id="path3980" class="st2" d="M15.8 6.6c.5-.1 2 0 2.1-.8-.3-.1-.6-.4-.6-.7-.1.6-1.4.6-1.8.6 0 .4.1.7.3.9z"/><path id="path3982" class="st2" d="M15.5 5.8c.4-.1 1.6 0 1.8-.6 0-.3.1-.7.4-.9-.4.5-1.4.5-1.9.6-.3.3-.4.6-.3.9z"/><path id="path3984" class="st96" d="M11.4 6.3c.3-.1.6-.2.8-.4.1-.2.3-.3.4-.5-.3.1-.5.3-.9.5l-.3.4z"/><path id="path3986" class="st95" d="M11.8 5.9c.3-.2.6-.4.9-.5.2-.2.3-.3.5-.4-.4.2-.7.4-1 .6l-.4.3z"/><path id="path3988" d="m12.3 5.9.5-.2c.1-.2.3-.3.5-.5l-.5.2-.5.5z" style="fill:#a298c6"/><path id="path3990" d="m12.7 5.5.5-.2c.2-.2.4-.3.7-.5l-.7.2c-.2.1-.3.3-.5.5z" style="fill:#afa5ce"/><path id="path3992" class="st110" d="M12.8 5.8c.2-.1.4-.1.5-.2.2-.2.3-.4.5-.5-.2.1-.4.1-.6.2-.1.1-.3.3-.4.5z"/><path id="path3994" d="M13.3 5.2c.2-.1.4-.2.6-.2.2-.2.5-.3.7-.5l-.7.3c-.2.1-.4.2-.6.4z" style="fill:#afa6ce"/><path id="path3996" class="st111" d="m13.4 5.5 1.2-.3.6-.6-1.3.4c-.2.1-.4.3-.5.5z"/><path id="path3998" class="st97" d="m13.9 5 1.2-.4.9-.6c-.5.1-1 .3-1.4.4-.2.2-.5.4-.7.6z"/><path id="path4000" d="m14.5 5.2.6-.6.6-.2c-.2.2-.5.4-.6.6l-.6.2z" style="fill:#b8afd4"/><path id="path4002" class="st59" d="M15.1 5.1c.2-.2.4-.5.6-.6l.6-.1c-.3.2-.5.4-.7.6l-.5.1z"/><path id="path4004" class="st39" d="M15.1 4.6c.4-.1.8-.2 1.3-.3.4-.2.7-.4 1.1-.5l-1.5.3c-.3.1-.6.3-.9.5z"/><path id="path4006" class="st2" d="M15.7 4.9c.5-.1 1.6-.1 1.9-.6.8-.5 1.8-.9 2.8-1-.9.1-1.9.2-2.8.4-.8.3-1.4.7-1.9 1.2z"/></g></g></g></g></g></g><g id="g4008"><defs><path id="SVGID_5_" d="M26.8 7.9c.1.2.1.4.2.6.3 1.1 0 2.2-.8 3.1-.4.4-.8.8-1.4 1.1-1.1.6-2.3 1-3.5 1.3-1.6.5-2.6.8-4.4 1.1-1.8.4-3.5.8-5 1.1-1.3.3-3.1.6-4.8 1.1-1.5.3-3 .8-4.4 1.5-.4.2-.8.6-1 1-.2.7-.4 1.3-.6 2-.4 1.5-.7 3-.8 4.5-.2 1-.3 2.1-.3 3.2v1.3c.1 1.6.3 3.1.6 4.6v-.2l1.2-.6c.5-.2 1.1-.4 1.4-.5l1.7-.6c1.3-.5 3-1.1 4.8-1.7 1-.4 2-.8 3.1-1.2.8-.3 1.5-.7 2.2-1 1.5-.7 3-1.5 4.5-2.3l1.3-.8c1.2-.8 2.4-1.6 3.4-2.4.7-.5 1.3-1 1.9-1.5.8-.7 1.5-1.4 2.1-2.2.7-.8 1.2-1.6 1.6-2.5.2-.5.5-1.3.6-1.5.3-.8.5-1.6.7-2.4 0-.3.1-.5.1-.8.1-.8 0-1.5-.2-2.3-.2-.9-.6-1.7-1.2-2.4-.5-.7-1.2-1.2-2.1-1.3h-.1c-.6-.2-1 .3-.8.7"/></defs><clipPath id="SVGID_6_"><use xlink:href="#SVGID_5_" style="overflow:visible"/></clipPath><g style="clip-path:url(#SVGID_6_)"><g id="g4010"><g id="g4016"><g id="g4018"><g id="g4020"><path id="path4022" class="st2" d="M.6 35.5c0-.1 0-.2.1-.2-.3-1.5-.5-2.9-.5-4.4H.1c0 1.5.2 3.1.5 4.6z"/><path id="path4024" class="st98" d="M.7 35.3c-.3-1.5-.5-2.9-.5-4.4.1-.1.2-.2.4-.3.1 1.5.3 3 .6 4.5-.2 0-.4.1-.5.2z"/><path id="path4026" class="st91" d="M1.1 35c-.3-1.5-.5-3-.6-4.5.3-.2.6-.4 1-.4 0 1.5.2 3.1.4 4.6l-.8.3z"/><path id="path4028" class="st64" d="M1.9 34.7c-.2-1.5-.3-3.1-.4-4.6.2 0 .3 0 .5-.1.1 1.5.3 2.9.6 4.4l-.7.3z"/><path id="path4030" class="st119" d="M2.7 34.4C2.4 33 2.1 31.5 2 30l.9-.2c0 1.4.2 2.9.4 4.3l-.6.3z"/><path id="path4032" class="st77" d="M3.3 34.2c-.2-1.4-.3-2.9-.4-4.3l1-.2c-.1 1.4-.1 2.9 0 4.3l-.6.2z"/><path id="path4034" class="st8" d="M4 33.9c-.1-1.4-.1-2.9 0-4.3l1-.2c-.2 1.4-.3 2.8-.3 4.3l-.7.2z"/><path id="path4036" class="st74" d="m4.7 33.7.3-.1c0-1.4.2-2.8.4-4.2H5c-.2 1.4-.3 2.9-.3 4.3z"/><path id="path4038" class="st74" d="m4.9 33.6 2.2-.8c.1-.6.3-1.3.4-1.9-.9.2-1.7.5-2.5.6 0 .7 0 1.4-.1 2.1z"/><path id="path4040" class="st74" d="M5.1 31.5c.1-.7.1-1.4.2-2.1.4 0 .9-.1 1.3-.1-.1.7-.3 1.3-.4 2-.3 0-.7.1-1.1.2z"/><path id="path4042" class="st75" d="M6.3 31.2c.1-.7.3-1.3.4-2 .5-.1.9-.2 1.4-.3-.2.6-.3 1.3-.5 1.9 0 .1-1.3.4-1.3.4z"/><path id="path4044" class="st74" d="m7.2 32.8 2.6-1 .6-1.8c-1 .3-1.9.5-2.8.8-.2.7-.3 1.4-.4 2z"/><path id="path4046" class="st26" d="M7.6 30.9c.9-.2 1.8-.5 2.8-.8l.7-1.8c-1 .2-2 .5-3 .7-.2.6-.4 1.2-.5 1.9z"/><path id="path4048" class="st74" d="m9.7 31.8 1.5-.6.7-1.6c-.5.1-1.1.3-1.6.4l-.6 1.8z"/><path id="path4050" class="st77" d="M10.4 30.1c.6-.2 1.1-.3 1.6-.4l.8-1.7c-.5.1-1.1.2-1.7.3l-.7 1.8z"/><path id="path4052" class="st26" d="m11.3 31.3 1.5-.6.8-1.4-1.6.4-.7 1.6z"/><path id="path4054" class="st78" d="m12 29.7 1.6-.4c.2-.5.5-.9.8-1.5l-1.6.2-.8 1.7z"/><path id="path4056" class="st51" d="m12.8 30.7 1.1-.5.8-1.3-1.2.3-.7 1.5z"/><path id="path4058" class="st120" d="m13.6 29.2 1.2-.3c.2-.4.5-.8.8-1.3-.4.1-.8.2-1.2.2l-.8 1.4z"/><path id="path4060" class="st25" d="M13.9 30.2c.6-1 1-1.5 1.6-2.6l1.2-.3c-.6 1-1 1.4-1.7 2.4l-1.1.5z"/><path id="path4062" class="st6" d="M15 29.7c.4-.5.6-.8.9-1.2.5-.2.9-.4 1.3-.6-.3.4-.5.7-.9 1.2l-1.3.6z"/><path id="path4064" class="st112" d="M16.3 29.1c.4-.5.6-.8.9-1.2l1.2-.6c-.3.4-.6.8-1 1.3l-1.1.5z"/><path id="path4066" class="st6" d="M15.9 28.5c.9-.4 1.7-.8 2.5-1.2.3-.4.6-.8.9-1.3-.8.5-1.7.9-2.6 1.3-.3.5-.5.8-.8 1.2z"/><path id="path4068" d="M17.5 28.5c.4-.5.7-.9 1-1.3l1.2-.6c-.4.4-.7.9-1.1 1.4l-1.1.5z" style="fill:#7d73ad"/><path id="path4070" class="st81" d="M18.5 28c.4-.5.8-.9 1.1-1.4l1.2-.6c-.5.4-.9.9-1.3 1.4l-1 .6z"/><path id="path4072" class="st107" d="M18.5 27.2c.8-.4 1.6-.9 2.4-1.2.4-.4.8-.9 1.2-1.4-.9.4-1.8.8-2.6 1.3-.4.5-.7.9-1 1.3z"/><path id="path4074" class="st89" d="m19.5 27.4 1.3-.8c.5-.5 1-.9 1.4-1.3-.4.2-1 .6-1.4.8-.4.3-.9.8-1.3 1.3z"/><path id="path4076" class="st66" d="M20.8 26c.4-.2 1-.6 1.4-.8.4-.4.8-.8 1.2-1.3-.5.2-1 .5-1.4.7-.3.5-.7 1-1.2 1.4z"/><path id="path4078" class="st122" d="m20.9 26.5 1.8-1.2c.6-.4 1-.8 1.4-1.2-.5.3-1.2.7-1.8 1.1-.5.4-.9.8-1.4 1.3z"/><path id="path4080" class="st123" d="M22.2 25.2c.6-.4 1.3-.7 1.8-1.1l.6-.5c-.5.3-1.2.6-1.8 1-.1.2-.3.4-.6.6z"/><path id="path4082" class="st67" d="M22.9 24.6c.6-.3 1.3-.7 1.8-1l.6-.6-1.8.9c-.3.3-.4.5-.6.7z"/><path id="path4084" class="st58" d="M22.7 25.3c.6-.4 1.1-.8 1.6-1.2l.7-.5c-.5.3-1 .7-1.6 1.1l-.7.6z"/><path id="path4086" class="st93" d="M23.4 24.7c.6-.4 1.1-.7 1.6-1.1l.4-.3c-.3.2-.8.5-1.3.9l-.7.5z"/><path id="path4088" class="st4" d="M24 24.2c.5-.3 1-.6 1.3-.9l.3-.3-1 .6-.6.6z"/><path id="path4090" d="m24.7 23.6 1-.6.5-.4c-.1 0-.4.2-.9.5-.3.2-.5.4-.6.5z" style="fill:#bbb4d6"/><path id="path4092" class="st2" d="M0 30.9v-1.3c.1 0 .2-.1.4-.2v1.3c-.1.1-.2.2-.4.2z"/><path id="path4094" class="st123" d="M.4 30.7v-1.3c.3-.2.6-.4 1-.5 0 .4-.1.8-.1 1.3-.4 0-.7.2-.9.5z"/><path id="path4096" class="st90" d="m1.3 30.1.2-.1c0-.4 0-.8.1-1.2h-.2c0 .5 0 .9-.1 1.3z"/><path id="path4098" class="st64" d="M1.5 30.1c0-.4 0-.8.1-1.2h.6c0 .4-.1.8-.1 1.2h-.6z"/><path id="path4100" class="st119" d="M2.1 30c0-.4.1-.8.1-1.2l.9-.2c0 .4-.1.8-.2 1.2 0 .1-.9.2-.8.2z"/><path id="path4102" class="st77" d="M2.9 29.9c0-.4.1-.8.2-1.2l1-.2c-.1.3-.1.7-.2 1.1l-1 .3z"/><path id="path4104" class="st125" d="M3.9 29.6c0-.4.1-.8.2-1.2l1-.2c0 .5-.1.8-.2 1.2l-1 .2z"/><path id="path4106" class="st74" d="M5 29.4h.4c.1-.4.1-.8.2-1.2h-.4c-.1.5-.2.8-.2 1.2z"/><path id="path4108" class="st2" d="M0 29.6c0-1.1.1-2.2.2-3.3.2 0 .4-.1.6-.2-.2 1.1-.3 2.2-.3 3.2-.3.2-.4.3-.5.3z"/><path id="path4110" class="st123" d="M.4 29.3c.1-1.1.2-2.2.3-3.2.4-.2.8-.3 1.2-.4-.2 1-.4 2.1-.5 3.1-.3.2-.7.3-1 .5z"/><path id="path4112" class="st90" d="M1.4 28.9h.2c.1-1 .2-2.1.4-3.1-.3 1-.4 2.1-.6 3.1z"/><path id="path4114" class="st64" d="M1.6 28.8c.1-1 .2-2.1.4-3.1h.7c-.2 1-.4 2-.5 3.1h-.6z"/><path id="path4116" class="st119" d="M2.2 28.8c.1-1 .3-2 .5-3l1-.1-.6 3-.9.1z"/><path id="path4118" class="st77" d="M3.1 28.7c.1-1 .3-2 .6-3l1.1-.1c-.2 1-.4 2-.6 2.9l-1.1.2z"/><path id="path4120" class="st125" d="M4.1 28.5c.1-1 .4-2 .6-2.9l1-.1c-.2 1-.4 1.9-.6 2.9l-1 .1z"/><path id="path4122" class="st74" d="M5.1 28.3h.4c.2-1 .4-1.9.6-2.9h-.4c-.2.9-.4 1.9-.6 2.9z"/><path id="path4124" class="st74" d="M5.3 29.4c.2-1.3.4-2.7.8-4 .5 0 1 0 1.5-.1-.4 1.3-.7 2.6-1 3.9-.4.1-.8.2-1.3.2z"/><path id="path4126" class="st38" d="M6.7 29.2c.2-1.3.6-2.6 1-3.9.5 0 1.1-.1 1.6-.2-.4 1.2-.8 2.5-1.1 3.8-.5.2-1.1.3-1.5.3z"/><path id="path4128" class="st126" d="M8.1 29c.3-1.3.7-2.5 1.1-3.8 1.1-.1 2.2-.3 3.3-.4-.5 1.2-1 2.4-1.4 3.5-1 .2-2 .5-3 .7z"/><path id="path4130" class="st78" d="M11.1 28.3c1-.2 1.9-.3 2.9-.4.3-.6.5-1.2.7-1.8-.9.2-1.8.3-2.8.5-.4.5-.6 1.1-.8 1.7z"/><path id="path4132" class="st78" d="M11.8 26.5c1-.2 2-.3 2.8-.5.2-.6.4-1.2.7-1.8-.9.2-1.7.4-2.8.5-.2.6-.5 1.2-.7 1.8z"/><path id="path4134" class="st120" d="M14 27.8c1-.1 1.9-.3 2.8-.6.2-.3.3-.6.4-.9-.9.3-1.9.5-2.8.6-.2.4-.3.7-.4.9z"/><path id="path4136" class="st49" d="M14.3 27c1-.1 1.9-.3 2.8-.6.1-.3.2-.7.3-1-.9.3-1.8.5-2.8.7-.1.2-.2.6-.3.9z"/><path id="path4138" d="M14.7 26c.9-.2 1.9-.4 2.8-.7.1-.7.3-1.3.6-1.9-1 .3-1.9.5-2.8.8-.2.6-.5 1.2-.6 1.8z" style="fill:#7369a5"/><path id="path4140" class="st6" d="M16.8 27.2c.5-.2.9-.4 1.3-.6.2-.3.3-.6.4-.9-.4.2-.9.4-1.3.6-.1.4-.3.7-.4.9z"/><path id="path4142" class="st47" d="M17.1 26.4c.5-.2.9-.4 1.3-.6l.3-.9c-.5.2-.9.4-1.4.5 0 .3-.1.6-.2 1z"/><path id="path4144" class="st89" d="M18.1 26.6c.3-.6.6-1.2.7-1.8l1.4-.6c-.2.6-.4 1.1-.8 1.7-.4.3-.9.5-1.3.7z"/><path id="path4146" class="st65" d="M17.4 25.4c.9-.3 1.8-.7 2.7-1.1.2-.6.4-1.1.7-1.7-.9.3-1.9.6-2.8.9-.2.6-.5 1.2-.6 1.9z"/><path id="path4148" d="M19.4 25.9c.8-.5 1.7-.9 2.6-1.3.3-.5.6-1 .8-1.5-.9.3-1.8.7-2.7 1.1-.1.6-.4 1.2-.7 1.7z" style="fill:#8b81b6"/><path id="path4150" d="M20.1 24.3c.9-.4 1.8-.8 2.7-1.1.2-.5.5-1 .8-1.5-.9.3-1.8.6-2.8 1-.2.5-.5 1-.7 1.6z" style="fill:#948abc"/><path id="path4152" class="st101" d="M22 24.6c.8-.3 1.7-.8 2.5-1.2.3-.4.5-.9.7-1.3-.7.2-1.5.7-2.4 1-.2.5-.5 1-.8 1.5z"/><path id="path4154" class="st95" d="M22.9 23.1c.9-.3 1.6-.8 2.4-1 .2-.4.3-.9.5-1.4-.7.2-1.5.5-2.2.9-.3.6-.5 1.1-.7 1.5z"/><path id="path4156" class="st43" d="M24.5 23.4c.5-.8.9-1.7 1.2-2.7l1.1-.1c-.6 1-.5 1.4-1.3 2.3l-1 .5z"/><path id="path4158" d="M25.7 22.9c.8-.9.7-1.3 1.3-2.3.5-.1.9-.1 1.4-.2-.6.8-1.3 1.6-2.1 2.2l-.6.3z" style="fill:#c6bfdd"/><path id="path4160" class="st2" d="M.2 26.3c.2-1.5.4-3 .8-4.5h.7c-.4 1.4-.8 2.9-1 4.4-.1.1-.3.1-.5.1z"/><path id="path4162" class="st131" d="M.7 26.1c.2-1.5.6-3 1-4.4.4-.1.8-.2 1.2-.2-.5 1.4-.8 2.8-1.1 4.2-.4.1-.7.2-1.1.4z"/><path id="path4164" class="st122" d="M1.8 25.8H2c.2-1.4.6-2.8 1-4.2-.5 1.3-.9 2.7-1.2 4.2z"/><path id="path4166" class="st90" d="M2 25.8c.2-1.4.6-2.8 1-4.2.3 0 .5.1.8.1-.5 1.4-.9 2.7-1.1 4.2-.3-.1-.5-.1-.7-.1z"/><path id="path4168" class="st42" d="M2.6 25.8c.3-1.4.7-2.8 1.2-4.2h1c-.5 1.3-.9 2.7-1.2 4.1l-1 .1z"/><path id="path4170" d="M3.6 25.7c.3-1.4.7-2.7 1.2-4.1h1.1c-.5 1.3-.9 2.6-1.2 4l-1.1.1z" style="fill:#685f9d"/><path id="path4172" class="st26" d="M4.7 25.5c.3-1.4.7-2.7 1.2-4H7c-.5 1.3-.9 2.6-1.2 3.9l-1.1.1z"/><path id="path4174" class="st74" d="M5.7 25.4h.4c.3-1.3.8-2.6 1.2-3.9h-.4l-1.2 3.9z"/><path id="path4176" class="st74" d="M6.1 25.4c.3-1.3.8-2.6 1.2-3.9 1 .1 2.1.1 3.1 0-.5 1.2-.8 2.4-1.2 3.7-1 .1-2 .2-3.1.2z"/><path id="path4178" class="st26" d="M9.2 25.2c.4-1.2.7-2.5 1.2-3.7l3.2-.2c-.5 1.1-.7 2.3-1.2 3.5-1 .1-2.1.2-3.2.4z"/><path id="path4180" class="st78" d="M12.5 24.8c.5-1.2.6-2.4 1.2-3.5 1.1-.1 2-.2 2.8-.2-.5 1.1-.6 2.1-1.2 3.2-.8.1-1.7.3-2.8.5z"/><path id="path4182" class="st63" d="M15.3 24.2c.6-1.1.7-2.1 1.2-3.2.9-.1 1.9-.2 2.8-.5-.6 1.1-.6 1.9-1.3 2.9-1 .4-1.8.6-2.7.8z"/><path id="path4184" d="M18.1 23.5c.6-1.1.7-1.9 1.3-2.9.9-.2 1.8-.5 2.7-.9-.5 1.1-.6 1.8-1.2 2.9-1 .3-1.9.6-2.8.9z" style="fill:#897fb5"/><path id="path4186" class="st123" d="M20.9 22.6c.6-1.1.7-1.9 1.2-2.9l1.4-.5c-.3 1-.7 2-1.2 3l-1.4.4z"/><path id="path4188" d="M22.2 22.1c.5-1 .8-2 1.2-3l1.3-.5c-.3 1-.7 2-1.1 3l-1.4.5z" style="fill:#aaa1cb"/><path id="path4190" class="st3" d="M23.6 21.6c.8-.3 1.3-.7 1.9-.8.5-1 .9-2 1.2-3-.7.2-1.4.5-2 .8-.3 1-.7 2-1.1 3z"/><path id="path4192" class="st135" d="m25.5 20.8.3-.1c.5-1 1-2 1.3-3h-.4c-.4 1.1-.8 2.1-1.2 3.1z"/><path id="path4194" d="M25.8 20.8c.9-.1 1.7-.2 2.5-.4.7-.8 1.2-1.7 1.6-2.6-1 0-2-.1-2.8 0-.3 1-.8 2-1.3 3z" style="fill:#c7c0dd"/><path id="path4196" class="st2" d="M1 21.8c.2-.7.4-1.3.6-2h.8c-.2.6-.5 1.3-.7 2H1z"/><path id="path4198" class="st131" d="M1.8 21.8c.2-.7.4-1.3.7-2 .3-.1.7-.1 1.2-.2-.3.6-.5 1.3-.7 1.9-.5.1-.9.2-1.2.3z"/><path id="path4200" class="st122" d="M2.9 21.5c.2-.7.4-1.3.7-1.9h.9c-.3.7-.5 1.3-.7 2-.4 0-.6 0-.9-.1z"/><path id="path4202" class="st85" d="M3.7 21.6c.2-.7.5-1.3.7-2h1c-.3.6-.6 1.3-.8 2h-.9z"/><path id="path4204" class="st50" d="M4.7 21.6c.2-.7.5-1.4.8-2h1.1c-.3.6-.6 1.3-.8 2H4.7z"/><path id="path4206" class="st26" d="M5.8 21.5c.2-.7.5-1.4.8-2h1.1c-.3.6-.6 1.3-.8 2H5.8z"/><path id="path4208" class="st74" d="M6.9 21.5h.4c.2-.7.5-1.4.8-2h-.3c-.4.6-.6 1.3-.9 2z"/><path id="path4210" class="st2" d="M1.7 19.8c.3 0 .5 0 .8-.1-.3.1-.6.1-.8.1z"/><path id="path4212" class="st131" d="M2.4 19.8c.3-.1.7-.1 1.2-.2-.5 0-.9.1-1.2.2z"/><path id="path4214" class="st122" d="M3.6 19.6h.9-.9z"/><path id="path4216" class="st85" d="M4.4 19.6h1-1z"/><path id="path4218" class="st50" d="M5.5 19.6h1.1-1.1z"/><path id="path4220" class="st26" d="M6.7 19.6h1.1-1.1z"/><path id="path4222" class="st74" d="M7.8 19.5h.4-.4z"/><path id="path4224" class="st2" d="M1.7 19.8c.2-.4.6-.8 1-1h.8c-.4.2-.8.6-1.1 1h-.7z"/><path id="path4226" class="st131" d="M2.4 19.8c.2-.4.6-.8 1-1 .3-.1.7-.1 1.1-.2-.4.2-.8.6-1 1-.4 0-.7.1-1.1.2z"/><path id="path4228" class="st122" d="M3.6 19.6c.2-.4.6-.8 1-1h.9c-.4.2-.8.6-1.1 1h-.8z"/><path id="path4230" class="st85" d="M4.5 19.6c.2-.4.6-.8 1.1-1h1.1c-.4.3-.8.6-1.1 1.1l-1.1-.1z"/><path id="path4232" class="st50" d="M5.5 19.6c.3-.4.6-.8 1.1-1.1l1.1-.1c-.4.3-.8.7-1 1.1l-1.2.1z"/><path id="path4234" class="st26" d="M6.7 19.5c.2-.4.6-.8 1-1.1l1.1-.1c-.4.3-.8.7-1.1 1.2h-1z"/><path id="path4236" class="st74" d="M7.8 19.5h.4c.3-.5.6-.9 1.1-1.2h-.5c-.4.3-.8.7-1 1.2z"/><path id="path4238" class="st74" d="M7.4 21.5c.5-1.2.8-2.4 1.9-3.2 1 0 2.1 0 3.1-.1-.9.9-1.5 2-1.9 3.2-1.1.1-2.1.1-3.1.1z"/><path id="path4240" d="M10.5 21.5c.3-1.2 1-2.3 1.9-3.2l1.5-.1c-.8.9-1.4 2-1.8 3.2l-1.6.1z" style="fill:#605798"/><path id="path4242" class="st138" d="M12.1 21.4c.4-1.2 1-2.3 1.8-3.2l1.6-.1c-.8.9-1.4 2-1.8 3.2l-1.6.1z"/><path id="path4244" class="st78" d="M13.7 21.2c.4-1.2 1-2.2 1.8-3.2l1.6-.1c-.8 1-1.4 2-1.9 3.2l-1.5.1z"/><path id="path4246" d="M15.2 21.1c.5-1.1 1.1-2.2 1.9-3.2l1.6-.2c-.8 1-1.5 2.1-2.1 3.2l-1.4.2z" style="fill:#746aa6"/><path id="path4248" class="st65" d="M16.5 21c.6-1.1 1.3-2.2 2.1-3.2.5-.1 1-.1 1.5-.2-.6 1-1.8 2.2-2.3 3.2-.4.1-.8.1-1.3.2z"/><path id="path4250" class="st108" d="M17.9 20.8c.5-1 1.7-2.2 2.3-3.2.5-.1 1-.2 1.6-.3-.6 1-1.8 2.2-2.4 3.3-.6 0-1.1.2-1.5.2z"/><path id="path4252" class="st96" d="M19.3 20.5c.9-.2 1.8-.5 2.7-.9.3-.6.7-1.2 1.2-1.7-.9.4-1.8.7-2.7 1-.4.5-.8 1.1-1.2 1.6z"/><path id="path4254" class="st101" d="M20.5 18.9c.9-.3 1.8-.6 2.7-1 .4-.5.8-1.1 1.1-1.8-.9.4-1.7.8-2.7 1.1-.2.6-.6 1.1-1.1 1.7z"/><path id="path4256" d="M22.1 19.6c.3-.6.7-1.2 1.2-1.7l1.4-.6c-.5.6-.9 1.2-1.2 1.8l-1.4.5z" style="fill:#b4abd1"/><path id="path4258" d="M23.4 19.1c.3-.6.7-1.2 1.2-1.8.5-.2.9-.4 1.3-.5-.5.6-.9 1.2-1.2 1.8l-1.3.5z" style="fill:#c0b9d9"/><path id="path4260" d="M23.2 17.9c.4-.5.8-1.1 1.1-1.8l1.3-.7c-.3.7-.7 1.3-1.1 1.8l-1.3.7z" style="fill:#beb6d7"/><path id="path4262" d="M24.6 17.3c.5-.5.8-1.2 1.1-1.8.4-.2.9-.4 1.3-.5-.3.7-.6 1.3-1.1 1.8-.4.1-.8.3-1.3.5z" style="fill:#cac2df"/><path id="path4264" d="M24.7 18.6c.6-.4 1.3-.6 1.9-.8.2-.5.5-1 .7-1.5-.7.1-1.1.6-1.8.9-.3.4-.6.9-.8 1.4z" style="fill:#c9c2df"/><path id="path4266" class="st145" d="M26.7 17.8h.2c.2-.5.5-1 .8-1.5h-.2c-.3.4-.6.9-.8 1.5z"/><path id="path4268" class="st145" d="M26.9 17.8c.9-.1 1.9 0 3 0 .2-.5.5-1.3.6-1.5-1-.1-1.9-.1-2.9 0-.3.4-.5.9-.7 1.5z"/><path id="path4270" d="M25.7 17.2c.7-.3 1.2-.8 1.8-.9.4-.7.8-1.5 1-2.4-.5.2-.8.8-1.5 1-.3.8-.8 1.6-1.3 2.3z" style="fill:#cec9e2"/><path id="path4272" class="st147" d="M27.5 16.3h.2c.4-.7.8-1.5 1-2.4l-.2.1c-.3.8-.6 1.6-1 2.3z"/><path id="path4274" d="M27.7 16.2c1-.1 1.9-.1 2.9 0 .3-.8.5-1.6.7-2.4-.9-.2-1.7-.2-2.6 0-.3.9-.6 1.7-1 2.4z" style="fill:#d4cfe5"/><path id="path4276" class="st2" d="M2.7 18.8c.3 0 .6 0 .8-.1l.4-.2c-.3.1-.6.1-.8.1l-.4.2z"/><path id="path4278" d="M3.1 18.6c.3 0 .6 0 .8-.1l.5-.2c-.3.1-.6.1-.8.1l-.5.2z" style="fill:#bdb5d7"/><path id="path4280" class="st3" d="M3.5 18.4c.3 0 .6 0 .9-.1.3-.1.7-.3 1.1-.4-.3.1-.6.1-.9.1-.4.1-.7.3-1.1.4z"/><path id="path4282" class="st53" d="M4.6 18c.3 0 .6 0 .9-.1.4-.1.8-.3 1.2-.4-.3.1-.6.1-.9.1-.4.2-.8.3-1.2.4z"/><path id="path4284" class="st87" d="M5.8 17.6c.3 0 .6-.1.9-.1l1.2-.3c-.3 0-.6.1-.9.1l-1.2.3z"/><path id="path4286" class="st94" d="M3.5 18.8c.3-.1.7-.1 1.1-.2.3-.2.6-.3.9-.4-.4 0-.8.1-1.1.2-.3.1-.6.2-.9.4z"/><path id="path4288" class="st40" d="M4.4 18.3c.3-.1.7-.1 1.1-.2s.7-.3 1-.4c-.4 0-.7.1-1.1.2s-.7.3-1 .4z"/><path id="path4290" d="M5.5 17.9c.3-.1.7-.1 1.1-.2.7-.2 1.5-.5 2.3-.7l-.9.2c-.9.2-1.7.4-2.5.7z" style="fill:#8d84b8"/><path id="path4292" class="st45" d="M4.7 18.5h.8c.3-.2.6-.3.9-.5h-.9c-.2.2-.5.4-.8.5z"/><path id="path4294" class="st107" d="M5.5 18.1h.9c.3 0 .7-.3 1-.4l-.9.1c-.4.1-.7.2-1 .3z"/><path id="path4296" class="st81" d="m6.5 17.8.9-.1c.7-.3 1.5-.5 2.3-.8l-.9.1c-.8.3-1.6.5-2.3.8z"/><path id="path4298" class="st32" d="M5.4 18.5c.5 0 1.1 0 1.6-.1.3-.2.6-.4.9-.5-.5.1-1 .1-1.5.2-.3.1-.7.3-1 .4z"/><path id="path4300" class="st85" d="M6.4 18.1c.5 0 1.1-.1 1.6-.1.3-.2.7-.3 1-.5-.6.1-1.1.1-1.6.2s-.7.2-1 .4z"/><path id="path4302" class="st22" d="M7.4 17.6c.5 0 1-.1 1.6-.2.7-.3 1.4-.6 2.2-.8-.5.1-1 .2-1.5.2-.8.3-1.6.6-2.3.8z"/><path id="path4304" class="st151" d="m7.1 18.5 1.7-.1c.6-.4 1.2-.7 1.9-1-.5 0-1.1.1-1.7.2-.6.2-1.3.5-1.9.9z"/><path id="path4306" class="st76" d="M9 17.5c.6-.1 1.1-.1 1.7-.2.6-.3 1.3-.6 2-.8-.5.1-1 .1-1.5.2-.7.2-1.5.5-2.2.8z"/><path id="path4308" class="st74" d="M8.8 18.3h.4c1.2-.8 2.5-1.4 3.8-1.9h-.4c-1.3.5-2.6 1.1-3.8 1.9z"/><path id="path4310" class="st74" d="M9.3 18.3c1 0 2.1 0 3.1-.1.5-.4 1-.8 1.6-1.1-.9.1-1.8.1-2.8.2-.7.3-1.3.6-1.9 1z"/><path id="path4312" class="st74" d="M11.1 17.2c.7-.3 1.3-.6 2-.9l1.3-.1c-.6.3-1.3.6-1.9.9l-1.4.1z"/><path id="path4314" class="st75" d="M12.6 17.2c.6-.3 1.2-.6 1.9-.9l1.2-.1c-.6.3-1.1.6-1.7 1h-1.4z"/><path id="path4316" class="st23" d="M12.4 18.2c.5-.4 1-.8 1.6-1.1l1.4-.1c-.5.3-.9.7-1.4 1.2h-1.6z"/><path id="path4318" class="st76" d="m13.9 18.2 1.6-.1.6-.6-1.5.1c0-.1-.7.6-.7.6z"/><path id="path4320" class="st151" d="m14.6 17.5 1.5-.1.6-.6-1.5.2c-.2.2-.4.3-.6.5z"/><path id="path4322" class="st126" d="M13.9 17.1c.9-.1 1.8-.1 2.8-.2.4-.4.9-.8 1.4-1.1-1 .1-1.7.3-2.5.4-.6.2-1.1.5-1.7.9z"/><path id="path4324" class="st78" d="m15.5 18.1.6-.6 1.6-.1-.6.6-1.6.1z"/><path id="path4326" class="st32" d="m17.1 17.9.6-.6c.5 0 1-.1 1.5-.2-.2.2-.4.4-.6.7l-1.5.1z"/><path id="path4328" class="st79" d="m16.1 17.4.6-.6 1.6-.1-.6.6-1.6.1z"/><path id="path4330" class="st6" d="m17.7 17.3.6-.6 1.5-.2-.5.5-1.6.3z"/><path id="path4332" class="st45" d="M18.6 17.8c.3-.4.7-.8 1.1-1.2.5-.1 1-.1 1.5-.2-.4.4-.7.8-1.1 1.2-.4.1-1 .2-1.5.2z"/><path id="path4334" class="st40" d="M20.2 17.6c.3-.4.7-.9 1.1-1.2.5-.1 1-.2 1.5-.4-.4.4-.7.8-1 1.3-.6.1-1.1.2-1.6.3z"/><path id="path4336" class="st49" d="M16.7 16.9c.4-.4.9-.8 1.4-1.1l1.4-.2c-.5.4-.9.8-1.3 1.2l-1.5.1z"/><path id="path4338" class="st65" d="M18.2 16.8c.4-.4.8-.8 1.3-1.1.5-.1.9-.1 1.4-.2l-1.2 1.2c-.5-.1-1 0-1.5.1z"/><path id="path4340" class="st31" d="M19.7 16.6c.3-.4.7-.9 1.2-1.2.5-.1.9-.2 1.4-.3-.4.4-.7.8-1 1.3-.6 0-1.1.1-1.6.2z"/><path id="path4342" d="M21.2 16.3c.3-.5.6-.9 1-1.3.5-.1 1-.3 1.5-.4-.4.4-.7.9-.9 1.4-.6.1-1 .2-1.6.3z" style="fill:#a59bc7"/><path id="path4344" class="st111" d="M21.7 17.2c.3-.5.6-.9 1-1.3.9-.3 1.7-.7 2.5-1.1-.3.4-.6.9-.8 1.3-.9.5-1.7.9-2.7 1.1z"/><path id="path4346" class="st135" d="M24.4 16.1c.3-.5.5-.9.8-1.3.4-.2.8-.5 1.2-.7-.1.4-.5.8-.7 1.4l-1.3.6z"/><path id="path4348" d="M25.7 15.5c.2-.6.5-.9.7-1.4.4-.2.7-.5 1-.7-.1.5-.3.9-.5 1.5-.3.2-.8.4-1.2.6z" style="fill:#d0c9e3"/><path id="path4350" class="st3" d="M22.7 16c.3-.5.6-.9 1-1.4.8-.3 1.6-.7 2.4-1.1-.2.5-.6.9-.8 1.4-.8.4-1.7.8-2.6 1.1z"/><path id="path4352" d="M25.2 14.8c.1-.4.6-.9.8-1.4.4-.2.7-.5 1.1-.8-.2.6-.5 1-.6 1.4-.4.4-.9.6-1.3.8z" style="fill:#cac3df"/><path id="path4354" d="M26.4 14.1c.1-.5.5-.8.6-1.4.3-.3.6-.6.8-.9-.1.7-.3 1.1-.4 1.6-.2.2-.6.5-1 .7z" style="fill:#d1cbe3"/><path id="path4356" class="st147" d="M27 14.9c.8-.3 1-.9 1.6-1.1.1-.3.1-.6.1-.9-.6.2-.8.8-1.5 1.2l-.2.8z"/><path id="path4358" class="st147" d="M28.6 13.9c.9-.2 1.7-.2 2.6 0 0-.3.1-.5.1-.8-.8-.3-1.7-.3-2.5-.1-.1.2-.1.5-.2.9z"/><path id="path4360" class="st147" d="M27.3 14.1c.7-.4.8-1 1.5-1.2.1-.9.1-1.7.1-2.6-.6.3-.6.8-1 1.5-.3 1-.4 1.5-.6 2.3z"/><path id="path4362" class="st147" d="M28.7 12.9c.8-.2 1.7-.1 2.5.1.1-.8 0-1.6-.2-2.3-1.1-.2-1.5-.7-2.3-.4.2.9.1 1.8 0 2.6z"/><path id="path4364" class="st6" d="M7 17.3c.5 0 .9-.1 1.4-.2l1.2-.4c-.4.1-.8.2-1.3.2l-1.3.4z"/><path id="path4366" class="st84" d="M8.3 17c.4 0 .9-.1 1.3-.2l1.2-.3c-.4.1-.8.1-1.2.2l-1.3.3z"/><path id="path4368" class="st33" d="M9.6 16.7c.4 0 .8-.1 1.2-.2.8-.2 1.5-.3 2.1-.5l-1 .2-2.3.5z"/><path id="path4370" d="M8.4 17.1c.4-.1.9-.1 1.3-.2l1.1-.3c-.4.1-.9.1-1.3.2l-1.1.3z" style="fill:#6d64a2"/><path id="path4372" class="st33" d="M9.6 16.8c.4-.1.9-.2 1.3-.2l1.1-.3c-.4.1-.8.1-1.2.2l-1.2.3z"/><path id="path4374" class="st126" d="M10.8 16.5c.4-.1.8-.2 1.2-.2.7-.2 1.4-.3 2-.5l-1.1.2c-.6.2-1.4.3-2.1.5z"/><path id="path4376" class="st33" d="M9.7 16.9c.6-.1 1.1-.2 1.7-.3l1.1-.4c-.5.1-1.1.2-1.6.3l-1.2.4z"/><path id="path4378" class="st125" d="M10.9 16.6c.5-.1 1.1-.2 1.6-.3l1-.3-1.5.3-1.1.3z"/><path id="path4380" class="st23" d="m12 16.3 1.5-.3 1-.3-1.4.3-1.1.3z"/><path id="path4382" class="st26" d="m13 16 1.5-.3.9-.2-1.4.3-1 .2z"/><path id="path4384" d="M11.4 16.6c.6-.1 1.1-.2 1.7-.2l1-.4c-.5.1-1.1.2-1.6.2l-1.1.4z" style="fill:#5f5697"/><path id="path4386" class="st75" d="M12.5 16.3c.5-.1 1.1-.2 1.6-.2l1-.3c-.5.1-1 .2-1.6.3l-1 .2z"/><path id="path4388" class="st9" d="M13.5 16c.5-.1 1-.2 1.6-.3l.9-.3-1.5.3-1 .3z"/><path id="path4390" class="st151" d="m14.5 15.8 1.5-.3.8-.2-1.5.3-.8.2z"/><path id="path4392" class="st74" d="m13.1 16.4 1.3-.1 1-.4-1.3.1-1 .4z"/><path id="path4394" class="st38" d="m14.1 16 1.3-.2 1-.4-1.3.2-1 .4z"/><path id="path4396" class="st8" d="m14.4 16.3 1.2-.1c.3-.2.6-.3 1-.5l-1.1.2-1.1.4z"/><path id="path4398" class="st138" d="m15.4 15.9 1.1-.2 1-.4-1.1.2-1 .4z"/><path id="path4400" class="st76" d="m15.1 15.7 1.3-.2.9-.3-1.2.2-1 .3z"/><path id="path4402" class="st79" d="m16 15.4 1.2-.2.8-.3-1.2.3-.8.2z"/><path id="path4404" class="st79" d="M16.4 15.5c.6-.2 1.2-.4 1.7-.6l1.1-.2-1.6.6-1.2.2z"/><path id="path4406" d="M15.6 16.1c.8-.1 1.5-.2 2.5-.4.3-.2.6-.4.9-.5l-2.4.5c-.4.1-.7.3-1 .4z" style="fill:#68609e"/><path id="path4408" d="m16.6 15.7 2.4-.5.9-.5c-.9.2-1.6.4-2.3.5l-1 .5z" style="fill:#6f66a3"/><path id="path4410" class="st6" d="M17.5 15.3c.7-.1 1.5-.3 2.3-.5.6-.3 1.1-.5 1.5-.7-.8.3-1.5.4-2.2.6l-1.6.6z"/><path id="path4412" class="st89" d="M18.1 15.8c1-.1 1.9-.3 2.8-.4.4-.4.8-.8 1.3-1.1-.8.2-1.5.4-2.3.5-.7.2-1.3.6-1.8 1z"/><path id="path4414" d="M19.9 14.8c.8-.2 1.5-.3 2.3-.5.4-.3.7-.5.9-.7-.6.2-1.2.4-1.8.5-.3.1-.8.4-1.4.7z" style="fill:#988fbf"/><path id="path4416" class="st94" d="M20.9 15.4c.4-.4.8-.8 1.3-1.1.4-.1.8-.2 1.1-.4-.4.4-.7.7-1 1.2-.5.1-.9.2-1.4.3z"/><path id="path4418" class="st98" d="M22.3 15c.3-.4.6-.8 1-1.2.4-.1.7-.3 1.1-.5-.2.2-.4.6-.8 1.2-.4.3-.9.4-1.3.5z"/><path id="path4420" class="st20" d="M22.1 14.2c.4-.3.7-.5.9-.7s.6-.2.9-.3c-.2.3-.5.5-.7.7-.3.1-.7.2-1.1.3z"/><path id="path4422" d="M23.3 13.9c.3-.2.5-.5.7-.7.3-.1.6-.3.9-.4l-.5.7c-.4.1-.8.2-1.1.4z" style="fill:#c3bbdb"/><path id="path4424" class="st2" d="M23.7 14.6c.5-.2 1.1-.4 1.6-.7.3-.4.5-.9.6-1.4-.5.4-1 .7-1.5.9-.2.3-.4.6-.7 1.2z"/><path id="path4426" d="M24.4 13.4c.5-.2 1-.6 1.5-.9l.3-.9c-.4.5-.8.8-1.3 1.1l-.5.7z" style="fill:#cdc6e1"/><path id="path4428" d="m25.2 13.9 1.5-.9c.2-.5.3-1.1.3-1.6-.3.4-.7.8-1.1 1.2-.2.4-.4.8-.7 1.3z" style="fill:#cbc4df"/><path id="path4430" class="st145" d="M25.9 12.5c.4-.3.8-.7 1.1-1.2-.1-.4-.1-.8-.1-1.1-.2.5-.4 1-.8 1.4 0 .3-.1.6-.2.9z"/><path id="path4432" class="st145" d="M26.8 13c.3-.9.4-1.8.2-2.7.1-.6.1-1.1 0-1.7.2.8 1.2 1.8.9 3.2-.4.4-.7.8-1.1 1.2z"/><path id="path4434" class="st147" d="M27.9 11.8c.1-.2.2-.4.3-.5.1-1.5-1-2.5-1.4-3.4.1.2.1.4.2.6.2.9 1.2 1.8.9 3.3z"/><path id="path4436" class="st147" d="M28.1 11.2c.2-.4.3-.7.7-.9-.2-1.2-.6-2.3-1.4-3.3-.6.1-.9.5-.7.8.5 1 1.6 2 1.4 3.4z"/><path id="path4438" class="st147" d="m28.9 10.3.2-.1c-.2-1.1-.6-2.2-1.3-3.2h-.3c.7 1 1.2 2.1 1.4 3.3z"/><path id="path4440" class="st147" d="M29.1 10.3c.7-.2 1.1.3 2.1.5-.2-.9-.6-1.7-1.2-2.4-.5-.7-1.2-1.2-2.1-1.3.6.9 1 2 1.2 3.2z"/></g></g></g></g></g></g></g></g></svg>