<?xml version="1.0" encoding="utf-8"?>
<!-- Generator: Adobe Illustrator 21.1.0, SVG Export Plug-In . SVG Version: 6.00 Build 0)  -->
<svg version="1.1"
	 id="Layer_1" inkscape:output_extension="org.inkscape.output.svg.inkscape" inkscape:version="0.46" sodipodi:docname="notice_of_meeting_2006.svg" sodipodi:version="0.32" xmlns:cc="http://creativecommons.org/ns#" xmlns:dc="http://purl.org/dc/elements/1.1/" xmlns:inkscape="http://www.inkscape.org/namespaces/inkscape" xmlns:rdf="http://www.w3.org/1999/02/22-rdf-syntax-ns#" xmlns:sodipodi="http://sodipodi.sourceforge.net/DTD/sodipodi-0.dtd" xmlns:svg="http://www.w3.org/2000/svg"
	 xmlns="http://www.w3.org/2000/svg" xmlns:xlink="http://www.w3.org/1999/xlink" x="0px" y="0px" viewBox="0 0 68 68"
	 style="enable-background:new 0 0 68 68;" xml:space="preserve">
<style type="text/css">
	.st0{fill:#15569C;}
	.st1{fill:#FFFFFF;}
</style>
<rect x="0" class="st0" width="68" height="68"/>
<g id="_x23_15569cff">
	<path class="st1" d="M8.2,21h21.2c0.3,0.2,0.6,0.4,0.9,0.7c-7.1,0-14.2,0-21.3,0C8.7,21.5,8.4,21.3,8.2,21z"/>
	<path class="st1" d="M40.5,21h21.1c-0.1,0.4-0.6,0.7-1,0.7c-7,0-14,0-21,0C39.9,21.5,40.3,21.2,40.5,21z"/>
	<path class="st1" d="M10,22.6c7,0,13.9,0,20.9,0c0.5-0.1,0.8,0.4,1.2,0.7c-7.1,0-14.2,0-21.3,0C10.5,23.1,10.3,22.8,10,22.6z"/>
	<path class="st1" d="M37.9,23.3c0.3-0.2,0.5-0.5,0.8-0.7c7.1,0,14.2,0,21.3,0c-0.3,0.2-0.5,0.5-0.8,0.7
		C52.1,23.3,45,23.3,37.9,23.3z"/>
	<path class="st1" d="M11.8,24.2c7.1,0,14.3,0,21.4,0c0.3,0.2,0.5,0.4,0.8,0.7c-7,0-13.9,0-20.9,0C12.6,25,12.2,24.4,11.8,24.2z"/>
	<path class="st1" d="M36.1,24.8c0.2-0.2,0.5-0.5,0.7-0.7c7.1,0,14.2,0,21.3,0c-0.3,0.2-0.6,0.5-0.9,0.7
		C50.2,24.8,43.1,24.9,36.1,24.8z"/>
	<path class="st1" d="M13.7,25.7c7.1,0,14.1,0,21.2,0c0.4,0.1,0.6,0.5,1,0.7c-7.1,0-14.2,0-21.3,0C14.2,26.2,14,26,13.7,25.7z"/>
	<path class="st1" d="M36.3,25.7c6.7,0,13.3,0,20,0c-0.4,0.2-0.7,0.8-1.3,0.7c-6,0-12,0-18,0C36.8,26.2,36.6,26,36.3,25.7z"/>
	<path class="st1" d="M15.5,27.3c7.1,0,14.2,0,21.2,0c0.3,0.1,0.6,0.4,0.9,0.7c-7.1,0-14.1,0-21.2,0C16.1,27.8,15.8,27.5,15.5,27.3z
		"/>
	<path class="st1" d="M38.1,27.3c5.5,0,10.9,0,16.4,0c-0.3,0.2-0.6,0.5-0.9,0.7c-4.9,0-9.8,0-14.6,0C38.7,27.7,38.4,27.5,38.1,27.3z
		"/>
	<path class="st1" d="M17.4,28.8c7.1,0,14.2,0,21.2,0c0.3,0.2,0.5,0.4,0.8,0.7c-7.1,0-14.2,0-21.3,0C17.9,29.3,17.6,29.1,17.4,28.8z
		"/>
	<path class="st1" d="M40,28.8c4.2,0,8.4,0,12.6,0c-0.3,0.2-0.6,0.6-0.9,0.7c-3.7,0-7.3,0-11,0C40.5,29.3,40.3,29,40,28.8z"/>
	<path class="st1" d="M8,31c1,0,1.9,0,2.9,0c0,1,0,1.9,0,2.9c1,0,2,0,3,0c0-1,0-1.9,0-2.9c1,0,2,0,3,0c0,2.7,0,5.4,0,8.1
		c-1,0-2,0-3,0c0-1,0-2.1,0-3.1c-1,0-2,0-3,0c0,1,0,2.1,0,3.1c-1,0-1.9,0-2.9,0V31z"/>
	<path class="st1" d="M17.2,39.1c1.2-2.7,2.4-5.5,3.6-8.2c0.9,0,1.9,0,2.8,0c1.2,2.7,2.4,5.5,3.6,8.2c-1,0-2,0-3,0
		c-0.2-0.4-0.4-0.9-0.6-1.4c-1,0-2,0-3,0c-0.2,0.5-0.4,0.9-0.6,1.4C19.2,39.1,18.2,39.1,17.2,39.1 M21.6,36c0.4,0,0.9,0,1.3,0
		c-0.2-0.5-0.4-1-0.6-1.5C22,35,21.8,35.5,21.6,36z"/>
	<path class="st1" d="M27.5,31c1,0,2,0,3,0c0,2,0,4,0,6.1c1,0,1.9,0,2.9,0c0,0.7,0,1.4,0,2.1c-2,0-3.9,0-5.9,0
		C27.5,36.4,27.5,33.7,27.5,31z"/>
	<path class="st1" d="M33.9,31c1,0,1.9,0,2.9,0c0,2.7,0,5.5,0,8.2c-1,0-1.9,0-2.9,0C33.9,36.4,33.9,33.7,33.9,31z"/>
	<path class="st1" d="M37.9,31c1.9,0,3.8,0,5.7,0c0,0.6,0,1.2,0,1.9c-0.9,0-1.8,0-2.7,0c0,0.3,0,0.7,0,1.1c0.9,0,1.8,0,2.7,0
		c0,0.7,0,1.4,0,2c-0.9,0-1.8,0-2.7,0c0,1.1,0,2.1,0,3.2c-1,0-2,0-3,0C37.9,36.4,37.9,33.7,37.9,31z"/>
	<path class="st1" d="M46.2,31c0.9,0,1.9,0,2.8,0c1,2.3,2,4.6,3.1,6.9c0.7-0.9,1.5-1.9,2.3-2.8c-1.1-1.4-2.2-2.7-3.2-4.1
		c1.3,0,2.5,0,3.8,0c0.5,0.6,0.9,1.2,1.4,1.7c0.5-0.6,0.9-1.2,1.4-1.7c1.1,0,2.2,0,3.3,0c-1,1.3-2.1,2.5-3.1,3.9
		c1.1,1.4,2.2,2.9,3.3,4.3c-1.3,0-2.5,0.1-3.8,0c-0.5-0.7-1-1.3-1.5-1.9c-0.5,0.7-1.1,1.3-1.6,2c-1.6,0-3.2,0.1-4.7,0
		c-0.2-0.5-0.4-0.9-0.6-1.4c-1,0-1.9,0-2.9,0c-0.2,0.4-0.4,0.9-0.6,1.4c-1,0-2,0-2.9,0C43.8,36.4,45,33.7,46.2,31 M47.7,34.5
		c-0.2,0.5-0.4,1-0.7,1.5c0.4,0,0.9,0,1.3,0C48.1,35.5,47.9,35,47.7,34.5z"/>
	<path class="st1" d="M18.1,40.5c3.7,0,7.4,0,11,0c0.3,0.2,0.5,0.4,0.8,0.7c-4.2,0-8.4,0-12.6,0C17.6,40.9,17.8,40.7,18.1,40.5z"/>
	<path class="st1" d="M30.5,40.5c7.1,0,14.1,0,21.2,0c0.3,0.2,0.6,0.4,0.8,0.7c-7.1,0-14.1,0-21.2,0C31,41,30.8,40.7,30.5,40.5z"/>
	<path class="st1" d="M15.4,42.7c0.4-0.2,0.7-0.7,1.2-0.7c4.8,0,9.5,0,14.2,0c0.4,0.1,0.6,0.5,1,0.7C26.4,42.7,20.9,42.7,15.4,42.7z
		"/>
	<path class="st1" d="M32.3,42c7.1,0,14.2,0,21.3,0c0.3,0.2,0.6,0.4,0.8,0.7c-7.1,0-14.2,0-21.3,0C32.8,42.5,32.6,42.3,32.3,42z"/>
	<path class="st1" d="M14.5,43.6c6.1,0,12.2,0,18.2,0c0.3,0.2,0.6,0.4,0.8,0.7c-6.7,0-13.3,0-20,0C13.9,44.1,14.2,43.8,14.5,43.6z"
		/>
	<path class="st1" d="M34.1,43.6c7.1,0,14.1,0,21.2,0c0.4,0.1,0.6,0.4,1,0.7c-7.1,0-14.2,0-21.3,0C34.7,44.1,34.4,43.8,34.1,43.6z"
		/>
	<path class="st1" d="M11.7,45.8c0.3-0.2,0.6-0.5,0.9-0.7c7.1,0,14.1,0,21.2,0c-0.3,0.2-0.5,0.5-0.8,0.7
		C26,45.8,18.9,45.8,11.7,45.8z"/>
	<path class="st1" d="M35.9,45.2c7.1,0,14.2,0,21.3,0c0.3,0.2,0.6,0.4,0.9,0.7c-7.1,0-14.2,0-21.4,0C36.5,45.6,36.2,45.4,35.9,45.2z
		"/>
	<path class="st1" d="M10,47.4c0.3-0.2,0.5-0.4,0.8-0.7c7.1,0,14.2,0,21.3,0c-0.4,0.2-0.6,0.8-1.1,0.7C23.9,47.4,16.9,47.4,10,47.4z
		"/>
	<path class="st1" d="M37.8,46.7c7.1,0,14.2,0,21.3,0c0.3,0.2,0.6,0.4,0.8,0.7c-7,0-14,0-21,0C38.4,47.5,38.2,46.9,37.8,46.7z"/>
	<path class="st1" d="M9,48.3c7.1,0,14.2,0,21.2,0c-0.3,0.2-0.5,0.5-0.8,0.7H8.2C8.4,48.7,8.7,48.5,9,48.3z"/>
	<path class="st1" d="M39.6,48.3c7,0,14,0,21,0c0.5-0.1,0.7,0.5,1.1,0.7H40.5C40.2,48.7,39.9,48.5,39.6,48.3z"/>
</g>
</svg>
