<?xml version="1.0" encoding="utf-8"?>
<!-- Generator: Adobe Illustrator 21.1.0, SVG Export Plug-In . SVG Version: 6.00 Build 0)  -->
<svg version="1.1"
	 id="Layer_1" inkscape:output_extension="org.inkscape.output.svg.inkscape" inkscape:version="0.46" sodipodi:docname="notice_of_meeting_2006.svg" sodipodi:version="0.32" xmlns:cc="http://creativecommons.org/ns#" xmlns:dc="http://purl.org/dc/elements/1.1/" xmlns:inkscape="http://www.inkscape.org/namespaces/inkscape" xmlns:rdf="http://www.w3.org/1999/02/22-rdf-syntax-ns#" xmlns:sodipodi="http://sodipodi.sourceforge.net/DTD/sodipodi-0.dtd" xmlns:svg="http://www.w3.org/2000/svg"
	 xmlns="http://www.w3.org/2000/svg" xmlns:xlink="http://www.w3.org/1999/xlink" x="0px" y="0px" viewBox="0 0 68 68"
	 style="enable-background:new 0 0 68 68;" xml:space="preserve">
<style type="text/css">
	.st0{fill:#26358C;}
	.st1{fill:#0068B3;}
	.st2{fill:#36BCEE;}
	.st3{fill:#005C9E;}
	.st4{fill:#002F60;}
	.st5{fill:#FFFFFF;}
</style>
<path class="st0" d="M50.3,24.9c-3.4,0-6.3,1.8-7.9,4.5c0.8,1.4,1.3,2.9,1.3,4.6c0,1.7-0.5,3.3-1.3,4.6c1.6,2.7,4.5,4.5,7.9,4.5
	c5,0,9.1-4.1,9.1-9.1S55.4,24.9,50.3,24.9z"/>
<path class="st1" d="M42.4,29.5c-1.6-2.7-4.5-4.5-7.9-4.5s-6.3,1.8-7.9,4.5c0.8,1.4,1.3,2.9,1.3,4.6c0,1.7-0.5,3.3-1.3,4.6
	c1.6,2.7,4.5,4.5,7.9,4.5c3.4,0,6.3-1.8,7.9-4.5c-0.8-1.4-1.3-2.9-1.3-4.6C41.2,32.4,41.6,30.8,42.4,29.5z"/>
<path class="st2" d="M26.7,29.5c-1.6-2.7-4.5-4.5-7.9-4.5c-5,0-9.1,4.1-9.1,9.1c0,5,4.1,9.1,9.1,9.1c3.4,0,6.3-1.8,7.9-4.5
	c-0.8-1.4-1.3-2.9-1.3-4.6C25.4,32.4,25.9,30.8,26.7,29.5z"/>
<g>
	<path class="st3" d="M26.7,38.7c0.8-1.4,1.3-2.9,1.3-4.6c0-1.7-0.5-3.3-1.3-4.6c-0.8,1.4-1.3,2.9-1.3,4.6
		C25.4,35.8,25.9,37.4,26.7,38.7z"/>
	<path class="st3" d="M26.7,38.7L26.7,38.7c-0.8-1.4-1.3-3-1.3-4.6c0-1.6,0.4-3.2,1.3-4.6l0,0l0,0c0.8,1.4,1.3,3,1.3,4.6
		C28,35.7,27.5,37.3,26.7,38.7L26.7,38.7z M26.7,29.5c-0.8,1.4-1.3,3-1.3,4.6c0,1.6,0.4,3.2,1.3,4.6c0.8-1.4,1.3-3,1.3-4.6
		C28,32.5,27.5,30.9,26.7,29.5z"/>
</g>
<path class="st4" d="M42.4,38.7c0.8-1.4,1.3-2.9,1.3-4.6c0-1.7-0.5-3.3-1.3-4.6c-0.8,1.4-1.3,2.9-1.3,4.6
	C41.2,35.8,41.6,37.4,42.4,38.7z"/>
<g>
	<path class="st5" d="M22.2,30.9h-2.7V39h-1.8v-8.1h-2.6v-1.7h7.1V30.9L22.2,30.9z"/>
</g>
<g>
	<path class="st5" d="M47.1,29.2h3.4c1.3,0,1.7,0,2.1,0.2c1,0.3,1.7,1.2,1.7,2.2c0,0.4-0.1,1-0.4,1.3c-0.3,0.4-0.7,0.6-1.2,0.7
		c1.1,0.2,2,1.1,2,2.6c0,1.1-0.5,2.1-1.7,2.5C52.5,39,52,39,50.9,39h-3.8L47.1,29.2L47.1,29.2z M49,30.7v2.4h0.6c0.5,0,0.9,0,1.1,0
		c0.5,0,0.9,0,1.3-0.2c0.4-0.2,0.7-0.6,0.7-1c0-0.4-0.2-0.7-0.6-1c-0.4-0.2-0.6-0.2-1.9-0.3C50,30.7,49,30.7,49,30.7z M49,34.5v2.9
		h1.7c1.1,0,1.4,0,1.9-0.3c0.3-0.2,0.4-0.6,0.4-1c0-0.2,0-0.5-0.2-0.7c-0.4-0.8-1.5-0.8-2.1-0.8H49L49,34.5z"/>
</g>
<path class="st5" d="M35.5,33.2l-1-0.2c-0.9-0.2-1.8-0.3-1.8-1.2c0-0.7,0.9-1.2,1.8-1.2c1.5,0,2.1,0.9,2.5,1.4l1.4-1.2
	c-0.7-0.9-1.8-1.9-3.8-1.9c-2.3,0-3.8,1.2-3.8,3c0,1.6,1.2,2.2,1.6,2.4c0.3,0.1,0.6,0.2,1.2,0.3l1.2,0.2c0.9,0.2,0.9,0.2,1.1,0.3
	c0.3,0.1,0.7,0.3,0.7,1c0,0.3-0.1,0.8-0.8,1.1c-0.3,0.1-0.7,0.2-1.1,0.2c-2,0-2.7-1-3-1.4l-1.5,1.1c0.7,1.1,1.8,1.5,2.4,1.7
	c0.6,0.2,1.2,0.2,1.7,0.2c2.1,0,4.1-0.9,4.1-3.1C38.7,34,36.8,33.5,35.5,33.2z"/>
</svg>
