<?xml version="1.0" encoding="utf-8"?>
<!-- Generator: Adobe Illustrator 21.1.0, SVG Export Plug-In . SVG Version: 6.00 Build 0)  -->
<svg version="1.1"
	 id="Layer_1" inkscape:output_extension="org.inkscape.output.svg.inkscape" inkscape:version="0.46" sodipodi:docname="notice_of_meeting_2006.svg" sodipodi:version="0.32" xmlns:cc="http://creativecommons.org/ns#" xmlns:dc="http://purl.org/dc/elements/1.1/" xmlns:inkscape="http://www.inkscape.org/namespaces/inkscape" xmlns:rdf="http://www.w3.org/1999/02/22-rdf-syntax-ns#" xmlns:sodipodi="http://sodipodi.sourceforge.net/DTD/sodipodi-0.dtd" xmlns:svg="http://www.w3.org/2000/svg"
	 xmlns="http://www.w3.org/2000/svg" xmlns:xlink="http://www.w3.org/1999/xlink" x="0px" y="0px" viewBox="0 0 68 68"
	 style="enable-background:new 0 0 68 68;" xml:space="preserve">
<style type="text/css">
	.st0{fill:#006BB6;}
	.st1{fill:#FFFFFF;}
</style>
<rect y="0" class="st0" width="68" height="68"/>
<path class="st1" d="M12.8,25.7l2.4,5.1l0.1-0.1c-0.1-4.7,2.3-8.1,6.5-10.1c4.4-2,8-1.5,11.8,1.5c-0.1-4.7,2.9-8.4,7-10.3
	c3-1.4,6.7-1.8,9.7-0.3c3.4,1.6,4.8,5.6,6.3,8.9l9.6,20.7l-9.6,4.5l-8.2-17.6c-0.6-1.3-2-4.7-2.9-5.7c-1.5-1.9-3.4-1.7-5.4-0.8
	c-1.7,0.8-3.1,2.6-3,4.5c0,1.9,1.3,4.5,2.2,6.3l8.2,17.7L38,54.6l-8.2-17.7c-1.6-3.5-3.3-8.9-8.3-6.6s-2.6,7.2-0.9,10.9l8.2,17.7
	l-9.6,4.5L3.7,30L12.8,25.7z"/>
</svg>
