<svg version="1.1" id="Layer_1" xmlns="http://www.w3.org/2000/svg" x="0" y="0" viewBox="0 0 165.3 165.3" style="enable-background:new 0 0 165.3 165.3" xml:space="preserve"><style>.st3{fill:#fff}</style><linearGradient id="SVGID_1_" gradientUnits="userSpaceOnUse" x1="165.3" y1="628.2" x2="0" y2="793.5" gradientTransform="translate(0 -628.2)"><stop offset="0" style="stop-color:#df30b7"/><stop offset=".295" style="stop-color:#b128a1"/><stop offset=".776" style="stop-color:#6b1c7f"/><stop offset="1" style="stop-color:#4f1772"/></linearGradient><path style="fill:url(#SVGID_1_)" d="M0 0h165.3v165.3H0z"/><radialGradient id="SVGID_2_" cx="82.7" cy="5737.876" r="57.973" gradientTransform="matrix(1 0 0 .1096 0 -542.971)" gradientUnits="userSpaceOnUse"><stop offset="0" style="stop-color:#231f20"/><stop offset="1" style="stop-color:#231f20;stop-opacity:0"/></radialGradient><ellipse cx="82.7" cy="85.9" rx="81.5" ry="4.8" style="fill:url(#SVGID_2_)"/><path d="M111 108.6h3.5c-1.1-.1-2.3 0-3.5 0h-3.2 3.2z" style="fill:none"/><path class="st3" d="M125.1 123c-.7-.5-1.5-1-2.3-1.5.4-.4.7-.8 1-1.1 1.9-1.8 3.2-3.9 3.4-6.6.4-5.9-3.4-10.9-9.7-11.6-6.1-.6-12.3-.4-18.4-.5-1.5 0-1.4 1.1-1.4 2v36.6c0 1.6.6 2.1 2.2 2.1 5.9-.1 11.8.1 17.7-.1 2.3-.1 4.8-.8 6.8-1.9 7-3.8 7.3-12.8.7-17.4zM105 110.3c0-1.2.6-1.7 1.8-1.7H114.6c3 .1 5.1 2.1 5.2 4.9.1 2.5-2.1 5-4.8 5.2-2.8.2-5.6.1-8.3.1-1.2 0-1.6-.6-1.6-1.7-.1-2.3-.1-4.6-.1-6.8zm13.5 25.2c-2.7.4-5.5.4-8.3.4-6 0-5.2.7-5.2-5.1s-.7-5 5-5.1H117.3c2.7.1 4.5 1.7 4.8 4.2.4 2.7-1 5.2-3.6 5.6zM61.4 106.7c-2-5-2-5-7.3-5h-.2c-1.7-.3-2.5.5-3.2 2.1-3.1 8-6.3 16.1-9.4 24.1-1.9 4.7-3.7 9.4-5.8 14.5 2.7 0 4.8.1 7-.1.6 0 1.3-.8 1.6-1.4 1-2.1 1.6-4.4 2.6-6.5.4-.8 1.4-1.6 2.2-1.6 4.3-.2 8.6-.1 12.8-.1 1.3 0 2 .6 2.4 1.8.8 2.1 1.6 4.2 2.5 6.3.2.6.7 1.4 1.1 1.4 2.4.1 4.8.1 7.5.1-.3-.9-.4-1.5-.6-2-4.3-11.2-8.7-22.4-13.2-33.6zm-11.2 19.2c1.8-4.3 3.4-8.3 5-12.3h.7c1.6 4 3.2 8 4.9 12.3H50.2zM88.3 133.7v-29.1c0-2.6-.2-2.9-2.9-2.9h-5.6c-1.6.1-1.9.8-1 1.9 1.4 1.7 1.8 3.5 1.8 5.6v30.9c0 1.1-.1 2.2 1.4 2.3 2.6.1 5.2.1 7.8 0 1 0 1.5-.8.7-1.5-2.2-2-2.2-4.6-2.2-7.2zM119.5 59.3c-3.3-2.7-6.9-5.1-5.8-10.5-4.7 1.3-6.2 4.3-4.4 8.2 1.1 2.3 2.5 4.5 3.7 6.8 1.6 2.8 1.2 5.6-.3 8.3-1.9 3.2-5 4.9-8.5 5.2-5.1.5-10.2.4-15.3.4-.5 0-1.4-1-1.4-1.6-.2-2.1 0-4.1-.1-6.2 0-1.5.6-1.9 2-1.9h10.3c.7 0 1.3-.1 2.3-.1l-2.9-4.4H87.9c-.5-.4-.5-1.1-.5-2.8-.1-1.9.6-2.7 2.4-3.5 2.3-1 4.8-2.3 6.5-4.1 2.9-3.1 5.3-6.7 7.8-10.2 3.3-4.6 7.4-7.7 13.2-8.2.5 0 1-.2 1.9-.4-2.9-2.2-5.6-4.2-8.2-6.1-5.8-4.3-8.1-4.4-13.5.3-9.7 8.3-20.2 9.5-31.7 4.6-6.2-2.6-11.6-6.4-16.7-10.5-.9-.7-1.9-1.4-3.1-2.4-1.4 4-1.5 7.7-1 11.4.5 3.5 2 4.6 5.6 5 3.7.5 7.2 1.5 10.4 3.6 3.6 2.5 6 6 8.6 9.4 2.7 3.7 5.9 6.7 10.4 8 .6.2 1.2 1.1 1.4 1.8.2.8 0 1.7.1 2.5 0 .7-.1 1.2-.5 1.5H70.5l-3.8 4.4c1.1.1 1.7.1 2.4.1H79c2.4 0 2.5.1 2.5 2.6v5.3c0 1.4-.6 2-2 2-4 0-8 .1-12.1-.1-3.2-.1-6.2-.9-8.9-3-3.5-2.7-4.7-7.2-2.7-11.1 1.3-2.6 3-5 4-7.7 1.4-3.5-.9-6.8-4.7-7 .6 3.3-.7 5.9-3.2 8-1.2.9-2.3 1.9-3.4 2.9-8.2 6.7-9.3 20.8 3.1 26.6 4.5 2.1 9.2 3.3 14.1 3.3 12.4.1 24.9.2 37.3-.1 4.1-.1 8.4-1.1 12.3-2.5 5.1-1.7 9.3-4.9 10.6-10.5 1.7-6.9-.7-12.7-6.4-17.3zm-15-30.3c1.6 0 3 1.3 2.9 3 0 1.7-1.3 3-2.9 2.9s-2.9-1.5-2.9-3.1c0-1.4 1.4-2.8 2.9-2.8z"/></svg>