<?xml version="1.0" encoding="utf-8"?>
<!-- Generator: Adobe Illustrator 23.0.4, SVG Export Plug-In . SVG Version: 6.00 Build 0)  -->
<svg version="1.1"
	 id="Layer_1" inkscape:output_extension="org.inkscape.output.svg.inkscape" inkscape:version="0.46" sodipodi:docname="notice_of_meeting_2006.svg" sodipodi:version="0.32" xmlns:cc="http://creativecommons.org/ns#" xmlns:dc="http://purl.org/dc/elements/1.1/" xmlns:inkscape="http://www.inkscape.org/namespaces/inkscape" xmlns:rdf="http://www.w3.org/1999/02/22-rdf-syntax-ns#" xmlns:sodipodi="http://sodipodi.sourceforge.net/DTD/sodipodi-0.dtd" xmlns:svg="http://www.w3.org/2000/svg"
	 xmlns="http://www.w3.org/2000/svg" xmlns:xlink="http://www.w3.org/1999/xlink" x="0px" y="0px" viewBox="0 0 68 68"
	 style="enable-background:new 0 0 68 68;" xml:space="preserve">
<style type="text/css">
	.st0{fill:#231F20;}
	.st1{fill:#6D6E70;}
</style>
<path class="st0" d="M61.7000008,36.4000015C62.7999992,37.2000008,64,37.8000031,64,39.1000023
	c0,0.4000015-0.5,0.7999992-1.5,0.7999992c-0.7999992,0-1.7000008-0.2000008-2.0999985-0.7999992
	c-0.2999992-0.4000015,0.0999985-1.0999985-0.0999985-1.5c-0.2000008-0.4000015-0.7000008-0.2000008-1.0999985-0.4000015
	c-0.4000015-0.2000008-0.4000015-0.4000015-0.7000008-1c-0.2999992-0.7000008-1.2999992-1.7999992-2.5-3
	c-1-1-2.0999985-1.5-2.5999985-1.5c-0.2999992,0-0.4000015,0-0.7999992,0c-0.9000015,0-1.5999985,0.7999992-2.9000015,1.4000015
	c-0.9000015,0.4000015-1.4000015,0.5999985-1.9000015,0.7000008L47.5999985,34h1.0999985
	c1.0999985,0,2.4000015-0.0999985,3.5-0.0999985s1.5999985,1,2,2c0.7999992,2,2,5,3.5,7.5
	c0.7000008,1.2000008,1.2999992,1.9000015,1.2999992,3.2999992c0,0.4000015,0,1.0999985-0.5999985,1.0999985
	c-0.7999992,0-2.9000015-0.9000015-2.9000015-1.7999992c0-0.7000008,0.5999985-1,0.5999985-1.7000008
	c0-0.4000015-0.7000008-0.4000015-0.7999992-0.7999992c-0.5-2.2000008-1.2000008-4.4000015-2.4000015-5.7000008
	c-0.5999985-0.7000008-0.7000008-1-1.4000015-1c-0.2999992,0-0.7000008,0.0999985-1,0.2000008
	c-1.7000008,0.5999985-4,2.5999985-6.7999992,3.4000015c-1.0999985,0.2999992-1.2999992-0.2999992-2.4000015-0.0999985h0.0999985
	c-0.9000015,0.2000008-1.5999985,0.7000008-2.9000015,1.0999985c-1.7000008,0.5-4.5999985,0.7000008-7,0.4000015
	c-1.7000008-0.2000008-3.8999996-0.5999985-4.7999992-0.5c-0.7000008,2-2.2000008,4.7000008-4.5,5.7999992
	c-1.2000008,0.5-1.5,1.2999992-1.2000008,2.5999985c0.3999996,1.7000008,1.8999996,2.9000015,2.7000008,4.4000015
	c0.7000008,1.2000008,1.8999996,3.2000008,3.1000004,3.7999992s2,1.5,2,2.4000015c0,0.4000015-0.1000004,0.5999985-0.5,0.5999985
	h-2.5c-0.3999996,0-0.6000004-0.2000008-0.6000004-0.4000015c-0.2999992-0.5999985-0.1000004-1.2000008-0.6000004-1.7999992
	c-0.2999992-0.4000015-0.6000004-0.2999992-1-0.5999985c-0.7000008-0.7000008-0.2000008-1.0999985-0.7000008-2
	c-1.5-2.5-2.2000008-3-3.5-4.7999992c-0.7000008-0.9000015-1.6000004-1.4000015-1.6000004-2.5999985
	c0-1.5,1.5-1.7000008,1.5-3.2000008c-1,0.7000008-2.1000004,1.2999992-3.8000002,1.5
	c-0.1999998,0-0.8000002,0.5-1.1000004,0.7999992c-0.6000004,0.5999985-0.8000002,1.2000008-0.8999996,2.0999985
	C13.2999878,51.9000015,12.8999872,54,13.1999874,56c0.3000002,1.2999992,0.6000004,1.7000008,1.6000004,2.5
	c0.6999998,0.4000015,1.5,1.0999985,1.5,2c0,0.2000008-0.1000004,0.5999985-0.3999996,0.5999985h-2.6999998
	c-0.1999998,0-0.5-0.2000008-0.6000004-0.2999992c-0.3000002-0.5-0.1000004-0.9000015-0.1999998-1.5
	c-0.1999998-1.2000008-1.6000004-1.2000008-1.6000004-2.4000015c0-0.4000015,0.1999998-0.9000015,0.1999998-1.5999985
	c0.1000004-1.7000008,0.6000004-4.5,0.1000004-7.7999992c-0.1999998-1.9000015,1.8000002-2,2.9000006-3.7000008
	c0.6000004-1,0.3999996-0.5999985,0.8000002-1.2999992c0.3999996-0.7000008,0.3000002-1.2999992,0.1999998-1.7000008
	c0-0.5999985-0.6000004-1.7000008-0.1999998-4.2000008C14.8999891,35.5,15.4999886,34.3999977,16.1999893,33.5
	c0,0,0-0.2000008-0.1999998-0.2000008c-1.1000004,0.0999985-1.1000004-0.2000008-1.6999998-0.2000008
	S13.0999899,33.6999969,12.9999895,34c-0.3000002-0.0999985-0.5-0.5-0.5-0.7000008
	c0-0.4000015,0.1000004-0.7000008,0.3999996-1.0999985C12.9999895,32.1000023,12.8999891,32,12.6999893,32
	c-0.8000002,0-1.6000004,1-1.8000002,1.7000008c-0.5-0.0999985-0.5-0.7000008-0.6999998-0.7000008
	s-0.3999996,0.2999992-0.3999996,0.7000008c0,2.4000015,3.8999996,2.9000015,3.8999996,6.0999985
	c0,3.5999985-4.3999996,2.9000015-4.3999996,4.2000008c0,0.2000008,0.1999998,0.5,0.5,0.5999985
	c-0.1000004,0.2999992-0.5,0.5-0.8999996,0.5c-1,0-1.6999998-0.7000008-1.6999998-1.7000008c0-2,2.6999998-2,2.6999998-3.5
	c0-0.7000008-0.3999996-0.9000015-0.8999996-1.2999992c-2.5-1.7999992-4-3.5999985-4-6.5
	c0-3.2000008,2.1999998-5.6000004,5.1000004-5.6000004c4.1999998,0,4.3000002,4.8000011,8.1000004,5.1999989
	c1.3999996-1,3.1000004-1.5,4.6999989-1.5c2.5,0,3.5,0.6000004,6.1000004,0.6000004
	c1.1000004,0,2.7999992-0.2999992,4.8999996-1.7000008c0.7999992-0.5,1.0999985-0.6000004,1.7999992-1.2999992
	C37.4000015,25.7000008,39,23,39,21v0.1000004c0-0.6000004-0.0999985-1-0.4000015-1
	c-0.9000015,0-1.7000008,0.7999992-2.5999985,1.7000008c-0.5999985,0.6000004,0.2999992,0.8999996-1,1.5
	c-0.4000015,0.2000008-1-0.2000008-1.5-0.2000008c-1,0-1.5-1.2000008-1.5-2.2000008c0-0.5,0.4000015-0.7000008,0.5999985-1.2000008
	c0.5-1,0.5-1.3999996,1-2.3999996c0.2999992-0.7000008,0.7999992-1.1000004,0.7999992-1.6000004
	c0-0.1999998-0.0999985-0.3000002-0.0999985-0.5c0-1,1.4000015-1.6999998,1.4000015-2.6999998
	c0-0.6000004-0.5999985-0.8000002-0.7999992-1.3000002c-0.0999985-0.3999996,0-0.6000004,0-0.6000004
	c0-0.1000004,0.0999985-0.1000004,0.2000008-0.1000004c0.5,0,0.7000008,0.6000004,1.2000008,0.8999996
	c0-0.6999998-0.2000008-0.8000002-0.2000008-1.3000002c0-0.1999998,0-0.6999998,0.2000008-0.6999998
	c0.2999992,0,0.2999992,0.3999996,0.5999985,0.6999998c0.4000015,0.3000002,0.7000008,0.1999998,1.0999985,0.5
	c0.5,0.3000002,0.7999992,0.8999996,1,0.8999996c0.5,0.1000004,0.7000008-0.6000004,0.4000015-0.8999996
	c0.5999985,0,1.2000008,0.3999996,2,0.3999996c1.2000008,0,1.5999985,0.3000002,1.9000015,0.5
	c0.7999992,0.6999998,0.9000015,1.1999998,1.7999992,1.1999998c0.4000015,0,0.7000008-0.3999996,0.7999992-0.5
	c0.5999985,0.3999996,0.5999985,1.5,0,2.5c0.2000008,0.8000002,1.4000015,0.8999996,1.9000015,1.3000002
	s0.4000015,0.5999994,0.7999992,0.8000002c0.2999992,0.2000008,0.5999985,0.1000004,0.7999992,0
	c0.2000008,1.1000004-0.5999985,2-1.7000008,2.1000004c0,1.3999996,1.5,2.2000008,2.0999985,2.5
	c-0.4000015,0.7999992-1.0999985,1.1000004-1.5999985,1.2000008c0.2000008,0.7999992,1.0999985,2,0.5999985,3.1000004
	c-0.4000015-0.2000008-1,0-1,0.6000004c0,0.7000008,0.9000015,1,0,1.5C47.3999977,28,47.2999992,28.5999985,48,29.1999989
	c1-0.2000008,1.9000015-0.2000008,3-0.2000008c0.7000008,0,1.5-0.2000008,2.2000008-0.2000008
	c1.0999985,0,1.7999992,0.3999996,2.5999985,1.3999996C57.7000008,32.4000015,59.5999985,34.7999992,61.7000008,36.4000015"/>
<path class="st1" d="M6.3000002,30.5c0.4000001,0,1.3000002-2.5,3-2.5c0.5,0,0.6000004,0.2000008,0.6000004,0.3999996
	C9.9000006,28.6999989,9.3000002,29,9.3000002,29.5c0,0.1000004,0,0.2000008,0.1999998,0.2000008
	c0.3999996,0,0.6999998-0.8999996,2.3999996-0.8999996c0.3999996,0,0.8000002,0,1.1999998,0.1000004
	c0.1999998,0,0.6000004,0.2000008,0.3999996-0.2999992c-0.3999996-1.2000008-1.6999998-2.2000008-3.5-2.2000008
	s-3.6999998,1.6000004-3.9000001,3.5C6.0999999,30.2000008,6.0999999,30.5,6.3000002,30.5"/>
<path class="st1" d="M37.2999992,15.1000004c-0.5-0.1999998-0.5999985-0.3999996-0.4000015-1.1000004
	c0.0999985-0.6000004,0.0999985-0.8999996-0.0999985-1c-0.2000008-0.1000004-0.5999985,0.1000004-0.9000015,0.3999996
	c-0.2999992,0.3999996-0.7999992,0.8999996-0.9000015,1.3000002c-0.0999985,0.5,0.5,0.3999996,0,1.3000002
	c-0.7999992,1.3999996-1,1.7000008-1.4000015,2.7000008c-0.2999992,1.1000004-0.5999985,1.2000008-0.7999992,1.5
	S33.0999947,20.5,33.6999969,20.3000011c0.5999985-0.2000008,0.7000008,0.5,0.4000015,1.1000004
	c-0.2000008,0.3999996,0,0.5,0.5,0.1000004S34.3999977,20.8000011,34.5,19.6000023
	c0.2000008-1.1000004,0.4000015-1.7000008,1.0999985-2.7999992c0.5999985-0.8999996,1.0999985-1.6000004,2-1.3000002
	C38,15.8999996,37.7999992,15.3000002,37.2999992,15.1000004"/>
<path class="st1" d="M58,46.7999992c0.2000008,0,0.2000008-0.2000008,0.2000008-0.5c0-0.5-0.2999992-1.2999992-0.7000008-1.5999985
	C57.4000015,45.5,57,46,57,46.2999992C57.0999985,46.5,57.7999992,46.7999992,58,46.7999992"/>
<path class="st1" d="M62.7000008,39.2999992C63,39.2999992,63.4000015,39.2000008,63.4000015,39
	c0-0.4000015-0.7000008-1.2000008-1.2999992-1.4000015C62.5,38.2999992,62.2000008,39.2999992,62.7000008,39.2999992"/>
<path class="st1" d="M42.2000008,29.1000004c4.2000008,1.8999996,4,5.4999981,4.2999992,4.6000004
	c0.0999985-0.4000015,0.7000008-2.1000004-0.7999992-3.7999992c-1.2000008-1.3999996-1.5999985-1-1.2000008-2.1000004
	c1.7999992-4.5,3-11.1999989-2.5-13.5C41.4000015,14,40.9000015,14,40.9000015,14
	c0,0.1000004,0.5999985,0.3000002,1.2999992,0.8000002c3.7000008,2.4000006,2.5,9.1000013-0.7999992,12.1999998
	C40.2999992,28.2000008,40.7999992,28.3999996,42.2000008,29.1000004"/>
<path class="st1" d="M27.7000008,60c0.2999992,0,0.1000004-0.4000015,0-0.5999985C27.5,59,27,58.7000008,26.5,58.5
	c0.1000004,0.4000015,0.1000004,1.5,0.6000004,1.5H27.7000008"/>
<path class="st1" d="M15,60c0.3000002,0,0.1000004-0.4000015,0-0.5999985C14.8000002,59,14.1999998,58.7000008,13.8000002,58.5
	C13.9000006,58.9000015,14,60,14.4000006,60H15"/>
<path class="st1" d="M30.5,34.7000008c2.2999992-0.2000008,2.7000008-0.7999992,3.0999985-2.5
	C33.7999992,31.4000015,34.3999977,30.5,34.8999977,30c0.2999992-0.3999996,0.7000008-0.7000008,1-1.2000008
	c0.0999985-0.2000008,0.2000008-0.3999996,0-0.2999992c-0.2000008,0.2000008-1.0999985,0.7000008-1.4000015,1
	c-1.5999985,1.2000008-4.2000008,1.7000008-5.1000004,1.7000008c-2.1000004,0-4-0.6000004-5.8999996-0.6000004
	c-5.7999992,0-8,4.4999981-7.6999998,7.1999989c0,0.4000015,0.1000004,0.4000015,0.1999998,0.4000015
	c0.3999996,0,0.7999992-1.5,2.2000008-3c2.1000004-2,4.5-3.2000008,7.7000008-3.2000008
	c2.3999996,0,3.3999996,0.7999992,3.3999996,1.0999985c0,0.5999985-1,0.5999985-0.8999996,1.2000008
	C28.3999996,34.5,28.8999996,34.9000015,30.5,34.7000008"/>
</svg>
