<svg version="1.1" id="Layer_1" xmlns="http://www.w3.org/2000/svg" x="0" y="0" viewBox="0 0 68.9 38.3" style="enable-background:new 0 0 68.9 38.3" xml:space="preserve"><style>.st0{fill:#383838}</style><path class="st0" d="M27 9v7h3V9h-3zm6 0v7h3V9h-3zm-8 12h19v-3H25v3zM39 9v7h3V9h-3zm-4.5-9L25 5v2h19V5l-9.5-5zM6.9 38.2v-5.9l-2.5 5.9h-.5l-2.4-5.9v5.9H0v-8h2l2.2 5.3 2.2-5.3h2v8H6.9zM9.7 34.2c0-2.3 1.9-4.1 4.1-4 2.3 0 4.1 1.9 4 4.1 0 2.2-1.8 4-4.1 4-2.2.1-4-1.7-4.1-3.9.1-.1.1-.1.1-.2zm6.7 0c.1-1.5-1-2.8-2.4-2.9s-2.8 1-2.9 2.4v.5c-.1 1.5 1 2.8 2.4 2.9s2.8-1 2.9-2.4v-.5zM18.8 34.2c-.1-2.2 1.6-4.1 3.8-4.2h.4c1.3 0 2.5.7 3.2 1.8l-1.2.6c-.4-.7-1.2-1.1-2-1.2-1.6 0-2.9 1.3-2.9 2.9 0 1.6 1.3 2.9 2.9 2.9.8 0 1.6-.5 2-1.2l1.2.6c-.7 1.1-1.9 1.8-3.2 1.8-2.2.1-4.1-1.6-4.2-3.8v-.2zM32.2 38.2l-2.7-3.4-.7.8v2.5h-1.4v-8h1.4V34l3.1-3.8h1.7L30.4 34l3.5 4.2h-1.7zM37.9 38.2v-8h3.9c1.1-.1 2.1.6 2.3 1.7v.3c0 .9-.5 1.6-1.4 1.8.9.2 1.6 1 1.5 2 0 1.2-.9 2.1-2 2.2h-4.3zm4.9-5.7c0-.6-.4-1-1-1h-2.4v2.1h2.2c.5.1 1.1-.3 1.2-.8v-.3zm.1 3.3c0-.6-.5-1.1-1.1-1.1h-2.4v2.2h2.3c.6.1 1.1-.4 1.2-1v-.1zM51.3 38.2l-.6-1.5H47l-.6 1.5h-1.6l3.1-8h1.8l3.1 8h-1.5zm-2.4-6.6-1.4 3.8h2.9l-1.5-3.8zM59.3 38.2l-4.2-5.7v5.7h-1.4v-8h1.4l4.1 5.5v-5.5h1.5v8h-1.4zM67.2 38.2l-2.7-3.4-.7.8v2.5h-1.4v-8h1.4V34l3.1-3.8h1.7L65.4 34l3.5 4.2h-1.7z"/></svg>