<svg xmlns="http://www.w3.org/2000/svg" id="Layer_2" data-name="Layer 2" viewBox="0 0 192.96 50.63"><style>.st0{fill:#fff}</style><path id="path3127" d="M193 13.47A13.51 13.51 0 0 0 179.54 0h-166A13.51 13.51 0 0 0 0 13.47v23.68a13.31 13.31 0 0 0 .07 1.39l97.59 9.4 95.23-9.4" style="fill:#0b4585"/><path d="M169.62 38.54H.07a13.72 13.72 0 0 0 13.47 12.09h166a13.72 13.72 0 0 0 13.35-12.09z" style="fill:#e30717"/><g id="g3261"><g id="g3267"><path class="st0" id="path3269" d="M184.9 27.61c0-5.42-2.84-7.84-5.66-7.84-2.13 0-6.14 1.68-6.14 8.09 0 7.65 5.58 7.86 6.23 7.86a7.08 7.08 0 0 0 5.21-2.6l.13-.13-.57-1.18-.27.2a5.73 5.73 0 0 1-2.88 1c-2.73 0-3.3-1.89-3.34-5.17h7.3zm-7.3-1.78c0-3.46.7-4.16 1.79-4.16 1.4 0 1.54 1.71 1.56 4.16z"/></g><g id="g3271"><path class="st0" id="path3273" d="M172 34a1.21 1.21 0 0 1-1.06-1.25V13.43h-6.57v1.3h.93c.37 0 1.26.37 1.26 1v5.35a4.41 4.41 0 0 0-3.15-1.34c-2.24 0-5.76 2.22-5.76 8.24s3.51 7.67 5.36 7.67a4.5 4.5 0 0 0 3.47-1.35v.91h5.8V34zm-5.49-9.91v7.44a3.19 3.19 0 0 1-2 1.82c-1.77 0-2.14-2.85-2.14-5.27 0-5.11 1.11-5.79 2.21-5.79s1.87 1.61 2 1.84"/></g><g id="g3275"><path class="st0" id="path3277" d="M156.68 33.94a1.1 1.1 0 0 1-1.09-1V20.28h-4.51v12.63a1.17 1.17 0 0 1-1.22 1h-.26v1.32h7.4v-1.29z"/></g><g id="g3279"><path class="st0" id="path3281" d="M145.25 20.31v1.23h.29a1.22 1.22 0 0 1 .94.37.63.63 0 0 1 .11.33.68.68 0 0 1 0 .25c-.19.72-1.38 4.25-1.95 5.91-.45-1.72-1.42-5.46-1.53-6a.73.73 0 0 1 0-.2.66.66 0 0 1 .11-.39 1.25 1.25 0 0 1 .94-.31h.29v-1.22h-7.07v1.26h.16c.3 0 .79.07.94.46l.6 2c-.05.17-1.34 3.55-1.72 4.59-.52-1.48-1.72-4.92-2.09-5.83a2 2 0 0 1-.12-.58.68.68 0 0 1 .69-.67h.41v-1.28h-6.71v1.18l.15.07a1.52 1.52 0 0 1 .71.52c.17.36 3 8.27 4.93 13.49l.06.17h1.55s2.59-7.2 3-8.49c.39 1.3 2.6 8.49 2.6 8.49H144l4.53-12.78c.36-1 .7-1.43 1.16-1.43h.31v-1.14z"/></g><g id="g3283"><path class="st0" id="path3285" d="M129.79 33.94c-.85 0-1-.36-1-.88v-8.62c0-2.25-1.43-4.6-4-4.6a4.91 4.91 0 0 0-4 1.76v-1.33h-5.91v1.27h.65s.8.14.8.84v10.45a1.29 1.29 0 0 1-1.28 1.17h-.24v1.22h7.44V34H122a1.13 1.13 0 0 1-1.13-1.13v-8.65a2.6 2.6 0 0 1 2.09-1.79c.91 0 1.35.65 1.35 1.91v8.76c0 .35-.62.86-1 .86H123v1.28h7.21v-1.3z"/></g><g id="g3287"><path class="st0" id="path3289" d="M107.12 19.81c-3.23 0-6.74 3-6.74 7.9 0 6.32 4.47 8 6.81 8 2.67 0 6.59-2.39 6.59-7.54 0-4.75-2.86-8.33-6.67-8.33m2 8.37c0 5.56-1.37 5.56-1.95 5.56-.83 0-2.07 0-2.07-5.69s1.05-6.27 2-6.27 2 .72 2 6.39"/></g><g id="g3291"><path class="st0" id="path3293" d="M99.33 33.94a1.1 1.1 0 0 1-1.09-1V20.28h-4.52v12.63a1.18 1.18 0 0 1-1.22 1h-.26v1.32h7.3v-1.29z"/></g><g id="g3295"><path class="st0" id="path3297" d="M91.39 22.11v-1.83h-2.7V15h-1.1l-.13.19a21.71 21.71 0 0 1-4.59 5.51l-.11.08v1.36h1.5v10.08a3.21 3.21 0 0 0 3 3.4h.27A3.55 3.55 0 0 0 90.91 34v-1.35l-.4.2a1.39 1.39 0 0 1-1.3-.06 1.08 1.08 0 0 1-.55-.88v-9.8z"/></g><g id="g3299"><path class="st0" id="path3301" d="M81.54 33.11a.31.31 0 0 1-.42 0 .57.57 0 0 1-.42-.47v-8.7c0-2.45-2.44-4.09-6-4.09-3.15 0-4.77 1.15-5.45 1.83l-.06.08v4.51h1.2l.05-.23c.84-3.89 3-4.26 4-4.25a1.86 1.86 0 0 1 1.94 1.64v2.14c-5.29 1.49-7.84 3.68-7.84 6.73a3.42 3.42 0 0 0 3.34 3.49h.4a6.49 6.49 0 0 0 4.13-1.63A2.6 2.6 0 0 0 79 35.72a3.52 3.52 0 0 0 2.93-1.61v-1.57zm-7-.18c-.45 0-1.25-.37-1.25-1.83a4 4 0 0 1 3-3.38v4.08a2.29 2.29 0 0 1-1.75 1.14"/></g><g id="g3303"><path class="st0" id="path3305" d="M60.88 13.43v1.38h1a1.53 1.53 0 0 1 1.35 1.46v9.61l-9-12.47h-6.58v1.26h.5l1.57 1.87v16.14c0 1.14-1.45 1.26-1.9 1.26h-.28v1.3h7.32v-1.36h-.72c-.75 0-1.62-.73-1.62-1.2V19.79l11.93 16.06H66V16.27c0-1 .55-1.46 1.67-1.46h.27v-1.38z"/></g><g id="g3307"><path class="st0" id="path3309" d="M95.94 13.13a2.55 2.55 0 1 0 2.55 2.55 2.55 2.55 0 0 0-2.55-2.55"/></g><g id="g3311"><path class="st0" id="path3313" d="M153.3 13.13a2.55 2.55 0 1 0 2.56 2.55 2.55 2.55 0 0 0-2.56-2.55"/></g><g id="g3315"><path id="path3317" d="M37.6 38.54a3.78 3.78 0 0 0 2.58-1 3.65 3.65 0 0 0 1.16-2.62V26a3.71 3.71 0 0 0-1.13-2.72l-5-5a1 1 0 0 1-.33-.75v-5.37a3.42 3.42 0 0 0-3.47-3.48h-3.87a3.48 3.48 0 0 0-3.46 3.49v.29a.35.35 0 0 1-.35.34h-.58a2.92 2.92 0 0 0-1.91.74 2.82 2.82 0 0 0-.71.94h-1.1A11.21 11.21 0 0 0 8.18 25.6v.23c0 6.11 5.12 8.79 5.39 9a1.26 1.26 0 0 1 .63 1v3.34a3.49 3.49 0 0 0 1.07 2.53 3.61 3.61 0 0 0 2.51 1h13.7a3.47 3.47 0 0 0 2.38-.85 3.23 3.23 0 0 0 1-2.44v-.54a.35.35 0 0 1 .35-.35z" style="fill:#fff"/></g><g id="g3319"><path id="path3321" d="M34 32.79v-1.71a.82.82 0 0 0-1.64 0v1.71a.82.82 0 0 0 1.64 0m5-8.32-5.2-5.21a1.82 1.82 0 0 1-.54-1.26v-5.84a1.87 1.87 0 0 0-1.87-1.85h-3.7a1.82 1.82 0 0 0-1.82 1.82v1.77a.59.59 0 0 1-.59.59h-2a1.19 1.19 0 0 0-1.19 1c0 .48-.2.85-1 .71H21a9.42 9.42 0 0 0-7.29 16.88.77.77 0 0 0 1.07-.18l5.34-8a2 2 0 0 1 1.56-.9h6.15a.59.59 0 0 0 .59-.59.56.56 0 0 0 0-.15 9.44 9.44 0 0 0-4.53-6.09.6.6 0 0 1 .28-1.13h2a1.35 1.35 0 0 0 1.37-1.27v-2.23a.58.58 0 0 1 .57-.59h3a.58.58 0 0 1 .57.59v12.61a.59.59 0 0 0 .59.59h5.25a.59.59 0 0 1 .59.59v8.36a.57.57 0 0 1-.55.59h-4.7a1.29 1.29 0 0 0-1.32 1.26v2.25a.58.58 0 0 1-.57.59h-5.06v-2.47a.82.82 0 0 0-1.64 0v2.49h-6.19a.58.58 0 0 1-.59-.57V35a.59.59 0 0 1 .59-.59h7.16c.35 0 .65-.42.65-.42l4.93-7.36a.6.6 0 0 0-.46-.91h-8.41c-.33 0-.47.22-.64.48l-5 7.52A2.52 2.52 0 0 0 15.9 35v4.12a1.91 1.91 0 0 0 1.93 1.89h14a1.34 1.34 0 0 0 1.35-1.33v-2.14a.58.58 0 0 1 .57-.59h3.75a2.13 2.13 0 0 0 2.09-2V26a2.1 2.1 0 0 0-.59-1.54" style="fill:#0b4585"/></g></g></svg>