<svg version="1.1" id="Layer_1" xmlns="http://www.w3.org/2000/svg" x="0" y="0" viewBox="0 0 528.5 235.9" style="enable-background:new 0 0 528.5 235.8999939" xml:space="preserve"><style>.st0{fill:#f3781e}.st1{fill:#0f2870}</style><path class="st0" d="M439.969 81.407c-.621.689-.946 1.083-1.306 1.443a41514.93 41514.93 0 0 1-23.13 23.094c-.369.367-.742.74-1.16 1.046-1.898 1.394-3.547 1.163-4.932-.72-.442-.602-.72-1.322-1.135-1.946-.733-1.104-1.389-2.298-2.302-3.236-2.051-2.105-4.427-2.398-6.946-.886-1.128.677-2.167 1.555-3.108 2.481-5.082 4.998-10.102 10.06-15.192 15.05a14.42 14.42 0 0 1-3.183 2.37c-1.757.951-2.95.38-3.331-1.55-.256-1.29-.287-2.632-.34-3.954-.135-3.345.094-6.742-.413-10.026-.66-4.269-3.528-5.425-7.237-3.143-3.848 2.367-7.566 4.942-11.355 7.405-2.058 1.339-3.18.974-3.176-1.39.008-5.419-.294-10.956.69-16.23 1.733-9.287 9.346-13.959 18.105-14.208 3.22-.092 6.328.828 9.045 2.628 1.195.791 1.886.691 2.92-.315 5.491-5.338 12.17-7.98 19.796-7.874 6.198.086 11.797 2.223 16.69 6.04 1.035.807 1.883.958 3.14.52 6.055-2.105 11.617-.893 16.758 2.745.327.231.69.412 1.102.656z"/><path class="st1" d="M200.67 174.406h-7.808v-1.96c0-7.757.005-15.514-.002-23.271-.004-4.535-1.7-6.637-5.4-6.724-4.134-.098-7.007 2.627-7.164 6.825-.045 1.214-.011 2.43-.012 3.646v21.456h-7.75v-23.992c0-.463.005-.927-.002-1.39-.062-3.823-1.27-5.697-4.109-6.376-3.271-.782-6.725.558-8.101 3.546-.772 1.677-1.203 3.648-1.241 5.497-.142 6.886-.057 13.777-.058 20.665v2.16c-2.416 0-4.709.03-6.998-.041-.277-.009-.64-.527-.776-.88-.138-.355-.05-.8-.05-1.205-.001-10.999.033-21.998-.036-32.996-.01-1.701.392-2.257 2.203-2.289 2.77-.049 4.487 1.133 5.427 3.636 8.319-6.388 14.89-6.252 19.288.478.462-.44.9-.852 1.333-1.268 4-3.84 10.435-4.993 15.512-2.77 3.693 1.617 5.599 4.669 5.679 8.47.2 9.535.066 19.078.066 28.783zM447.853 139.793c6.349-6.396 18.842-4.377 22.344 5.848 2.074 6.055 2.2 12.167.112 18.207-2.518 7.29-8.352 11.353-17.09 11.373-4.04.01-8.092-1.108-12.119-1.826-.44-.079-1.065-.9-1.067-1.377-.051-17.012-.038-34.023-.029-51.035 0-.163.076-.325.15-.625 1.596 0 3.213-.144 4.793.036 2.011.23 2.89 1.374 2.9 3.439.02 4.629.006 9.258.006 13.887v2.073zm-.002 17.905v5.027c0 5.656.07 5.723 5.835 5.632.232-.003.463-.02.694-.033 3.602-.196 6.17-1.969 7.427-5.301.683-1.81 1.084-3.78 1.26-5.711.334-3.657.067-7.299-1.688-10.633-1.668-3.167-4.911-4.47-8.567-3.59-3.19.769-4.903 3.096-4.951 6.809-.034 2.6-.007 5.2-.01 7.8zM64.365 174.125v11.96h-7.68V137.38c3.64-.755 4.904-.294 7.43 2.675.106-.022.26-.01.31-.076 4.525-5.992 16.613-5.299 20.89 3.096 1.356 2.663 2.133 5.732 2.605 8.705.667 4.207.142 8.424-1.391 12.453-3.379 8.879-11.395 12.905-20.553 10.34-.44-.124-.88-.245-1.611-.449zm-.02-16.372c0 2.716-.03 5.433.026 8.148.01.497.218 1.218.58 1.446 4.076 2.564 10.592.954 12.725-3.339 2.68-5.39 2.791-11.05.6-16.626-1.384-3.521-4.99-5.186-8.677-4.407-3.368.712-5.177 3.144-5.244 7.15-.042 2.541-.008 5.085-.01 7.628zM229.459 174.392l-.217-2.907c-.245.015-.391-.021-.454.035-7.505 6.71-17.858 4.416-21.487-4.95-2.395-6.183-2.625-12.572.024-18.77 2.828-6.62 8.162-10.166 15.2-10.731 3.646-.293 7.39.204 11.05.667 2.552.322 3.02 1.19 3.021 3.783.004 10.354.002 20.708.002 31.062v1.81h-7.14zm-.72-30.292c-1.966 0-3.75-.113-5.514.023-4.18.32-7.054 2.542-8.383 6.474-1.491 4.41-1.383 8.898.25 13.258 1.348 3.599 4.26 5.235 7.775 4.636 3.682-.629 5.738-3.043 5.835-7.045.082-3.353.031-6.709.036-10.063.003-2.356 0-4.712 0-7.283zM286.089 157.833c-.553 6.09 3.194 10.549 8.92 10.448 2.664-.047 5.364-.75 7.957-1.479 2.948-.828 3.777-.29 3.403 2.743-.029.23-.065.46-.088.69-.337 3.371-.297 3.634-3.717 4.136-3.634.532-7.41 1.006-11.02.593-5.725-.657-9.757-4.222-11.953-9.476-2.908-6.956-2.756-14.064.342-20.912 3.256-7.196 12.323-10.54 19.64-7.481 4.656 1.946 6.99 5.822 7.935 10.499.566 2.806.509 5.738.743 8.612.106 1.29-.47 1.665-1.742 1.653-6.09-.059-12.18-.026-18.27-.026h-2.15zm14.025-6.392c-.084-3.276-.373-6.318-3.318-8.084-2.448-1.469-5.069-1.137-7.353.487-2.543 1.808-3.347 4.497-3.397 7.597h14.068zM99.956 157.833c-.526 6.132 3.318 10.582 9.111 10.466 2.444-.05 4.876-.798 7.306-1.265.676-.13 1.313-.468 1.99-.58 1.273-.211 2.056.312 1.988 1.683-.074 1.501-.165 3.007-.385 4.49-.056.383-.562.866-.964 1.005-5.082 1.752-10.283 2.435-15.526.938-4.88-1.393-8.238-4.704-10.099-9.34-2.71-6.75-2.584-13.609.287-20.264 3.188-7.39 12.045-10.887 19.572-7.973 2.884 1.116 4.985 3.114 6.438 5.804 2.52 4.666 2.758 9.682 2.304 15.036H99.956zm14.145-6.385c-.23-3.227-.414-6.313-3.384-8.085-2.467-1.471-5.078-1.132-7.373.483-2.563 1.805-3.281 4.531-3.43 7.602h14.187zM343.311 174.434h-7.835v-22.917c0-.579.002-1.157 0-1.736-.023-4.268-1.301-6.332-4.406-7.113-3.673-.924-7.606.574-9.182 3.88-.819 1.717-1.319 3.741-1.365 5.64-.16 6.709-.064 13.424-.065 20.136v2.037h-7.76c-.036-.53-.1-1.032-.1-1.535-.005-11.284.021-22.567-.035-33.85-.008-1.446.421-1.804 1.846-1.883 2.876-.16 4.82.91 5.661 3.243 2.48-1.283 4.785-3.05 7.363-3.649 2.599-.605 5.557-.47 8.199.09 4.273.904 7.052 4.7 7.448 9.41.204 2.417.211 4.854.222 7.281.028 6.307.01 12.615.01 18.922v2.044zM242.695 137.37c4.084-.777 5.232-.274 7.614 3.366.297-.247.6-.467.866-.726 3.783-3.693 8.382-4.54 13.357-3.558 4.925.973 8.208 4.308 8.423 9.703.372 9.347.103 18.72.103 28.329-2.323 0-4.62.056-6.906-.074-.278-.016-.709-1.035-.713-1.592-.048-7.291-.024-14.583-.041-21.874-.003-1.212-.026-2.437-.195-3.635-.34-2.403-1.676-3.98-4.09-4.613-5.345-1.403-10.344 2.179-10.573 7.984-.262 6.645-.115 13.306-.144 19.96-.005 1.203 0 2.406 0 3.74h-7.701v-37.01zM412.65 167.59c2.874.424 5.437.969 8.023 1.129 1.87.115 3.821-.072 5.645-.506 1.883-.448 3.005-1.873 3.184-3.896.196-2.21-.395-4.13-2.536-5.056-2.114-.913-4.354-1.538-6.546-2.269-4.287-1.43-7.607-3.742-8.028-8.712-.56-6.612 2.257-10.464 8.804-11.766 3.967-.79 7.956-.51 11.915.298 1.64.334 2.415 1.208 2.222 2.914-.162 1.434-.255 2.876-.373 4.244-2.387-.464-4.68-1.121-7.01-1.299-1.86-.141-3.8.144-5.641.536-1.361.29-2.284 1.335-2.43 2.85-.152 1.599.421 2.885 1.837 3.639 1.116.595 2.319 1.042 3.512 1.475.977.355 2 .582 2.997.886 7.04 2.144 10.095 6.125 8.116 15.04-1.07 4.822-4.716 7.153-9.345 7.894-4.852.776-9.682.109-14.683-.635l.338-6.766zM391.302 143.484h-5.623v-6.307h5.606v-8.89c1.954 0 3.7-.184 5.387.053 1.608.225 2.44 1.457 2.46 3.112.022 1.79.005 3.579.005 5.692 1.43 0 2.734-.002 4.038 0 4.788.006 5.902 1.313 5.199 6.355h-9.131c-.036.723-.093 1.334-.094 1.945-.007 5.847-.01 11.694-.001 17.541.007 4.545 1.827 6.078 6.312 5.344 3.64-.596 3.64-.596 3.487 3.112-.134 3.242-.14 3.312-3.352 3.618-1.898.18-3.834.333-5.723.163-4.717-.425-7.978-3.559-8.31-8.287-.315-4.495-.21-9.02-.254-13.533-.032-3.227-.006-6.455-.006-9.918zM351.694 143.495h-5.664v-6.274h5.664c0-2.427.111-4.663-.035-6.882-.115-1.753.437-2.475 2.219-2.203.624.095 1.274 0 1.911.029 2.598.117 3.665 1.202 3.696 3.775.02 1.616.004 3.233.004 5.204 1.412 0 2.71-.002 4.009 0 4.815.006 5.903 1.27 5.246 6.293H359.6c-.043.775-.104 1.386-.105 1.997-.007 5.847-.014 11.694-.001 17.542.01 4.553 1.826 6.082 6.31 5.353 3.712-.604 3.712-.604 3.5 3.276-.166 3.027-.16 3.077-3.183 3.44-1.665.2-3.357.31-5.033.272-5.225-.122-9.002-3.505-9.207-8.727-.27-6.88-.143-13.774-.186-20.662-.005-.74 0-1.479 0-2.433zM134.322 174.418h-7.668c-.042-.695-.11-1.31-.11-1.924-.007-11.058.037-22.117-.047-33.175-.014-1.783.52-2.155 2.237-2.241 3.172-.16 4.672 1.515 5.496 4.481.359-.382.563-.543.695-.75 2.753-4.297 6.831-4.88 11.47-3.721.594.149 1.39 1.002 1.434 1.579.167 2.23.068 4.482.068 6.544-2.336-.36-4.476-.89-6.633-.976-3.535-.141-5.95 1.916-6.618 5.377-.218 1.129-.305 2.297-.31 3.448-.029 6.427-.014 12.854-.014 19.28v2.078z"/><path class="st0" d="M399.818 49.815c5.158-.01 8.995 3.807 8.988 8.943-.007 4.996-3.897 8.895-8.884 8.905-5.097.01-9.007-3.887-9-8.972.007-5.01 3.872-8.866 8.896-8.876zM376.156 66.41c-.024 3.932-2.995 6.835-6.968 6.81-3.873-.025-6.824-3.07-6.792-7.007.03-3.771 3.05-6.697 6.908-6.694 3.979.003 6.877 2.918 6.852 6.892zM428.78 73.26c-3.225.023-5.518-2.198-5.547-5.373-.03-3.184 2.245-5.532 5.38-5.554 3.164-.021 5.551 2.283 5.577 5.385.026 3.158-2.28 5.52-5.41 5.542z"/></svg>