<svg version="1.1" id="Layer_1" xmlns="http://www.w3.org/2000/svg" x="0" y="0" viewBox="0 0 68 68" style="enable-background:new 0 0 68 68" xml:space="preserve"><style>.st0{fill:#1e357a}</style><g id="g585"><g id="g591" transform="translate(1022.027 101.061)"><path id="path593" class="st0" d="M-983.3-81.6c0-2.8-2.3-5.1-5.1-5.1s-5.1 2.3-5.1 5.1 2.3 5.1 5.1 5.1c2.9-.1 5.1-2.3 5.1-5.1"/></g></g><g id="g597"><g id="g603" transform="translate(1022.027 87.802)"><path id="path605" class="st0" d="M-983.3-38.3c0-2.8-2.3-5.1-5.1-5.1s-5.1 2.3-5.1 5.1 2.3 5.1 5.1 5.1c2.9 0 5.1-2.3 5.1-5.1"/></g></g><g id="g609"><g id="g615" transform="translate(1011.308 94.41)"><path id="path617" class="st0" d="M-996.9-59.9c0-2.8-2.3-5.1-5.1-5.1s-5.1 2.3-5.1 5.1 2.3 5.1 5.1 5.1c2.9 0 5.1-2.3 5.1-5.1"/></g></g><g id="g621"><g id="g627" transform="translate(1032.908 94.411)"><path id="path629" class="st0" d="M-969.4-59.9c0-2.8-2.3-5.1-5.1-5.1s-5.1 2.3-5.1 5.1 2.3 5.1 5.1 5.1 5.1-2.3 5.1-5.1"/></g></g><g id="g633"><g id="g639" transform="translate(1029.867 98.373)"><path id="path641" class="st0" d="M-973.3-72.8v-9.5L-996-68.6h-.1l-22.9-13.8v9.5l15 9-15 9v9.5l22.9-13.8 22.9 13.8v-9.5l-15-9 14.9-8.9z"/></g></g></svg>