<?xml version="1.0" encoding="utf-8"?>
<!-- Generator: Adobe Illustrator 22.1.0, SVG Export Plug-In . SVG Version: 6.00 Build 0)  -->
<svg version="1.1"
	 id="Layer_1" inkscape:output_extension="org.inkscape.output.svg.inkscape" inkscape:version="0.46" sodipodi:docname="notice_of_meeting_2006.svg" sodipodi:version="0.32" xmlns:cc="http://creativecommons.org/ns#" xmlns:dc="http://purl.org/dc/elements/1.1/" xmlns:inkscape="http://www.inkscape.org/namespaces/inkscape" xmlns:rdf="http://www.w3.org/1999/02/22-rdf-syntax-ns#" xmlns:sodipodi="http://sodipodi.sourceforge.net/DTD/sodipodi-0.dtd" xmlns:svg="http://www.w3.org/2000/svg"
	 xmlns="http://www.w3.org/2000/svg" xmlns:xlink="http://www.w3.org/1999/xlink" x="0px" y="0px" viewBox="0 0 68 68"
	 style="enable-background:new 0 0 68 68;" xml:space="preserve">
<style type="text/css">
	.st0{fill:#1E357A;}
</style>
<g id="g585">
	<g id="g591" transform="translate(1022.0269,101.0614)">
		<path id="path593" class="st0" d="M-983.3-81.6c0-2.8-2.3-5.1-5.1-5.1s-5.1,2.3-5.1,5.1s2.3,5.1,5.1,5.1
			C-985.5-76.6-983.3-78.8-983.3-81.6"/>
	</g>
</g>
<g id="g597">
	<g id="g603" transform="translate(1022.0269,87.8022)">
		<path id="path605" class="st0" d="M-983.3-38.3c0-2.8-2.3-5.1-5.1-5.1s-5.1,2.3-5.1,5.1s2.3,5.1,5.1,5.1
			C-985.5-33.2-983.3-35.5-983.3-38.3"/>
	</g>
</g>
<g id="g609">
	<g id="g615" transform="translate(1011.3079,94.4106)">
		<path id="path617" class="st0" d="M-996.9-59.9c0-2.8-2.3-5.1-5.1-5.1s-5.1,2.3-5.1,5.1c0,2.8,2.3,5.1,5.1,5.1
			C-999.1-54.8-996.9-57.1-996.9-59.9"/>
	</g>
</g>
<g id="g621">
	<g id="g627" transform="translate(1032.9076,94.411)">
		<path id="path629" class="st0" d="M-969.4-59.9c0-2.8-2.3-5.1-5.1-5.1s-5.1,2.3-5.1,5.1c0,2.8,2.3,5.1,5.1,5.1
			C-971.7-54.8-969.4-57.1-969.4-59.9"/>
	</g>
</g>
<g id="g633">
	<g id="g639" transform="translate(1029.8667,98.3729)">
		<path id="path641" class="st0" d="M-973.3-72.8v-9.5L-996-68.6l-0.1,0l-22.9-13.8v9.5l15,9l-15,9v9.5l22.9-13.8l22.9,13.8v-9.5
			l-15-9L-973.3-72.8z"/>
	</g>
</g>
</svg>
