<svg version="1.1" id="svg5744" xmlns="http://www.w3.org/2000/svg" x="0" y="0" viewBox="0 0 216.2 29.7" style="enable-background:new 0 0 216.2 29.7" xml:space="preserve"><style>.st0{fill:#003e5c}</style><g id="layer1" transform="translate(-77.286 -659.042)"><path id="path678" class="st0" d="M155.5 669.5v13.3h3.6v-10.1h2.6v-2.1h-2.6v-1.7c0-1.4.7-2.4 2-2.4 1 0 2 .4 2.7.8V665c-.5-.3-1.7-.6-3.2-.6-3.6 0-5.1 2.2-5.1 5.1"/><path id="path684" class="st0" d="M146.9 681c-2 0-2.8-1.7-2.8-5.4 0-3.9.8-5.5 2.8-5.5s2.8 1.8 2.8 5.5-.8 5.4-2.8 5.4m0-13.1c-3.6 0-6.7 2.1-6.7 7.7 0 5.5 3.2 7.6 6.7 7.6s6.7-2 6.7-7.6c-.1-5.6-3-7.7-6.7-7.7"/><path id="path690" class="st0" d="M123 682.7v-15.2c0-1-.1-2-.4-2.7h4v17.9H123z"/><path id="path696" class="st0" d="M131.2 668.3h3.8l-4.6 5.6 5.4 8.8h-4.5l-4.6-8.1 3.3-4c.6-.7 1-1.5 1.2-2.3"/><path id="path702" class="st0" d="M81.9 674.1v6.6h2.6c2.4 0 3.5-1.2 3.5-3.4s-1.4-3.2-3.5-3.2h-2.6zm0-7.3v5.3h2.3c1.9 0 3.1-.8 3.1-2.8s-1.4-2.5-3.1-2.5h-2.3zm3.8 15.9h-7.8v-15.1c0-1.2-.1-1.9-.4-2.8h8.9c2.5 0 4.7 1.2 4.7 4 0 2.7-1.9 3.7-3.8 4.1 1.9.1 4.7 1.4 4.7 4.6.2 3.6-2.8 5.2-6.3 5.2"/><path id="path708" class="st0" d="M100.5 675.6c-1.6.5-3.2 1.3-3.2 3 0 1.4.8 2.1 2.1 2.1s2.4-.6 2.9-1.1v-4.5c-.4.2-1.1.4-1.8.5m-.3-7.7c2.7 0 5.8.4 5.8 4.6v7.2c0 1.4.1 2.4.3 3h-3.4c-.1-.2-.2-.7-.3-1-.5.3-2 1.4-4.5 1.4-2.7 0-4.6-1.4-4.6-4.2s1.8-4.1 4.5-4.8c1.2-.3 3.7-.9 4.3-1v-.9c0-1.9-1-2.4-2.2-2.4-1.4 0-2.6.9-2.6 2.5h-3.3c.1-1.8 1.4-4.4 6-4.4"/><path id="path714" class="st0" d="M116.2 667.9c-1.9 0-3.6 1.1-4.1 1.4v-1.1h-4c.2.8.4 1.7.4 2.8v11.7h3.6v-11.1c.6-.5 1.6-1.2 2.8-1.2 1.8 0 2.2 1.1 2.2 3.2v9.2h3.6v-9.4c-.1-2.3-.5-5.5-4.5-5.5"/><path id="path720" class="st0" d="M179.3 670.2v-1.9h-4c.2.8.4 1.7.4 2.8v11.7h3.6v-8.3c0-2.5 1.5-3.7 4.1-3.7v-2.9c-2.4 0-3.8 1.5-4.1 2.3"/><path id="path726" class="st0" d="M243.3 679.3c-.3.5-1.4 1.6-2.6 1.6-1.6 0-3-.9-3-5.4 0-4.3 1.5-5.3 3-5.3 1.3 0 2.3 1 2.7 1.5l-.1 7.6zm-.4-14.5c.3.8.4 1.7.4 2.7v1.8c-.8-.7-1.9-1.3-3.6-1.3-2.2 0-5.8 1.3-5.9 7.5 0 6 2.9 7.7 5.6 7.7 2.2 0 3.7-1.4 3.9-1.5v1.1h3.6v-17.9l-4-.1z"/><path id="path732" class="st0" d="M169 682.7v-15.2c0-1-.1-2.2-.3-2.7h4.3v17.9h-4z"/><path id="path738" class="st0" d="M199.2 682.7v-15.2c0-1-.1-2-.4-2.7h4v17.9h-3.6z"/><path id="path744" class="st0" d="M187.8 674h5.5c-.1-1.8-.6-4-2.8-4-2 .1-2.5 2.3-2.7 4m9.4 1.3v.6h-9.4c0 3.1.6 5.1 2.8 5.1 1.8 0 2.4-1.3 2.7-3.2h3.8c-.8 4-3.6 5.3-6.4 5.3-3.7 0-6.7-1.9-6.7-7.8 0-5.1 3-7.4 6.7-7.4 3.5 0 6.6 2.4 6.5 7.4"/><path id="path750" class="st0" d="M211.8 675.6c-1.6.5-3.2 1.3-3.2 3 0 1.4.8 2.1 2.1 2.1s2.4-.6 2.9-1.1v-4.5c-.4.2-1.2.4-1.8.5m-.4-7.7c2.7 0 5.8.4 5.8 4.6v7.2c0 1.4.1 2.4.3 3h-3.4c-.1-.2-.2-.7-.3-1-.5.3-2 1.4-4.5 1.4-2.7 0-4.6-1.4-4.6-4.2s1.8-4.1 4.5-4.8c1.2-.3 3.7-.9 4.3-1v-.9c0-1.9-1-2.4-2.2-2.4-1.4 0-2.6.9-2.6 2.5h-3.3c.1-1.8 1.4-4.4 6-4.4"/><path id="path756" class="st0" d="M227.4 667.9c-1.9 0-3.6 1.1-4.1 1.4v-1.1h-4c.2.8.4 1.7.4 2.8v11.7h3.6v-11.1c.6-.5 1.6-1.2 2.8-1.2 1.8 0 2.2 1.1 2.2 3.2v9.2h3.6v-9.4c0-2.3-.4-5.5-4.5-5.5"/></g><path class="st0" d="M195.6 12.3c.3-1.9 8.4-2.1 8.4-4 0 0 0-.1.1-.1 0 0 .1 0 .1.1v2c0 2.4-8.1 2.1-8.5 4.4 0 .1 0 .1-.1.1s-.1 0-.1-.1c-.4-2.3-8.5-2-8.5-4.4v-2s0-.1.1-.1c0 0 .1 0 .1.1 0 1.9 8.1 2.2 8.4 4"/><path class="st0" d="M195.6 16.4c.3-1.9 8.4-2.1 8.4-4 0-.1 0-.1.1-.1 0 0 .1 0 .1.1v2c0 2.4-8.1 2.1-8.5 4.4 0 .1 0 .1-.1.1s-.1 0-.1-.1c-.4-2.3-8.5-2-8.5-4.4v-2c0-.1 0-.1.1-.1 0 0 .1 0 .1.1 0 1.9 8.1 2.1 8.4 4"/><path class="st0" d="M195.6 20.6c.3-1.9 8.4-2.1 8.4-4 0 0 0-.1.1-.1 0 0 .1 0 .1.1v2c0 2.4-8.1 2.1-8.5 4.4 0 0 0 .1-.1.1s-.1 0-.1-.1c-.4-2.3-8.5-2-8.5-4.4v-2s0-.1.1-.1c0 0 .1 0 .1.1 0 1.9 8.1 2.1 8.4 4"/><path class="st0" d="M175.6 14.9c0-6.1 9-11 20-11s20 4.9 20 11c0 6-9 11-20 11-11-.1-20-5-20-11m20 9.8c9.5 0 17.2-4.4 17.2-9.9S205.1 5 195.6 5s-17.2 4.4-17.2 9.9 7.7 9.8 17.2 9.8"/></svg>