<?xml version="1.0" encoding="utf-8"?>
<!-- Generator: Adobe Illustrator 22.1.0, SVG Export Plug-In . SVG Version: 6.00 Build 0)  -->
<svg version="1.1"
	 id="Layer_1" inkscape:output_extension="org.inkscape.output.svg.inkscape" inkscape:version="0.46" sodipodi:docname="notice_of_meeting_2006.svg" sodipodi:version="0.32" xmlns:cc="http://creativecommons.org/ns#" xmlns:dc="http://purl.org/dc/elements/1.1/" xmlns:inkscape="http://www.inkscape.org/namespaces/inkscape" xmlns:rdf="http://www.w3.org/1999/02/22-rdf-syntax-ns#" xmlns:sodipodi="http://sodipodi.sourceforge.net/DTD/sodipodi-0.dtd" xmlns:svg="http://www.w3.org/2000/svg"
	 xmlns="http://www.w3.org/2000/svg" xmlns:xlink="http://www.w3.org/1999/xlink" x="0px" y="0px" viewBox="0 0 68 68"
	 style="enable-background:new 0 0 68 68;" xml:space="preserve">
<style type="text/css">
	.st0{fill:#FFFFFF;}
	.st1{fill:#03426A;}
</style>
<rect y="40.2" class="st0" width="68" height="27.6"/>
<rect class="st1" width="68" height="42.6"/>
<g>
	<path class="st0" d="M15.17482,32.39622c0,1.83729-0.98584,2.74474-3.19286,2.74474H8.50911v-6.87864h3.36086
		c2.66627,0,3.30486,1.29957,3.30486,2.72234V32.39622z M16.59752,32.34022v-1.17624c0-3.75298-2.95753-3.89858-4.94042-3.89858
		H7.07514v8.895h4.97402c3.90984,0,4.54836-2.11729,4.54836-3.82005"/>
	<path class="st0" d="M24.34994,33.96459c0,0.51532-0.0448,0.98584-0.63859,1.19877c-0.34726,0.1344-0.84018,0.1792-1.66916,0.1792
		c-0.82905,0-1.32197-0.0784-1.61323-0.26892c-0.20166-0.1232-0.28006-0.3248-0.28006-0.75052
		c0-0.53772,0.1344-0.84025,0.39206-0.96345c0.25772-0.1232,0.58258-0.1456,1.59083-0.1456h2.21821v0.75052H24.34994z
		 M25.69431,36.1604v-3.49525c0-0.66105,0-1.12037-0.056-1.45637c-0.0672-0.34732-0.17926-0.59385-0.45932-0.80665
		c-0.64972-0.50412-2.24055-0.51532-3.0248-0.51532c-0.59372,0-2.20695,0.0672-2.80073,0.57132
		c-0.2016,0.16813-0.24646,0.36972-0.24646,0.61612c0,0.15693,0.0224,0.36972,0.0336,0.64985h1.31077
		c0.0224-0.1568,0.056-0.53772,0.20166-0.69452c0.17926-0.16813,0.48172-0.23532,1.37797-0.23532
		c1.03064,0,1.74763,0.0336,2.05009,0.2016c0.28006,0.15693,0.26886,0.49292,0.26886,0.75065v0.60492h-3.0248
		c-0.81778,0-1.75883,0.0224-2.27415,0.72812c-0.23526,0.30252-0.33606,0.69465-0.33606,1.19877
		c0,1.47876,0.90738,1.97169,3.23759,1.97169c1.2099,0,2.00535-0.1904,2.48707-0.60492l0.1232,0.51532H25.69431"/>
	<path class="st0" d="M33.80519,36.1604v-3.40565c0-1.17624-0.056-1.42277-0.33606-1.63569
		c-0.26886-0.2016-0.80665-0.32479-1.62443-0.32479c-0.71705,0-1.45637,0.0896-2.15102,0.27999v5.08615h-1.3331v-6.22879h1.19871
		l0.0896,0.44812c0.26886-0.1456,0.47052-0.2576,0.75058-0.33612c0.44812-0.1344,1.00831-0.2016,1.75889-0.2016
		c0.85145,0,1.51237,0.1344,2.01649,0.35852c0.49292,0.2128,0.76178,0.61612,0.86264,1.08664
		c0.0672,0.32479,0.1008,0.60492,0.1008,1.31077v3.56245h-1.33317"/>
	<path class="st0" d="M43.6973,35.77948c-0.61612,0.31372-1.62443,0.44825-2.93513,0.44825
		c-0.90744,0-1.65803-0.06733-2.24061-0.22412c-0.62732-0.1456-0.94098-0.43692-0.97464-0.97465
		c-0.02234-0.28012,0-0.52652,0.03366-0.86264h1.2883c0.0448,0.31372,0.0448,0.41452,0.056,0.48172
		c0.0448,0.29132,0.0224,0.44812,0.36966,0.56012c0.33606,0.10093,0.87384,0.1456,1.55723,0.1456
		c0.85145,0,1.44517-0.0896,1.83729-0.2688c0.28006-0.1232,0.41452-0.34732,0.41452-0.77304
		c0-0.49292-0.10086-0.69452-0.61618-0.77292c-0.15686-0.03373-0.31366-0.03373-0.48172-0.0448
		c-0.0896-0.0112-0.38086-0.0112-0.85138-0.0224c-0.22412,0-0.48172-0.02253-0.78424-0.03373
		c-1.33311-0.0672-2.74474-0.1232-2.74474-1.68036c0-1.41157,0.86264-1.90449,3.23766-1.90449
		c0.60498,0,1.34437,0.0448,1.79249,0.1008c0.51532,0.0672,0.90744,0.15693,1.1875,0.31372
		c0.31366,0.1792,0.41446,0.45932,0.41446,0.95224c0,0.1344,0,0.2688-0.02234,0.48172h-1.29957l-0.056-0.28012
		c-0.0672-0.33599-0.0896-0.40332-0.20166-0.48172c-0.19046-0.1456-0.76178-0.2128-1.56837-0.2128
		c-0.80664,0-1.26597,0.0336-1.63563,0.168c-0.34726,0.1232-0.50412,0.34732-0.50412,0.79545
		c0,0.30252,0.112,0.52652,0.25766,0.62732c0.34726,0.21293,2.18455,0.19053,2.81194,0.20173
		c0.67218,0.0112,1.1091,0.0672,1.48996,0.2016c0.68338,0.23532,0.95224,0.68332,0.95224,1.59077
		c0,0.72824-0.23526,1.18757-0.78418,1.46756"/>
	<path class="st0" d="M51.92024,36.1604l-3.21526-2.94633h-0.47052v2.94633h-1.34437v-8.89512h1.34437v5.06375h0.47052
		l2.66627-2.39741h1.56843l-3.1032,2.74473l3.86498,3.48405H51.92024"/>
	<path class="st0" d="M60.33358,32.44102h-4.2907c0.04486-0.78425,0.21286-1.13144,0.51532-1.35557
		c0.31366-0.22412,0.88505-0.33612,1.72529-0.33612c1.16511,0,1.71403,0.25773,1.91563,0.79545
		C60.27758,31.7689,60.33358,31.9817,60.33358,32.44102z M61.56588,34.21111h-1.32191
		c-0.04486,0.1904-0.0672,0.67212-0.24646,0.85144c-0.20166,0.2016-0.60498,0.2912-1.68043,0.2912
		c-1.06431,0-1.64683-0.1456-1.94929-0.44812c-0.22406-0.224-0.35852-0.69452-0.35852-1.42277v-0.168h5.59021
		c0.01126-0.30252,0.0336-0.38092,0.0336-0.62745c0-1.03065-0.1456-1.60197-0.59372-2.03889
		c-0.50412-0.52652-1.47877-0.78425-2.82314-0.78425c-1.71403,0-2.76707,0.39212-3.20399,1.25477
		c-0.25766,0.49292-0.40326,1.18744-0.40326,2.05009c0,1.35557,0.35846,2.20702,1.1539,2.63274
		c0.49292,0.2688,1.34431,0.42572,2.43101,0.43692c0.90745,0,1.63563-0.0448,2.43101-0.28012
		c0.77305-0.2464,0.96344-0.68332,0.96344-1.05304c0-0.08973,0-0.39212-0.0224-0.69465"/>
</g>
<g>
	<path class="st1" d="M23.41804,51.99671c0,1.32433-0.74703,1.59591-2.28636,1.59591h-3.407v-2.85234h3.57673
		c1.36959,0,2.11662,0.12447,2.11662,1.2563V51.99671z M25.19506,56.18469c0-1.1092-0.63381-1.92419-2.1505-2.16195v-0.02263
		c1.17716-0.30565,1.81097-0.91683,1.81097-1.8788c0-1.58472-0.76966-2.38826-2.95418-2.38826h-5.6254v8.987h5.85178
		c1.96945,0,3.0674-0.89407,3.0674-2.53537H25.19506z M23.74626,56.28653c0,1.27906-0.90545,1.40354-2.30899,1.40354h-3.71259
		v-3.07865h3.89364C23.28218,54.61142,23.74626,55.14339,23.74626,56.28653"/>
	<path class="st1" d="M32.54095,56.50153c0,0.52065-0.03395,0.99604-0.63387,1.21117
		c-0.35085,0.13579-0.84887,0.18105-1.68649,0.18105c-0.83756,0-1.33558-0.07921-1.62992-0.27171
		c-0.20368-0.12447-0.28296-0.32816-0.28296-0.75828c0-0.54329,0.13585-0.84894,0.40749-0.97341
		c0.24901-0.12447,0.57723-0.1471,1.60728-0.1471h2.21846V56.50153z M33.91048,58.72005v-3.53141
		c0-0.66788,0-1.13196-0.05658-1.47143c-0.06789-0.35091-0.18111-0.59999-0.46407-0.81499
		c-0.65644-0.50934-2.26372-0.52065-3.05608-0.52065c-0.59986,0-2.22978,0.06789-2.82964,0.57723
		c-0.20375,0.16987-0.24907,0.37355-0.24907,0.62249c0,0.15855,0.02263,0.37355,0.03401,0.65657h1.32426
		c0.03395-0.15842,0.05658-0.54328,0.20375-0.7017c0.18112-0.16986,0.48671-0.23776,1.39222-0.23776
		c1.04137,0,1.7657,0.03395,2.07129,0.20368c0.28302,0.15855,0.26039,0.49802,0.26039,0.75841v0.61118h-3.04477
		c-0.82631,0-1.77708,0.02263-2.29774,0.73565c-0.22638,0.30565-0.33953,0.70183-0.33953,1.21117
		c0,1.49406,0.91683,1.99208,3.27114,1.99208c1.23374,0,2.0261-0.19237,2.5128-0.61118l0.12447,0.52065h1.14321"/>
	<path class="st1" d="M41.76572,58.72005v-3.44088c0-1.18841-0.05658-1.43748-0.33953-1.65261
		c-0.27164-0.20369-0.81493-0.32816-1.64123-0.32816c-0.7244,0-1.47143,0.09052-2.1732,0.28289v5.13876h-1.34696v-6.29322h1.21111
		l0.10191,0.45276c0.26033-0.1471,0.46407-0.26026,0.75835-0.3396c0.44144-0.13579,1.00742-0.20368,1.76571-0.20368
		c0.86025,0,1.52807,0.13579,2.03741,0.36223c0.49802,0.215,0.76966,0.62249,0.88282,1.09788
		c0.06796,0.32816,0.09053,0.61118,0.09053,1.32433v3.5993H41.76572"/>
	<path class="st1" d="M50.54904,58.72005l-3.24845-2.97681h-0.48671v2.97681h-1.34696v-8.98713h1.34696v5.11613h0.48671
		l2.69385-2.42221h1.57334l-3.1353,2.77312l3.90502,3.52009h-1.7884"/>
</g>
</svg>
