<svg version="1.1" id="Layer_1" xmlns="http://www.w3.org/2000/svg" xmlns:xlink="http://www.w3.org/1999/xlink" x="0" y="0" viewBox="0 0 453.5 264.6" style="enable-background:new 0 0 453.5 264.6" xml:space="preserve"><style>.st6{fill-rule:evenodd;clip-rule:evenodd;fill:#ededef}</style><g id="g10" transform="matrix(1.33333 0 0 -1.33333 0 265.333)"><g id="g12" transform="scale(.1)"><path id="path16" d="M283.5 238.9h163l15.9 46.6v.4H336.3v249.8h-52.8V238.9zm229.7 0h163l15.9 46.6v.4H566v249.8h-52.8V238.9zm194.1 149.2c0-92.6 64-156.7 150.6-156.7 87.8 0 151.8 64.1 151.8 156.7 0 95.1-64 155-151.8 155-86.6 0-150.6-59.9-150.6-155zm54.5 0c0 61.2 38.6 108.5 96.6 108.5 58.4 0 97-47.4 97-108.5 0-63.3-39.3-109.4-97-109.4-57.3 0-96.6 46.1-96.6 109.4zm561.3-149.2h97.7c72 0 152.2 44.4 152.2 148.3 0 111.5-80.2 148.3-152.2 148.3h-97.7V238.9zm49 46.1v205.3h40.9c50.6 0 107.4-18 107.4-103.1 0-80-56.8-102.3-107.4-102.3h-40.9zm424.4 236.2c-22.6 14.7-51.5 17.7-77.3 17.7-56.1 0-113.6-22.6-113.6-83 0-55.3 40.8-72.9 78.5-84.2 39-11.7 76.6-20.8 72.7-51.5-3.5-27.9-24.8-35.8-63.8-35.8-22.8 0-52.3 6.3-85.1 27.8l-21.8-46.3c36.3-22.9 72.2-33.3 112.5-33.3 60.9 0 113.1 29.8 113.1 93.5 0 58.2-52.4 70.6-90.8 86.7-33.3 14-50.3 12.1-59.2 34.9-14.6 37.2 52.4 53.2 116.2 26.3l18.6 47.2zm189-282.3h106.9c56.1 0 112.3 21.8 112.3 86.3 0 39.8-26.8 65-64.1 70v.8c30.6 9.2 51.5 31.4 51.5 65 0 54.1-46.1 74.6-90.9 74.6h-115.7V238.9zm52.8 253.1h42.3c39.8 0 58.7-10.5 58.7-36.9 0-25.6-18.9-40.2-54.1-40.2h-46.9V492zm0-122.4h49.5c42.7 0 64.1-10.9 64.1-41.9 0-39-39-44.4-66.2-44.4h-47.4v86.3zM2217 238.9h59.1l26.8 67.9c42.9-9.2 85.8-9.5 128.6 0l27.7-67.9h60.3l-127.8 296.7H2346l-129-296.7zM2320.9 352l46.5 120.7 45.7-120.7c-31.5-7.3-62.2-7-92.2 0zm226.8-113.1h50.8v221.4h.8l130.5-221.4h64.4v296.7h-50.7V319.5h-.8L2615 535.6h-67.3V238.9zm311.9 0h51.6v141.6L3044 238.9h74.2l-147.9 154.3L3109 535.6h-71.2l-125.2-132.4h-1.2v132.4h-51.6V238.9zm-1683.1 95.6V237h-56.1v97.5c-13.7 20.1-27.8 38.6-44.2 66.5-27.3 46.2-50.6 83.2-68.5 134.6h63.3c14.5-40 30.2-75.6 47.1-104.2 9.8-16.6 19.9-30.6 30.1-41.3l.3-.3.3.3c10.2 10.6 20.2 24.6 30.1 41.3 16.9 28.6 32.6 64.2 47.1 104.2h63.3c-17.9-51.4-41.2-88.4-68.5-134.6-16.5-27.9-30.6-46.4-44.3-66.5" style="fill-rule:evenodd;clip-rule:evenodd;fill:#006846"/><g id="g18"><defs><path id="SVGID_1_" d="M1679 1540.5c-8.6-13-4.8-34.6 8-44.3 7.8-5.8 11.4-6.3 24.3-6.3-2.9 4.3-4.8 9.1-7.6 13.4-3.8 5.7-6.7 6.6-6.7 13.4 0 30.3-1.6 17.1 13.6 23.7l3.6 2.1c3.7-2.7.1-1.5 3.8-2.9 0 27.7 17.6 50.5 33.1 71.2 22.5 30 35.8 17 45.4 16.8v2.9c0 9.7-15.7 15.5-17.6 20.7-1.7 4.6 6.1 22.5 6.1 29.9 0 .1-2.2 4.5-2.6 5.1-3.7 5.5-3.4-1.2-3.1 16 .1 10.8 1.7 9.5-11.5 9.5 0-19.4 1.5-21-19.4-41.8-6.6-6.6-13.3-12.2-12.5-21.9.9-10.8 8.3-5.6-8.8-31.4-4.4-6.5-8-11.9-12-18.6-7.4-12.2-17.1-32.9-22-40.2l-7.3-9c-2.6-2.7-4.6-5.1-6.8-8.3z"/></defs><clipPath id="SVGID_00000077297987419833953180000014055524850866285212_"><use xlink:href="#SVGID_1_" style="overflow:visible"/></clipPath><g id="g20" style="clip-path:url(#SVGID_00000077297987419833953180000014055524850866285212_)"><linearGradient id="path32_00000009557268919161039820000010007633015267505817_" gradientUnits="userSpaceOnUse" x1="420.357" y1="-2649.252" x2="428.703" y2="-2631.253" gradientTransform="translate(1139.322 5034.876) scale(1.3333)"><stop offset="0" style="stop-color:#43474b"/><stop offset="1" style="stop-color:#fff"/></linearGradient><path id="path32" style="fill:url(#path32_00000009557268919161039820000010007633015267505817_)" d="M1679 1540.5c-8.6-13-4.8-34.6 8-44.3 7.8-5.8 11.4-6.3 24.3-6.3-2.9 4.3-4.8 9.1-7.6 13.4-3.8 5.7-6.7 6.6-6.7 13.4 0 30.3-1.6 17.1 13.6 23.7l3.6 2.1c3.7-2.7.1-1.5 3.8-2.9 0 27.7 17.6 50.5 33.1 71.2 22.5 30 35.8 17 45.4 16.8v2.9c0 9.7-15.7 15.5-17.6 20.7-1.7 4.6 6.1 22.5 6.1 29.9 0 .1-2.2 4.5-2.6 5.1-3.7 5.5-3.4-1.2-3.1 16 .1 10.8 1.7 9.5-11.5 9.5 0-19.4 1.5-21-19.4-41.8-6.6-6.6-13.3-12.2-12.5-21.9.9-10.8 8.3-5.6-8.8-31.4-4.4-6.5-8-11.9-12-18.6-7.4-12.2-17.1-32.9-22-40.2l-7.3-9c-2.6-2.7-4.6-5.1-6.8-8.3"/></g></g><path id="path34" d="M1927.1 1632c7.7-11.9 20.1-13 30.5-5.8 5.6 3.9 7.2 7.2 7.2 12.9-25.8 0-27.5.1-41.2 23.9-3.1 5.4-6.3 9.7-10.7 14.1-5.9 5.8-5.7 7.9-17 7.9 2.6-5.8-1.2-1.9 4.9-9.4l26.3-43.6" style="fill-rule:evenodd;clip-rule:evenodd;fill:#ececed"/><g id="g36"><defs><path id="SVGID_00000166634890843529409210000013603496881971582618_" d="M2134.8 1332.9c-11.4 9.4-15.5 13.6-30.4 13.6-24.8 0-31.8-3.5-57.4-3.8-20.2-.2-32.5-7.7-44.9-7.7.1-4.3-1.2.3-.1-3.2 1-3.3 3.7-4.5 7.1-5.1 16.5-2.8 68.9-.4 89.6-.3 13.4 0 22.5-1.5 31.6-5.7 9.3-4.3 11.9-11.4 24.9-12.4-1.3 2.7-1.9 5.5-3 8.5-2.6 7-9.3 9.4-17.4 16.1zm-35.9-96.1c-16.5 15.2-51.9 5.9-70.1 4.6-8.2-.6-13.9-.3-21.7-1.2l-18.6-3.6 1.1-7.6c4.1-.1 3.9-.8 8.6-1h25.8c27.1 0 52.2 3 75.8-11.3 1.8-1.1 3.5-2.2 5.3-3.3 2.5-1.5 3.6-1.5 5.9-2.7 0 6.4-1.8 10.6-4.1 15-1.5 3-5.6 8.9-8 11.1z"/></defs><clipPath id="SVGID_00000012440512593205071780000014995535949293556127_"><use xlink:href="#SVGID_00000166634890843529409210000013603496881971582618_" style="overflow:visible"/></clipPath><g id="g38" style="clip-path:url(#SVGID_00000012440512593205071780000014995535949293556127_)"><linearGradient id="path50_00000126316390832230124770000012153748503458225324_" gradientUnits="userSpaceOnUse" x1="684.825" y1="-2823.036" x2="701.797" y2="-2814.842" gradientTransform="translate(1139.322 5034.876) scale(1.3333)"><stop offset="0" style="stop-color:#43474b"/><stop offset="1" style="stop-color:#fff"/></linearGradient><path id="path50" style="fill:url(#path50_00000126316390832230124770000012153748503458225324_)" d="M2134.8 1332.9c-11.4 9.4-15.5 13.6-30.4 13.6-24.8 0-31.8-3.5-57.4-3.8-20.2-.2-32.5-7.7-44.9-7.7.1-4.3-1.2.3-.1-3.2 1-3.3 3.7-4.5 7.1-5.1 16.5-2.8 68.9-.4 89.6-.3 13.4 0 22.5-1.5 31.6-5.7 9.3-4.3 11.9-11.4 24.9-12.4-1.3 2.7-1.9 5.5-3 8.5-2.6 7-9.3 9.4-17.4 16.1zm-35.9-96.1c-16.5 15.2-51.9 5.9-70.1 4.6-8.2-.6-13.9-.3-21.7-1.2l-18.6-3.6 1.1-7.6c4.1-.1 3.9-.8 8.6-1h25.8c27.1 0 52.2 3 75.8-11.3 1.8-1.1 3.5-2.2 5.3-3.3 2.5-1.5 3.6-1.5 5.9-2.7 0 6.4-1.8 10.6-4.1 15-1.5 3-5.6 8.9-8 11.1"/></g></g><path id="path52" class="st6" d="M2276.6 1169.6c0-25.3-10.2-38.3 10.5-38.3 29.9 0-4.3 36.6-10.5 38.3"/><path id="path54" class="st6" d="M2197.2 990.7c0 23.8-3.1 18.6-5.7 29.6-2.3-1.7-4.2-6.1-5.7-8.7-5.5-9.3-14.4-18.4-14.4-25.8 0-9 12.4-13.4 22.9-13.4.2 6.6 2.9 10.5 2.9 18.3"/><path id="path56" class="st6" d="M1573.7 707.7c0 13-11.4 21.2-21.4 26.4-4.9 2.6-2.9 3.2-4.4 1.3l2.2-14.1c3.6-27.5 23.6-16.9 23.6-13.6"/><path id="path58" class="st6" d="M1299.2 703.8c15.7 0 7 13.8-2 20.9-3.7 2.9-10.8 9.2-16.1 9.7 0-6.2 1-15.2 2.5-20.5 2.8-10 6.9-10.1 15.6-10.1"/><g id="g60"><defs><path id="SVGID_00000072252020699482729600000001999146468624172957_" d="M1258.8 990.1c11.6 14 14.4 11 25.1 24.6 2.2 2.8 2.7 2.2 4.8 4.7 5 5.7 12.9 16.4 16.2 23.9 2.6 5.7 2.9 8 2.9 16.3-4-.9-8.7-5.3-11.7-8.4-3.2-3.2-6.2-6.7-9.6-9.5l-20.1-18.2c-5-5.1-4.6-5.1-11.6-8.5l-19.7-18.6c-1.4-3-2.9-17.5-1.2-22 .8-2.1.2-2.8 3-2.8 2.6 0 20.6 17 21.9 18.5zm-58.5 134c-3-10.1-9.7-12.6-21-21.1-20.7-15.5-25.4-14.8-25.4-30.1 10.5 0 13.5 6.3 19.4 11.2 3.5 2.9 4.9 3.9 8.1 7.2 10.4 10.6 14.9 5.3 26 19.9 8 10.6 2.3 16.2-.8 20.9-1.6-1-2.8-1.9-4.1-3.5-2.6-2.9-1-.3-2.2-4.5z"/></defs><clipPath id="SVGID_00000104674945696968139850000001835621389425539458_"><use xlink:href="#SVGID_00000072252020699482729600000001999146468624172957_" style="overflow:visible"/></clipPath><g id="g62" style="clip-path:url(#SVGID_00000104674945696968139850000001835621389425539458_)"><linearGradient id="path74_00000147933556754103883000000010489975071412544677_" gradientUnits="userSpaceOnUse" x1="8.762" y1="-3054.369" x2="22.619" y2="-3036.967" gradientTransform="translate(1139.322 5034.876) scale(1.3333)"><stop offset="0" style="stop-color:#43474b"/><stop offset="1" style="stop-color:#fff"/></linearGradient><path id="path74" style="fill:url(#path74_00000147933556754103883000000010489975071412544677_)" d="M1258.8 990.1c11.6 14 14.4 11 25.1 24.6 2.2 2.8 2.7 2.2 4.8 4.7 5 5.7 12.9 16.4 16.2 23.9 2.6 5.7 2.9 8 2.9 16.3-4-.9-8.7-5.3-11.7-8.4-3.2-3.2-6.2-6.7-9.6-9.5l-20.1-18.2c-5-5.1-4.6-5.1-11.6-8.5l-19.7-18.6c-1.4-3-2.9-17.5-1.2-22 .8-2.1.2-2.8 3-2.8 2.6 0 20.6 17 21.9 18.5zm-58.5 134c-3-10.1-9.7-12.6-21-21.1-20.7-15.5-25.4-14.8-25.4-30.1 10.5 0 13.5 6.3 19.4 11.2 3.5 2.9 4.9 3.9 8.1 7.2 10.4 10.6 14.9 5.3 26 19.9 8 10.6 2.3 16.2-.8 20.9-1.6-1-2.8-1.9-4.1-3.5-2.6-2.9-1-.3-2.2-4.5"/></g></g><g id="g76"><defs><path id="SVGID_00000030487871905574321180000017286512668065841548_" d="M1917 1363.7c0 78.1 78.8 169.4-6.4 267.1-15.9 18.2-47.8 35.2-72 35.2 1.6-3-.6-1.6 3.4-4.3 36.8-19.1 66.1-43.8 70.2-88.6 12.1-133.3-71.6-181.8-71.6-199.8 34.9-17.7 65.1-38.2 87.2-63.9 7.4-7.5 6.3-9.4 11.2-9.8.8 2.9 2 3.4 3.8 5.8 2.1 2.6 11.2 13 11.5 15.3-1.3 4.7-13.6 18.9-17.4 22.7-2 2-3.2 3.3-5.2 5.3-2.2 2.2-3.1 2.4-5.3 4.3-2.2 1.8-9.4 8-9.4 10.7z"/></defs><clipPath id="SVGID_00000079473793741492054180000011263307787180081832_"><use xlink:href="#SVGID_00000030487871905574321180000017286512668065841548_" style="overflow:visible"/></clipPath><g id="g78" style="clip-path:url(#SVGID_00000079473793741492054180000011263307787180081832_)"><linearGradient id="path90_00000106125910763317988740000013921651090944541600_" gradientUnits="userSpaceOnUse" x1="598.749" y1="-2791.986" x2="588.946" y2="-2757.26" gradientTransform="translate(1139.322 5034.876) scale(1.3333)"><stop offset="0" style="stop-color:#43474b"/><stop offset="1" style="stop-color:#fff"/></linearGradient><path id="path90" style="fill:url(#path90_00000106125910763317988740000013921651090944541600_)" d="M1917 1363.7c0 78.1 78.8 169.4-6.4 267.1-15.9 18.2-47.8 35.2-72 35.2 1.6-3-.6-1.6 3.4-4.3 36.8-19.1 66.1-43.8 70.2-88.6 12.1-133.3-71.6-181.8-71.6-199.8 34.9-17.7 65.1-38.2 87.2-63.9 7.4-7.5 6.3-9.4 11.2-9.8.8 2.9 2 3.4 3.8 5.8 2.1 2.6 11.2 13 11.5 15.3-1.3 4.7-13.6 18.9-17.4 22.7-2 2-3.2 3.3-5.2 5.3-2.2 2.2-3.1 2.4-5.3 4.3-2.2 1.8-9.4 8-9.4 10.7"/></g></g><g id="g92"><defs><path id="SVGID_00000183224747039954811910000010074001246453052339_" d="M1396 1217.2c36.6 33.8 99.3 58.6 149 58.6 11.9 0 78.3-6.4 74.2-25.4-1.5-7.2-13.9-9.2-15.9-16.6 22 5.1 58.2 18.6 80.9 26.2 11.1 3.7 21.3 5 23.5 11.9 1.6 4.9 2.4 8.9 4.6 13.6 1.5 3.2 4.4 7.6 6.5 10.7 16.8 25 18.1 20.4 31.9 38.9 3.8 5.1 11.7 15.6 12.3 23.1-10.9 0-6.3-3.1-12.4-4.8 1.7 7.4 5.7 13.3 5.7 22.9-14.4 0-55.6-27.1-70.1-35.1-12-6.5-16.4-10.9-27-13.2-9.8-2-24.5-11.1-53-11.1-67.7 0-52.7 6.6-93.4 11.8-35.9 4.5-41.1 2.8-75.7-.3-45.1-4-103.8-57.4-110.2-102.1-1.4-9.8-1.7-21.1-1.7-32.7 10.1 2.4 10.1 14.3 17.2 16.2-2-4.2-5.3-24-5.7-30.6-1.1-17.6-1-14.2 2.9-30.6 7.4 1.7 8.2 3.9 11.4 9.6 8.6 14.9 13.5 23.6 24.8 37.4l20.2 21.6z"/></defs><clipPath id="SVGID_00000036228870058850818450000001944528327571718066_"><use xlink:href="#SVGID_00000183224747039954811910000010074001246453052339_" style="overflow:visible"/></clipPath><g id="g94" style="clip-path:url(#SVGID_00000036228870058850818450000001944528327571718066_)"><linearGradient id="path106_00000150090227770486500970000012006511062752837817_" gradientUnits="userSpaceOnUse" x1="146.276" y1="-2885.497" x2="186.024" y2="-2866.52" gradientTransform="translate(1139.322 5034.876) scale(1.3333)"><stop offset="0" style="stop-color:#ececec"/><stop offset="1" style="stop-color:#565758"/></linearGradient><path id="path106" style="fill:url(#path106_00000150090227770486500970000012006511062752837817_)" d="M1396 1217.2c36.6 33.8 99.3 58.6 149 58.6 11.9 0 78.3-6.4 74.2-25.4-1.5-7.2-13.9-9.2-15.9-16.6 22 5.1 58.2 18.6 80.9 26.2 11.1 3.7 21.3 5 23.5 11.9 1.6 4.9 2.4 8.9 4.6 13.6 1.5 3.2 4.4 7.6 6.5 10.7 16.8 25 18.1 20.4 31.9 38.9 3.8 5.1 11.7 15.6 12.3 23.1-10.9 0-6.3-3.1-12.4-4.8 1.7 7.4 5.7 13.3 5.7 22.9-14.4 0-55.6-27.1-70.1-35.1-12-6.5-16.4-10.9-27-13.2-9.8-2-24.5-11.1-53-11.1-67.7 0-52.7 6.6-93.4 11.8-35.9 4.5-41.1 2.8-75.7-.3-45.1-4-103.8-57.4-110.2-102.1-1.4-9.8-1.7-21.1-1.7-32.7 10.1 2.4 10.1 14.3 17.2 16.2-2-4.2-5.3-24-5.7-30.6-1.1-17.6-1-14.2 2.9-30.6 7.4 1.7 8.2 3.9 11.4 9.6 8.6 14.9 13.5 23.6 24.8 37.4l20.2 21.6"/></g></g><g id="g108"><defs><path id="SVGID_00000169518112287837189520000011027534618107930762_" d="M1126.1 1269c0 33.4 23.7 72.2 55.3 85.2 3.2 1.3 10.9 5.3 14.5 5.6-1.5-2.8-15.9-22.9-6.7-22.9 12.3 0 21.6 34.8 84.7 10.8 4.9-1.9 12.2-4.1 19.5-4.1-1.2 5.1-3 9.5-5 14.1-84.2 116.4-214.2 9.4-177.6-95.4 6.2.6 10.8 4.3 15.3 6.7z"/></defs><clipPath id="SVGID_00000005987366281487859920000014299873217140050621_"><use xlink:href="#SVGID_00000169518112287837189520000011027534618107930762_" style="overflow:visible"/></clipPath><g id="g110" style="clip-path:url(#SVGID_00000005987366281487859920000014299873217140050621_)"><linearGradient id="path122_00000093147100054050720830000014413681627895277241_" gradientUnits="userSpaceOnUse" x1="-33.266" y1="-2824.488" x2="-14.818" y2="-2810.24" gradientTransform="translate(1139.322 5034.876) scale(1.3333)"><stop offset="0" style="stop-color:#ececec"/><stop offset="1" style="stop-color:#565758"/></linearGradient><path id="path122" style="fill:url(#path122_00000093147100054050720830000014413681627895277241_)" d="M1126.1 1269c0 33.4 23.7 72.2 55.3 85.2 3.2 1.3 10.9 5.3 14.5 5.6-1.5-2.8-15.9-22.9-6.7-22.9 12.3 0 21.6 34.8 84.7 10.8 4.9-1.9 12.2-4.1 19.5-4.1-1.2 5.1-3 9.5-5 14.1-84.2 116.4-214.2 9.4-177.6-95.4 6.2.6 10.8 4.3 15.3 6.7"/></g></g><path id="path124" d="M1281 734.4c5.4-.4 12.5-6.8 16.1-9.7 9-7.1 17.8-20.9 2-20.9-8.7 0-12.8.1-15.7 10.1-1.3 5.3-2.4 14.3-2.4 20.5zm-185.5 563.9c0 63.2 34.2 123.8 104.2 123.8 38.3 0 65-21.9 87.7-50 15.7-19.5 30.3-38.3 52.6-50.7 23.7-13.2 28.4-9.9 49.1 2.2 6.6 3.8 13.6 6.7 21 9.6 23 9.2 43.2 10.5 68.9 10.5 47.6 0 113.1-26.2 173-3.7 13.6 5.1 23.5 9.9 35.8 16.8 17.9 10 51.8 35.9 65.3 53.3 2.5 3.2 4 4.3 6.3 7.1 3.8 4.8 7.9 9.6 11.3 14.5 11.2 16 21.2 32.7 28.4 50.9 4.5 11.4 20.7 57.1.3 57.1h-3.8c-10.6 0-46.8-24.2-52.8-33.3-1.9-2.9-3.7-26.9-24.7-26.9-10.2 0-14 4-22.9 6.7-6.5 1.9-13 3-17.5 7.4-10.4 10.2-17.2 38.2-6.8 53.3 8.7 12.7 10.5 8.1 24.6 36.6 2.6 5.2 4.9 8.8 7.3 13.7l11.3 19.3c2.6 3.8 12.6 14.5 12.6 18 0 10-2.3 16.8 2.1 25.7 2.9 5.9 6.5 9.1 11.1 13.8 4.7 4.7 7.8 7.6 12 12.8 19.6 24.2-6 32-6 46.2 0 4.8.6 11.5 6.7 11.5 9.1 0 15-14.9 22.9-19.1 0 4.3-5.3 39.2 2.9 39.2 9.8 0 8.2-9.5 12.7-15.1 5.2-6.4 9.7-6.8 17.3-10.4 7.4-3.5 10.4-6.6 15.7-12.1 5.1-5.3 8.4-9.3 18.4-9.3 15.5 0 11.9 13.4 17.2 13.4 4.7 0 10.1-6.3 11.8-10.2 7.5-17.8 4.3-14.4 23.2-20.8 44.7-15 28.3-72.2 76.9-46.5 1.2-4.6 4.2-7.9 5-13.2.6-4.1-.1-9.2-1.7-13.9-1.8-5-3.8-8.2-6.1-12.1l-6.8-10.5c9.8-14.7 9.7-13.3 23.4-22.5 20-13.5 13.1-34.8 40.7-34.8-1.1-2.3-1.3-5.6-2.1-8.4-4.6-17.5-20.4-27.3-39.1-28.8 1.6-19 30.1-28.9 38.3-41.1-4.9-9.2-9.8-14.9-19.4-19.8-5.7-2.9-7.9-2.8-14.7-4.5-25.3-6.2-3.8-21.4 4.1-36.3 4.9-9.2 7.5-20.5 7.1-31.3l-.6-1.1c-.1 0-.4-.1-.5-.1l-4.1.8c-4.6 1.4-16 2.8-16-4.4 0-18.7 7.2-14.1 9.6-22.9 10.9 0 29.5 3.8 53.6 3.8 33.9-.1 71.2 14.2 98.7-12.2l25.6-28c10.2-13.2 61.7-70.8 69.6-77.7 12.9-11.4 23.6-18.7 32.8-34.2 12.9-21.8 43-33.9 43-67.9 0-23.8-49-9.3-56.9-6.2-38.6 15.3-.4 44.3-22.2 53.4-4.5 1.9-8.8 1.8-13.4 3.8-8 3.5-15.4 26-27.4 40.6l-11.5 14.3c-7.4 8.8-15.8 18.8-24.7 26l-13.7 11.2c-10.6 7.9-29 20.5-46.4 20.5-19.4 0-30.9-8.1-45.9-16.2-12.7-6.9-23.8-14-37.8-19.6-9.2-3.7-21.5-3.9-26.2-11l22.9 1c4.1.1 8.4-.2 12.5-.1 4.8.1 5.3 1 10.5 1 28.9.3 60.7 10.2 77.1-14.8 16.5-25 44.4-103.6 64.8-139.9 7.6-13.7 26.8-44.1 30.2-53 4.1-10.9 7.8-25.3 7.8-40 0-11.2 1.4-46.9-14.4-46.9-12.6 0-27.6 9.2-36 14.7-4.1 2.7-6.9 5.9-9.7 9.5-3.1 4.1-6.3 4-8.5 9.6-9.4 23.7 20.4 37.4 14.8 49.1-2.5 5.2-7.8 3.9-11.8 7.4-4.7 4.2-8 20.8-10.1 28.2-5.3 19.1-22 67.1-32.3 82.4-27.5 40.9-43.4 43.4-88.4 16.2-30.8-18.6-92.7-58.5-128-58.5-25.4 0-17.6 12.5-61.2-6.7-28.7-12.6-49.1-17.2-80.7-21.6l-64.7-1.4c-12.3 0-39.8 3.5-51.2 5.2-25.4 3.8-53.7 8.2-81.7 8.2-.2-11-16.1-40.2-21.2-48.6-10.7-17.7-22.2-34.6-36.9-49.2-25.4-25.2-37-20.4-52-34-28.6-26 7.9-78.7 22.9-97 26.3-31.9 37.8-60.5 60.4-88.8 6.7-8.4 15.8-18.8 25.3-24.4l22.5-14.8c25.2-18.7 28-45 20.7-49.1-8.2-4.7-58.5-4.3-67.8.1-10.4 5-9.1 31.3-14.7 40.7-6.8 11.2-25.9 11.9-30.1 25.4-6.1 19.6 5.2 9.6-13.8 41.6-13.7 23.1-31.5 42.9-47.6 64.3-4.2 5.6-8 10.4-12 15.7-12.3 16.1-21.5 24.1-32.1 37.7-34.9 44.4 16.5 57.2 19.7 95.2-2.4-1.2-4.5-2.1-6.9-3.6-47-29.7-75.3-16.1-100-49.2-12.5-16.9-15-41.4-16.5-62.9-1.7-24.6-5.8-47-5.8-73.6 0-42.5 10.1-61.8 38.4-81.1 13.2-9 29.5-21 29.5-40.4 0-3.3-1.2-7.6-1.9-10.5-15.1-3.5-33.1-1.9-48.8-1.9-41.1 0-23.5 18.1-32 42.6-6.2 17.8-32.1 24.1-32.1 42.5 0 11.5 2.1 24 3.5 34.7 4.5 34.4 7 68 7 103 0 23.2-4.8 43.3-4.8 66 0 21.9 10.1 32.5 23.6 43.3 2.7 2.2 4.6 3.8 7.4 6 14.6 11.4 29.3 24.8 39.6 40.8 24.2 37.6 4.9 64.8 4.9 104.1 0 71.8 24.6 74.7 30.6 100.4-13.4 0-27.4 5.4-40.2 5.5-15.3.1-18.8-11.8-28.7-17-11.6 7.8-10.5 19.6-4.1 30.9 2 3.6 4.1 5.9 5.1 10.2-14 0-17.8-2.1-27-11.2-3.2-3.2-5.8-6.9-8-11.1-2.5-4.7-3.9-8.5-6.1-13.1-12.7 6.7-10 14.3-18.2 14.3-2.4 0-11.2-13 1-34.4 2.4-4.3 13.2-17.3 17.6-20.7l19.9-17.4c8.7-8.1 18.2-15.7 25-25.7 10.6-15.6 12-30.3 12-50.1 0-37.1-34.7-49.9-63.7-59.6-47.5-16-17.3-27.7-16.6-36-3.4-.9-2-1.1-4.8-2.8-31.3-19.6-70.7 24.3-37.8 59.8l12.8 10.2c9.9 6.6 29.8 17.4 29.8 32.3 0 15.4-10.5 23.2-20.9 31.7l-26.4 21.5c-8.9 7-16.6 15.5-23.7 24.2-17.3 21.4-27 52.2-28.3 82.9zm452.3-562.9c1.6 1.9-.5 1.3 4.4-1.3 10-5.3 21.4-13.5 21.4-26.4 0-3.3-19.9-13.8-23.7 13.6l-2.1 14.1zm646.5 237.2c-10.5 0-22.9 4.4-22.9 13.4 0 7.3 8.9 16.5 14.4 25.8 1.5 2.6 3.4 7 5.7 8.7 2.6-11.1 5.7-5.8 5.7-29.6 0-8-2.7-11.9-2.9-18.3zm-957.3-1c-2.8 0-2.2.7-3 2.8-1.8 4.5-.2 19 1.2 22l19.7 18.6c6.9 3.4 6.5 3.5 11.6 8.5l20.1 18.2c3.3 2.8 6.4 6.4 9.6 9.5 3 3 7.7 7.4 11.7 8.4 0-8.3-.3-10.6-2.9-16.3-3.4-7.5-11.3-18.2-16.2-23.9-2.2-2.5-2.6-1.9-4.8-4.7-10.7-13.6-13.5-10.6-25.1-24.6-1.4-1.5-19.4-18.5-21.9-18.5zm-83.2 101.4c0 15.3 4.7 14.6 25.4 30.1 11.3 8.5 18.1 11 21 21.1 1.2 4.2-.4 1.6 2.1 4.6 1.3 1.6 2.6 2.5 4.1 3.5 3.2-4.8 8.8-10.3.8-20.9-11.1-14.7-15.6-9.4-26-19.9-3.2-3.3-4.6-4.3-8.1-7.2-5.7-5-8.7-11.3-19.3-11.3zm1122.8 96.6c6.2-1.7 40.4-38.3 10.5-38.3-20.8 0-10.5 13-10.5 38.3zm-288 66.9 18.6 3.6c7.8 1 13.5.6 21.7 1.2 18.2 1.4 53.6 10.7 70.1-4.6 2.3-2.2 6.4-8 8.1-11.1 2.3-4.4 4.1-8.7 4.1-15-2.4 1.1-3.4 1.2-5.9 2.7-1.9 1.1-3.5 2.2-5.3 3.3-23.6 14.3-48.7 11.3-75.8 11.3h-25.8c-4.7.1-4.4.9-8.6 1l-1.2 7.6zm13.5 98.5c12.4 0 24.7 7.4 44.9 7.7 25.6.3 32.6 3.8 57.4 3.8 14.9 0 18.9-4.2 30.4-13.6 8.1-6.7 14.8-9.1 17.3-16.1 1.1-3 1.7-5.9 3-8.5-12.9 1.1-15.6 8.1-24.9 12.4-9.1 4.2-18.1 5.8-31.6 5.7-20.7 0-73-2.4-89.6.3-3.4.6-6.2 1.8-7.1 5.1-.9 3.5.3-1.1.2 3.2zm-876-66c-4.5-2.4-9.1-6.2-15.3-6.7-36.6 104.8 93.4 211.8 177.6 95.4 2-4.6 3.8-9 5-14.1-7.3 0-14.6 2.3-19.5 4.1-63.1 23.9-72.4-10.8-84.7-10.8-9.3 0 5.2 20.2 6.7 22.9-3.6-.3-11.3-4.3-14.5-5.6-31.6-13-55.3-51.7-55.3-85.2zm624.5 84.2c6.2 1.7 1.6 4.8 12.4 4.8-.6-7.5-8.5-18-12.3-23.1-13.8-18.4-15.1-13.9-31.9-38.9-2.1-3.1-5-7.5-6.5-10.7-2.2-4.7-3-8.6-4.6-13.6-2.2-6.9-12.4-8.2-23.5-11.9-22.7-7.6-58.9-21.1-80.9-26.2 2 7.4 14.3 9.5 15.9 16.6 4.1 19-62.3 25.4-74.2 25.4-49.7 0-112.4-24.7-149-58.6l-20.4-21.6c-11.2-13.8-16.2-22.5-24.8-37.4-3.3-5.7-4-7.9-11.4-9.6-3.8 16.4-3.9 13.1-2.9 30.6.4 6.6 3.7 26.4 5.7 30.6-7.2-1.9-7.1-13.9-17.2-16.2 0 11.6.3 22.8 1.7 32.7 6.4 44.7 65.1 98 110.2 102.1 34.7 3.1 39.9 4.9 75.7.3 40.8-5.2 25.7-11.8 93.4-11.8 28.5 0 43.2 9.1 53 11.1 10.6 2.2 15 6.6 27 13.2 14.5 7.9 55.7 35.1 70.1 35.1.2-9.6-3.8-15.6-5.5-22.9zm88 312.7c24.2 0 56.1-16.9 72-35.2 85.3-97.6 6.4-189 6.4-267.1 0-2.7 7.2-8.9 9.3-10.8 2.2-1.9 3-2.1 5.3-4.3 2-1.9 3.3-3.3 5.2-5.3 3.8-3.8 16.2-18 17.4-22.7-.3-2.3-9.4-12.7-11.5-15.3-1.8-2.3-3-2.8-3.8-5.8-4.9.4-3.8 2.3-11.2 9.8-22.1 25.6-52.4 46.2-87.2 63.9 0 18 83.7 66.5 71.6 199.8-4.1 44.8-33.4 69.5-70.2 88.6-3.9 2.8-1.7 1.4-3.3 4.4zm-42.1-35.4v-2.9c-9.6.2-22.9 13.2-45.4-16.8-15.5-20.7-33.1-43.5-33.1-71.2-3.8 1.4-.1.1-3.8 2.9l-3.6-2.1c-15.1-6.6-13.6 6.6-13.6-23.7 0-6.8 2.9-7.7 6.7-13.4 2.9-4.3 4.7-9.1 7.6-13.4-12.9 0-16.6.4-24.3 6.3-12.8 9.6-16.7 31.3-8 44.3 2.2 3.3 4.2 5.6 6.8 8.6l7.3 9c4.9 7.2 14.6 27.9 22 40.2 4 6.7 7.7 12 12 18.6 17.2 25.7 9.8 20.6 8.8 31.4-.8 9.7 6 15.3 12.5 21.9 20.9 20.9 19.4 22.4 19.4 41.8 13.2 0 11.6 1.2 11.5-9.5-.2-17.2-.6-10.5 3.1-16 .4-.6 2.6-4.9 2.6-5.1 0-7.4-7.8-25.3-6.1-29.9 1.9-5.5 17.6-11.2 17.6-21zm99.5 54.5c11.3 0 11.1-2.1 17-7.9 4.5-4.4 7.6-8.8 10.7-14.1 13.7-23.8 15.3-23.9 41.2-23.9 0-5.7-1.7-9-7.2-12.9-10.4-7.2-22.8-6.2-30.5 5.8l-26.2 43.6c-6.2 7.5-2.5 3.7-5 9.4" style="fill-rule:evenodd;clip-rule:evenodd"/></g></g></svg>