<svg xmlns="http://www.w3.org/2000/svg" viewBox="0 0 165.3 165.3" style="enable-background:new 0 0 165.3 165.3" xml:space="preserve"><path d="M140.3 84.3c-5.4-4.4-11.3-8.4-9.5-17.2-7.7 2.1-10.2 7.1-7.2 13.4 1.8 3.8 4.1 7.4 6.1 11.2 2.6 4.6 2 9.2-.5 13.6-3.1 5.2-8.2 8-13.9 8.5-8.4.8-16.7.7-25.1.7-.8 0-2.3-1.6-2.3-2.6-.3-3.4 0-6.7-.2-10.2 0-2.5 1-3.1 3.3-3.1h16.9c1.1 0 2.1-.2 3.8-.2l-4.8-7.2H88.4c-.8-.7-.8-1.8-.8-4.6-.2-3.1 1-4.4 3.9-5.7 3.8-1.6 7.9-3.8 10.7-6.7 4.8-5.1 8.7-11 12.8-16.7 5.4-7.5 12.1-12.6 21.6-13.4.8 0 1.6-.3 3.1-.7-4.8-3.6-9.2-6.9-13.4-10-9.5-7.1-13.3-7.2-22.1.5-15.9 13.6-33.1 15.6-52 7.5-10.2-4.3-19-10.5-27.4-17.2-1.5-1.1-3.1-2.3-5.1-3.9-2.3 6.6-2.5 12.6-1.6 18.7.8 5.7 3.3 7.5 9.2 8.2 6.1.8 11.8 2.5 17.1 5.9 5.9 4.1 9.8 9.8 14.1 15.4 4.4 6.1 9.7 11 17.1 13.1 1 .3 2 1.8 2.3 3 .3 1.3 0 2.8.2 4.1 0 1.1-.2 2-.8 2.5H59.9l-6.2 7.2c1.8.2 2.8.2 3.9.2h16.2c3.9 0 4.1.2 4.1 4.3v8.7c0 2.3-1 3.3-3.3 3.3-6.6 0-13.1.2-19.8-.2-5.2-.2-10.2-1.5-14.6-4.9-5.7-4.4-7.7-11.8-4.4-18.2 2.1-4.3 4.9-8.2 6.6-12.6 2.3-5.7-1.5-11.2-7.7-11.5 1 5.4-1.1 9.7-5.2 13.1-2 1.5-3.8 3.1-5.6 4.8-13.4 11-15.3 34.1 5.1 43.6 7.4 3.4 15.1 5.4 23.1 5.4 20.3.2 40.8.3 61.2-.2 6.7-.2 13.8-1.8 20.2-4.1 8.4-2.8 15.3-8 17.4-17.2 2.6-11.5-1.3-21-10.6-28.6zm-24.6-49.7c2.6 0 4.9 2.1 4.8 4.9 0 2.8-2.1 4.9-4.8 4.8-2.6-.2-4.8-2.5-4.8-5.1 0-2.3 2.3-4.6 4.8-4.6z" style="fill:#b4549b"/></svg>