<?xml version="1.0" encoding="utf-8"?>
<!-- Generator: Adobe Illustrator 23.0.3, SVG Export Plug-In . SVG Version: 6.00 Build 0)  -->
<svg version="1.1"
	 id="Layer_1" inkscape:output_extension="org.inkscape.output.svg.inkscape" inkscape:version="0.46" sodipodi:docname="notice_of_meeting_2006.svg" sodipodi:version="0.32" xmlns:cc="http://creativecommons.org/ns#" xmlns:dc="http://purl.org/dc/elements/1.1/" xmlns:inkscape="http://www.inkscape.org/namespaces/inkscape" xmlns:rdf="http://www.w3.org/1999/02/22-rdf-syntax-ns#" xmlns:sodipodi="http://sodipodi.sourceforge.net/DTD/sodipodi-0.dtd" xmlns:svg="http://www.w3.org/2000/svg"
	 xmlns="http://www.w3.org/2000/svg" xmlns:xlink="http://www.w3.org/1999/xlink" x="0px" y="0px" viewBox="0 0 68 68"
	 style="enable-background:new 0 0 68 68;" xml:space="preserve">
<style type="text/css">
	.st0{display:none;}
	.st1{fill:url(#SVGID_1_);}
	.st2{fill:url(#SVGID_2_);}
</style>
<g id="Guide" transform="translate(0.00889585,1.921487)" class="st0">
</g>
<g>
	<linearGradient id="SVGID_1_" gradientUnits="userSpaceOnUse" x1="39.1237755" y1="16.9221935" x2="29.724535" y2="33.2021561">
		<stop  offset="0" style="stop-color:#52C3E7"/>
		<stop  offset="1" style="stop-color:#0089CC"/>
	</linearGradient>
	<path class="st1" d="M35.1148872,15.6854515h-3.0612984c-0.2783318,1.2523689-0.4174728,2.5046825-0.556612,3.7570515
		l-2.2264042,13.4975567h3.7570534c4.8702774,0,8.4881897-4.0353298,8.4881897-10.1579247
		C41.5158157,18.4684696,39.0110779,15.6854515,35.1148872,15.6854515z"/>
	<linearGradient id="SVGID_2_" gradientUnits="userSpaceOnUse" x1="53.6382523" y1="4.4174461" x2="16.1059151" y2="69.4253616">
		<stop  offset="0" style="stop-color:#52C3E7"/>
		<stop  offset="1" style="stop-color:#0089CC"/>
	</linearGradient>
	<path class="st2" d="M53.7830734,38.8960571c11.7119827-8.7497635,9.5792999-18.61866,9.5792999-18.61866
		C62.5274773,8.4496288,52.3694954,0.3789115,37.8979034,0.3789115c0,0-17.672081,0.6957543-20.8725185,1.3915086
		c-3.7570524,0.8348944-6.4009285,4.3136659-6.1226492,8.0707169c0,2.643877-0.1391401,5.4268408-0.6957541,8.3489971
		l-5.14856,33.1177673c-0.4174199,1.9481201-1.3915083,7.9315758,2.3655434,12.3843803
		c1.5307021,1.8089867,4.3136659,3.8961906,9.1839447,3.8961906c2.2264023,0,8.2098579-0.2782745,13.0801373-2.5046844
		c1.2523155-0.5566101,2.3655415-1.5306435,3.2004375-2.6438713c2.6438789,3.0612984,6.5400696,5.2877007,12.2451897,5.2877007
		c5.0094185,0,9.8796997-1.2523193,14.3325043-3.4787216c0,0,4.2971077-3.0953293,2.5461349-7.6165199
		C58.1269836,51.0041351,53.7830734,38.8960571,53.7830734,38.8960571z M53.4827271,58.5437202
		c-2.6438789,0.8348961-5.5660362,1.39151-8.3490524,1.2523689c-2.7829628,0-6.5400162-0.695755-8.9056129-7.5141029
		l-4.0353317-11.6886292h-4.0353317l-1.8089809,11.1320152c-0.2782803,1.2523689-0.4174213,2.5046844-0.4174213,3.7570534v0.2782784
		c0,0.695755,0.1391411,1.39151,0.4174213,2.0872612c-3.0612984,1.39151-7.2358246,1.8089294-9.7405071,1.8089294
		c-2.0872622,0-4.0353851-0.6956978-4.1745253-4.3136101c0-0.9740906,0.1391401-1.9481239,0.2783337-2.9221573l5.1485605-33.1177635
		c0.4174194-2.5046844,0.6957531-5.1485605,0.6957531-7.653244c0-0.8348942,0-2.643877,0-2.643877
		c1.6697903-0.4174738,7.653244-1.1131744,13.0800838-1.1131744c0.0495701,0,0.091507,0,0.1373672,0
		c0.340538,0,0.5914536,0,0.8367233,0h5.0093651c3.6179123-0.139194,7.0966835,0.6957006,10.4362602,2.0872087
		c0.8349495,0.4174747,1.8089828,0.9740887,2.5047379,1.5306492c0.6957512,0.5566139,1.3914528,1.252368,2.0872078,1.948123
		c0.8349495,1.1132278,1.5306473,2.2264023,2.0872612,3.6179104c0.4174767,1.39151,0.695755,2.7830181,0.695755,4.3136673
		c0,0.4174194,0,0.8348942,0,1.2523136c-0.4174194,6.1226482-4.3136635,11.1320152-10.2970657,14.3325043l5.4268417,14.3324547
		c1.5306473,3.896244,2.5046806,5.4268913,4.174469,6.6792068C54.3176193,58.2654419,53.9001465,58.404583,53.4827271,58.5437202z"
		/>
</g>
</svg>
