<svg width="300" height="300" fill="none" xmlns="http://www.w3.org/2000/svg"><g clip-path="url(#a)"><path d="M149.998 0v300C232.844 300 300 232.843 300 150.002 300 67.155 232.843 0 149.998 0z" fill="#2B479D"/><path d="M149.998 0C67.158 0 0 67.155 0 150.002 0 232.843 67.157 300 149.998 300c82.845 0 82.845-300 0-300z" fill="#2B479D"/><path d="m149.742 26.015 3.659 11.26h11.842l-9.58 6.958 3.659 11.26-9.58-6.964-9.578 6.963 3.659-11.26-9.583-6.958h11.842l3.66-11.26zM149.742 238.572l3.659 11.265h11.842l-9.58 6.958 3.659 11.259-9.58-6.958-9.578 6.958 3.659-11.259-9.583-6.958h11.842l3.66-11.265zM208.079 44.853l3.656 11.262h11.843l-9.581 6.963 3.66 11.26-9.578-6.963-9.58 6.963 3.658-11.26-9.578-6.963h11.843l3.657-11.262zM247.88 84.122l3.657 11.26h11.843l-9.581 6.961 3.659 11.259-9.578-6.958-9.58 6.958 3.659-11.259-9.58-6.962h11.839l3.662-11.26zM248.828 183.336l3.657 11.264h11.841l-9.58 6.958 3.662 11.257-9.58-6.956-9.581 6.956 3.66-11.257-9.581-6.958h11.842l3.66-11.264zM53.046 84.122l3.657 11.26h11.84l-9.579 6.961 3.657 11.259-9.575-6.958-9.58 6.958 3.659-11.259-9.578-6.962h11.842l3.657-11.26zM257.105 131.438l3.657 11.26h11.842l-9.58 6.958 3.659 11.263-9.578-6.956-9.58 6.956 3.661-11.263-9.582-6.958h11.84l3.661-11.26zM43.998 131.438l3.657 11.26h11.84l-9.58 6.958 3.661 11.263-9.578-6.956-9.58 6.956 3.66-11.263-9.58-6.958h11.84l3.66-11.26zM51.762 183.336l3.657 11.264h11.84l-9.578 6.958 3.656 11.257-9.575-6.956-9.58 6.956 3.659-11.257-9.58-6.958h11.842l3.659-11.264zM209.795 224.279l3.657 11.259h11.843l-9.583 6.963 3.662 11.26-9.579-6.959-9.582 6.959 3.662-11.26-9.581-6.963h11.843l3.658-11.259zM93.295 44.853l3.657 11.262h11.842l-9.58 6.963 3.661 11.26-9.58-6.963-9.578 6.963 3.66-11.26-9.58-6.963h11.839l3.66-11.262zM88.975 223.559l3.66 11.264h11.841l-9.58 6.956 3.66 11.26-9.58-6.954-9.579 6.954 3.659-11.26-9.58-6.956h11.84l3.66-11.264z" fill="#F8D12E"/><path d="M164.336 192c-15.506 0-29.042-8.467-36.318-21H164.5v-14h-41.532c-.385-2.282-.632-4.611-.632-7 0-2.39.247-4.718.632-7H164.5v-14h-36.482c7.276-12.533 20.812-21 36.318-21 5.14 0 10.233.964 15.134 2.864L182 97.808C175.478 95.282 171.213 94 164.336 94c-23.45 0-43.549 14.504-51.877 35H98v14h10.822c-.288 2.299-.486 4.625-.486 7 0 2.376.198 4.701.486 7H98v14h14.459c8.328 20.496 28.427 35 51.877 35 6.877 0 11.142-1.282 17.664-3.807l-2.529-13.057c-4.902 1.9-9.995 2.864-15.135 2.864z" fill="#fff"/></g><defs><clipPath id="a"><path fill="#fff" d="M0 0h300v300H0z"/></clipPath></defs></svg>