<?xml version="1.0" encoding="utf-8"?>
<!-- Generator: Adobe Illustrator 21.1.0, SVG Export Plug-In . SVG Version: 6.00 Build 0)  -->
<svg version="1.1"
	 id="Layer_1" inkscape:output_extension="org.inkscape.output.svg.inkscape" inkscape:version="0.46" sodipodi:docname="notice_of_meeting_2006.svg" sodipodi:version="0.32" xmlns:cc="http://creativecommons.org/ns#" xmlns:dc="http://purl.org/dc/elements/1.1/" xmlns:inkscape="http://www.inkscape.org/namespaces/inkscape" xmlns:rdf="http://www.w3.org/1999/02/22-rdf-syntax-ns#" xmlns:sodipodi="http://sodipodi.sourceforge.net/DTD/sodipodi-0.dtd" xmlns:svg="http://www.w3.org/2000/svg"
	 xmlns="http://www.w3.org/2000/svg" xmlns:xlink="http://www.w3.org/1999/xlink" x="0px" y="0px" viewBox="0 0 68 68"
	 style="enable-background:new 0 0 68 68;" xml:space="preserve">
<path d="M21.8,18.5h3.5v-7.1c-1.5-0.1-3.4,0-4.9,0c-8.5,0-11.3,4.7-11.3,9.8v3H4.4v6.5h4.7v25.4h9.8V30.7h6v-6.5h-5.8v-2.4
	C19.2,19.4,20.5,18.5,21.8,18.5"/>
<path d="M40.2,39.7c0-8.3,4.1-9.9,7.2-9.9c5,0,7.3,3.9,7.3,9.8c0,5.8-1.9,10.3-7.3,10.3C42.7,49.9,40.2,45.7,40.2,39.7 M54.6,52.6
	l0.2,3.4h8.9V11.3h-9.3l-0.1,15.6c-2.1-3.2-5.5-4.1-9.3-4.1c-9.4,0-14.2,8-14.2,16.6c0,8.9,4.7,17.3,14.4,17.3
	C49.4,56.8,52.6,56.1,54.6,52.6"/>
</svg>
