<?xml version="1.0" encoding="utf-8"?>
<!-- Generator: Adobe Illustrator 23.1.1, SVG Export Plug-In . SVG Version: 6.00 Build 0)  -->
<svg version="1.1"
	 id="Layer_1" inkscape:output_extension="org.inkscape.output.svg.inkscape" inkscape:version="0.46" sodipodi:docname="notice_of_meeting_2006.svg" sodipodi:version="0.32" xmlns:cc="http://creativecommons.org/ns#" xmlns:dc="http://purl.org/dc/elements/1.1/" xmlns:inkscape="http://www.inkscape.org/namespaces/inkscape" xmlns:rdf="http://www.w3.org/1999/02/22-rdf-syntax-ns#" xmlns:sodipodi="http://sodipodi.sourceforge.net/DTD/sodipodi-0.dtd" xmlns:svg="http://www.w3.org/2000/svg"
	 xmlns="http://www.w3.org/2000/svg" xmlns:xlink="http://www.w3.org/1999/xlink" x="0px" y="0px" viewBox="0 0 68 50.9120369"
	 style="enable-background:new 0 0 68 50.9120369;" xml:space="preserve">
<style type="text/css">
	.st0{fill:#F3781E;}
</style>
<g>
	<path class="st0" d="M65.5722504,22.7543201c-0.4441376,0.4922485-0.6767197,0.7744865-0.9342499,1.0318375
		c-5.5123482,5.5080948-11.0270042,11.0139103-16.5436974,16.5176716c-0.2633972,0.2627945-0.5302544,0.5291481-0.8289604,0.7484741
		c-1.357666,0.9969673-2.5375404,0.8320618-3.5277023-0.5155754c-0.3161812-0.4303284-0.5149879-0.9448471-0.8119164-1.3914032
		c-0.5248604-0.7893372-0.9933853-1.6439018-1.6468277-2.3144608c-1.4670753-1.5055008-3.1664619-1.7150726-4.9682808-0.6339684
		c-0.8068695,0.4841232-1.5493507,1.1123505-2.2228203,1.7747307c-3.6348934,3.5750198-7.2251778,7.1953125-10.866209,10.7640114
		c-0.6711597,0.6578445-1.4509697,1.2497826-2.2761631,1.6960754c-1.2570705,0.6798592-2.1096268,0.271183-2.3830204-1.1094437
		c-0.1827316-0.9228859-0.2046413-1.8825302-0.2427311-2.8279686c-0.0964031-2.3926125,0.0674438-4.8217468-0.2958488-7.1710777
		c-0.472065-3.0528069-2.5231199-3.879734-5.1760225-2.2478256c-2.7519503,1.6928329-5.411705,3.534626-8.1213102,5.2966461
		c-1.472317,0.9574127-2.2743094,0.6963997-2.2718024-0.9943314c0.0057583-3.8757553-0.2104156-7.8362007,0.4932742-11.6079674
		c1.2393847-6.643074,6.6850319-9.9847374,12.9500523-10.1629772c2.303133-0.0655212,4.525631,0.5922832,6.4693756,1.8799686
		c0.8542881,0.565958,1.3484726,0.4944649,2.0889168-0.2254372c3.9271107-3.8181477,8.7043762-5.7074318,14.158062-5.631856
		c4.4336052,0.0614433,8.4382629,1.5902281,11.9381599,4.3200026c0.7398682,0.5770702,1.3466072,0.6854286,2.246006,0.3725929
		c4.330471-1.5062313,8.3086624-0.6389694,11.9852638,1.9625816C65.017746,22.4501534,65.2770996,22.5798416,65.5722504,22.7543201z
		"/>
	<path class="st0" d="M36.8542099,0.1582343c3.6895752-0.0074062,6.4336548,2.722822,6.4288368,6.3964114
		c-0.0046806,3.5729647-2.787014,6.3618536-6.3541451,6.3691101c-3.6456337,0.0074186-6.4420261-2.7803793-6.4372406-6.4174185
		C30.4964008,2.9235911,33.2608109,0.1654485,36.8542099,0.1582343z"/>
	<path class="st0" d="M19.9305687,12.0279999c-0.0175934,2.811924-2.1425209,4.8882618-4.9841576,4.8701725
		c-2.7703943-0.0176373-4.8809938-2.1950674-4.8579597-5.0118294c0.0220451-2.6971655,2.1818714-4.7899976,4.9409924-4.787746
		C17.8753967,7.1009197,19.9483452,9.1858234,19.9305687,12.0279999z"/>
	<path class="st0" d="M57.5690689,16.9266319c-2.3065948,0.0164337-3.9465561-1.5719604-3.9674034-3.8426275
		c-0.0209045-2.2776527,1.6059303-3.956933,3.8481979-3.9722691c2.2635345-0.0154819,3.9705925,1.6325388,3.9889755,3.8510284
		C61.4575577,15.2214766,59.8084793,16.910675,57.5690689,16.9266319z"/>
</g>
</svg>
