<svg version="1.1" id="Layer_1" xmlns="http://www.w3.org/2000/svg" x="0" y="0" viewBox="0 0 68 50.912" style="enable-background:new 0 0 68 50.9120369" xml:space="preserve"><style>.st0{fill:#f3781e}</style><path class="st0" d="M65.572 22.754c-.444.493-.676.775-.934 1.032a29686.68 29686.68 0 0 1-16.544 16.518c-.263.263-.53.529-.829.748-1.357.997-2.537.832-3.527-.515-.317-.43-.515-.945-.812-1.392-.525-.789-.994-1.644-1.647-2.314-1.467-1.506-3.167-1.715-4.968-.634-.807.484-1.55 1.112-2.223 1.775-3.635 3.575-7.225 7.195-10.866 10.764a10.313 10.313 0 0 1-2.277 1.696c-1.257.68-2.11.27-2.383-1.11-.182-.923-.204-1.882-.242-2.828-.097-2.392.067-4.821-.296-7.17-.472-3.054-2.523-3.88-5.176-2.249-2.752 1.693-5.412 3.535-8.122 5.297-1.472.957-2.274.696-2.271-.994.005-3.876-.21-7.836.493-11.608 1.24-6.643 6.685-9.985 12.95-10.163 2.303-.066 4.526.592 6.47 1.88.854.566 1.348.494 2.088-.226 3.927-3.818 8.705-5.707 14.158-5.632 4.434.062 8.439 1.59 11.939 4.32.74.578 1.346.686 2.246.373 4.33-1.506 8.308-.639 11.985 1.963.234.165.493.295.788.47zM36.854.158c3.69-.007 6.434 2.723 6.429 6.397-.005 3.573-2.787 6.361-6.354 6.369-3.646.007-6.442-2.78-6.437-6.418.004-3.582 2.769-6.34 6.362-6.348zM19.93 12.028c-.017 2.812-2.142 4.888-4.984 4.87-2.77-.017-4.88-2.195-4.858-5.012.022-2.697 2.182-4.79 4.941-4.787 2.846.002 4.92 2.087 4.902 4.929zM57.57 16.927c-2.308.016-3.947-1.572-3.968-3.843-.021-2.278 1.606-3.957 3.848-3.972 2.263-.016 3.97 1.632 3.989 3.85.019 2.26-1.63 3.949-3.87 3.965z"/></svg>