<svg version="1.1" id="Layer_2_1_" xmlns="http://www.w3.org/2000/svg" x="0" y="0" viewBox="0 0 238.2 127.9" style="enable-background:new 0 0 238.2 127.9" xml:space="preserve"><style>.st1{fill:#fff}</style><circle cx="119.5" cy="45.3" r="38.1" style="fill:#7433ff"/><path class="st1" d="M108 45.3h4.7c0-10.1 8.2-18.3 18.3-18.3v-4.7c-12.7 0-23 10.3-23 23zM131 45.3h-4.7c0 10.1-8.2 18.3-18.3 18.3v4.7c12.7-.1 23-10.4 23-23z"/><path d="M19.1 109.5c-.6-.4-1.2-.7-1.8-.9-.6-.2-1.3-.3-2-.3-.5 0-.9 0-1.2.1-.4.1-.7.2-1 .4-.3.2-.5.4-.6.6-.1.3-.2.5-.2.8 0 .3.1.5.2.7.1.2.3.4.6.5.2.1.5.3.9.3.4.1.7.2 1.2.2l.9.1c.6.1 1.1.2 1.6.4s1 .4 1.4.7c.4.3.7.7 1 1.1.3.4.4 1 .4 1.6 0 .7-.1 1.3-.4 1.8-.3.5-.7 1-1.2 1.3-.5.4-1.1.6-1.7.8-.7.2-1.4.3-2.1.3-.5 0-.9 0-1.4-.1l-1.5-.3c-.5-.2-.9-.3-1.4-.6-.4-.2-.8-.5-1.2-.8l1.2-1.8c.2.2.5.4.8.6.3.2.7.3 1.1.5l1.2.3c.4.1.8.1 1.2.1.4 0 .9 0 1.3-.1s.7-.2 1-.4c.3-.2.5-.4.7-.6s.2-.5.2-.8c0-.5-.3-.9-.8-1.2-.5-.3-1.3-.5-2.3-.6l-1.1-.1c-.5-.1-1-.2-1.5-.4s-.9-.4-1.3-.7c-.4-.3-.7-.7-.9-1.1-.2-.4-.3-1-.3-1.6 0-.7.1-1.3.4-1.8.3-.5.7-1 1.2-1.3.5-.4 1.1-.6 1.7-.8.7-.2 1.4-.3 2.1-.3 1 0 1.9.1 2.7.4.8.3 1.5.6 2.2 1.1l-1.3 1.9zm18.7-.9h-4.4v11.6h-2.2v-11.6h-4.4v-2.1h11v2.1zm18.1 11.6h-2.4l-1.3-3.5H46l-1.3 3.5h-2.3l5.4-13.7h2.8l5.3 13.7zm-9.1-5.6h4.6l-2.3-5.9-2.3 5.9zm21.7-8.1c1.6 0 2.8.3 3.6 1 .8.7 1.2 1.7 1.2 2.9 0 .6-.1 1.1-.3 1.6-.2.5-.5.9-.9 1.2-.4.3-.9.6-1.4.8-.6.2-1.2.3-1.9.3l4.5 5.7h-2.7l-4.4-5.7h-1.1v5.7h-2.2v-13.7h5.6zm-3.4 2.1v3.8h3.4c.9 0 1.5-.2 2-.5.4-.3.6-.8.6-1.5s-.2-1.1-.6-1.4c-.4-.3-1.1-.5-2-.5h-3.4zm25.8 11.6h-9.8v-13.7h2.2v11.6h7.6v2.1zm9.3 0H98v-13.7h2.2v13.7zm20.4 0h-2l-7.6-9.9v9.9h-2.2v-13.7h2l7.6 9.9v-9.9h2.2v13.7zm15-13.9c1.1 0 2.1.2 3 .6.9.4 1.7.9 2.3 1.6l-1.6 1.6c-.4-.5-1-.9-1.6-1.2-.6-.3-1.3-.4-2.1-.4-.7 0-1.3.1-1.9.4-.6.2-1.1.6-1.5 1-.4.4-.8 1-1 1.6-.2.6-.4 1.3-.4 2s.1 1.4.4 2c.2.6.6 1.1 1 1.6.4.4.9.8 1.5 1 .6.2 1.2.4 1.9.4 1.2 0 2.2-.3 3-.9.7-.6 1.2-1.5 1.3-2.6h-3.6v-2h6v.6c0 1-.2 1.9-.5 2.8-.3.9-.7 1.6-1.3 2.3-.6.7-1.3 1.2-2.1 1.5-.8.4-1.8.6-2.8.6-.6 0-1.2-.1-1.7-.2-.6-.1-1.1-.3-1.6-.6s-1-.6-1.5-1c-.4-.4-.8-.9-1.2-1.4-.3-.5-.6-1.1-.8-1.8s-.3-1.3-.3-2.1c0-1 .2-2 .5-2.8.4-.9.9-1.6 1.5-2.2.6-.6 1.4-1.1 2.3-1.5.8-.8 1.8-.9 2.8-.9zm29.9.2c.7 0 1.4.1 2 .2.6.1 1.2.3 1.6.6.5.3.8.7 1.1 1.2.3.5.4 1 .4 1.7 0 .4-.1.7-.2 1-.1.3-.3.6-.4.9-.2.3-.4.5-.7.7-.3.2-.5.3-.8.4.3.1.6.2.9.4.3.2.5.4.8.7.2.3.4.6.5.9.1.3.2.7.2 1.1 0 .7-.1 1.3-.4 1.8-.2.5-.6.9-1 1.2-.4.3-1 .5-1.6.7-.6.2-1.3.2-2.1.2h-5.6v-13.7h5.3zm-3.1 2.1v3.7h3c.4 0 .7 0 1.1-.1.3 0 .6-.1.9-.3.3-.1.5-.3.6-.6.2-.2.2-.6.2-1s-.1-.7-.2-.9l-.6-.6-.9-.3c-.3 0-.7-.1-1.1-.1h-3zm0 5.7v3.8h3.3c.4 0 .8 0 1.2-.1.4-.1.7-.1.9-.3.3-.1.5-.3.6-.6.1-.2.2-.6.2-1s-.1-.7-.2-.9c-.1-.2-.3-.4-.6-.6l-.9-.3c-.4-.1-.7-.1-1.2-.1h-3.3zm28.3 5.9h-2.4l-1.3-3.5h-6.2l-1.3 3.5h-2.3l5.4-13.7h2.8l5.3 13.7zm-9.1-5.6h4.6l-2.3-5.9-2.3 5.9zm27.9 5.6h-2l-7.6-9.9v9.9h-2.2v-13.7h2l7.6 9.9v-9.9h2.2v13.7zm12.1-5.9h-1.3v5.8h-2.2v-13.7h2.2v5.7h1.3l5.1-5.7h2.8l-6.1 6.7 6.6 7h-3l-5.4-5.8z" style="fill:#6a737b"/></svg>