<?xml version="1.0" encoding="utf-8"?>
<!-- Generator: Adobe Illustrator 21.1.0, SVG Export Plug-In . SVG Version: 6.00 Build 0)  -->
<svg version="1.1"
	 id="Layer_1" inkscape:output_extension="org.inkscape.output.svg.inkscape" inkscape:version="0.46" sodipodi:docname="notice_of_meeting_2006.svg" sodipodi:version="0.32" xmlns:cc="http://creativecommons.org/ns#" xmlns:dc="http://purl.org/dc/elements/1.1/" xmlns:inkscape="http://www.inkscape.org/namespaces/inkscape" xmlns:rdf="http://www.w3.org/1999/02/22-rdf-syntax-ns#" xmlns:sodipodi="http://sodipodi.sourceforge.net/DTD/sodipodi-0.dtd" xmlns:svg="http://www.w3.org/2000/svg"
	 xmlns="http://www.w3.org/2000/svg" xmlns:xlink="http://www.w3.org/1999/xlink" x="0px" y="0px" viewBox="0 0 68 68"
	 style="enable-background:new 0 0 68 68;" xml:space="preserve">
<style type="text/css">
	.st0{fill:#003B7A;}
</style>
<path id="path3383_1_" class="st0" d="M59.3,33.6h-9.7c-2.1,0-4-1.2-4.6-3c-1.7-5.1-6.8-6.9-6.8-6.9c-1.8-0.7-3.2-2.4-3.2-4.6V9.5
	c0-2.7,2.2-4.8,4.9-4.8c2.7,0,4.8,2,4.8,4.8l-0.1,7.8L55.8,6c1.9-1.9,4.9-1.9,6.8,0c1.9,1.9,1.9,5,0,6.9l-11,11h7.6
	c2.7,0,4.9,2.2,4.9,4.9S61.9,33.6,59.3,33.6L59.3,33.6L59.3,33.6z M59.2,45.4l-7.8-0.1l11.2,11.2c1.9,1.9,1.9,4.9,0,6.8
	c-1.9,1.9-4.9,1.9-6.8,0l-11-11v7.6c0,2.9-2.2,4.9-4.9,4.9c-2.7,0-4.9-2.2-4.9-4.9v-9.7c0-2.1,1.3-4,3.1-4.6
	c5.1-1.7,6.8-6.8,6.8-6.8c0.7-1.8,2.5-3.2,4.6-3.2h9.7c2.7,0,4.9,2.2,4.9,4.9C64.1,43.2,62.1,45.4,59.2,45.4L59.2,45.4z M28.1,64.7
	c-2.7,0-4.8-1.7-4.7-4.8l0.1-7.8L12.3,63.3c-1.9,1.9-5,1.9-6.8,0c-1.9-1.9-1.9-5,0-6.8l11-11H8.9c-2.7,0-4.9-2.2-4.9-4.9
	c0-2.7,2.1-4.9,4.9-4.9h9.7c2.1,0,3.9,1.2,4.6,3c1.7,5.2,6.7,6.9,6.7,6.9c1.9,0.7,3.2,2.4,3.2,4.6v9.7C33,62.6,30.8,64.7,28.1,64.7
	L28.1,64.7z M29.8,23.8c-5.1,1.8-6.8,6.8-6.8,6.8c-0.7,1.8-2.5,3.2-4.6,3.2H8.7c-2.7,0-4.9-2.2-4.9-4.9s1.8-4.8,4.9-4.8l7.8,0.1
	L5.3,13c-1.9-1.9-1.9-4.9,0-6.8c1.9-1.9,4.9-1.9,6.8,0l11,11V9.5c0-2.7,2.1-4.9,4.9-4.9c2.7,0,4.8,2.2,4.8,4.9v9.7
	C32.9,21.2,31.6,23.1,29.8,23.8"/>
</svg>
