<svg version="1.1" id="svg6751" xmlns="http://www.w3.org/2000/svg" x="0" y="0" viewBox="0 0 241.3 83" style="enable-background:new 0 0 241.3 83" xml:space="preserve"><style>.st0{fill:#003b7a}</style><path id="path3383_1_" class="st0" d="M69.1 38.7H58.6c-2.2 0-4.3-1.3-5-3.3-1.9-5.6-7.4-7.5-7.4-7.5-2-.7-3.5-2.7-3.5-5V12.4c0-2.9 2.4-5.2 5.3-5.2s5.2 2.2 5.2 5.2l-.1 8.5L65.3 8.7c2.1-2.1 5.4-2.1 7.5 0s2.1 5.5 0 7.5l-12 11.9H69c2.9 0 5.3 2.4 5.3 5.3s-2.4 5.3-5.2 5.3zM69 51.5l-8.5-.1 12.2 12.2c2.1 2.1 2.1 5.4 0 7.5-2.1 2.1-5.4 2.1-7.5 0l-12-12v8.3c0 3.1-2.4 5.3-5.3 5.3s-5.3-2.4-5.3-5.3V56.8c0-2.2 1.4-4.3 3.4-5 5.6-1.9 7.5-7.4 7.5-7.4.7-2 2.7-3.5 5-3.5H69c2.9 0 5.3 2.4 5.3 5.3 0 3-2.2 5.3-5.3 5.3zm-33.9 21c-2.9 0-5.2-1.9-5.1-5.2l.1-8.5-12.2 12.3c-2.1 2.1-5.5 2.1-7.5 0-2.1-2.1-2.1-5.5 0-7.5l11.9-12h-8.2c-3 0-5.3-2.4-5.3-5.3s2.3-5.3 5.3-5.3h10.5c2.2 0 4.2 1.3 5 3.3 1.9 5.6 7.3 7.5 7.3 7.5 2.1.7 3.5 2.7 3.5 5v10.5c0 2.9-2.3 5.2-5.3 5.2zM37 28c-5.6 2-7.5 7.4-7.5 7.4-.7 2-2.7 3.5-5 3.5H14c-2.9 0-5.3-2.4-5.3-5.3s2-5.2 5.3-5.2l8.5.1-12.2-12.3c-2.1-2.1-2.1-5.4 0-7.5s5.4-2.1 7.5 0l12 12v-8.3c0-2.9 2.3-5.3 5.3-5.3 2.9 0 5.2 2.4 5.2 5.3V23c0 2.2-1.3 4.3-3.3 5"/><path id="path3385_1_" class="st0" d="M208.2 73c-5.6 0-12.8-.9-16.3-2l2.8-11.6c2.6 1.2 8.3 3 13.5 3 6.3 0 11-2.7 11-8.3 0-4.7-2.9-7.2-11-10.4-8.3-3.2-15.2-7.2-15.2-19 0-11.5 9.1-17.9 23-17.9 5.9 0 11.8 1.2 15.4 2.3l-2.7 11.3c-2.4-1.3-7-3-12.7-3-6.7 0-9.7 2.6-9.7 7 0 4.5 3.3 6.1 10.5 9.3 9.9 4.2 16.2 8.5 16.2 19.6 0 12.2-9.8 19.7-24.8 19.7zm-44.5-29h-7.6v18.6h8c6.3 0 11.2-2.5 11.2-9.4 0-6.3-4.6-9.2-11.6-9.2zm.1-26.5h-7.7v16.8h7.1c5.4 0 10-2.9 10-8.7.1-5.4-3.2-8.1-9.4-8.1zm.7 54.9h-20.9V7.7h22c12.6 0 20.9 6.1 20.9 16.9 0 7.6-5.1 11.9-9.9 13.8 6.6 1.7 12 6.3 12 14.8 0 11.3-8.7 19.2-24.1 19.2zm-52.9-54.8h-6.4v18.5h5c6.7 0 11.6-2.9 11.6-9.2 0-5.6-3.6-9.3-10.2-9.3zm12 54.8c-3.9-7.9-10.9-20.3-15.1-26.8h-3.3v26.8H92.8V7.7h20.5c13.5 0 21.5 6.5 21.5 19.4 0 8.9-6.4 14.3-13.1 16.6 4.3 5.9 12.6 20.3 16.7 28.8l-14.8-.1z"/></svg>