<svg version="1.1" id="Layer_2_1_" xmlns="http://www.w3.org/2000/svg" x="0" y="0" viewBox="0 0 193 50.6" style="enable-background:new 0 0 193 50.6" xml:space="preserve"><style>.st4{fill:#132136}</style><path id="path14" d="M48.3 36.1c0 .6-.2 1.1-.7 1.6l-9.8 9.8c-.5.5-1.5.2-1.5-.6v-22L48 13.2h.1l.2 22.9" style="fill:#e83860"/><path id="path16" d="M40.5 5.5c-.4-.4-.9-.4-1.3 0L24.8 20h-.2v16.4l.2.4 11.6-11.6 11.9-11.9-7.8-7.8" style="fill:#dfc586"/><path id="path18" d="M1.2 36.1c0 .6.2 1.1.7 1.6l9.8 9.8c.5.5 1.5.2 1.5-.6v-22L1.3 13.2h-.1v22.9" style="fill:#327787"/><path id="path20" d="M10.2 5.5c-.4-.4-.9-.4-1.2 0l-7.8 7.8 11.9 11.9 11.6 11.6V20L10.2 5.5" style="fill:#8abb9c"/><path id="path22" class="st4" d="M59.8 36.4V13.8h6.1v3c1.4-2.3 3.4-3.4 6.2-3.4s4.8 1.1 6.3 3.7c2.4-2.5 4.1-3.7 7-3.7 5.1 0 8 2.9 8 8.1v14.9h-6.5V24.2c0-3.2-.7-4.6-3.2-4.6s-3.9 1.6-3.9 4.6v12.2h-6.5V24.2c0-3.2-.7-4.6-3.2-4.6s-3.9 1.6-3.9 4.6v12.2h-6.4"/><path id="path24" class="st4" d="M108.8 30.7c3 0 5.4-2.5 5.4-5.6 0-3.1-2.4-5.6-5.4-5.6s-5.4 2.5-5.4 5.6c.1 3.1 2.5 5.6 5.4 5.6zm-8.4-13.9c2.3-2.3 5.3-3.5 8.4-3.5 3.3 0 6.1 1.1 8.4 3.3 2.4 2.3 3.7 5.4 3.7 8.5 0 3.4-1.1 6.2-3.4 8.5s-5.1 3.5-8.6 3.5c-3.4 0-6.2-1.1-8.6-3.7-2.2-2.3-3.3-5.1-3.3-8.4s1.1-6.1 3.4-8.2"/><path id="path26" class="st4" d="M124.5 36.4V13.8h6.3l-.1 3c1.4-2.3 3.5-3.4 6.5-3.4 4.7 0 7.7 3 7.7 8.1v14.9h-6.6V24.2c0-3.2-.7-4.6-3.2-4.6-2.6 0-4 1.6-4 4.6v12.2h-6.6"/><path id="path28" class="st4" d="M180.2 30.7c3 0 5.4-2.5 5.4-5.6 0-3.1-2.4-5.6-5.4-5.6-3 0-5.4 2.5-5.4 5.6.1 3.1 2.6 5.6 5.4 5.6zm-8.4-13.9c2.3-2.3 5.3-3.5 8.4-3.5 3.3 0 6.1 1.1 8.4 3.3 2.4 2.3 3.7 5.4 3.7 8.5 0 3.4-1.1 6.2-3.4 8.5s-5.1 3.5-8.6 3.5c-3.4 0-6.2-1.1-8.6-3.7-2.2-2.3-3.3-5.1-3.3-8.4s1.2-6.1 3.4-8.2"/><path id="path30" class="st4" d="M149.1 36.4v-4.7l9.3-12h-9.3v-5.8h16.8v5.4l-8.2 11.4h8.4v5.8h-16.9"/></svg>