<svg version="1.1" id="Layer_1" xmlns="http://www.w3.org/2000/svg" x="0" y="0" width="293.5" height="45.675" style="enable-background:new 0 0 293.5 45.6749992" xml:space="preserve"><style>.st0{fill:#000}</style><path class="st0" d="M17.483 7.3h3.5V.2c-1.5-.1-3.4 0-4.9 0-8.5 0-11.3 4.7-11.3 9.8v3h-4.7v6.5h4.7v25.4h9.8V19.5h6V13h-5.8v-2.4c.1-2.4 1.4-3.3 2.7-3.3M24.783 12.2h9.2v32.6h-9.2zM24.983 0h9v7.6h-9zM60.983 20.6v-9c-7.9 0-9.9 1.8-11.5 5.8v-4.9h-9.1v32.3h9.5V30.2c.1-4.4 1-11.1 11.1-9.6M71.883 20.5c0-3.8 11-3.8 10.7 1.4h8.4c-.7-7.9-7.2-10.3-14.2-10.3-6.9 0-14 2.6-14 10.8 0 5.7 5.1 7.4 10.2 8.7 6.3 1.6 9.4 1.3 9.9 4 .6 3.8-4.2 4.3-5.6 4.3-3.5 0-6.7-1-6.8-4.9h-8.4c.4 8.5 7.6 11.2 15.1 11.2 7.3 0 14.7-3.3 14.7-11.7 0-12.2-20-7.4-20-13.5M113.183 44.8v-7c-6 0-6-.2-6-3.8V19.7h5.8V13h-5.8V2.8h-9.4v10.1h-4.6v6.7h4.6v16.8c.1 5.7-.4 9.2 15.4 8.4M137.683 28.5c0-8.3 4.1-9.9 7.2-9.9 5 0 7.3 3.9 7.3 9.8 0 5.8-1.9 10.3-7.3 10.3-4.7 0-7.2-4.2-7.2-10.2m14.4 12.9.2 3.4h8.9V.1h-9.3l-.1 15.6c-2.1-3.2-5.5-4.1-9.3-4.1-9.4 0-14.2 8-14.2 16.6 0 8.9 4.7 17.3 14.4 17.3 4.2.1 7.4-.6 9.4-4.1M167.383 12.2h9.2v32.6h-9.2zM167.583 0h9v7.6h-9zM203.583 20.6v-9c-7.9 0-9.9 1.8-11.5 5.8v-4.9h-9.1v32.1h9.5V30.1c.1-4.5 1.1-11.3 11.1-9.5M213.183 24.8c.1-2.5 2-6.5 7.3-6.5 3.8 0 6.4 2.4 6.4 6.5m9 10.7h-8.8c-.7 1.3-2.4 3.3-6.3 3.3-2.7 0-7.4-2.4-7.6-7.9h23.3c.7-10.3-4.8-19.4-15.7-19.4-9.8 0-16.4 7.5-16.4 17.1 0 9.9 6.3 16.9 16.4 16.9 7.2 0 12.6-2.4 15.1-10M249.183 28.7c0-4.7 1.9-10.5 7.4-10.4 3 0 5.9 2.2 6.5 5.9l8.6-.1c-.6-8.5-7.5-12.5-15.1-12.5-10.4 0-16.4 7.4-16.4 17.4 0 10.4 6.5 16.6 16.2 16.6 8.4 0 14.2-4.1 15.3-12.6l-8.5-.2c-.6 3.9-3.2 5.9-6.9 5.9-5.1 0-7.1-4.9-7.1-10M287.383 34V19.6h5.8v-6.7h-5.8V2.8h-9.4v10.1h-4.6v6.7h4.6v16.8c0 5.6-.5 9.1 15.4 8.4v-7c-6.1 0-6.1-.2-6-3.8"/></svg>