<svg version="1.1" id="Layer_1" xmlns="http://www.w3.org/2000/svg" x="0" y="0" viewBox="0 0 153.4 50.9" style="enable-background:new 0 0 153.4 50.9" xml:space="preserve"><style>.st0{fill:#152864}</style><g id="Layer_2"><g id="Layer_1-2"><path class="st0" d="M94.2 50.9h-6.9V28.5h7.3c4.4 0 7.3 2.2 7.3 5.8 0 2.2-1.3 4.2-3.4 4.9 2.5.4 4.2 2.6 4.2 5.1-.1 3.9-3.1 6.6-8.5 6.6m.1-19.3h-3v6.2H94c2 0 3.6-1.2 3.6-3.2s-1.2-3-3.3-3zm0 9.4h-3v6.7h3.2c2.2 0 3.9-1 3.9-3.4-.1-2.2-1.7-3.3-4.1-3.3zm24 5.3v-6.7c0-3.9-2-5.7-6.6-5.7-2 0-3.9.4-5.8 1.1l-.1.1.4 3.4.3-.1c1.4-.9 3.1-1.3 4.8-1.3 2.3 0 3.2.8 3.2 2.9v.8c-6 0-9.6 2.3-9.6 6.1 0 2.7 1.8 4.3 4.7 4.3 2.1.1 4-.9 5.2-2.7-.1.7-.1 1.5-.1 2.2v.3h3.8v-.2c-.2-1.3-.2-3-.2-4.5m-7.7 1.9c-1 .1-1.9-.6-2-1.6v-.2c0-1.8 2-2.7 5.9-2.8v.1c-.1 2.2-1.5 4.5-3.9 4.5M130.7 34c-2.2-.1-4.3 1-5.4 2.8.1-.8.1-1.6.1-2.3v-.2h-3.7V51h3.9v-8c0-3.3 1.7-5.7 4-5.7 1.6 0 2.3.9 2.3 3V51h3.8V39.4c0-3.5-1.7-5.4-5-5.4m16 8c.1-.1 1.6-2 3.1-3.9.9-1.1 1.9-2.3 3-3.7h-4.6c-.8 1.1-1.6 2.1-2.3 3l-2.7 3.6V28.5h-3.9V51h3.9v-7.8c.3.4 1.6 2.4 2.9 4.3.8 1.1 1.5 2.3 2.4 3.6h4.9c-1.2-1.6-2.3-3.1-3.3-4.4-1.6-2.3-3.3-4.6-3.4-4.7M75.1 7.1c-.8.3-1.5.9-2 1.5-.2.3-.4.6-.6 1-.3.7-.9 1.2-1.6 1.2h-3.6c-1 0-1.8-.8-1.8-1.8s.7-1.8 1.7-1.8h3l-4.1-4.1c-.7-.7-.7-1.8 0-2.5s1.8-.7 2.5 0l4.1 4.1V1.8c0-1 .8-1.8 1.7-1.8h.1c1 0 1.8.8 1.8 1.8v3.6c0 .8-.5 1.4-1.2 1.7M74.5 22.2c-.9.1-1.7-.6-1.7-1.5v-3.1l-4.1 4.1c-.7.7-1.9.7-2.6 0-.7-.7-.7-1.8 0-2.6l4.1-4.1h-2.8c-1 0-1.8-.8-1.8-1.8s.8-1.8 1.8-1.8H71c.7 0 1.4.4 1.7 1.1.4 1.1 1.3 2.1 2.5 2.5.8.2 1.2.9 1.2 1.7v3.6c-.1 1.1-.9 1.9-1.9 1.9M86 15.1l-2.9-.1 4.1 4.1c.7.7.7 1.8 0 2.6-.7.7-1.8.7-2.5 0l-4.1-4.1v2.8c0 1-.8 1.8-1.7 1.8h-.1c-1 0-1.8-.8-1.8-1.8v-3.5c0-.8.5-1.4 1.2-1.7.8-.3 1.5-.8 2-1.5.2-.3.4-.6.6-1 .3-.7.9-1.1 1.7-1.2H86c1 0 1.8.8 1.8 1.8s-.8 1.8-1.7 1.8H86M86 10.8h-3.6c-.7 0-1.4-.4-1.7-1.1-.3-.8-.8-1.5-1.5-2-.3-.2-.6-.4-1-.6-.7-.3-1.2-.9-1.2-1.7V1.8c0-1 .8-1.8 1.7-1.8 1 0 1.8.7 1.8 1.7v3L84.6.6c.7-.7 1.8-.7 2.5 0s.7 1.8 0 2.6L83 7.3h3c1 0 1.8.8 1.8 1.8 0 .8-.8 1.7-1.8 1.7M13.9 28.5v13.1c0 .8 0 1.6-.1 2.4-.3 2.8-1.7 4-4.9 4-2.9 0-4.3-1.1-4.7-3.3-.2-.9-.3-1.8-.3-2.7V28.5H0v13.8c0 1.1.1 2.2.3 3.3.8 3.7 3.5 5.7 8.3 5.7 5.3 0 8.3-2.2 9-6.4.1-1.1.2-2.1.2-3.2V28.5h-3.9zM21.4 28.5h3.9V51h-3.9zM35 41.1c-1.7-.7-2.7-1.2-2.7-2.4 0-1.4 1.3-1.8 2.8-1.8 1.1 0 2.2.2 3.2.5v-3.3c-1.1-.2-2.3-.3-3.4-.3-4 0-6.6 1.9-6.6 5 0 3 1.9 4 4.4 5 1.7.7 2.8 1.1 2.8 2.3s-.9 1.8-2.8 1.8c-1.3 0-2.7-.2-3.9-.7l-.4 3.4c1.3.3 2.7.5 4 .5 4.3 0 7.1-1.9 7.1-5.3-.1-3-2.3-3.8-4.5-4.7M47.2 28.4l-3.8 1.1v4.8h-3.1v3.2h3.1V46c0 3.8 1.3 5.2 4.7 5.2 1.1 0 2.2-.1 3.3-.4h.1v-3.3c-.8.2-1.5.3-2.3.3-1.4 0-1.9-.4-1.9-2.9v-7.5h4.3v-3.2h-4.3v-5.8zM67.5 43l.1-1.8c0-4.6-2.5-7.2-6.8-7.2-4.6 0-7.6 3.4-7.6 8.7 0 5.7 2.7 8.5 8 8.5 2 0 3.9-.3 5.8-1.1l-.3-3.1-.3.1c-1.5.7-3 1-4.7 1-1.3.1-2.5-.3-3.5-1.2-.9-1.1-1.3-2.4-1.2-3.8V43h10.5zm-6.9-6.1c.8 0 1.6.3 2.2.9.6.6.9 1.5.9 2.4h-6.5c.4-2 1.6-3.3 3.4-3.3zM74.2 36.9c.1-.8.2-1.6.2-2.4v-.2h-3.7V51h3.9v-6.8c0-3 .6-4.9 1.7-5.8.6-.5 1.3-.7 2-.7.4 0 .8.1 1.2.1l.1-3.9h-.8c-2.1.1-3.9 1.3-4.6 3"/></g></g></svg>