<svg version="1.1" id="Layer_1" xmlns="http://www.w3.org/2000/svg" x="0" y="0" viewBox="0 0 772.1 283.5" style="enable-background:new 0 0 772.1 283.5" xml:space="preserve"><style>.st3{fill:#005c9e}.st5{fill:#fff}</style><path d="M630.4 0c-52 0-97.5 28.1-122.2 69.9 12.4 21.1 19.6 45.6 19.6 71.9 0 26.2-7.2 50.8-19.6 71.8 24.7 41.8 70.1 69.9 122.2 69.9 78.3 0 141.7-63.4 141.7-141.7C772.1 63.5 708.6 0 630.4 0z" style="fill:#26358c"/><path d="M508.2 69.9C483.6 28.1 438.1 0 386.1 0s-97.5 28.1-122.2 69.9c12.4 21.1 19.6 45.6 19.6 71.9 0 26.2-7.1 50.8-19.6 71.8 24.6 41.8 70.1 69.9 122.2 69.9 52 0 97.5-28.1 122.2-69.9-12.4-21.1-19.6-45.6-19.6-71.8-.1-26.3 7.1-50.8 19.5-71.9z" style="fill:#0068b3"/><path d="M263.9 69.9C239.2 28.1 193.8 0 141.7 0 63.5 0 0 63.5 0 141.7 0 220 63.5 283.5 141.7 283.5c52 0 97.5-28.1 122.2-69.9-12.4-21.1-19.6-45.6-19.6-71.8 0-26.3 7.2-50.8 19.6-71.9z" style="fill:#36bcee"/><path class="st3" d="M263.9 213.6c12.4-21.1 19.6-45.6 19.6-71.8 0-26.2-7.1-50.8-19.6-71.9-12.4 21.1-19.6 45.6-19.6 71.9 0 26.1 7.2 50.7 19.6 71.8z"/><path class="st3" d="M263.9 213.6c-12.8-21.7-19.6-46.6-19.6-71.9 0-25.3 6.8-50.1 19.6-71.9 12.8 21.7 19.6 46.6 19.6 71.9 0 25.3-6.8 50.2-19.6 71.9zm0-143.7c-12.8 21.7-19.6 46.5-19.6 71.8 0 25.3 6.8 50.1 19.6 71.8 12.8-21.7 19.6-46.6 19.6-71.8 0-25.2-6.8-50.1-19.6-71.8z"/><path d="M508.2 213.6c12.4-21.1 19.6-45.6 19.6-71.8 0-26.2-7.2-50.8-19.6-71.9-12.4 21.1-19.6 45.6-19.6 71.9 0 26.2 7.2 50.7 19.6 71.8z" style="fill:#002f60"/><path class="st5" d="M195 92.2h-41.2v126.3h-28.4V92.2H85V66.4h110v25.8zM581.1 66.4h53.2c20.3.2 25.7.4 33 2.6 15.3 4.5 26 18.1 26 34.7 0 6.7-1.4 14.9-5.7 20.7-4.7 6.3-10.8 9.5-19 11 16.8 3 31.4 16.6 31.4 40.1 0 17.5-7.7 33-26.1 39.4-9.7 3.4-17.2 3.7-34.5 3.7H581V66.4zm28.1 23.2v37.9h8.8c7.9 0 13.8 0 17.2-.2 7.1 0 14.2-.2 19.4-3 6-3 10.1-8.8 10.1-15.7 0-5.8-3-11.6-8.8-15.1-6.1-3.4-9.1-3.7-29.8-3.9h-16.9zm0 59.3v45h27.1c16.8 0 21.3 0 28.7-5.2 3.9-2.8 6.9-8.6 6.9-15.9 0-3.4-.7-7.6-2.8-11.4-6.9-12.3-22.8-12.5-32.5-12.5h-27.4zM400.7 128.3l-15.6-3.4c-13.7-2.6-27.8-5.1-27.8-18 0-11.5 13.2-18.4 28.4-18.4 22.9 0 33 13.5 38.3 21.2l22.4-17.9C435.6 77.6 418.8 63 387.2 63c-35.5 0-59.7 18.4-59.7 47 0 25 18.6 34.2 25.5 37 4.7 1.9 9.4 3 19 5.4l18.2 3.8c13.7 3.2 14.1 3.4 17.5 4.7 4.7 1.9 11.3 5.3 11.3 15 0 5.1-1.9 12.8-12.8 17.3-5.4 2.1-10.9 2.6-16.3 2.6-30.3 0-42-15.6-46.2-22l-23 17.5c11.4 17.5 27.9 23.9 37.8 26.8 9.2 2.6 18.6 3.4 26.9 3.4 32.1 0 64.1-13.9 64.1-48.5.2-32-28.5-40.4-48.8-44.7z"/></svg>