<svg version="1.1" id="Layer_1" xmlns="http://www.w3.org/2000/svg" x="0" y="0" viewBox="0 0 528.5 235.9" style="enable-background:new 0 0 528.5 235.9" xml:space="preserve"><style>.st0{fill:#1e357a}</style><g id="g421" transform="matrix(.66058 0 0 .66058 1056.6 101.862)"><path id="path423" class="st0" d="M-1135.8-55v47.1l-36.8-47.1h-10.5v67.6h11.3v-49.4l38.3 49.4h8.6V-55h-10.9z"/></g><g id="g429"><g id="g435" transform="translate(1178.02 88.86)"><path id="path437" class="st0" d="M-891.7 79.6c-8.8 0-15.1-7.1-15.1-15.9-.1-8.6 6.6-15.8 15.1-15.8 8.8 0 15.1 7.1 15.1 15.8-.1 8.8-6.5 15.9-15.1 15.9m0-38.7c-12.7 0-22.9 10.2-22.9 22.9 0 12.8 9.9 23 22.9 23 12.8 0 22.9-10.2 22.9-23-.1-12.7-10.2-22.9-22.9-22.9"/></g></g><g id="g441"><g id="g447" transform="translate(1113.867 88.86)"><path id="path449" class="st0" d="M-714.7 14.3c-8.8 0-15.1-7.1-15.1-15.9-.1-8.6 6.6-15.8 15.1-15.8 8.8 0 15.1 7.1 15.1 15.8.1 8.7-6.3 15.9-15.1 15.9m0-38.7c-12.7 0-22.9 10.2-22.9 22.9 0 12.8 9.9 23 22.9 23 12.8 0 22.9-10.2 22.9-23s-10.1-22.9-22.9-22.9"/></g></g><g id="g453"><g id="g459" transform="translate(1095.157 102.549)"><path id="path461" class="st0" d="m-747.3-37-18.6 21v-21h-7.5V7.8h7.5v-21.5l19 21.3h10.2l-20.6-22.9 19.7-21.9-9.7.2z"/></g></g><g id="g465"><g id="g471" transform="translate(1145.67 101.775)"><path id="path473" class="st0" d="M-948.3 31.2c-3.1 2.2-4.7 5.4-4.7 9.3 0 7.5 5.9 10.9 11.9 12.7 5.4 1.8 9.8 3.1 9.8 7.5 0 4.2-4.2 6.1-7.9 6.1-5 0-9.8-2-12.5-3.9l-.3-.1v7.7h.1c2.6 1.5 7.5 3.2 12.8 3.2 7.8 0 15.2-5.2 15.2-13.2 0-7.5-5.2-11.2-12.3-13.4-7.4-2.2-9.6-3.9-9.6-6.7 0-4.2 4.2-5.4 8.1-5.4 2.9 0 7 .7 10.6 2.5h.1v-7.1c-3.3-1.5-7-2.2-11.3-2.2-3.7.1-7.3 1.2-10 3"/></g></g><g id="g477"><g id="g483" transform="translate(1253.606 88.86)"><path id="path485" class="st0" d="M-759.9 79.6h-6.6V49.3h6.6c8.9 0 15.1 6.6 15.1 15.1s-6.1 15.2-15.1 15.2m0-37.6H-774v44.8h14.1c12.7 0 23-9.5 23-22.3 0-13-10.3-22.5-23-22.5"/></g></g><g id="g489"><g id="g495" transform="translate(1202.063 102.548)"><path id="path497" class="st0" d="M-849.8 28.3v44.8h24.8l3.5-7.4h-20.6V28.3h-7.7z"/></g></g><g id="g501"><g id="g507" transform="translate(1044.212 88.77)"><path id="path509" class="st0" d="M-836.3 14.6h-7.8V2.1h9.1c4.2 0 7.1 2.5 7.1 6.3.1 3.9-2.9 6.2-8.4 6.2m-7.8-30.9h7.9c3.6 0 6.8 1.8 6.8 5.6 0 3.6-2.8 6-6.6 6h-8.4l.3-11.6zm17.4 13.9c2.6-1.4 5-4.7 5-8.9 0-7.8-6.1-12-13.8-12h-16.2v44.8h15.6c8.8 0 15.9-3.9 15.9-13 .1-4.6-2.3-8.4-6.5-10.9"/></g></g><g id="g513"><g id="g519" transform="translate(1242.75 102.548)"><path id="path521" class="st0" d="M-778.8 28.3v31.1L-803 28.3h-6.8v44.8h7.4V40.4l25.5 32.6h5.7V28.3h-7.6z"/></g></g><g id="g525"><g id="g531" transform="translate(1056.53 93.227)"><path id="path533" class="st0" d="m-814.8-2 6.6-16.7 6.4 16.7h-13zm10.3-25.8h-7.5L-830.2 17h7.9l4.7-12.3h18.3l4.9 12.3h8.1l-18.2-44.8z"/></g></g><g id="g537"><g id="g543" transform="translate(1218.862 93.227)"><path id="path545" class="st0" d="m-820.4 63.2 6.6-16.7 6.4 16.7h-13zm10.2-25.6h-7.5l-18.1 44.8h7.9l4.7-12.3h18.3l4.9 12.3h8.1l-18.3-44.8z"/></g></g><g id="g549"><g id="g555" transform="translate(1164.61 100.434)"><path id="path557" class="st0" d="M-915.1 36.2c3.2 0 7 .8 10 1.8v-7.5c-2.2-.7-6-1.7-10-1.7-13.7 0-24 9.1-24.3 22.2v1.4c.3 13.2 10.5 22.2 24.3 22.2 4 0 7.8-.8 10-1.7v-7.5c-3.1 1-6.7 1.8-10 1.8-9.9 0-16.6-6.8-16.5-15.5v-.6c-.1-8 6.6-14.9 16.5-14.9"/></g></g><g id="g561"><g id="g567" transform="translate(1134.93 99.865)"><path id="path569" class="st0" d="M-678-27v-7.4h-28.2v44.8h7.7V-9h18.8v-7.4h-18.8V-27h20.5z"/></g></g><g id="g573"><g id="g579" transform="translate(1199.619 102.546)"><path id="path581" class="st0" d="M-854.1 28.3h-35.7v7.4h13.8v37.4h7.9V35.7h13.8l.2-7.4z"/></g></g><g id="g585"><g id="g591" transform="translate(1022.027 101.061)"><path id="path593" class="st0" d="M-912.7-22.9c0-7.9-6.4-14.4-14.4-14.4s-14.4 6.4-14.4 14.4S-935-8.5-927-8.5c8.1 0 14.3-6.5 14.3-14.4"/></g></g><g id="g597"><g id="g603" transform="translate(1022.027 87.802)"><path id="path605" class="st0" d="M-912.7 75.7c0-7.9-6.4-14.4-14.4-14.4s-14.4 6.4-14.4 14.4 6.4 14.4 14.4 14.4c8.2-.1 14.4-6.5 14.4-14.4"/></g></g><g id="g609"><g id="g615" transform="translate(1011.308 94.41)"><path id="path617" class="st0" d="M-970.8 26.5c0-7.9-6.4-14.4-14.4-14.4s-14.4 6.4-14.4 14.4 6.4 14.4 14.4 14.4c8-.1 14.4-6.5 14.4-14.4"/></g></g><g id="g621"><g id="g627" transform="translate(1032.908 94.411)"><path id="path629" class="st0" d="M-853.4 26.5c0-7.9-6.4-14.4-14.4-14.4s-14.4 6.4-14.4 14.4 6.4 14.4 14.4 14.4c8-.1 14.4-6.5 14.4-14.4"/></g></g><g id="g633"><g id="g639" transform="translate(1029.867 98.373)"><path id="path641" class="st0" d="M-870-2.9v-26.9l-64.4 39-.3.1-64.8-39.2V-3l42.5 25.5-42.7 25.5v27l64.8-39.2L-870 75V48.1l-42.7-25.5L-870-2.9z"/></g></g></svg>