<svg xmlns="http://www.w3.org/2000/svg" viewBox="0 0 595.28 104.25" style="enable-background:new 0 0 595.28 104.25" xml:space="preserve"><path d="M78.48 47.74c-.15-3.72-1.24-7.52-3.14-10.88L58.18 7.15A23.722 23.722 0 0 1 55.48 0l-.73 1.24a23.905 23.905 0 0 0 0 23.8l13.72 23.8a23.905 23.905 0 0 1 0 23.8l-.73 1.24c-.51-2.48-1.39-4.89-2.7-7.15L52.49 44.97 44.46 31.1a23.722 23.722 0 0 1-2.7-7.15l-.73 1.24c-4.23 7.3-4.23 16.35-.07 23.73l13.8 23.87a23.905 23.905 0 0 1 0 23.8l-.73 1.24c-.51-2.48-1.39-4.89-2.7-7.15l-17.16-30a23.243 23.243 0 0 1-3.14-12.92C12.63 52.56 0 62.71 0 74.54c0 16.43 24.53 29.71 54.83 29.71s54.83-13.29 54.83-29.71c-.08-11.83-12.78-21.98-31.18-26.8zm51.76 50.74c.22-4.23.8-7.08 1.97-10.37 5.77 2.7 13.21 4.02 18.84 4.02 9.56 0 14.97-3.07 14.97-9.2 0-5.99-3.94-8.76-13.58-12.99l-5.26-2.26c-9.71-4.23-16.28-9.71-16.28-20.59 0-11.75 8.1-19.27 24.82-19.27 6.72 0 12.99.95 18.84 2.99-.29 4.09-1.02 7.3-2.04 10.29-5.55-2.04-12.12-2.99-16.86-2.99-8.98 0-13.07 3.5-13.07 8.98 0 5.33 4.02 8.47 11.24 11.53l5.55 2.34c13.07 5.55 18.54 11.46 18.54 21.39 0 11.83-8.98 20-26.43 20-8.55.07-15.48-1.17-21.25-3.87zm102.86-49.2v51.47h-10.37l-.58-6.21c-2.85 4.53-7.3 7.45-14.53 7.45-13.58 0-22.63-9.86-22.63-27.16 0-18.11 9.71-28.4 28.76-28.4 7.31-.07 13.44.8 19.35 2.85zm-11.31 39.71V56.65c-2.34-.44-4.96-.58-8.1-.58-11.75 0-17.23 7.23-17.23 18.76 0 10.51 4.23 17.89 14.31 17.89 4.45 0 8.02-1.46 11.02-3.73zm69.35-22.85v34.6h-11.32V68.11c0-8.1-2.7-12.05-14.02-12.05-2.7 0-5.84.29-8.98.8v43.88H245.5V49.28c7.23-1.75 15.11-2.85 20.59-2.85 18.92-.07 25.05 7.3 25.05 19.71zm31.39 26.21c3.29 0 6.35-.58 8.83-1.53-.29 3.07-.73 6.57-1.31 9.56-3.07 1.24-6.35 1.68-9.56 1.68-11.02 0-18.03-5.04-18.03-17.59v-54.1c3.5-1.17 7.81-1.68 11.32-1.68v19.49h17.89c-.22 3.5-.51 6.72-1.02 9.71h-16.86v25.26c-.02 6.57 3.27 9.2 8.74 9.2zm60.74-43.07v51.47H372.9l-.58-6.21c-2.92 4.53-7.3 7.45-14.53 7.45-13.58 0-22.63-9.86-22.63-27.16 0-18.11 9.71-28.4 28.76-28.4 7.31-.07 13.37.8 19.35 2.85zm-11.31 39.71V56.65c-2.34-.44-4.96-.58-8.1-.58-11.75 0-17.23 7.23-17.23 18.76 0 10.51 4.23 17.89 14.31 17.89 4.45 0 8.02-1.46 11.02-3.73zm69.28-22.85v34.6h-11.32V68.11c0-8.1-2.7-12.05-14.02-12.05-2.7 0-5.84.29-8.98.8v43.88H395.6V49.28c7.23-1.75 15.11-2.85 20.59-2.85 18.99-.07 25.05 7.3 25.05 19.71zm57.45-37.45v72.06h-10.37l-.58-6.57c-2.92 4.82-7.3 7.81-14.75 7.81-13.58 0-22.63-9.86-22.63-27.16 0-18.11 9.71-28.4 28.76-28.4 2.99 0 5.77.29 8.47.8V30.22c3.36-1.24 7.38-1.53 11.1-1.53zm-11.17 60.16V57.16c-2.99-.58-6.06-1.02-9.05-1.02-11.24 0-16.57 7.01-16.57 18.76 0 10.51 4.23 17.89 14.31 17.89 4.45-.07 8.17-1.61 11.31-3.94zm68.11-10.15H519.5c1.46 9.2 6.79 13.58 16.86 13.58 6.21 0 12.48-1.31 18.1-3.94-.44 2.99-1.02 6.94-1.75 10.29-5.18 2.34-10.59 3.29-16.72 3.29-18.98 0-28.11-10.51-28.11-28.11 0-15.33 7.08-27.52 25.11-27.52 16.13 0 23.14 10.59 23.14 23.58.16 3.28-.06 5.84-.5 8.83zm-36.35-9.42h25.55c0-8.47-4.53-13.36-12.34-13.36-8.03-.07-12.26 4.6-13.21 13.36zm76-22.48c0 3.43-.44 7.52-1.02 9.71-2.7-.29-5.33-.44-8.54-.44-2.77 0-5.55.22-8.32.58v44.09h-11.32V49.28c4.82-1.68 12.99-2.85 19.35-2.85 3.49-.07 7.44.07 9.85.37z" style="fill:#ec0000"/></svg>