<?xml version="1.0" encoding="utf-8"?>
<!-- Generator: Adobe Illustrator 22.0.1, SVG Export Plug-In . SVG Version: 6.00 Build 0)  -->
<svg version="1.1"
	 id="Layer_1" inkscape:output_extension="org.inkscape.output.svg.inkscape" inkscape:version="0.46" sodipodi:docname="notice_of_meeting_2006.svg" sodipodi:version="0.32" xmlns:cc="http://creativecommons.org/ns#" xmlns:dc="http://purl.org/dc/elements/1.1/" xmlns:inkscape="http://www.inkscape.org/namespaces/inkscape" xmlns:rdf="http://www.w3.org/1999/02/22-rdf-syntax-ns#" xmlns:sodipodi="http://sodipodi.sourceforge.net/DTD/sodipodi-0.dtd" xmlns:svg="http://www.w3.org/2000/svg"
	 xmlns="http://www.w3.org/2000/svg" xmlns:xlink="http://www.w3.org/1999/xlink" x="0px" y="0px" viewBox="0 0 68 68"
	 style="enable-background:new 0 0 68 68;" xml:space="preserve">
<style type="text/css">
	.st0{fill:#E83860;}
	.st1{fill:#DFC586;}
	.st2{fill:#327787;}
	.st3{fill:#8ABB9C;}
</style>
<path id="path14" class="st0" d="M68.1,48.8c0,0.8-0.3,1.6-0.9,2.2L53,65.2c-0.8,0.8-2.2,0.2-2.2-0.9V32.6l17-16.9h0.2V48.8"/>
<path id="path16" class="st1" d="M56.8,4.4c-0.5-0.5-1.3-0.5-1.8,0l-21,21h-0.3v23.7l0.3,0.6l16.9-16.9l17.2-17.2L56.8,4.4"/>
<path id="path18" class="st2" d="M-0.1,48.8c0,0.8,0.3,1.6,0.9,2.2L15,65.2c0.8,0.8,2.2,0.2,2.2-0.9V32.6l-17-16.9h-0.2L-0.1,48.8"
	/>
<path id="path20" class="st3" d="M13,4.4c-0.5-0.5-1.3-0.5-1.8,0L-0.1,15.7l17.2,17.2L34,49.8V25.4L13,4.4"/>
</svg>
