<?xml version="1.0" encoding="utf-8"?>
<!-- Generator: Adobe Illustrator 21.1.0, SVG Export Plug-In . SVG Version: 6.00 Build 0)  -->
<svg version="1.1"
	 id="Layer_1" inkscape:output_extension="org.inkscape.output.svg.inkscape" inkscape:version="0.46" sodipodi:docname="notice_of_meeting_2006.svg" sodipodi:version="0.32" xmlns:cc="http://creativecommons.org/ns#" xmlns:dc="http://purl.org/dc/elements/1.1/" xmlns:inkscape="http://www.inkscape.org/namespaces/inkscape" xmlns:rdf="http://www.w3.org/1999/02/22-rdf-syntax-ns#" xmlns:sodipodi="http://sodipodi.sourceforge.net/DTD/sodipodi-0.dtd" xmlns:svg="http://www.w3.org/2000/svg"
	 xmlns="http://www.w3.org/2000/svg" xmlns:xlink="http://www.w3.org/1999/xlink" x="0px" y="0px" viewBox="0 0 68 68"
	 style="enable-background:new 0 0 68 68;" xml:space="preserve">
<style type="text/css">
	.st0{fill:#0D9AD2;}
	.st1{fill:#FFFFFF;}
</style>
<rect y="0" class="st0" width="68" height="68"/>
<g id="layer1" transform="translate(-232.04551,-388.52572)" inkscape:groupmode="layer" inkscape:label="Layer 1">
	<g id="g3223" transform="matrix(1.25,0,0,-1.25,210.68851,1111.6486)">
		<g>
			<g id="g3225">
				<g id="g4048">
					<g id="g3239" transform="translate(58.7622,568.8793)">
						<path id="path3241" inkscape:connector-curvature="0" class="st1" d="M-32.4-17.7c0,1.9-0.4,2.7-1.5,2.7
							c-1.3,0-1.5-1.7-1.5-4.4c0-3,0.2-4.3,1.5-4.3c1.2,0,1.4,0.8,1.5,3.1h3.6c0-4.1-1.6-5.7-5.2-5.7c-5,0-5.3,3.5-5.3,7.4
							c0,3.7,1.1,6.4,5.3,6.4c4.1,0,5.2-2.2,5.2-5.3H-32.4z"/>
					</g>
					<g id="g3243" transform="translate(68.713,571.6006)">
						<path id="path3245" inkscape:connector-curvature="0" class="st1" d="M-32.4-17.7c-1.2,0-1.5-1.1-1.5-4.3
							c0-3.2,0.3-4.4,1.5-4.4c1.2,0,1.5,1.1,1.5,4.3C-31-18.8-31.2-17.7-32.4-17.7 M-37.9-22c0,3.9,0.9,7,5.4,7
							c4.8,0,5.4-2.9,5.4-6.9s-0.9-7-5.4-7C-37.2-28.9-37.9-26-37.9-22"/>
					</g>
					<g id="g3247" transform="translate(84.7368,571.6006)">
						<path id="path3249" inkscape:connector-curvature="0" class="st1" d="M-32.4-17.7c-1.2,0-1.5-1.1-1.5-4.3
							c0-3.2,0.3-4.4,1.5-4.4c1.2,0,1.5,1.1,1.5,4.3C-31-18.8-31.2-17.7-32.4-17.7 M-37.9-22c0,3.9,0.9,7,5.4,7
							c4.8,0,5.4-2.9,5.4-6.9s-0.9-7-5.4-7C-37.2-28.9-37.9-26-37.9-22"/>
					</g>
					<g id="g3251" transform="translate(96.2175,563.2131)">
						<path id="path3253" inkscape:connector-curvature="0" class="st1" d="M-32.4-17.7c1.4,0,1.5,1.6,1.5,4c0,2.1,0,4.1-1.5,4.1
							c-1.2,0-1.4-1.4-1.4-4C-33.8-15.9-33.7-17.7-32.4-17.7 M-37.7-7h3.8v-1.6h0c0.3,0.9,1.1,1.9,2.8,1.9c2.6,0,4.1-1.9,4.1-6.8
							c0-4.1-0.6-7-3.8-7c-1.1,0-2.3,0.4-2.9,1.8h0v-5.7h-3.9C-37.7-24.5-37.7-7-37.7-7z"/>
					</g>
					<path id="path3277" inkscape:connector-curvature="0" class="st1" d="M42.3,548h3.9v3.2h-3.9V548z"/>
				</g>
			</g>
		</g>
	</g>
</g>
</svg>
