<svg version="1.1" id="Layer_1" xmlns="http://www.w3.org/2000/svg" x="0" y="0" viewBox="0 0 68 68" style="enable-background:new 0 0 68 68" xml:space="preserve"><style>.st1{fill:#fff}</style><path style="fill:#0d9ad2" d="M0 0h68v68H0z"/><g id="layer1" transform="translate(-232.046 -388.526)"><g transform="matrix(1.25 0 0 -1.25 210.689 1111.649)" id="g3223"><g id="g3225"><g id="g4048"><g id="g3239" transform="translate(58.762 568.88)"><path id="path3241" class="st1" d="M-32.4-17.7c0 1.9-.4 2.7-1.5 2.7-1.3 0-1.5-1.7-1.5-4.4 0-3 .2-4.3 1.5-4.3 1.2 0 1.4.8 1.5 3.1h3.6c0-4.1-1.6-5.7-5.2-5.7-5 0-5.3 3.5-5.3 7.4 0 3.7 1.1 6.4 5.3 6.4 4.1 0 5.2-2.2 5.2-5.3h-3.6z"/></g><g id="g3243" transform="translate(68.713 571.6)"><path id="path3245" class="st1" d="M-32.4-17.7c-1.2 0-1.5-1.1-1.5-4.3 0-3.2.3-4.4 1.5-4.4s1.5 1.1 1.5 4.3c-.1 3.3-.3 4.4-1.5 4.4m-5.5-4.3c0 3.9.9 7 5.4 7 4.8 0 5.4-2.9 5.4-6.9s-.9-7-5.4-7c-4.7 0-5.4 2.9-5.4 6.9"/></g><g id="g3247" transform="translate(84.737 571.6)"><path id="path3249" class="st1" d="M-32.4-17.7c-1.2 0-1.5-1.1-1.5-4.3 0-3.2.3-4.4 1.5-4.4s1.5 1.1 1.5 4.3c-.1 3.3-.3 4.4-1.5 4.4m-5.5-4.3c0 3.9.9 7 5.4 7 4.8 0 5.4-2.9 5.4-6.9s-.9-7-5.4-7c-4.7 0-5.4 2.9-5.4 6.9"/></g><g id="g3251" transform="translate(96.218 563.213)"><path id="path3253" class="st1" d="M-32.4-17.7c1.4 0 1.5 1.6 1.5 4 0 2.1 0 4.1-1.5 4.1-1.2 0-1.4-1.4-1.4-4 0-2.3.1-4.1 1.4-4.1M-37.7-7h3.8v-1.6c.3.9 1.1 1.9 2.8 1.9 2.6 0 4.1-1.9 4.1-6.8 0-4.1-.6-7-3.8-7-1.1 0-2.3.4-2.9 1.8v-5.7h-3.9c-.1-.1-.1 17.4-.1 17.4z"/></g><path id="path3277" class="st1" d="M42.3 548h3.9v3.2h-3.9V548z"/></g></g></g></g></svg>