<svg id="Layer_1" data-name="Layer 1" xmlns="http://www.w3.org/2000/svg" viewBox="0 0 346.44 93.33"><defs><style>.cls-2{fill:#db0011}</style></defs><path style="fill:#fff" d="M46.72 0h93.22v93.22H46.72z"/><path class="cls-2" d="M186.55 46.72 139.94 0v93.33l46.61-46.61zM93.33 46.72 139.94 0H46.72l46.61 46.72zM0 46.72l46.72 46.61V0L0 46.72zM93.33 46.72 46.72 93.33h93.22L93.33 46.72z"/><path d="M232.9 78.14H216v16.67h-8.44V55.76H216v16h16.9v-16h8.44v39.05h-8.44zM261.85 95.57c-8.44 0-15.35-3.4-15.46-12.72h8.44c.11 4.17 2.53 6.69 7.13 6.69 3.4 0 7.35-1.75 7.35-5.59 0-3.07-2.63-4-7-5.27l-2.85-.76c-6.14-1.76-12.28-4.17-12.28-11.19 0-8.66 8.11-11.62 15.46-11.62 7.57 0 14.15 2.63 14.26 11.29h-8.45c-.33-3.51-2.41-5.59-6.36-5.59-3.18 0-6.25 1.64-6.25 5.15 0 2.85 2.63 3.73 8.12 5.49l3.29 1c6.69 2.09 11 4.39 11 11-.17 8.72-8.72 12.12-16.4 12.12zM282.8 55.87h13.71a35.93 35.93 0 0 1 7.67.44c4.72 1.1 8.34 4.17 8.34 9.43 0 5.05-3.18 7.57-7.79 8.78 5.27 1 9.21 3.62 9.21 9.43 0 8.88-8.77 10.86-15.57 10.86H283zm13.71 16.23c3.73 0 7.56-.76 7.56-5.26 0-4.06-3.5-5.15-7-5.15h-6V72.1zm.77 16.9c3.94 0 7.78-.87 7.78-5.7s-3.29-5.7-7.35-5.7H291V89zM335.88 95.57c-12.61 0-18.21-8-18.21-20S323.92 55 336.32 55c7.78 0 15.35 3.51 15.57 12.28h-8.77c-.44-4-3.07-5.92-6.8-5.92-7.68 0-10 8.22-10 14.47s2.3 13.49 9.65 13.49c3.84 0 6.69-2.08 7.24-6H352c-.88 8.96-8.12 12.25-16.12 12.25z" transform="translate(-5.56 -28.68)"/></svg>