<svg xmlns="http://www.w3.org/2000/svg" xmlns:xlink="http://www.w3.org/1999/xlink" id="Layer_1" x="0" y="0" version="1.1" viewBox="0 0 200 129.1" xml:space="preserve" style="enable-background:new 0 0 200 129.1"><style type="text/css">.st0{fill:#005eb8}</style><g><path d="M21.8,61.2H9.3V46.1H0.8v36.8h8.5V69h12.5v14h8.6V46.1h-8.6V61.2z" class="st0"/><path d="M78.9,46.1h-8.6v36.8h21.9v-7.8H78.9V46.1z" class="st0"/><path d="M96.2,82.9h8.7V46.1h-8.7V82.9z" class="st0"/><path d="M118.4,53.9h16.2v-7.8h-24.8v36.8h8.6V69h13.4v-7.8h-13.4V53.9z" class="st0"/><path d="M46.5,69l3.9-12.4L54.3,69H46.5z M45.7,46.1L33.2,82.9h8.8l2.1-6.7h12.4l2.1,6.7h8.8L55.1,46.1H45.7z" class="st0"/><path d="M145.2,69l3.9-12.4l3.9,12.4H145.2z M198.3,46.1h-9.8l-6.9,11.1l-6.9-11.1h-9.8l12,18.4l-11.1,17l-12-35.4 h-9.4L132,82.9h8.8l2.1-6.7h12.4l2.1,6.7h17.2l6.9-11.1l6.9,11.1h9.8l-12-18.4L198.3,46.1z" class="st0"/><path d="M109.8,38.9L73.1,0H0l40.4,38.9H109.8z" class="st0"/><path d="M40.4,90.2L0,129.1h73.1l36.8-38.9H40.4z" class="st0"/><path d="M159.6,90.2h-41.1l-14.4,15.2l22.8,23.7H200L159.6,90.2z" class="st0"/><path d="M126.9,0l-22.8,23.7l14.4,15.2h41.1L200,0H126.9z" class="st0"/></g></svg>