<?xml version="1.0" encoding="utf-8"?>
<!-- Generator: Adobe Illustrator 22.1.0, SVG Export Plug-In . SVG Version: 6.00 Build 0)  -->
<svg version="1.1"
	 id="Layer_1" inkscape:output_extension="org.inkscape.output.svg.inkscape" inkscape:version="0.46" sodipodi:docname="notice_of_meeting_2006.svg" sodipodi:version="0.32" xmlns:cc="http://creativecommons.org/ns#" xmlns:dc="http://purl.org/dc/elements/1.1/" xmlns:inkscape="http://www.inkscape.org/namespaces/inkscape" xmlns:rdf="http://www.w3.org/1999/02/22-rdf-syntax-ns#" xmlns:sodipodi="http://sodipodi.sourceforge.net/DTD/sodipodi-0.dtd" xmlns:svg="http://www.w3.org/2000/svg"
	 xmlns="http://www.w3.org/2000/svg" xmlns:xlink="http://www.w3.org/1999/xlink" x="0px" y="0px" viewBox="0 0 68 68"
	 style="enable-background:new 0 0 68 68;" xml:space="preserve">
<style type="text/css">
	.st0{fill:#FFFFFF;}
</style>
<rect width="68" height="68"/>
<g>
	<path class="st0" d="M20.5,24.6l-8.8,21.5h-0.8L2.1,24.6v21.5H0V21.9h3.1L11.3,42l8.2-20.1h3.1v24.2h-2.1V24.6z"/>
	<path class="st0" d="M47.5,46.1h-2.9c-0.8-0.7-1.9-1.8-3-2.9c-1.7,1.9-4.1,3.3-7.2,3.3c-4,0-7.3-2.3-7.3-6.6c0-3.8,2.6-5.8,5.4-7.4
		c-1.2-1.9-2-3.8-2-5.5c0-3.2,2.6-5.5,5.7-5.5c3,0,5.1,1.6,5.1,4.6c0,3.6-3.2,5.2-6.2,6.9c1.1,1.5,2.2,2.8,3.1,3.8
		c1.1,1.3,2.2,2.4,3.3,3.6c1.5-2.2,2.3-4.6,2.7-5.9l1.7,0.7c-0.8,1.9-1.7,4.4-3.2,6.5C44.3,43.1,45.7,44.5,47.5,46.1z M40.4,41.9
		c-1.5-1.5-2.9-3-3.6-3.9c-1.1-1.2-2.3-2.7-3.3-4.1c-2.3,1.4-4.2,3-4.2,5.9c0,3.3,2.6,5,5.4,5C37,44.9,38.9,43.6,40.4,41.9z
		 M34.3,31.6c2.8-1.4,5.3-2.8,5.3-5.5c0-2-1.4-3-3.2-3c-2.1,0-3.8,1.6-3.8,4C32.6,28.5,33.4,30.1,34.3,31.6z"/>
	<path class="st0" d="M51.9,41.1c1.6,1.8,4.1,3.5,7.6,3.5c5,0,6.4-2.8,6.4-4.8c0-3.4-3.2-4.4-6.6-5.3c-3.8-1.1-7.9-2.1-7.9-6.6
		c0-4,3.6-6.5,8-6.5c3.6,0,6.3,1.3,8.2,3.4l-1.4,1.5c-1.7-2.1-4.2-3-6.9-3c-3.2,0-5.7,1.9-5.7,4.5c0,2.9,3,3.7,6.3,4.6
		c3.9,1.1,8.2,2.4,8.2,7.3c0,3.1-2.1,6.9-8.6,6.9c-4,0-7-1.6-8.9-3.8L51.9,41.1z"/>
</g>
</svg>
