<?xml version="1.0" encoding="utf-8"?>
<!-- Generator: Adobe Illustrator 22.1.0, SVG Export Plug-In . SVG Version: 6.00 Build 0)  -->
<svg version="1.1"
	 id="Layer_1" inkscape:output_extension="org.inkscape.output.svg.inkscape" inkscape:version="0.46" sodipodi:docname="notice_of_meeting_2006.svg" sodipodi:version="0.32" xmlns:cc="http://creativecommons.org/ns#" xmlns:dc="http://purl.org/dc/elements/1.1/" xmlns:inkscape="http://www.inkscape.org/namespaces/inkscape" xmlns:rdf="http://www.w3.org/1999/02/22-rdf-syntax-ns#" xmlns:sodipodi="http://sodipodi.sourceforge.net/DTD/sodipodi-0.dtd" xmlns:svg="http://www.w3.org/2000/svg"
	 xmlns="http://www.w3.org/2000/svg" xmlns:xlink="http://www.w3.org/1999/xlink" x="0px" y="0px" viewBox="0 0 390.5 65.9"
	 style="enable-background:new 0 0 390.5 65.9;" xml:space="preserve">
<style type="text/css">
	.st0{fill:#000000;}
</style>
<g>
	<path class="st0" d="M46.3,11.8L26.1,61.2h-1.8L3.9,11.8v49.4h-4.8V5.5h7.1l18.9,46.1L44,5.5h7.2v55.7h-4.8V11.8z"/>
	<path class="st0" d="M108.3,61.2h-6.6c-1.9-1.7-4.4-4.1-6.9-6.7c-4,4.4-9.3,7.7-16.4,7.7c-9.3,0-16.9-5.2-16.9-15.2c0-8.8,6-13.3,12.4-16.9
		c-2.7-4.3-4.5-8.8-4.5-12.7c0-7.3,5.9-12.7,13.2-12.7c6.9,0,11.8,3.8,11.8,10.5c0,8.3-7.3,12-14.4,15.9c2.4,3.4,5.1,6.5,7.1,8.8
		c2.6,2.9,5,5.6,7.5,8.2c3.3-5,5.3-10.5,6.3-13.5l4,1.7c-1.8,4.4-4,10-7.3,14.9C100.8,54.2,104.3,57.5,108.3,61.2z M91.9,51.6
		c-3.4-3.5-6.7-6.9-8.3-8.9c-2.5-2.8-5.2-6.1-7.5-9.4c-5.3,3.2-9.7,6.9-9.7,13.5c0,7.6,5.9,11.6,12.3,11.6
		C84.1,58.3,88.5,55.4,91.9,51.6z M78,27.9c6.3-3.3,12.1-6.3,12.1-12.6c0-4.6-3.2-7-7.3-7c-4.8,0-8.7,3.8-8.7,9.1
		C74.1,20.7,75.8,24.4,78,27.9z"/>
	<path class="st0" d="M118.4,49.7c3.6,4.2,9.4,8.1,17.4,8.1c11.4,0,14.7-6.3,14.7-11.1c0-7.8-7.4-10-15.3-12.1c-8.8-2.4-18.1-4.9-18.1-15.2
		c0-9.1,8.2-14.9,18.3-14.9c8.3,0,14.5,2.9,18.9,7.8l-3.2,3.5c-4-4.8-9.7-7-15.9-7c-7.4,0-13,4.3-13,10.3c0,6.6,6.9,8.5,14.5,10.5
		c9,2.6,18.9,5.4,18.9,16.7c0,7.2-4.8,15.8-19.8,15.8c-9.2,0-16.1-3.7-20.4-8.8L118.4,49.7z"/>
	<path class="st0" d="M188.4,5.5h22.9c9.3,0,15.4,5.4,15.4,14.2c0,7-4.8,11.8-9.8,12.8c5.9,0.9,10.8,7.1,10.8,13.7c0,9.3-6,15-15.9,15h-23.4V5.5
		z M210.7,30.4c7.2,0,10.9-4.5,10.9-10.3c0-5.7-3.8-10.3-10.9-10.3h-17.5v20.6H210.7z M211.1,56.8c7.3,0,11.7-4.3,11.7-11
		c0-5.7-3.9-11-11.7-11h-17.9v22H211.1z"/>
	<path class="st0" d="M274.5,47.5h-29.6l-5.6,13.7H234l22.8-55.7h5.9l22.8,55.7h-5.3L274.5,47.5z M246.4,43.1H273l-13.3-33L246.4,43.1z"/>
	<path class="st0" d="M298.4,13.1v48.1h-4.8V5.5h4.8l34.9,47.4V5.5h4.8v55.7h-4.7L298.4,13.1z"/>
	<path class="st0" d="M362.9,35l-6.2,6.8v19.4H352V5.5h4.8V36l26.9-30.5h6.1L366,32l25.9,29.1h-6.1L362.9,35z"/>
</g>
</svg>
