<?xml version="1.0" encoding="utf-8"?>
<!-- Generator: Adobe Illustrator 21.1.0, SVG Export Plug-In . SVG Version: 6.00 Build 0)  -->
<svg version="1.1" id="Layer_1" xmlns="http://www.w3.org/2000/svg" xmlns:xlink="http://www.w3.org/1999/xlink" x="0px" y="0px"
	 viewBox="0 0 241.5 66.2" style="enable-background:new 0 0 241.5 66.2;" xml:space="preserve">
<style type="text/css">
	.st0{fill:#006BB6;}
</style>
<path class="st0" d="M25.2,17.9v7.4h0.2c2.5-5.7,7.2-8.4,13.4-8.4c6.4,0,10.4,2.7,13.3,8.4c2.5-5.7,8.1-8.4,14.1-8.4
	c4.3,0,9,1.5,11.8,5c3.2,3.8,2.6,9.4,2.6,14.2v30.2h-14V40.7c0-1.9,0.2-6.7-0.3-8.5c-0.8-3.1-3.1-3.9-6-3.9c-2.5,0-5.1,1.4-6.1,3.7
	s-0.9,6.1-0.9,8.7v25.7h-14V40.7c0-5.1,1-12.5-6.3-12.5s-7.1,7.2-7.1,12.5v25.7h-14V17.9H25.2z"/>
<path class="st0" d="M87.1,0h14v23.1h0.4c2.4-4.8,6.4-7.1,11.8-7.1c13.8,0,18,13.7,18,25.2c0,12.7-5,25.2-19.7,25.2
	c-7,0-10.3-2.6-13.8-8.4c-1.7,2.1-2.3,4.9-3.2,7.4H87L87.1,0L87.1,0z M101.3,45.1c0,2.7,0.1,5.7,1.6,8.1c1.3,2.1,3.3,3.3,5.9,3.3
	c7.9,0,7.9-10.1,7.9-15.4c0-5.4,0-15.6-7.7-15.6c-6.8,0-7.7,7.3-7.7,12.5C101.3,38,101.3,45.1,101.3,45.1z"/>
<path class="st0" d="M135.9,17.9h13.3v8.2h0.2c2.9-6.2,6.9-9.2,13.9-9.2c4.6,0,9.1,1.4,11.9,5.3c2.7,3.6,2.7,9.7,2.7,14.1v29.9h-14
	v-26c0-5,0.7-12.2-6.4-12.2c-2.5,0-4.8,1.4-5.9,3.6c-1.4,2.8-1.6,5.5-1.6,8.6v26h-14L135.9,17.9L135.9,17.9z"/>
<path class="st0" d="M214.1,65.4c-0.6-2.5-0.8-5-0.7-7.5c-4,5.7-8.2,8.5-15.5,8.5c-8.6,0-15.3-4.6-15.3-13.7c0-7.1,4.5-12,10.9-14.4
	c5.5-2.1,13.3-2.5,19.2-3V34c0-2.1,0.2-4.6-1.2-6.4c-1.2-1.6-3.6-2.3-5.7-2.3c-4.5,0-8.4,2.3-8.4,7.1l-13.3-1.2
	C185.5,19.5,197,16,207.2,16c5,0,11.5,1.1,15.3,4.4c5,4,4.5,9.4,4.5,15.2v22.6c0,2.5,0.2,4.9,1,7.2C228,65.4,214.1,65.4,214.1,65.4z
	 M212.7,42.3c-5.3,0.6-15.2,1.8-15.2,8.9c0,3.8,2.3,6.4,6.2,6.4c2.9,0,5.4-1.5,7.1-4c2-3.1,1.9-5.9,1.9-9.3V42.3z"/>
</svg>
