<svg width="24" height="24" viewBox="0 0 24 24" fill="none" xmlns="http://www.w3.org/2000/svg">
<g clip-path="url(#clip0_2909_687)">
<path d="M11 22C17.0751 22 22 17.0751 22 11C22 4.92487 17.0751 0 11 0C4.92487 0 0 4.92487 0 11C0 17.0751 4.92487 22 11 22Z" fill="url(#paint0_linear_2909_687)"/>
<path d="M15.3419 11L10.9998 4.05261L6.65771 11L10.9998 13.6052L15.3419 11Z" fill="white"/>
<path d="M15.3419 11.8684L10.9998 14.4737L6.65771 11.8684L10.9998 17.6579L15.3419 11.8684Z" fill="#A5ABC1"/>
<path d="M21.4 13H14.68C14.2344 13 13.8071 13.177 13.4921 13.4921C13.177 13.8071 13 14.2344 13 14.68V21.4C13 21.8456 13.177 22.2729 13.4921 22.5879C13.8071 22.903 14.2344 23.08 14.68 23.08H21.4C21.8456 23.08 22.2729 22.903 22.5879 22.5879C22.903 22.2729 23.08 21.8456 23.08 21.4V14.68C23.08 14.2344 22.903 13.8071 22.5879 13.4921C22.2729 13.177 21.8456 13 21.4 13V13Z" fill="#F5F8FB"/>
<path d="M21.4 13H14.68C14.2344 13 13.8071 13.177 13.4921 13.4921C13.177 13.8071 13 14.2344 13 14.68V21.4C13 21.8456 13.177 22.2729 13.4921 22.5879C13.8071 22.903 14.2344 23.08 14.68 23.08H21.4C21.8456 23.08 22.2729 22.903 22.5879 22.5879C22.903 22.2729 23.08 21.8456 23.08 21.4V14.68C23.08 14.2344 22.903 13.8071 22.5879 13.4921C22.2729 13.177 21.8456 13 21.4 13V13Z" stroke="#E8EAED"/>
<path d="M22 19.4568C22 19.6471 21.9446 19.834 21.8394 19.9988C21.7342 20.1635 21.583 20.3002 21.4009 20.395L18.5949 21.8561C18.4139 21.9504 18.2088 22 18 22C17.7913 22 17.5861 21.9504 17.4051 21.8561L14.5992 20.395C14.4171 20.3002 14.2658 20.1635 14.1606 19.9988C14.0554 19.8341 14 19.6471 14 19.4568V16.5432C14 16.3529 14.0554 16.166 14.1606 16.0012C14.2658 15.8365 14.417 15.6998 14.5991 15.605L17.4051 14.1439C17.5861 14.0496 17.7912 14 18 14C18.2087 14 18.4139 14.0496 18.5949 14.1439L21.4008 15.605C21.5829 15.6998 21.7342 15.8365 21.8394 16.0012C21.9446 16.1659 22 16.3529 22 16.5432V19.4568Z" fill="#1D86CC"/>
<path d="M17.654 14.5507L14.8839 16.0007C14.7786 16.0558 14.6911 16.135 14.6303 16.2305C14.5695 16.3259 14.5376 16.4342 14.5376 16.5444L14.5393 19.4475C14.5394 19.5575 14.5714 19.6656 14.6321 19.7609C14.6928 19.8562 14.7801 19.9353 14.8852 19.9904L17.6586 21.4433C17.7639 21.4984 17.8833 21.5274 18.0049 21.5274C18.1264 21.5274 18.2459 21.4984 18.3511 21.4433L21.1213 19.9938C21.2266 19.9387 21.3141 19.8594 21.3748 19.764C21.4356 19.6685 21.4676 19.5602 21.4676 19.45L21.4658 16.5469C21.4658 16.4369 21.4337 16.3288 21.373 16.2336C21.3123 16.1383 21.225 16.0591 21.1199 16.0041L18.3466 14.5511C18.2413 14.496 18.1219 14.467 18.0003 14.467C17.8787 14.467 17.7593 14.496 17.654 14.5511V14.5507Z" fill="white"/>
<path d="M16.7398 20.4621C16.744 20.4431 16.7534 20.4255 16.767 20.4106C17.5956 19.1364 18.4245 17.8622 19.2534 16.5881C19.2649 16.5704 19.2756 16.5522 19.2854 16.5363C19.2781 16.5248 19.2698 16.5272 19.2628 16.5272C18.9086 16.5283 18.5545 16.5304 18.2001 16.53C18.1849 16.5298 18.1701 16.5337 18.1575 16.5414C18.1449 16.549 18.1352 16.56 18.1297 16.5728C17.8625 16.9731 17.5951 17.3734 17.3272 17.7735C16.7599 18.6218 16.1924 19.4701 15.625 20.3184C15.6199 20.3259 15.6147 20.3332 15.6102 20.341C15.6002 20.3585 15.5888 20.3613 15.5684 20.3505C15.4804 20.3034 15.3914 20.2578 15.2978 20.2091L17.8232 16.5386C17.8177 16.5237 17.8066 16.5274 17.798 16.5271C17.6626 16.5235 17.5272 16.5182 17.392 16.5171C17.2021 16.512 17.0127 16.5396 16.8342 16.5986C16.6715 16.6531 16.5333 16.7548 16.441 16.8878C15.9795 17.54 15.5164 18.1912 15.0515 18.8414C15.0442 18.8517 15.0364 18.8617 15.0289 18.8719C15.0023 18.8719 15.0062 18.852 15.0038 18.8381C15.0014 18.8172 15.0009 18.7961 15.0021 18.7751C15.0021 18.0559 15.0049 17.3368 14.9997 16.6177C14.9955 16.5558 15.0119 16.4941 15.0469 16.4407C15.0818 16.3873 15.1336 16.3446 15.1956 16.3182C15.8058 16.0029 16.4121 15.6812 17.0203 15.3627C17.2918 15.2206 17.5641 15.0798 17.8336 14.9347C17.8843 14.9039 17.9439 14.8875 18.005 14.8875C18.066 14.8875 18.1257 14.9039 18.1764 14.9347C18.6719 15.1983 19.1718 15.4557 19.6699 15.7155C20.0456 15.9115 20.4215 16.1072 20.7975 16.3026C20.8244 16.3165 20.8506 16.3313 20.8777 16.345C20.9216 16.3662 20.958 16.3984 20.9825 16.4377C21.0069 16.477 21.0185 16.5218 21.0157 16.5669C21.0164 17.3491 21.0164 18.1314 21.0157 18.9136C21.0175 18.9329 21.0152 18.9522 21.0089 18.9707C20.979 18.9968 20.9683 18.9675 20.9574 18.9536C20.9126 18.8965 20.8724 18.8364 20.8308 18.7773C20.4976 18.3047 20.1633 17.8326 19.8278 17.3612C19.7151 17.2019 19.601 17.0432 19.4894 16.8832C19.4634 16.8459 19.4587 16.8453 19.4327 16.8854C19.2644 17.1435 19.0962 17.4015 18.9281 17.6597C18.9189 17.674 18.9149 17.6907 18.9168 17.7072C18.9186 17.7237 18.9262 17.7393 18.9384 17.7517C19.077 17.9543 19.2153 18.1571 19.3534 18.36L20.0613 19.3977C20.1568 19.5379 20.2525 19.678 20.3483 19.818C20.3661 19.8368 20.3761 19.8606 20.3766 19.8853C20.3574 19.9198 20.3175 19.9295 20.2842 19.9452C20.2297 19.9809 20.1697 20.0093 20.1062 20.0294C20.0719 20.0217 20.0598 19.9937 20.0435 19.9707C19.8244 19.661 19.608 19.3496 19.3903 19.039C19.1663 18.7198 18.9435 18.3994 18.7186 18.0805C18.6897 18.0396 18.6851 18.0394 18.658 18.0805C18.4624 18.3788 18.2694 18.6785 18.0733 18.9764C18.0633 18.9904 18.0584 19.0069 18.0592 19.0235C18.0601 19.0402 18.0667 19.0561 18.0782 19.0692C18.3423 19.4382 18.6004 19.8104 18.8618 20.1812C18.9347 20.2845 19.0081 20.3875 19.0797 20.4916C19.0937 20.5118 19.1128 20.532 19.1001 20.5594C19.0315 20.6078 18.9575 20.6495 18.8792 20.6838C18.6351 20.8126 18.3908 20.9411 18.1465 21.0695C18.1073 21.0924 18.0617 21.1046 18.0151 21.1046C17.9685 21.1046 17.9229 21.0924 17.8838 21.0695C17.5238 20.8808 17.1632 20.6929 16.8019 20.5059C16.777 20.4969 16.7555 20.4817 16.7398 20.4621V20.4621Z" fill="#2D374B"/>
<path d="M20.9981 18.9785C20.9987 18.9592 20.9997 18.94 20.9997 18.9207C20.9997 18.1402 21 17.3598 21.0006 16.5793C21.0036 16.532 20.9914 16.4849 20.9653 16.4438C20.9392 16.4027 20.9005 16.3694 20.8538 16.3479C19.9495 15.8781 19.0458 15.4072 18.1427 14.9353C18.1021 14.9113 18.0546 14.8985 18.0061 14.8984C17.9576 14.8982 17.9101 14.9108 17.8693 14.9346C17.3678 15.1987 16.8657 15.4622 16.3629 15.7249C15.9595 15.9366 15.5562 16.1482 15.1528 16.36C15.1098 16.3802 15.074 16.4113 15.05 16.4495C15.0259 16.4877 15.0146 16.5314 15.0173 16.5753C15.0193 17.3242 15.0205 18.0731 15.0208 18.822C15.0208 18.8386 15.0133 18.8572 15.0294 18.8719C14.9338 19.016 14.8289 19.1545 14.7283 19.2956C14.6779 19.3662 14.6273 19.4367 14.5765 19.5071C14.5684 19.5183 14.559 19.5287 14.543 19.5488C14.5418 19.5252 14.5405 19.5122 14.5405 19.4992C14.5405 18.5116 14.5407 17.524 14.5411 16.5364C14.5385 16.4268 14.5692 16.3186 14.6299 16.2238C14.6906 16.1289 14.7789 16.0511 14.8852 15.9988C15.2359 15.81 15.5913 15.6284 15.9443 15.443C16.2421 15.2867 16.539 15.1292 16.8366 14.9726C17.1143 14.8266 17.3891 14.6761 17.6714 14.538C17.7795 14.4834 17.9018 14.4562 18.0256 14.4591C18.1493 14.462 18.2699 14.495 18.3747 14.5545C18.6016 14.6712 18.8275 14.79 19.0537 14.9078C19.2665 15.0188 19.4793 15.1299 19.692 15.241C19.8881 15.3433 20.0842 15.4455 20.2804 15.5475C20.4749 15.6488 20.6694 15.75 20.8639 15.8511C20.9494 15.8956 21.0348 15.9402 21.1198 15.9856C21.2136 16.0336 21.2942 16.1003 21.3557 16.1805C21.4172 16.2606 21.458 16.3524 21.475 16.4488C21.4791 16.4766 21.4803 16.5048 21.4787 16.5328C21.4787 17.5046 21.4789 18.4764 21.4791 19.4483C21.4797 19.5406 21.4577 19.6319 21.4148 19.7156C21.3718 19.7994 21.3089 19.8735 21.2307 19.9326C21.186 19.9635 21.138 19.9901 21.0874 20.0122C20.7968 20.1658 20.5059 20.3188 20.2145 20.4711C19.9049 20.6334 19.5951 20.7955 19.2852 20.9572C18.9875 21.1136 18.6901 21.2705 18.3929 21.4279C18.319 21.473 18.2357 21.5042 18.1482 21.5194C18.0027 21.5452 17.852 21.5278 17.7183 21.4699C17.5701 21.3979 17.4258 21.3197 17.2797 21.2439C17.0835 21.1419 16.8874 21.0397 16.6915 20.9373C16.6361 20.9084 16.5807 20.8797 16.5252 20.8512C16.5049 20.8407 16.491 20.8301 16.5069 20.806C16.5802 20.6947 16.6523 20.5827 16.7253 20.4712C16.7279 20.4672 16.7344 20.4653 16.7391 20.4623C16.8071 20.4911 16.8729 20.5239 16.9362 20.5605C17.2563 20.7264 17.5759 20.8931 17.895 21.0607C17.9319 21.0818 17.9747 21.0928 18.0183 21.0924C18.062 21.092 18.1045 21.0801 18.1409 21.0583C18.444 20.8971 18.7486 20.7383 19.0526 20.5786C19.0677 20.5707 19.0831 20.5635 19.0984 20.5561C19.127 20.5229 19.1653 20.4976 19.2089 20.483C19.4836 20.3404 19.7562 20.1949 20.0307 20.0527C20.0537 20.0408 20.0743 20.0226 20.1042 20.0256L20.3732 19.8844C20.3896 19.8533 20.4246 19.8432 20.454 19.8278C20.5894 19.757 20.7235 19.6843 20.86 19.6157C20.8995 19.5969 20.9322 19.5681 20.9541 19.5328C20.976 19.4976 20.9862 19.4573 20.9835 19.4169C20.9849 19.2928 20.9835 19.1687 20.9842 19.0445C20.9794 19.0217 20.9844 18.9981 20.9981 18.9785V18.9785Z" fill="#96BEDC"/>
<path d="M20.9985 18.9785C20.9992 19.1326 21.003 19.2869 20.9992 19.4407C21.0002 19.4768 20.9903 19.5124 20.9704 19.5436C20.9504 19.5748 20.9214 19.6005 20.8864 19.6176C20.7152 19.7055 20.5471 19.7983 20.3743 19.8838C20.3056 19.7702 20.2262 19.662 20.1511 19.5516C19.7611 18.9787 19.3706 18.4061 18.9797 17.8339C18.9563 17.7996 18.9348 17.764 18.9087 17.7316C18.9002 17.7223 18.8955 17.7106 18.8955 17.6985C18.8955 17.6864 18.9002 17.6747 18.9087 17.6654C19.002 17.524 19.0938 17.3817 19.1861 17.2397L19.4425 16.8456C19.447 16.8362 19.455 16.8286 19.4651 16.824C19.5097 16.8862 19.5546 16.9491 19.5995 17.0119C19.8692 17.3925 20.1389 17.773 20.4084 18.1535C20.5912 18.4117 20.774 18.6699 20.9568 18.9281C20.9668 18.9473 20.981 18.9644 20.9985 18.9785V18.9785Z" fill="#28A0F0"/>
<path d="M20.1049 20.0251C19.9936 20.0913 19.8755 20.1476 19.7608 20.209C19.5527 20.3199 19.3433 20.4287 19.1346 20.5383C19.1226 20.5444 19.1107 20.5501 19.0992 20.556C19.0965 20.5385 19.0882 20.5221 19.0753 20.5089C18.8894 20.2441 18.7034 19.9794 18.5175 19.7147C18.3647 19.4974 18.2114 19.2802 18.0578 19.0633C18.0474 19.0521 18.0413 19.038 18.0406 19.0234C18.0399 19.0087 18.0445 18.9942 18.0537 18.9822C18.2591 18.6687 18.4637 18.3547 18.6674 18.0402C18.6722 18.033 18.6761 18.0245 18.6881 18.0222C18.7048 18.0256 18.7089 18.0408 18.7168 18.0521C19.087 18.5805 19.4571 19.1089 19.8273 19.6373C19.906 19.7498 19.9844 19.8625 20.0636 19.9748C20.0737 19.9938 20.0877 20.0109 20.1048 20.0252L20.1049 20.0251Z" fill="#28A0F0"/>
</g>
<defs>
<linearGradient id="paint0_linear_2909_687" x1="11" y1="0" x2="11" y2="22" gradientUnits="userSpaceOnUse">
<stop stop-color="#34457F"/>
<stop offset="1" stop-color="#142356"/>
</linearGradient>
<clipPath id="clip0_2909_687">
<rect width="24" height="24" fill="white"/>
</clipPath>
</defs>
</svg>
