<svg xmlns="http://www.w3.org/2000/svg" width="48" height="48" fill="none" viewBox="0 0 48 48"><g clip-path="url(#clip0_642_71)"><path fill="#2775CA" d="M22 44C34.1924 44 44 34.1924 44 22C44 9.8076 34.1924 0 22 0C9.8076 0 0 9.8076 0 22C0 34.1924 9.8076 44 22 44Z"/><path fill="#fff" d="M28.0502 25.4826C28.0502 22.275 26.1252 21.175 22.2752 20.7152C19.5252 20.3478 18.9752 19.6152 18.9752 18.3326C18.9752 17.05 19.8926 16.225 21.7252 16.225C23.3752 16.225 24.2926 16.775 24.7502 18.15C24.8426 18.425 25.1176 18.6076 25.3926 18.6076H26.86C27.2274 18.6076 27.5024 18.3326 27.5024 17.9652V17.8728C27.135 15.8554 25.485 14.2978 23.3774 14.1152V11.9152C23.3774 11.5478 23.1024 11.2728 22.6448 11.1826H21.2698C20.9024 11.1826 20.6274 11.4576 20.5372 11.9152V14.0228C17.7872 14.3902 16.0448 16.2228 16.0448 18.5152C16.0448 21.5402 17.8774 22.7326 21.7274 23.1902C24.2948 23.6478 25.1198 24.1978 25.1198 25.6652C25.1198 27.1326 23.8372 28.1402 22.0948 28.1402C19.7122 28.1402 18.8872 27.1326 18.6122 25.7576C18.5198 25.3902 18.2448 25.2076 17.9698 25.2076H16.4122C16.0448 25.2076 15.7698 25.4826 15.7698 25.85V25.9424C16.1372 28.2348 17.6024 29.8848 20.6274 30.3424V32.5424C20.6274 32.9098 20.9024 33.1848 21.36 33.275H22.735C23.1024 33.275 23.3774 33 23.4676 32.5424V30.3424C26.2154 29.8826 28.0502 27.9576 28.0502 25.4826Z"/><path fill="#fff" d="M17.3252 35.1076C10.1752 32.5402 6.50779 24.5652 9.16759 17.5076C10.5426 13.6576 13.5676 10.725 17.3252 9.35002C17.6926 9.16742 17.8752 8.89242 17.8752 8.43262V7.15002C17.8752 6.78262 17.6926 6.50762 17.3252 6.41742C17.2328 6.41742 17.0502 6.41742 16.9578 6.50982C8.25019 9.25982 3.48279 18.5174 6.23279 27.2272C7.88279 32.3598 11.8252 36.3022 16.9578 37.9522C17.3252 38.1348 17.6904 37.9522 17.7828 37.5848C17.8752 37.4924 17.8752 37.4022 17.8752 37.2174V35.9348C17.8752 35.6576 17.6002 35.2924 17.3252 35.1076ZM27.0404 6.50762C26.673 6.32502 26.3078 6.50762 26.2154 6.87502C26.123 6.96742 26.123 7.05762 26.123 7.24242V8.52502C26.123 8.89242 26.398 9.25762 26.673 9.44242C33.823 12.0098 37.4904 19.9848 34.8306 27.0424C33.4556 30.8924 30.4306 33.825 26.673 35.2C26.3056 35.3826 26.123 35.6576 26.123 36.1174V37.4C26.123 37.7674 26.3056 38.0424 26.673 38.1326C26.7654 38.1326 26.948 38.1326 27.0404 38.0402C35.748 35.2902 40.5154 26.0326 37.7654 17.3228C36.1154 12.1 32.0828 8.15762 27.0404 6.50762Z"/><path fill="#fff" d="M44.1601 27.36H30.7201C28.8644 27.36 27.3601 28.8643 27.3601 30.72V44.16C27.3601 46.0157 28.8644 47.52 30.7201 47.52H44.1601C46.0158 47.52 47.5201 46.0157 47.5201 44.16V30.72C47.5201 28.8643 46.0158 27.36 44.1601 27.36Z"/><path fill="#F3F4F5" fill-opacity=".4" d="M44 27H31C28.7909 27 27 28.7909 27 31V44C27 46.2091 28.7909 48 31 48H44C46.2091 48 48 46.2091 48 44V31C48 28.7909 46.2091 27 44 27Z"/><g clip-path="url(#clip1_642_71)"><path fill="#E84142" d="M37.5 45.5C41.9183 45.5 45.5 41.9183 45.5 37.5C45.5 33.0817 41.9183 29.5 37.5 29.5C33.0817 29.5 29.5 33.0817 29.5 37.5C29.5 41.9183 33.0817 45.5 37.5 45.5Z"/><path fill="#fff" d="M39.8235 37.5984C40.0517 37.2042 40.4199 37.2042 40.6481 37.5984L42.0692 40.093C42.2974 40.4872 42.1107 40.8088 41.6543 40.8088H38.7913C38.3401 40.8088 38.1534 40.4872 38.3764 40.093L39.8235 37.5984ZM37.0746 32.7957C37.3028 32.4015 37.6659 32.4015 37.8941 32.7957L38.2105 33.3662L38.9573 34.6784C39.1388 35.0518 39.1388 35.4926 38.9573 35.8661L36.4523 40.2071C36.2241 40.5598 35.8454 40.7828 35.4253 40.8088H33.3456C32.8892 40.8088 32.7024 40.4924 32.9306 40.093L37.0746 32.7957Z"/></g><path stroke="#E8EAED" d="M30.5 27.5H44.5C46.1569 27.5 47.5 28.8431 47.5 30.5V44.5C47.5 46.1568 46.1569 47.5 44.5 47.5H30.5C28.8431 47.5 27.5 46.1568 27.5 44.5V30.5C27.5 28.8431 28.8431 27.5 30.5 27.5Z"/></g><defs><clipPath id="clip0_642_71"><rect width="48" height="48" fill="#fff"/></clipPath><clipPath id="clip1_642_71"><rect width="16" height="16" fill="#fff" transform="translate(29.5 29.5)"/></clipPath></defs></svg>