<svg xmlns="http://www.w3.org/2000/svg" width="50" height="50" style="enable-background:new 0 0 50 50" xml:space="preserve"><path d="m.4 43.6 14.7-8.5 10.1-17.5V.7c-.3 0-.5.2-.7.5L12.5 22 .5 42.7c-.2.4-.2.7-.1.9" style="fill-rule:evenodd;clip-rule:evenodd;fill:#ff4724"/><path d="M25.2.7v16.9l10.1 17.5L50 43.6c.1-.2.1-.5-.1-.9L37.9 22l-12-20.7c-.2-.4-.5-.6-.7-.6" style="fill-rule:evenodd;clip-rule:evenodd;fill:#9e1f63"/><path d="m49.9 43.6-14.7-8.5H15.1L.4 43.6c.1.3.4.4.8.4h47.9c.4 0 .7-.1.8-.4" style="fill-rule:evenodd;clip-rule:evenodd;fill:#662d91"/><path d="M15.1 35.1h20.2L25.2 17.6 15.1 35.1z" style="fill-rule:evenodd;clip-rule:evenodd;fill:#fff"/><path d="M32 28.5h14c1.9 0 3.5 1.6 3.5 3.5v14c0 1.9-1.6 3.5-3.5 3.5H32c-1.9 0-3.5-1.6-3.5-3.5V32c0-1.9 1.6-3.5 3.5-3.5z" style="fill:#f5f8fb"/><linearGradient id="a" gradientUnits="userSpaceOnUse" x1="43.916" y1="19.576" x2="37.252" y2="5.57" gradientTransform="matrix(1 0 0 -1 0 52)"><stop offset="0" style="stop-color:#00ffa3"/><stop offset="1" style="stop-color:#dc1fff"/></linearGradient><path d="M34.3 41.6c.1-.1.2-.1.3-.1h11.2c.2 0 .3.2.2.4l-2.2 2c-.2.1-.3.1-.4.1H32.2c-.2 0-.3-.2-.2-.4l2.3-2z" style="fill:url(#a)"/><linearGradient id="b" gradientUnits="userSpaceOnUse" x1="41.002" y1="20.963" x2="34.337" y2="6.957" gradientTransform="matrix(1 0 0 -1 0 52)"><stop offset="0" style="stop-color:#00ffa3"/><stop offset="1" style="stop-color:#dc1fff"/></linearGradient><path d="M34.3 34.1c.1-.1.2-.1.3-.1h11.2c.2 0 .3.2.2.4l-2.2 2c-.1.1-.2.1-.3.1H32.2c-.2 0-.3-.2-.2-.4l2.3-2z" style="fill:url(#b)"/><linearGradient id="c" gradientUnits="userSpaceOnUse" x1="42.45" y1="20.274" x2="35.785" y2="6.268" gradientTransform="matrix(1 0 0 -1 0 52)"><stop offset="0" style="stop-color:#00ffa3"/><stop offset="1" style="stop-color:#dc1fff"/></linearGradient><path d="M43.7 37.9c-.1-.1-.2-.1-.3-.1H32.2c-.2 0-.3.2-.2.4l2.2 2c.1.1.2.1.3.1h11.2c.2 0 .3-.2.2-.4l-2.2-2z" style="fill:url(#c)"/><path d="M32 28.5h14c1.9 0 3.5 1.6 3.5 3.5v14c0 1.9-1.6 3.5-3.5 3.5H32c-1.9 0-3.5-1.6-3.5-3.5V32c0-1.9 1.6-3.5 3.5-3.5z" style="fill:none;stroke:#e8eaed"/></svg>