<svg width="24" height="24" viewBox="0 0 24 24" fill="none" xmlns="http://www.w3.org/2000/svg">
<g clip-path="url(#clip0_2450_574)">
<path d="M11 22C17.0751 22 22 17.0751 22 11C22 4.92487 17.0751 0 11 0C4.92487 0 0 4.92487 0 11C0 17.0751 4.92487 22 11 22Z" fill="url(#paint0_linear_2450_574)"/>
<path d="M15.4111 12.1118C16.4925 11.329 17.12 10.0859 17.1 8.74324C17.067 6.5242 15.1836 4.71899 12.902 4.71899H12.858L12.1047 7.53059H12.6799C13.018 7.53059 13.3423 7.66491 13.5814 7.904C13.8204 8.14309 13.9548 8.46737 13.9548 8.80549C13.9548 9.14362 13.8204 9.4679 13.5814 9.70699C13.3423 9.94608 13.018 10.0804 12.6799 10.0804H11.4212L10.668 12.892H12.5071L14.5516 16.687H17.9315L15.4111 12.1118Z" fill="white"/>
<path d="M7.92111 12.892H9.67868L10.4321 10.0804H7.92111V7.53059H11.1154L11.8691 4.71899H6.15605C5.79855 4.71899 5.4557 4.86101 5.20291 5.1138C4.95012 5.36658 4.80811 5.70944 4.80811 6.06693V15.3391C4.80811 15.6966 4.95012 16.0394 5.20291 16.2922C5.4557 16.545 5.79855 16.687 6.15605 16.687H7.92111V12.892Z" fill="white"/>
<path d="M21.4 13H14.68C14.2344 13 13.8071 13.177 13.4921 13.4921C13.177 13.8071 13 14.2344 13 14.68V21.4C13 21.8456 13.177 22.2729 13.4921 22.5879C13.8071 22.903 14.2344 23.08 14.68 23.08H21.4C21.8456 23.08 22.2729 22.903 22.5879 22.5879C22.903 22.2729 23.08 21.8456 23.08 21.4V14.68C23.08 14.2344 22.903 13.8071 22.5879 13.4921C22.2729 13.177 21.8456 13 21.4 13V13Z" fill="#F5F8FB"/>
<path d="M21.4 13H14.68C14.2344 13 13.8071 13.177 13.4921 13.4921C13.177 13.8071 13 14.2344 13 14.68V21.4C13 21.8456 13.177 22.2729 13.4921 22.5879C13.8071 22.903 14.2344 23.08 14.68 23.08H21.4C21.8456 23.08 22.2729 22.903 22.5879 22.5879C22.903 22.2729 23.08 21.8456 23.08 21.4V14.68C23.08 14.2344 22.903 13.8071 22.5879 13.4921C22.2729 13.177 21.8456 13 21.4 13V13Z" stroke="#E8EAED"/>
<path d="M16.8347 17.5212L18 16.356L19.1658 17.5218L19.8438 16.8438L18 15L16.1568 16.8432L16.8348 17.5212L16.8347 17.5212ZM15 18L15.678 17.3219L16.356 17.9999L15.678 18.6779L15 18ZM16.8347 18.4788L18 19.644L19.1658 18.4783L19.8441 19.1559L19.8438 19.1563L18 21L16.1568 19.1568L16.1558 19.1558L16.8348 18.4788L16.8347 18.4788ZM19.644 18.0003L20.322 17.3223L21 18.0002L20.322 18.6783L19.644 18.0003Z" fill="#F3BA2F"/>
<path d="M18.6875 17.9996H18.6878L17.9999 17.3116L17.4914 17.82L17.433 17.8784L17.3125 17.9989L17.3115 17.9999L17.3125 18.0009L17.9999 18.6884L18.6878 18.0004L18.6882 18L18.6875 17.9996" fill="#F3BA2F"/>
</g>
<defs>
<linearGradient id="paint0_linear_2450_574" x1="3.22179" y1="3.22179" x2="18.7782" y2="18.7782" gradientUnits="userSpaceOnUse">
<stop offset="0.03" stop-color="#F95BFF"/>
<stop offset="0.1" stop-color="#D147E9"/>
<stop offset="0.19" stop-color="#AB34D4"/>
<stop offset="0.28" stop-color="#8B24C3"/>
<stop offset="0.38" stop-color="#7117B4"/>
<stop offset="0.49" stop-color="#5C0DA9"/>
<stop offset="0.61" stop-color="#4E05A1"/>
<stop offset="0.76" stop-color="#46019C"/>
<stop offset="1" stop-color="#43009B"/>
</linearGradient>
<clipPath id="clip0_2450_574">
<rect width="24" height="24" fill="white"/>
</clipPath>
</defs>
</svg>
