<svg width="50" height="50" fill="none" xmlns="http://www.w3.org/2000/svg">
  <path d="M0 23.5a23.5 23.5 0 1047.001 0A23.5 23.5 0 000 23.5z" fill="#F5F8FB"/>
  <path fill-rule="evenodd" clip-rule="evenodd" d="M14.918 11.75h9.117c5.545 0 9.749 2.978 11.313 7.311h2.84v2.62h-2.242c.044.413.066.835.066 1.263v.065c0 .482-.028.956-.084 1.42h2.26v2.62h-2.894c-1.605 4.272-5.776 7.222-11.26 7.222h-9.116v-7.223H11.75V24.43h3.168v-2.75H11.75v-2.619h3.168V11.75zm2.549 15.298v4.873h6.568c4.053 0 7.064-1.951 8.466-4.873H17.467zm15.815-2.619H17.467V21.68h15.819a10 10 0 01.088 1.329v.064c0 .462-.03.915-.092 1.356zm-9.247-10.333c4.072 0 7.092 2.003 8.485 4.965H17.467v-4.965h6.568z" fill="url(#DAI_+_Polygon_Chain__paint0_linear)"/>
  <path d="M46 28.5H32a3.5 3.5 0 00-3.5 3.5v14a3.5 3.5 0 003.5 3.5h14a3.5 3.5 0 003.5-3.5V32a3.5 3.5 0 00-3.5-3.5z" fill="#F5F8FB"/>
  <path d="M42.573 36.654a.943.943 0 00-.875 0l-2.042 1.182-1.385.752-2.005 1.182a.943.943 0 01-.875 0l-1.568-.931a.87.87 0 01-.438-.752v-1.791a.88.88 0 01.438-.752l1.568-.896a.944.944 0 01.875 0l1.567.931a.87.87 0 01.438.752v1.183l1.385-.789v-1.217a.88.88 0 00-.437-.753l-2.917-1.683a.943.943 0 00-.875 0l-2.99 1.72a.786.786 0 00-.437.716v3.367a.88.88 0 00.438.752l2.953 1.684a.943.943 0 00.875 0l2.005-1.147 1.385-.788 2.005-1.146a.943.943 0 01.875 0l1.568.896a.87.87 0 01.438.752v1.79a.88.88 0 01-.438.753l-1.531.896a.943.943 0 01-.875 0l-1.568-.896a.87.87 0 01-.437-.752v-1.146l-1.386.788v1.182a.88.88 0 00.438.752l2.953 1.684a.943.943 0 00.875 0l2.953-1.684a.87.87 0 00.438-.752V39.09a.88.88 0 00-.438-.753l-2.953-1.683z" fill="#8247E5"/>
  <path d="M46 28.5H32a3.5 3.5 0 00-3.5 3.5v14a3.5 3.5 0 003.5 3.5h14a3.5 3.5 0 003.5-3.5V32a3.5 3.5 0 00-3.5-3.5z" stroke="#E8EAED"/>
  <defs>
    <linearGradient id="DAI_+_Polygon_Chain__paint0_linear" x1="36.295" y1="36.523" x2="12.095" y2="11.418" gradientUnits="userSpaceOnUse">
      <stop stop-color="#F4B731"/>
      <stop offset="1" stop-color="#FFCE45"/>
    </linearGradient>
  </defs>
</svg>
