<svg width="48" height="48" viewBox="0 0 48 48" fill="none" xmlns="http://www.w3.org/2000/svg">
<path d="M0 24C-4.69644e-08 27.1517 0.620778 30.2726 1.82689 33.1844C3.033 36.0962 4.80083 38.742 7.02944 40.9706C9.25804 43.1992 11.9038 44.967 14.8156 46.1731C17.7274 47.3792 20.8483 48 24 48C27.1517 48 30.2726 47.3792 33.1844 46.1731C36.0962 44.967 38.742 43.1992 40.9706 40.9706C43.1992 38.742 44.967 36.0962 46.1731 33.1844C47.3792 30.2726 48 27.1517 48 24C48 20.8483 47.3792 17.7274 46.1731 14.8156C44.967 11.9038 43.1992 9.25804 40.9706 7.02944C38.742 4.80083 36.0962 3.033 33.1844 1.82689C30.2726 0.620778 27.1517 0 24 0C20.8483 0 17.7274 0.620778 14.8156 1.82689C11.9038 3.033 9.25804 4.80083 7.02944 7.02944C4.80083 9.25804 3.033 11.9038 1.82689 14.8156C0.620778 17.7274 -4.69644e-08 20.8483 0 24" fill="white"/>
<path fill-rule="evenodd" clip-rule="evenodd" d="M15.2354 12H24.5461C30.2096 12 34.5026 15.0413 36.0997 19.4667H39V22.1415H36.7104C36.7552 22.5642 36.7781 22.9948 36.7781 23.4324V23.498C36.7781 23.9906 36.7492 24.4748 36.6926 24.9491H39V27.6238H36.0445C34.4053 31.9877 30.1456 35 24.5461 35H15.2354V27.6238H12V24.9491H15.2354V22.1415H12V19.4667H15.2354V12ZM17.8383 27.6238V32.6005H24.5461C28.6855 32.6005 31.7609 30.6073 33.1925 27.6238H17.8383ZM33.9899 24.9491H17.8383V22.1415H33.994C34.0539 22.5834 34.0844 23.0363 34.0844 23.498V23.5637C34.0844 24.0362 34.0525 24.4987 33.9899 24.9491ZM24.5461 14.3955C28.7046 14.3955 31.7892 16.4413 33.2121 19.4667H17.8383V14.3955H24.5461Z" fill="url(#paint0_linear)"/>
<defs>
<linearGradient id="paint0_linear" x1="37.067" y1="37.3" x2="12.3522" y2="11.6605" gradientUnits="userSpaceOnUse">
<stop stop-color="#F4B731"/>
<stop offset="1" stop-color="#FFCE45"/>
</linearGradient>
</defs>
</svg>
