<svg xmlns="http://www.w3.org/2000/svg" xmlns:xlink="http://www.w3.org/1999/xlink" id="Layer_1" x="0" y="0" version="1.1" viewBox="0 0 72.7 80.9" xml:space="preserve" style="enable-background:new 0 0 72.7 80.9"><style type="text/css">.st0{fill:url(#SVGID_1_)}.st1{fill:#a0a8d4}</style><g><g id="Layer_1_00000049216471798175502890000006318023516466656703_"><linearGradient id="SVGID_1_" x1="42.042" x2="12.66" y1="762.588" y2="794.44" gradientTransform="matrix(1 0 0 1 -6 -761.64)" gradientUnits="userSpaceOnUse"><stop offset=".58" style="stop-color:#a0a8d4"/><stop offset=".73" style="stop-color:#8791c7"/><stop offset=".91" style="stop-color:#6470b4"/></linearGradient><path d="M9.3,32.8c0.8,1.7,2.8,5.1,2.8,5.1L35,0L12.7,15.6c-1.3,0.9-2.4,2.1-3.2,3.5C7.4,23.4,7.4,28.4,9.3,32.8z" class="st0"/><path d="M0.3,45.2c0.5,7.3,4.2,14.1,10,18.5L35,80.9c0,0-15.5-22.3-28.5-44.5c-1.3-2.3-2.2-4.9-2.6-7.6 c-0.2-1.2-0.2-2.4,0-3.6c-0.3,0.6-1,1.9-1,1.9c-1.3,2.7-2.2,5.6-2.7,8.6C-0.1,38.9-0.1,42.1,0.3,45.2z" class="st1"/><linearGradient id="SVGID_00000041290057621389763610000007807030157455862694_" x1="42.659" x2="72.029" y1="841.659" y2="809.829" gradientTransform="matrix(1 0 0 1 -6 -761.64)" gradientUnits="userSpaceOnUse"><stop offset=".58" style="stop-color:#a0a8d4"/><stop offset=".73" style="stop-color:#8791c7"/><stop offset=".91" style="stop-color:#6470b4"/></linearGradient><path style="fill:url(#SVGID_00000041290057621389763610000007807030157455862694_)" d="M63.3,48.2c-0.8-1.7-2.8-5.1-2.8-5.1 L37.6,80.9L60,65.4c1.3-0.9,2.4-2.1,3.2-3.5C65.2,57.6,65.3,52.6,63.3,48.2z"/><path d="M72.4,35.7c-0.5-7.3-4.2-14.1-10-18.5L37.7,0c0,0,15.5,22.3,28.5,44.5c1.3,2.3,2.2,4.9,2.6,7.6 c0.2,1.2,0.2,2.4,0,3.6c0.3-0.6,1-1.9,1-1.9c1.3-2.7,2.2-5.6,2.7-8.5C72.7,42,72.7,38.9,72.4,35.7z" class="st1"/><linearGradient id="SVGID_00000083789650806173036420000010692886349605777067_" x1="42.323" x2="42.323" y1="761.24" y2="842.84" gradientTransform="matrix(1 0 0 1 -6 -761.64)" gradientUnits="userSpaceOnUse"><stop offset="0" style="stop-color:#513eff"/><stop offset=".18" style="stop-color:#5157ff"/><stop offset=".57" style="stop-color:#5298ff"/><stop offset="1" style="stop-color:#52e5ff"/></linearGradient><path style="fill:url(#SVGID_00000083789650806173036420000010692886349605777067_)" d="M9.5,19.1c0.8-1.4,1.8-2.6,3.2-3.5L35,0 L12.1,37.8c0,0-2-3.4-2.8-5.1C7.4,28.4,7.4,23.4,9.5,19.1z M0.3,45.2c0.5,7.3,4.2,14.1,10,18.5L35,80.9c0,0-15.5-22.3-28.5-44.5 c-1.3-2.3-2.2-4.9-2.6-7.6c-0.2-1.2-0.2-2.4,0-3.6c-0.3,0.6-1,1.9-1,1.9c-1.3,2.7-2.2,5.6-2.7,8.6C-0.1,38.9-0.1,42.1,0.3,45.2z M63.3,48.2c-0.8-1.7-2.8-5.1-2.8-5.1L37.6,80.9L60,65.4c1.3-0.9,2.4-2.1,3.2-3.5C65.2,57.6,65.3,52.6,63.3,48.2L63.3,48.2z M72.3,35.8c-0.5-7.3-4.2-14.1-10-18.5L37.7,0c0,0,15.5,22.3,28.5,44.5c1.3,2.3,2.2,4.9,2.6,7.6c0.2,1.2,0.2,2.4,0,3.6 c0.3-0.6,1-1.9,1-1.9c1.3-2.7,2.2-5.6,2.7-8.5C72.7,42,72.7,38.9,72.3,35.8L72.3,35.8z"/></g></g></svg>