<svg xmlns="http://www.w3.org/2000/svg" width="50" height="50" fill="none" viewBox="0 0 50 50"><g clip-path="url(#clip0)"><path fill="#F5F8FB" d="M0 23.5C-4.5986e-08 26.586 0.607845 29.6419 1.78883 32.4931C2.96981 35.3442 4.70081 37.9349 6.88299 40.117C9.06516 42.2992 11.6558 44.0302 14.5069 45.2112C17.3581 46.3921 20.414 47 23.5 47C26.586 47 29.6419 46.3921 32.4931 45.2112C35.3442 44.0302 37.9349 42.2992 40.117 40.117C42.2992 37.9349 44.0302 35.3442 45.2112 32.4931C46.3921 29.6419 47 26.586 47 23.5C47 20.414 46.3921 17.3581 45.2112 14.5069C44.0302 11.6558 42.2992 9.06516 40.117 6.88299C37.9349 4.70081 35.3442 2.96981 32.4931 1.78883C29.6419 0.607845 26.586 0 23.5 0C20.414 0 17.3581 0.607845 14.5069 1.78883C11.6558 2.96981 9.06516 4.70081 6.88299 6.88299C4.70081 9.06516 2.96981 11.6558 1.78883 14.5069C0.607845 17.3581 -4.5986e-08 20.414 0 23.5Z"/><path fill="url(#paint0_linear)" d="M23.5 47C36.4787 47 47 36.4787 47 23.5C47 10.5213 36.4787 0 23.5 0C10.5213 0 0 10.5213 0 23.5C0 36.4787 10.5213 47 23.5 47Z"/><path fill="#fff" d="M32.7763 23.5001L23.4999 8.65796L14.2236 23.5001L23.4999 29.0659L32.7763 23.5001Z"/><path fill="#A5ABC1" d="M32.7763 25.3552L23.4999 30.921L14.2236 25.3552L23.4999 37.7236L32.7763 25.3552Z"/></g><rect width="21" height="21" x="28.5" y="28.5" fill="#fff" rx="3.5"/><path fill="#1C60FF" d="M39.9528 38.915L41.0582 40.6676L37.0405 43.8701L45.1362 38.9463V38.915H39.9528Z"/><path fill="#1C60FF" d="M36.9298 43.9351V34.168L32.8306 40.6676L36.9298 43.9351Z"/><rect width="21" height="21" x="28.5" y="28.5" stroke="#E8EAED" rx="3.5"/><defs><linearGradient id="paint0_linear" x1="23.5" x2="23.5" y1="0" y2="47" gradientUnits="userSpaceOnUse"><stop stop-color="#34457F"/><stop offset="1" stop-color="#142356"/></linearGradient><clipPath id="clip0"><rect width="47" height="47" fill="#fff"/></clipPath></defs></svg>