<svg xmlns="http://www.w3.org/2000/svg" width="50" height="50" fill="none" viewBox="0 0 50 50"><rect width="50" height="50" fill="transparent"/><g clip-path="url(#clip0)"><path fill="#F5F8FB" d="M0 23.5C-4.5986e-08 26.586 0.607845 29.6419 1.78883 32.4931C2.96981 35.3442 4.70081 37.9349 6.88299 40.117C9.06516 42.2992 11.6558 44.0302 14.5069 45.2112C17.3581 46.3921 20.414 47 23.5 47C26.586 47 29.6419 46.3921 32.4931 45.2112C35.3442 44.0302 37.9349 42.2992 40.117 40.117C42.2992 37.9349 44.0302 35.3442 45.2112 32.4931C46.3921 29.6419 47 26.586 47 23.5C47 20.414 46.3921 17.3581 45.2112 14.5069C44.0302 11.6558 42.2992 9.06516 40.117 6.88299C37.9349 4.70081 35.3442 2.96981 32.4931 1.78883C29.6419 0.607845 26.586 0 23.5 0C20.414 0 17.3581 0.607845 14.5069 1.78883C11.6558 2.96981 9.06516 4.70081 6.88299 6.88299C4.70081 9.06516 2.96981 11.6558 1.78883 14.5069C0.607845 17.3581 -4.5986e-08 20.414 0 23.5Z"/><path fill="url(#paint0_linear)" d="M23.5 47C36.4787 47 47 36.4787 47 23.5C47 10.5213 36.4787 0 23.5 0C10.5213 0 0 10.5213 0 23.5C0 36.4787 10.5213 47 23.5 47Z"/><path fill="#fff" d="M32.7763 23.4998L23.4999 8.65771L14.2236 23.4998L23.4999 29.0656L32.7763 23.4998Z"/><path fill="#A5ABC1" d="M32.7763 25.3555L23.4999 30.9213L14.2236 25.3555L23.4999 37.7239L32.7763 25.3555Z"/></g><rect width="21" height="21" x="28.5" y="28.5" fill="#fff" rx="3.5"/><rect width="22" height="22" x="28" y="28" fill="#F3F4F5" fill-opacity=".4"/><g clip-path="url(#clip1)"><path fill="#8247E5" d="M42.5729 36.6539C42.3177 36.5106 41.9896 36.5106 41.6979 36.6539L39.6562 37.836L38.2708 38.5882L36.2656 39.7703C36.0104 39.9136 35.6823 39.9136 35.3906 39.7703L33.8229 38.839C33.5677 38.6957 33.3854 38.4091 33.3854 38.0867V36.2957C33.3854 36.0091 33.5312 35.7226 33.8229 35.5435L35.3906 34.6479C35.6458 34.5047 35.974 34.5047 36.2656 34.6479L37.8333 35.5793C38.0885 35.7226 38.2708 36.0091 38.2708 36.3315V37.5136L39.6562 36.7255V35.5076C39.6562 35.2211 39.5104 34.9345 39.2187 34.7554L36.3021 33.0718C36.0469 32.9285 35.7187 32.9285 35.4271 33.0718L32.4375 34.7912C32.1458 34.9345 32 35.2211 32 35.5076V38.8748C32 39.1614 32.1458 39.4479 32.4375 39.627L35.3906 41.3106C35.6458 41.4539 35.974 41.4539 36.2656 41.3106L38.2708 40.1644L39.6562 39.3763L41.6615 38.23C41.9167 38.0867 42.2448 38.0867 42.5365 38.23L44.1042 39.1255C44.3594 39.2688 44.5417 39.5554 44.5417 39.8778V41.6688C44.5417 41.9554 44.3958 42.242 44.1042 42.4211L42.5729 43.3166C42.3177 43.4599 41.9896 43.4599 41.6979 43.3166L40.1302 42.4211C39.875 42.2778 39.6927 41.9912 39.6927 41.6688V40.5226L38.3073 41.3106V42.4927C38.3073 42.7793 38.4531 43.0658 38.7448 43.245L41.6979 44.9285C41.9531 45.0718 42.2812 45.0718 42.5729 44.9285L45.526 43.245C45.7812 43.1017 45.9635 42.8151 45.9635 42.4927V39.0897C45.9635 38.8032 45.8177 38.5166 45.526 38.3375L42.5729 36.6539Z"/></g><rect width="21" height="21" x="28.5" y="28.5" stroke="#E8EAED" rx="3.5"/><defs><linearGradient id="paint0_linear" x1="23.5" x2="23.5" y1="0" y2="47" gradientUnits="userSpaceOnUse"><stop stop-color="#34457F"/><stop offset="1" stop-color="#142356"/></linearGradient><clipPath id="clip0"><rect width="47" height="47" fill="#fff"/></clipPath><clipPath id="clip1"><rect width="14" height="12" fill="#fff" transform="translate(32 33)"/></clipPath></defs></svg>