<svg xmlns="http://www.w3.org/2000/svg" width="50" height="50" fill="none" viewBox="0 0 50 50"><path fill="#2775CA" d="M23.5 47C36.523 47 47 36.523 47 23.5C47 10.477 36.523 0 23.5 0C10.477 0 0 10.477 0 23.5C0 36.523 10.477 47 23.5 47Z"/><path fill="#fff" d="M29.9625 27.2208C29.9625 23.7938 27.9063 22.6188 23.7938 22.1293C20.8563 21.7375 20.2688 20.9543 20.2688 19.5833C20.2688 18.2123 21.248 17.3313 23.2063 17.3313C24.9688 17.3313 25.948 17.9188 26.4375 19.3875C26.5355 19.6813 26.8293 19.877 27.123 19.877H28.6895C29.0813 19.877 29.375 19.5833 29.375 19.1918V19.0938C28.9833 16.9396 27.2208 15.275 24.9688 15.0793V12.7293C24.9688 12.3375 24.675 12.0438 24.1855 11.9458H22.7168C22.325 11.9458 22.0313 12.2396 21.9333 12.7293V14.9813C18.9958 15.373 17.1355 17.3313 17.1355 19.7793C17.1355 23.0105 19.0938 24.2833 23.2063 24.773C25.948 25.2625 26.8293 25.85 26.8293 27.4168C26.8293 28.9835 25.4583 30.0605 23.598 30.0605C21.052 30.0605 20.1708 28.9833 19.8771 27.5145C19.7793 27.123 19.4855 26.927 19.1918 26.927H17.5271C17.1355 26.927 16.8418 27.2208 16.8418 27.6125V27.7105C17.2333 30.1583 18.8 31.9208 22.0313 32.4105V34.7605C22.0313 35.152 22.325 35.4458 22.8145 35.5438H24.2833C24.675 35.5438 24.9688 35.25 25.0668 34.7605V32.4105C28.0043 31.9208 29.9625 29.8645 29.9625 27.2208V27.2208Z"/><path fill="#fff" d="M18.5062 37.5018C10.8687 34.7603 6.95196 26.2415 9.7917 18.7018C11.2604 14.5893 14.4917 11.456 18.5062 9.98726C18.8979 9.7915 19.0937 9.49775 19.0937 9.00801V7.63726C19.0937 7.24551 18.8979 6.95176 18.5062 6.854C18.4082 6.854 18.2124 6.854 18.1144 6.95176C8.81245 9.88926 3.72071 19.779 6.65821 29.081C8.42071 34.5643 12.6312 38.7748 18.1144 40.5373C18.5062 40.733 18.8979 40.5373 18.9957 40.1455C19.0937 40.0478 19.0937 39.9498 19.0937 39.754V38.383C19.0937 38.0893 18.7999 37.6978 18.5062 37.5018ZM28.8854 6.95176C28.4937 6.75601 28.1019 6.95176 28.0042 7.34351C27.9062 7.4415 27.9062 7.53926 27.9062 7.73525V9.10601C27.9062 9.49775 28.1999 9.88926 28.4937 10.0853C36.1312 12.8268 40.0479 21.3455 37.2082 28.8853C35.7394 32.9978 32.5082 36.131 28.4937 37.5998C28.1019 37.7955 27.9062 38.0893 27.9062 38.579V39.9498C27.9062 40.3415 28.1019 40.6353 28.4937 40.733C28.5917 40.733 28.7874 40.733 28.8854 40.6353C38.1874 37.6978 43.2791 27.808 40.3416 18.506C38.5792 12.9248 34.2707 8.71426 28.8854 6.95176V6.95176Z"/><rect width="2" height="5" x="26" y="37" fill="#2775CA"/><rect width="21" height="21" x="28.5" y="28.5" fill="#fff" rx="3.5"/><path fill="#00EF8B" d="M39 46C42.866 46 46 42.866 46 39C46 35.134 42.866 32 39 32C35.134 32 32 35.134 32 39C32 42.866 35.134 46 39 46Z"/><path fill="#fff" d="M42.066 37.9082H40.092V39.8822H42.066V37.9082Z"/><path fill="#fff" d="M38.1179 40.6242C38.1179 41.0302 37.7819 41.3662 37.3759 41.3662C36.9699 41.3662 36.6339 41.0302 36.6339 40.6242C36.6339 40.2182 36.9699 39.8822 37.3759 39.8822H38.1179V37.9082H37.3759C35.8779 37.9082 34.6599 39.1262 34.6599 40.6242C34.6599 42.1222 35.8779 43.3402 37.3759 43.3402C38.8739 43.3402 40.0919 42.1222 40.0919 40.6242V39.8822H38.1179V40.6242Z"/><path fill="#fff" d="M40.8339 36.9139H43.0599V34.9399H40.8339C39.3359 34.9399 38.1179 36.1579 38.1179 37.6559V37.9079H40.0919V37.6559C40.0919 37.2499 40.4279 36.9139 40.8339 36.9139Z"/><path fill="#16FF99" d="M40.0919 37.9082H38.1179V39.8822H40.0919V37.9082Z"/><rect width="21" height="21" x="28.5" y="28.5" stroke="#E8EAED" rx="3.5"/></svg>