<svg xmlns="http://www.w3.org/2000/svg" viewBox="0 0 210 210"><defs><style>.cls-1{fill:#00ef8b}.cls-2{fill:none}.cls-3{fill:#fff}.cls-4{fill:#16ff99}</style></defs><g id="Layer_1" data-name="Layer 1"><circle cx="105" cy="105" r="100" class="cls-1"/><path d="M71.22,128.23a10.6,10.6,0,0,0,21.19,0V117.64H81.81A10.59,10.59,0,0,0,71.22,128.23Z" class="cls-2"/><rect width="28.25" height="28.25" x="120.65" y="89.39" class="cls-3"/><path d="M92.41,128.23a10.6,10.6,0,1,1-10.6-10.59h10.6V89.39H81.81a38.84,38.84,0,1,0,38.84,38.84V117.64H92.41Z" class="cls-3"/><path d="M131.25,75.27H163V47H131.25A38.88,38.88,0,0,0,92.41,85.86v3.53h28.24V85.86A10.6,10.6,0,0,1,131.25,75.27Z" class="cls-3"/><polygon points="92.41 117.64 120.65 117.64 120.65 117.64 120.65 89.39 120.65 89.39 92.41 89.39 92.41 117.64" class="cls-4"/></g></svg>