<svg xmlns="http://www.w3.org/2000/svg" width="48" height="48" fill="none" viewBox="0 0 48 48"><g clip-path="url(#clip0_8_4)"><path fill="url(#paint0_linear_8_4)" d="M22 44C34.1503 44 44 34.1503 44 22C44 9.84973 34.1503 0 22 0C9.84973 0 0 9.84973 0 22C0 34.1503 9.84973 44 22 44Z"/><path fill="#fff" d="M30.684 21.9998L21.9997 8.1051L13.3155 21.9998L21.9997 27.2104L30.684 21.9998Z"/><path fill="#A5ABC1" d="M30.684 23.737L21.9997 28.9476L13.3155 23.737L21.9997 35.316L30.684 23.737Z"/><path fill="#fff" d="M44.16 27.36H30.72C28.8643 27.36 27.36 28.8643 27.36 30.72V44.16C27.36 46.0157 28.8643 47.52 30.72 47.52H44.16C46.0157 47.52 47.52 46.0157 47.52 44.16V30.72C47.52 28.8643 46.0157 27.36 44.16 27.36Z"/><path fill="#F3F4F5" fill-opacity=".4" d="M44 27H31C28.7909 27 27 28.7909 27 31V44C27 46.2091 28.7909 48 31 48H44C46.2091 48 48 46.2091 48 44V31C48 28.7909 46.2091 27 44 27Z"/><path stroke="#E8EAED" d="M30.5 27.5H44.5C46.1568 27.5 47.5 28.8431 47.5 30.5V44.5C47.5 46.1568 46.1568 47.5 44.5 47.5H30.5C28.8431 47.5 27.5 46.1568 27.5 44.5V30.5C27.5 28.8431 28.8431 27.5 30.5 27.5Z"/><g clip-path="url(#clip1_8_4)"><path fill="#17B5CB" d="M43.7849 30.9964H45.4655L38.6511 38.7734C38.4784 38.969 38.4669 39.2681 38.6396 39.4752L42.5647 44.0424H40.8151L37.1892 39.8088L37.005 39.5787C36.8324 39.3831 36.8439 39.0725 37.0165 38.8769L43.7849 30.9964Z"/><path fill="#17B5CB" d="M39.9978 39.4752C39.8827 39.3486 39.8482 39.1645 39.8827 39.0035C39.9173 38.9114 39.9748 38.8194 40.0439 38.7504L40.4928 38.2557L45.5 44.0424H43.9115C43.9115 44.0424 40.9763 40.6141 39.9978 39.4752Z"/><path fill="#17B5CB" d="M31.2496 44.0424H29.5L34.864 37.8415C35.0367 37.646 35.0367 37.3468 34.864 37.1513L29.546 30.9964H31.2266L36.5791 37.1973C36.7173 37.3814 36.7403 37.646 36.5906 37.8185C35.1863 39.4407 31.2496 44.0424 31.2496 44.0424Z"/><path fill="#17B5CB" d="M34.1734 30.9964H32.5619L37.523 36.7371C37.523 36.7371 37.5345 36.7256 38.0871 36.0699C38.2367 35.8973 38.2712 35.6787 38.0986 35.5061C37.0626 34.4477 34.1734 30.9964 34.1734 30.9964Z"/><path fill="#17B5CB" d="M39.0079 34.9999L42.4496 30.9964H40.8151L39.0194 33.0902L38.5014 33.6999C38.3288 33.8955 38.3173 34.1946 38.4899 34.4017C38.6165 34.5513 39.0079 34.9999 39.0079 34.9999Z"/><path fill="#17B5CB" d="M36.0151 40.0389L32.5734 44.0424H34.1964L35.9921 41.9486L36.5101 41.3389C36.6827 41.1433 36.6942 40.8442 36.5216 40.6371C36.395 40.4876 36.0151 40.0389 36.0151 40.0389Z"/></g></g><defs><linearGradient id="paint0_linear_8_4" x1="22" x2="22" y1="0" y2="44" gradientUnits="userSpaceOnUse"><stop stop-color="#34457F"/><stop offset="1" stop-color="#142356"/></linearGradient><clipPath id="clip0_8_4"><rect width="48" height="48" fill="#fff"/></clipPath><clipPath id="clip1_8_4"><rect width="16" height="13" fill="#fff" transform="translate(29.5 30.9964)"/></clipPath></defs></svg>