<svg width="24" height="24" viewBox="0 0 24 24" fill="none" xmlns="http://www.w3.org/2000/svg">
<g clip-path="url(#clip0_2420:600)">
<path fill-rule="evenodd" clip-rule="evenodd" d="M14.2288 10.7721V10.9055C14.2288 12.8175 15.7826 14.3819 17.6819 14.3819H19.5784C20.3636 14.3819 21 15.0227 21 15.813V21.6774H15.0789C14.2937 21.6774 13.6573 21.0367 13.6573 20.2461V17.8366C13.6573 15.9246 12.1035 14.3602 10.2045 14.3602H10.0718C8.17281 14.3602 6.619 15.9246 6.619 17.8366V21.6774H0V0H6.619V3.88759C6.619 5.79982 8.17281 7.36401 10.072 7.36401H10.2045C12.1035 7.36401 13.6573 5.79982 13.6573 3.88759V1.43129C13.6573 0.640753 14.2937 0 15.0789 0H21V5.86443C21 6.65497 20.3636 7.29572 19.5784 7.29572H17.6819C15.7826 7.29572 14.2288 8.86016 14.2288 10.7721Z" fill="#6F41E8"/>
<path d="M21.4 13H14.68C14.2344 13 13.8071 13.177 13.4921 13.4921C13.177 13.8071 13 14.2344 13 14.68V21.4C13 21.8456 13.177 22.2729 13.4921 22.5879C13.8071 22.903 14.2344 23.08 14.68 23.08H21.4C21.8456 23.08 22.2729 22.903 22.5879 22.5879C22.903 22.2729 23.08 21.8456 23.08 21.4V14.68C23.08 14.2344 22.903 13.8071 22.5879 13.4921C22.2729 13.177 21.8456 13 21.4 13V13Z" fill="#F5F8FB"/>
<path d="M21.4 13H14.68C14.2344 13 13.8071 13.177 13.4921 13.4921C13.177 13.8071 13 14.2344 13 14.68V21.4C13 21.8456 13.177 22.2729 13.4921 22.5879C13.8071 22.903 14.2344 23.08 14.68 23.08H21.4C21.8456 23.08 22.2729 22.903 22.5879 22.5879C22.903 22.2729 23.08 21.8456 23.08 21.4V14.68C23.08 14.2344 22.903 13.8071 22.5879 13.4921C22.2729 13.177 21.8456 13 21.4 13V13Z" stroke="#E8EAED"/>
<g clip-path="url(#clip1_2420:600)">
<path d="M15.9749 15.8012C16.0126 15.765 16.0624 15.7439 16.1137 15.7439H20.9022C20.9897 15.7439 21.0335 15.8495 20.9716 15.9114L20.0257 16.8573C19.9895 16.8935 19.9397 16.9146 19.8869 16.9146H15.0984C15.0109 16.9146 14.9671 16.809 15.029 16.7472L15.9749 15.8012Z" fill="url(#paint0_linear_2420:600)"/>
<path d="M20.0257 17.472C19.9895 17.4358 19.9397 17.4147 19.8869 17.4147H15.0984C15.0109 17.4147 14.9671 17.5203 15.029 17.5821L15.9749 18.5281C16.0111 18.5643 16.0609 18.5854 16.1137 18.5854H20.9022C20.9897 18.5854 21.0335 18.4798 20.9716 18.4179L20.0257 17.472Z" fill="url(#paint1_linear_2420:600)"/>
<path d="M15.9749 19.1427C16.0111 19.1064 16.0609 19.0853 16.1137 19.0853H20.9022C20.9897 19.0853 21.0335 19.1909 20.9716 19.2528L20.0257 20.1987C19.9895 20.2349 19.9397 20.2561 19.8869 20.2561H15.0984C15.0109 20.2561 14.9671 20.1505 15.029 20.0886L15.9749 19.1427Z" fill="url(#paint2_linear_2420:600)"/>
</g>
</g>
<defs>
<linearGradient id="paint0_linear_2420:600" x1="18.9957" y1="14.4223" x2="15.6817" y2="20.77" gradientUnits="userSpaceOnUse">
<stop stop-color="#00FFA3"/>
<stop offset="1" stop-color="#DC1FFF"/>
</linearGradient>
<linearGradient id="paint1_linear_2420:600" x1="19.7156" y1="14.7143" x2="16.4016" y2="21.0621" gradientUnits="userSpaceOnUse">
<stop stop-color="#00FFA3"/>
<stop offset="1" stop-color="#DC1FFF"/>
</linearGradient>
<linearGradient id="paint2_linear_2420:600" x1="20.4448" y1="14.9884" x2="17.1308" y2="21.3362" gradientUnits="userSpaceOnUse">
<stop stop-color="#00FFA3"/>
<stop offset="1" stop-color="#DC1FFF"/>
</linearGradient>
<clipPath id="clip0_2420:600">
<rect width="24" height="24" fill="white"/>
</clipPath>
<clipPath id="clip1_2420:600">
<rect width="6" height="6" fill="white" transform="translate(15 15)"/>
</clipPath>
</defs>
</svg>
