<svg width="50" height="50" viewBox="0 0 50 50" fill="none" xmlns="http://www.w3.org/2000/svg">
<g clip-path="url(#clip0)">
<path d="M0 23.5C-4.5986e-08 26.586 0.607845 29.6419 1.78883 32.4931C2.96981 35.3442 4.70081 37.9349 6.88299 40.117C9.06516 42.2992 11.6558 44.0302 14.5069 45.2112C17.3581 46.3921 20.414 47 23.5 47C26.586 47 29.6419 46.3921 32.4931 45.2112C35.3442 44.0302 37.9349 42.2992 40.117 40.117C42.2992 37.9349 44.0302 35.3442 45.2112 32.4931C46.3921 29.6419 47 26.586 47 23.5C47 20.414 46.3921 17.3581 45.2112 14.5069C44.0302 11.6558 42.2992 9.06516 40.117 6.88299C37.9349 4.70081 35.3442 2.96981 32.4931 1.78883C29.6419 0.607845 26.586 0 23.5 0C20.414 0 17.3581 0.607845 14.5069 1.78883C11.6558 2.96981 9.06516 4.70081 6.88299 6.88299C4.70081 9.06516 2.96981 11.6558 1.78883 14.5069C0.607845 17.3581 -4.5986e-08 20.414 0 23.5Z" fill="#F5F8FB"/>
<circle cx="23.5" cy="23.5" r="23.5" fill="white"/>
<path d="M25.6989 22.4937L28.1353 26.368L19.2798 33.4473L37.1241 22.5627V22.4937H25.6989Z" fill="#1C60FF"/>
<path d="M19.0355 33.5912V12L10 26.3681L19.0355 33.5912Z" fill="#1C60FF"/>
</g>
<rect x="28.5" y="28.5" width="21" height="21" rx="3.5" fill="white"/>
<path d="M39.9528 38.915L41.0582 40.6676L37.0405 43.8701L45.1362 38.9463V38.915H39.9528Z" fill="#1C60FF"/>
<path d="M36.9298 43.9351V34.168L32.8306 40.6676L36.9298 43.9351Z" fill="#1C60FF"/>
<rect x="28.5" y="28.5" width="21" height="21" rx="3.5" stroke="#E8EAED"/>
<defs>
<clipPath id="clip0">
<rect width="47" height="47" fill="white"/>
</clipPath>
</defs>
</svg>
