<svg width="48" height="48" viewBox="0 0 48 48" fill="none" xmlns="http://www.w3.org/2000/svg">
<g clip-path="url(#clip0_1135_38146)">
<path d="M40.4624 8.67042C39.941 7.94387 39.2287 7.3766 38.4049 7.03176L32.2323 4.43893L22.5603 0.377516C21.9677 0.128198 21.3315 -0.000143234 20.689 1.19959e-07V28.9796L40.4706 37.287C41.0609 36.4624 41.3783 35.4727 41.3778 34.4577V11.5122C41.3786 10.492 41.0582 9.49749 40.4624 8.67042Z" fill="url(#paint0_linear_1135_38146)"/>
<path d="M18.8176 0.377516L3.5016 6.80774L2.97299 7.03176C2.09214 7.40162 1.33998 8.02425 0.811015 8.82142C0.282058 9.61858 -0.000107387 10.5547 4.59445e-07 11.5122V34.4577C-0.00044073 35.4727 0.316873 36.4624 0.907204 37.287L20.6889 28.9796V1.19959e-07C20.0463 -0.000143234 19.4101 0.128198 18.8176 0.377516Z" fill="url(#paint1_linear_1135_38146)"/>
<path d="M20.689 28.9795L0.907227 37.2869C1.42394 38.0107 2.12931 38.578 2.94612 38.9267L15.6916 44.3674L18.7949 45.6919C19.3951 45.9478 20.0407 46.0797 20.6931 46.0797C21.3453 46.0797 21.991 45.9478 22.5913 45.6919L24.7491 44.7699L38.4359 38.9267C39.2526 38.578 39.9581 38.0107 40.4747 37.2869L20.689 28.9795Z" fill="url(#paint2_linear_1135_38146)"/>
<path opacity="0.41" d="M20.6887 32.7536V28.9795L15.4131 31.1969C16.9852 32.2148 18.8173 32.7554 20.6887 32.7536Z" fill="white"/>
<path style="mix-blend-mode:color-burn" opacity="0.45" d="M35.1214 11.9738C34.7477 11.421 34.2275 10.9839 33.6194 10.7116L29.1144 8.71196L22.0543 5.58707C21.6244 5.39557 21.1593 5.29663 20.6889 5.29663C20.2185 5.29663 19.7533 5.39557 19.3233 5.58707L8.14517 10.5404L7.7583 10.7116C7.15017 10.9839 6.62998 11.421 6.25627 11.9738C5.81847 12.6187 5.58486 13.381 5.58595 14.1611V31.8328C5.58416 32.6088 5.8148 33.3675 6.24799 34.0108C6.61732 34.5618 7.13241 34.9989 7.73555 35.2729L17.0383 39.464L19.3006 40.4835C19.736 40.6803 20.2082 40.7822 20.6857 40.7822C21.1633 40.7822 21.6355 40.6803 22.0709 40.4835L23.6463 39.773L33.6359 35.2729C34.2391 34.9989 34.7541 34.5618 35.1235 34.0108C35.5567 33.3675 35.7873 32.6088 35.7855 31.8328V14.1611C35.7884 13.3816 35.557 12.6194 35.1214 11.9738Z" fill="url(#paint3_linear_1135_38146)"/>
<path style="mix-blend-mode:soft-light" opacity="0.76" d="M38.4048 7.03178L32.2323 4.43895L22.5602 0.377531C21.9676 0.128341 21.3315 0 20.689 0C20.0463 0 19.4102 0.128341 18.8176 0.377531L3.50163 6.80775L2.97303 7.03178C2.14919 7.37662 1.43694 7.94388 0.915527 8.67044L20.689 17.1127L40.4623 8.67044C39.9409 7.94388 39.2286 7.37662 38.4048 7.03178Z" fill="url(#paint4_linear_1135_38146)"/>
<path style="mix-blend-mode:soft-light" d="M40.4624 8.67065L20.689 17.1129V46.0801C21.3412 46.0799 21.9868 45.948 22.5872 45.6921L24.7451 44.7701L38.4318 38.9269C39.3056 38.5534 40.0506 37.9307 40.5744 37.1362C41.0982 36.3416 41.3775 35.4103 41.3778 34.4579V11.5124C41.3786 10.4921 41.0582 9.49771 40.4624 8.67065Z" fill="url(#paint5_linear_1135_38146)"/>
<path d="M20.6887 32.7487C26.0744 32.7487 30.4404 28.3713 30.4404 22.9716C30.4404 17.572 26.0744 13.1946 20.6887 13.1946C15.3029 13.1946 10.937 17.572 10.937 22.9716C10.937 28.3713 15.3029 32.7487 20.6887 32.7487Z" fill="url(#paint6_radial_1135_38146)"/>
<path d="M44.1601 27.3601H30.7201C28.8644 27.3601 27.3601 28.8644 27.3601 30.7201V44.1601C27.3601 46.0158 28.8644 47.5201 30.7201 47.5201H44.1601C46.0158 47.5201 47.5201 46.0158 47.5201 44.1601V30.7201C47.5201 28.8644 46.0158 27.3601 44.1601 27.3601Z" fill="white"/>
<path d="M44 27H31C28.7909 27 27 28.7909 27 31V44C27 46.2091 28.7909 48 31 48H44C46.2091 48 48 46.2091 48 44V31C48 28.7909 46.2091 27 44 27Z" fill="#F3F4F5" fill-opacity="0.4"/>
<path d="M40.9107 35.2606C40.6671 35.1239 40.3539 35.1239 40.0754 35.2606L38.1266 36.389L36.8041 37.107L34.8901 38.2354C34.6465 38.3722 34.3333 38.3722 34.0548 38.2354L32.5584 37.3464C32.3148 37.2096 32.1408 36.9361 32.1408 36.6283V34.9187C32.1408 34.6451 32.28 34.3717 32.5584 34.2007L34.0548 33.3458C34.2984 33.2091 34.6117 33.2091 34.8901 33.3458L36.3865 34.2349C36.6301 34.3717 36.8041 34.6451 36.8041 34.9529V36.0813L38.1266 35.329V34.1664C38.1266 33.893 37.9874 33.6194 37.7089 33.4484L34.9249 31.8414C34.6813 31.7046 34.368 31.7046 34.0897 31.8414L31.236 33.4826C30.9575 33.6194 30.8184 33.893 30.8184 34.1664V37.3806C30.8184 37.6542 30.9575 37.9276 31.236 38.0986L34.0548 39.7057C34.2984 39.8425 34.6117 39.8425 34.8901 39.7057L36.8041 38.6116L38.1266 37.8593L40.0407 36.7651C40.2843 36.6283 40.5975 36.6283 40.8759 36.7651L42.3724 37.6199C42.616 37.7567 42.79 38.0303 42.79 38.338V40.0476C42.79 40.3212 42.6507 40.5947 42.3724 40.7657L40.9107 41.6205C40.6671 41.7573 40.3539 41.7573 40.0754 41.6205L38.579 40.7657C38.3354 40.6289 38.1614 40.3553 38.1614 40.0476V38.9535L36.839 39.7057V40.834C36.839 41.1076 36.9781 41.3811 37.2566 41.5521L40.0754 43.1591C40.319 43.2959 40.6322 43.2959 40.9107 43.1591L43.7295 41.5521C43.9731 41.4154 44.1472 41.1418 44.1472 40.834V37.5857C44.1472 37.3122 44.008 37.0387 43.7295 36.8677L40.9107 35.2606Z" fill="#8247E5"/>
<path d="M30.5 27.5H44.5C46.1569 27.5 47.5 28.8431 47.5 30.5V44.5C47.5 46.1569 46.1569 47.5 44.5 47.5H30.5C28.8431 47.5 27.5 46.1569 27.5 44.5V30.5C27.5 28.8431 28.8431 27.5 30.5 27.5Z" stroke="#E8EAED"/>
</g>
<defs>
<linearGradient id="paint0_linear_1135_38146" x1="25.9253" y1="18.6435" x2="42.8634" y2="18.6435" gradientUnits="userSpaceOnUse">
<stop stop-color="#6B32C1"/>
<stop offset="1" stop-color="#C81D5E"/>
</linearGradient>
<linearGradient id="paint1_linear_1135_38146" x1="4.59446e-07" y1="18.6435" x2="20.6889" y2="18.6435" gradientUnits="userSpaceOnUse">
<stop stop-color="#EC663C"/>
<stop offset="1" stop-color="#F9B426"/>
</linearGradient>
<linearGradient id="paint2_linear_1135_38146" x1="21.8299" y1="30.6492" x2="19.2338" y2="45.671" gradientUnits="userSpaceOnUse">
<stop stop-color="#0081DD"/>
<stop offset="0.19" stop-color="#0589E0"/>
<stop offset="0.48" stop-color="#11A0E9"/>
<stop offset="0.84" stop-color="#25C5F8"/>
<stop offset="1" stop-color="#2FD7FF"/>
</linearGradient>
<linearGradient id="paint3_linear_1135_38146" x1="20.6889" y1="35.0935" x2="20.6889" y2="5.29875" gradientUnits="userSpaceOnUse">
<stop stop-color="#4E4D4C"/>
<stop offset="0.12" stop-color="#5A5858"/>
<stop offset="0.47" stop-color="#747273"/>
<stop offset="0.77" stop-color="#848183"/>
<stop offset="1" stop-color="#8A8789"/>
</linearGradient>
<linearGradient id="paint4_linear_1135_38146" x1="9.32138" y1="3.1083" x2="33.0449" y2="13.9309" gradientUnits="userSpaceOnUse">
<stop stop-color="white"/>
<stop offset="0.14" stop-color="white" stop-opacity="0.97"/>
<stop offset="0.35" stop-color="white" stop-opacity="0.89"/>
<stop offset="0.61" stop-color="white" stop-opacity="0.75"/>
<stop offset="0.9" stop-color="white" stop-opacity="0.57"/>
<stop offset="1" stop-color="white" stop-opacity="0.5"/>
</linearGradient>
<linearGradient id="paint5_linear_1135_38146" x1="28.3717" y1="15.1372" x2="33.7549" y2="42.1346" gradientUnits="userSpaceOnUse">
<stop stop-color="white"/>
<stop offset="0.12" stop-color="white" stop-opacity="0.98"/>
<stop offset="0.28" stop-color="white" stop-opacity="0.92"/>
<stop offset="0.45" stop-color="white" stop-opacity="0.82"/>
<stop offset="0.63" stop-color="white" stop-opacity="0.67"/>
<stop offset="0.82" stop-color="white" stop-opacity="0.5"/>
<stop offset="1" stop-color="white" stop-opacity="0.3"/>
</linearGradient>
<radialGradient id="paint6_radial_1135_38146" cx="0" cy="0" r="1" gradientUnits="userSpaceOnUse" gradientTransform="translate(17.8347 19.9318) scale(12.9326 12.9663)">
<stop stop-color="white"/>
<stop offset="0.21" stop-color="#FEFEFE" stop-opacity="0.99"/>
<stop offset="0.39" stop-color="#FCFCFB" stop-opacity="0.96"/>
<stop offset="0.55" stop-color="#F9F9F6" stop-opacity="0.9"/>
<stop offset="0.71" stop-color="#F4F4EE" stop-opacity="0.82"/>
<stop offset="0.85" stop-color="#EDEEE5" stop-opacity="0.72"/>
<stop offset="1" stop-color="#E5E6D9" stop-opacity="0.6"/>
</radialGradient>
<clipPath id="clip0_1135_38146">
<rect width="48" height="48" fill="white"/>
</clipPath>
</defs>
</svg>
