<svg width="50" height="50" viewBox="0 0 50 50" fill="none" xmlns="http://www.w3.org/2000/svg">
<g clip-path="url(#clip0_3603_6536)">
<path d="M0 23.5C-4.5986e-08 26.586 0.607845 29.6419 1.78883 32.4931C2.96981 35.3442 4.70081 37.9349 6.88299 40.117C9.06516 42.2992 11.6558 44.0302 14.5069 45.2112C17.3581 46.3921 20.414 47 23.5 47C26.586 47 29.6419 46.3921 32.4931 45.2112C35.3442 44.0302 37.9349 42.2992 40.117 40.117C42.2992 37.9349 44.0302 35.3442 45.2112 32.4931C46.3921 29.6419 47 26.586 47 23.5C47 20.414 46.3921 17.3581 45.2112 14.5069C44.0302 11.6558 42.2992 9.06516 40.117 6.88299C37.9349 4.70081 35.3442 2.96981 32.4931 1.78883C29.6419 0.607845 26.586 0 23.5 0C20.414 0 17.3581 0.607845 14.5069 1.78883C11.6558 2.96981 9.06516 4.70081 6.88299 6.88299C4.70081 9.06516 2.96981 11.6558 1.78883 14.5069C0.607845 17.3581 -4.5986e-08 20.414 0 23.5Z" fill="#F5F8FB"/>
<path d="M23.5 47C36.4787 47 47 36.4787 47 23.5C47 10.5213 36.4787 0 23.5 0C10.5213 0 0 10.5213 0 23.5C0 36.4787 10.5213 47 23.5 47Z" fill="url(#paint0_linear_3603_6536)"/>
<path d="M32.7763 23.4998L23.4999 8.65771L14.2236 23.4998L23.4999 29.0656L32.7763 23.4998Z" fill="white"/>
<path d="M32.7763 25.3555L23.4999 30.9213L14.2236 25.3555L23.4999 37.7239L32.7763 25.3555Z" fill="#A5ABC1"/>
</g>
<rect x="28.5" y="28.5" width="21" height="21" rx="3.5" fill="white"/>
<rect x="29" y="29" width="20" height="20" rx="1" fill="#FF0420"/>
<path d="M34.9962 42.4817C34.229 42.4817 33.6003 42.3012 33.1103 41.9401C32.6267 41.5726 32.3849 41.0503 32.3849 40.3733C32.3849 40.2314 32.401 40.0573 32.4332 39.851C32.5171 39.3868 32.6364 38.829 32.7911 38.1778C33.2296 36.4046 34.3612 35.5181 36.1859 35.5181C36.6824 35.5181 37.1273 35.6019 37.5206 35.7695C37.9139 35.9307 38.2234 36.1757 38.4491 36.5046C38.6747 36.8269 38.7876 37.2138 38.7876 37.6652C38.7876 37.8006 38.7715 37.9714 38.7392 38.1778C38.6425 38.7516 38.5264 39.3094 38.391 39.851C38.1654 40.7343 37.7753 41.3953 37.2208 41.8337C36.6662 42.2657 35.9248 42.4817 34.9962 42.4817ZM35.1317 41.089C35.4928 41.089 35.799 40.9826 36.0505 40.7698C36.3084 40.557 36.4922 40.2314 36.6018 39.793C36.7501 39.1869 36.8629 38.6581 36.9403 38.2068C36.9661 38.0714 36.979 37.9328 36.979 37.7909C36.979 37.2041 36.6727 36.9108 36.0602 36.9108C35.6991 36.9108 35.3896 37.0171 35.1317 37.2299C34.8802 37.4427 34.6997 37.7684 34.5901 38.2068C34.474 38.6388 34.3579 39.1675 34.2419 39.793C34.2161 39.9219 34.2032 40.0573 34.2032 40.1992C34.2032 40.7924 34.5127 41.089 35.1317 41.089Z" fill="white"/>
<path d="M39.2317 42.385C39.1608 42.385 39.1059 42.3624 39.0673 42.3173C39.035 42.2657 39.0254 42.2077 39.0382 42.1432L40.3729 35.8565C40.3858 35.7856 40.4213 35.7276 40.4793 35.6824C40.5374 35.6373 40.5986 35.6147 40.6631 35.6147H43.2358C43.9515 35.6147 44.5253 35.763 44.9573 36.0596C45.3958 36.3563 45.615 36.785 45.615 37.346C45.615 37.5072 45.5957 37.6748 45.557 37.8489C45.3958 38.5904 45.0702 39.1385 44.5802 39.4931C44.0966 39.8478 43.4324 40.0251 42.5878 40.0251H41.2821L40.8372 42.1432C40.8243 42.2141 40.7888 42.2721 40.7308 42.3173C40.6728 42.3624 40.6115 42.385 40.5471 42.385H39.2317ZM42.6555 38.6904C42.9263 38.6904 43.1616 38.6162 43.3615 38.4679C43.5678 38.3196 43.7032 38.1068 43.7677 37.8296C43.7871 37.7199 43.7968 37.6232 43.7968 37.5394C43.7968 37.3524 43.742 37.2106 43.6323 37.1139C43.5227 37.0107 43.3357 36.9591 43.0714 36.9591H41.9107L41.5432 38.6904H42.6555Z" fill="white"/>
<rect x="28.5" y="28.5" width="21" height="21" rx="3.5" stroke="#E8EAED"/>
<defs>
<linearGradient id="paint0_linear_3603_6536" x1="23.5" y1="0" x2="23.5" y2="47" gradientUnits="userSpaceOnUse">
<stop stop-color="#34457F"/>
<stop offset="1" stop-color="#142356"/>
</linearGradient>
<clipPath id="clip0_3603_6536">
<rect width="47" height="47" fill="white"/>
</clipPath>
</defs>
</svg>
