<svg width="48" height="48" viewBox="0 0 48 48" fill="none" xmlns="http://www.w3.org/2000/svg">
<g clip-path="url(#clip0_13_18)">
<g clip-path="url(#clip1_13_18)">
<path d="M0 22C-4.30507e-08 24.8891 0.569046 27.7499 1.67465 30.419C2.78025 33.0882 4.40076 35.5135 6.44365 37.5564C8.48654 39.5993 10.9118 41.2198 13.581 42.3253C16.2501 43.4309 19.1109 44 22 44C24.8891 44 27.7499 43.4309 30.419 42.3253C33.0882 41.2198 35.5135 39.5993 37.5564 37.5564C39.5993 35.5135 41.2198 33.0882 42.3253 30.419C43.4309 27.7499 44 24.8891 44 22C44 19.1109 43.4309 16.2501 42.3253 13.581C41.2198 10.9118 39.5993 8.48654 37.5564 6.44365C35.5135 4.40076 33.0882 2.78025 30.419 1.67465C27.7499 0.569046 24.8891 0 22 0C19.1109 0 16.2501 0.569046 13.581 1.67465C10.9118 2.78025 8.48654 4.40076 6.44365 6.44365C4.40076 8.48654 2.78025 10.9118 1.67465 13.581C0.569046 16.2501 -4.30507e-08 19.1109 0 22Z" fill="white"/>
<path fill-rule="evenodd" clip-rule="evenodd" d="M13.9658 11H22.5006C27.6921 11 31.6274 13.7879 33.0914 17.8445H35.75V20.2964H33.6512C33.6923 20.6839 33.7133 21.0786 33.7133 21.4797V21.5398C33.7133 21.9914 33.6868 22.4352 33.6349 22.87H35.75V25.3218H33.0408C31.5382 29.3221 27.6335 32.0833 22.5006 32.0833H13.9658V25.3218H11V22.87H13.9658V20.2964H11V17.8445H13.9658V11ZM16.3518 25.3218V29.8838H22.5006C26.295 29.8838 29.1142 28.0567 30.4265 25.3218H16.3518ZM31.1574 22.87H16.3518V20.2964H31.1612C31.2161 20.7015 31.244 21.1166 31.244 21.5398V21.6001C31.244 22.0332 31.2148 22.4571 31.1574 22.87ZM22.5006 13.1959C26.3126 13.1959 29.1401 15.0712 30.4444 17.8445H16.3518V13.1959H22.5006Z" fill="url(#paint0_linear_13_18)"/>
</g>
<path d="M44.16 27.36H30.72C28.8643 27.36 27.36 28.8643 27.36 30.72V44.16C27.36 46.0157 28.8643 47.52 30.72 47.52H44.16C46.0157 47.52 47.52 46.0157 47.52 44.16V30.72C47.52 28.8643 46.0157 27.36 44.16 27.36Z" fill="white"/>
<rect x="27" y="27" width="21" height="21" rx="6" fill="#FF0420"/>
<path d="M33.296 41.1558C32.4905 41.1558 31.8303 40.9663 31.3158 40.5871C30.808 40.2012 30.5542 39.6528 30.5542 38.942C30.5542 38.793 30.5711 38.6102 30.6049 38.3935C30.693 37.9061 30.8182 37.3204 30.9807 36.6367C31.4411 34.7748 32.6293 33.844 34.5452 33.844C35.0665 33.844 35.5337 33.932 35.9466 34.108C36.3596 34.2772 36.6846 34.5345 36.9216 34.8798C37.1584 35.2182 37.277 35.6245 37.277 36.0985C37.277 36.2406 37.2601 36.42 37.2262 36.6367C37.1246 37.2392 37.0027 37.8249 36.8606 38.3935C36.6237 39.321 36.2141 40.0151 35.6318 40.4754C35.0495 40.929 34.271 41.1558 33.296 41.1558ZM33.4383 39.6934C33.8174 39.6934 34.139 39.5817 34.403 39.3583C34.6738 39.1348 34.8668 38.793 34.9819 38.3326C35.1376 37.6962 35.2561 37.141 35.3373 36.6671C35.3644 36.525 35.378 36.3794 35.378 36.2304C35.378 35.6143 35.0563 35.3063 34.4132 35.3063C34.0341 35.3063 33.7091 35.418 33.4383 35.6414C33.1742 35.8648 32.9847 36.2068 32.8696 36.6671C32.7477 37.1207 32.6258 37.6759 32.504 38.3326C32.4769 38.468 32.4634 38.6102 32.4634 38.7592C32.4634 39.382 32.7883 39.6934 33.4383 39.6934Z" fill="white"/>
<path d="M37.7433 41.0542C37.6688 41.0542 37.6112 41.0305 37.5707 40.9832C37.5367 40.929 37.5267 40.8681 37.5401 40.8004L38.9415 34.1993C38.9551 34.1249 38.9924 34.064 39.0533 34.0165C39.1143 33.9692 39.1785 33.9454 39.2462 33.9454H41.9476C42.6991 33.9454 43.3016 34.1012 43.7552 34.4126C44.2156 34.7241 44.4457 35.1743 44.4457 35.7633C44.4457 35.9326 44.4255 36.1085 44.3848 36.2913C44.2156 37.0699 43.8737 37.6454 43.3592 38.0178C42.8514 38.3902 42.154 38.5764 41.2672 38.5764H39.8962L39.4291 40.8004C39.4155 40.8748 39.3782 40.9357 39.3173 40.9832C39.2564 41.0305 39.1921 41.0542 39.1244 41.0542H37.7433ZM41.3383 37.1749C41.6226 37.1749 41.8697 37.097 42.0796 36.9413C42.2962 36.7856 42.4383 36.5621 42.5061 36.2711C42.5264 36.1559 42.5366 36.0544 42.5366 35.9664C42.5366 35.77 42.4791 35.6211 42.3639 35.5196C42.2488 35.4112 42.0525 35.3571 41.775 35.3571H40.5562L40.1704 37.1749H41.3383Z" fill="white"/>
<path d="M30.5 27.5H44.5C46.1568 27.5 47.5 28.8431 47.5 30.5V44.5C47.5 46.1568 46.1568 47.5 44.5 47.5H30.5C28.8431 47.5 27.5 46.1568 27.5 44.5V30.5C27.5 28.8431 28.8431 27.5 30.5 27.5Z" stroke="#E8EAED"/>
</g>
<defs>
<linearGradient id="paint0_linear_13_18" x1="33.9781" y1="34.1917" x2="11.3228" y2="10.6888" gradientUnits="userSpaceOnUse">
<stop stop-color="#F4B731"/>
<stop offset="1" stop-color="#FFCE45"/>
</linearGradient>
<clipPath id="clip0_13_18">
<rect width="48" height="48" fill="white"/>
</clipPath>
<clipPath id="clip1_13_18">
<rect width="44" height="44" fill="white"/>
</clipPath>
</defs>
</svg>
