<svg xmlns="http://www.w3.org/2000/svg" width="48" height="48" fill="none" viewBox="0 0 48 48"><g clip-path="url(#clip0_1300_10378)"><path fill="#FF4724" fill-rule="evenodd" d="M0.383371 41.8559L14.4954 33.6959L24.1914 16.8959V0.671875C23.9034 0.671875 23.7114 0.863875 23.5194 1.15188L11.9994 21.1199L0.479371 40.9919C0.287371 41.3759 0.287371 41.6639 0.383371 41.8559Z" clip-rule="evenodd"/><path fill="#9E1F63" fill-rule="evenodd" d="M24.1914 0.671875V16.8959L33.8874 33.6959L47.9994 41.8559C48.0954 41.6639 48.0954 41.3759 47.9034 40.9919L36.3834 21.1199L24.8634 1.24787C24.6714 0.863875 24.3834 0.671875 24.1914 0.671875Z" clip-rule="evenodd"/><path fill="#662D91" fill-rule="evenodd" d="M47.9048 41.8553L33.7928 33.6953H14.4968L0.384766 41.8553C0.480766 42.1433 0.768766 42.2393 1.15277 42.2393H47.1368C47.5208 42.2393 47.8088 42.1433 47.9048 41.8553Z" clip-rule="evenodd"/><path fill="#fff" fill-rule="evenodd" d="M14.4961 33.6945H33.8881L24.1921 16.8945L14.4961 33.6945Z" clip-rule="evenodd"/><path fill="#F5F8FB" d="M30.5 27H44.5C46.4 27 48 28.6 48 30.5V44.5C48 46.4 46.4 48 44.5 48H30.5C28.6 48 27 46.4 27 44.5V30.5C27 28.6 28.6 27 30.5 27Z"/><path fill="#8247E5" d="M41.232 35.0032C40.9632 34.8496 40.608 34.8496 40.3008 35.0032L38.1312 36.28L36.6624 37.096L34.5312 38.3728C34.2624 38.5264 33.9072 38.5264 33.6 38.3728L31.9296 37.3648C31.6608 37.2112 31.4688 36.904 31.4688 36.5488V34.6096C31.4688 34.3024 31.6224 33.9856 31.9296 33.7936L33.6 32.824C33.8688 32.6704 34.224 32.6704 34.5312 32.824L36.2016 33.832C36.4704 33.9856 36.6624 34.2928 36.6624 34.648V35.9248L38.1312 35.0704V33.7552C38.1312 33.448 37.9776 33.1312 37.6704 32.9392L34.5696 31.1152C34.3008 30.9616 33.9456 30.9616 33.6384 31.1152L30.4608 32.9776C30.1536 33.1312 30 33.4384 30 33.7552V37.3936C30 37.7008 30.1536 38.0176 30.4608 38.2096L33.6 40.0336C33.8688 40.1872 34.224 40.1872 34.5312 40.0336L36.6624 38.7952L38.1312 37.9408L40.2624 36.7024C40.5312 36.5488 40.8864 36.5488 41.1936 36.7024L42.864 37.672C43.1328 37.8256 43.3248 38.1328 43.3248 38.488V40.4272C43.3248 40.7344 43.1712 41.0512 42.864 41.2432L41.2416 42.2128C40.9728 42.3664 40.6176 42.3664 40.3104 42.2128L38.64 41.2432C38.3712 41.0896 38.1792 40.7824 38.1792 40.4272V39.1888L36.7104 40.0432V41.32C36.7104 41.6272 36.864 41.944 37.1712 42.136L40.3104 43.96C40.5792 44.1136 40.9344 44.1136 41.2416 43.96L44.3808 42.136C44.6496 41.9824 44.8416 41.6752 44.8416 41.32V37.6336C44.8416 37.3264 44.688 37.0096 44.3808 36.8176L41.232 35.0032Z"/><path stroke="#E8EAED" d="M30.5 27.5H44.5C46.1239 27.5 47.5 28.8761 47.5 30.5V44.5C47.5 46.1239 46.1239 47.5 44.5 47.5H30.5C28.8761 47.5 27.5 46.1239 27.5 44.5V30.5C27.5 28.8761 28.8761 27.5 30.5 27.5Z"/></g><defs><clipPath id="clip0_1300_10378"><rect width="48" height="48" fill="#fff"/></clipPath></defs></svg>