<svg xmlns="http://www.w3.org/2000/svg" width="50" height="50" fill="none" viewBox="0 0 50 50"><path fill="url(#paint0_linear_3407_6527)" d="M23.5 47C36.4787 47 47 36.4787 47 23.5C47 10.5213 36.4787 0 23.5 0C10.5213 0 0 10.5213 0 23.5C0 36.4787 10.5213 47 23.5 47Z"/><path fill="#fff" d="M32.7763 23.4998L23.4999 8.65771L14.2236 23.4998L23.4999 29.0656L32.7763 23.4998Z"/><path fill="#A5ABC1" d="M32.7763 25.3555L23.4999 30.9213L14.2236 25.3555L23.4999 37.7239L32.7763 25.3555Z"/><path fill="url(#paint1_linear_3407_6527)" d="M23.5 47C36.4787 47 47 36.4787 47 23.5C47 10.5213 36.4787 0 23.5 0C10.5213 0 0 10.5213 0 23.5C0 36.4787 10.5213 47 23.5 47Z"/><path fill="url(#paint2_linear_3407_6527)" fill-rule="evenodd" d="M16.6498 15.2749V32.8999H31.3373L16.6498 15.2749Z" clip-rule="evenodd"/><path fill="#fff" fill-rule="evenodd" d="M1.96228 32.8999H16.6498V15.2749L1.96228 32.8999Z" clip-rule="evenodd"/><path fill="#FC9965" fill-rule="evenodd" d="M4.69995 37.6001C6.03945 39.3743 7.6257 40.9606 9.39995 42.3001H37.5999C39.3742 40.9606 40.9604 39.3743 42.2999 37.6001H4.69995Z" clip-rule="evenodd"/><path fill="#FF2D55" fill-rule="evenodd" d="M9.40002 42.2998C13.3245 45.2491 18.2125 46.9998 23.5 46.9998C28.7875 46.9998 33.6755 45.2491 37.6 42.2998H9.40002Z" clip-rule="evenodd"/><path fill="url(#paint3_linear_3407_6527)" fill-rule="evenodd" d="M31.5253 24.6748V37.5998H42.3L31.5253 24.6748Z" clip-rule="evenodd"/><path fill="#FFBC5B" fill-rule="evenodd" d="M31.5253 32.8999H1.96228C2.69078 34.5802 3.61903 36.1547 4.70003 37.5999H31.537V32.8999H31.5253V32.8999Z" clip-rule="evenodd"/><path fill="#fff" fill-rule="evenodd" d="M20.7623 37.5998H31.5253V24.6748L20.7623 37.5998Z" clip-rule="evenodd"/><path fill="#FFC95B" d="M31.5253 21.1499C34.7699 21.1499 37.4003 18.5196 37.4003 15.2749C37.4003 12.0302 34.7699 9.3999 31.5253 9.3999C28.2806 9.3999 25.6503 12.0302 25.6503 15.2749C25.6503 18.5196 28.2806 21.1499 31.5253 21.1499Z"/><path fill="#FFC95B" d="M16.6498 11.75C18.2721 11.75 19.5873 10.4348 19.5873 8.8125C19.5873 7.19016 18.2721 5.875 16.6498 5.875C15.0274 5.875 13.7123 7.19016 13.7123 8.8125C13.7123 10.4348 15.0274 11.75 16.6498 11.75Z"/><rect width="21" height="21" x="28.5" y="28.5" fill="#fff" rx="3.5"/><rect width="22" height="22" x="28" y="28" fill="#F3F4F5" fill-opacity=".4"/><g clip-path="url(#clip0_3407_6527)"><path fill="#8247E5" d="M42.5729 36.6539C42.3177 36.5106 41.9896 36.5106 41.6979 36.6539L39.6562 37.836L38.2708 38.5882L36.2656 39.7703C36.0104 39.9136 35.6823 39.9136 35.3906 39.7703L33.8229 38.839C33.5677 38.6957 33.3854 38.4091 33.3854 38.0867V36.2957C33.3854 36.0091 33.5312 35.7226 33.8229 35.5435L35.3906 34.6479C35.6458 34.5047 35.974 34.5047 36.2656 34.6479L37.8333 35.5793C38.0885 35.7226 38.2708 36.0091 38.2708 36.3315V37.5136L39.6562 36.7255V35.5076C39.6562 35.2211 39.5104 34.9345 39.2187 34.7554L36.3021 33.0718C36.0469 32.9285 35.7187 32.9285 35.4271 33.0718L32.4375 34.7912C32.1458 34.9345 32 35.2211 32 35.5076V38.8748C32 39.1614 32.1458 39.4479 32.4375 39.627L35.3906 41.3106C35.6458 41.4539 35.974 41.4539 36.2656 41.3106L38.2708 40.1644L39.6562 39.3763L41.6615 38.23C41.9167 38.0867 42.2448 38.0867 42.5365 38.23L44.1042 39.1255C44.3594 39.2688 44.5417 39.5554 44.5417 39.8778V41.6688C44.5417 41.9554 44.3958 42.242 44.1042 42.4211L42.5729 43.3166C42.3177 43.4599 41.9896 43.4599 41.6979 43.3166L40.1302 42.4211C39.875 42.2778 39.6927 41.9912 39.6927 41.6688V40.5226L38.3073 41.3106V42.4927C38.3073 42.7793 38.4531 43.0658 38.7448 43.245L41.6979 44.9285C41.9531 45.0718 42.2812 45.0718 42.5729 44.9285L45.526 43.245C45.7812 43.1017 45.9635 42.8151 45.9635 42.4927V39.0897C45.9635 38.8032 45.8177 38.5166 45.526 38.3375L42.5729 36.6539Z"/></g><rect width="21" height="21" x="28.5" y="28.5" stroke="#E8EAED" rx="3.5"/><defs><linearGradient id="paint0_linear_3407_6527" x1="23.5" x2="23.5" y1="0" y2="47" gradientUnits="userSpaceOnUse"><stop stop-color="#34457F"/><stop offset="1" stop-color="#142356"/></linearGradient><linearGradient id="paint1_linear_3407_6527" x1="40.117" x2="6.883" y1="6.883" y2="40.117" gradientUnits="userSpaceOnUse"><stop stop-color="#FF2D55"/><stop offset="1" stop-color="#FFBC5B"/></linearGradient><linearGradient id="paint2_linear_3407_6527" x1="23.988" x2="23.988" y1="15.275" y2="32.9" gradientUnits="userSpaceOnUse"><stop stop-color="#A524B3"/><stop offset="1" stop-color="#FF2D55"/></linearGradient><linearGradient id="paint3_linear_3407_6527" x1="36.909" x2="36.909" y1="24.675" y2="37.6" gradientUnits="userSpaceOnUse"><stop stop-color="#A524B3"/><stop offset="1" stop-color="#FF2D55"/></linearGradient><clipPath id="clip0_3407_6527"><rect width="14" height="12" fill="#fff" transform="translate(32 33)"/></clipPath></defs></svg>