<svg width="50" height="50" fill="none" xmlns="http://www.w3.org/2000/svg">
  <path d="M50 0H0v50h50V0z" fill="#fff"/>
  <path d="M34.604 16.773c-.7-.438-1.599-.438-2.399 0l-5.597 3.609-3.798 2.297-5.498 3.609c-.7.437-1.6.437-2.399 0l-4.298-2.844c-.7-.437-1.2-1.312-1.2-2.297V15.68c0-.875.4-1.75 1.2-2.297l4.298-2.734c.7-.437 1.6-.437 2.399 0l4.298 2.844c.7.437 1.2 1.312 1.2 2.296v3.61l3.798-2.407v-3.718c0-.875-.4-1.75-1.2-2.297l-7.996-5.14c-.7-.438-1.6-.438-2.399 0l-8.196 5.25c-.8.437-1.2 1.312-1.2 2.187v10.28c0 .875.4 1.75 1.2 2.297l8.096 5.14c.7.438 1.6.438 2.399 0l5.498-3.5 3.798-2.405 5.497-3.5c.7-.438 1.6-.438 2.4 0l4.297 2.734c.7.438 1.2 1.313 1.2 2.297v5.468c0 .875-.4 1.75-1.2 2.297l-4.198 2.734c-.7.438-1.599.438-2.399 0l-4.298-2.734c-.7-.438-1.2-1.312-1.2-2.297v-3.5l-3.797 2.407V34.6c0 .875.4 1.75 1.199 2.296l8.096 5.14c.7.438 1.6.438 2.4 0l8.096-5.14c.7-.437 1.2-1.312 1.2-2.296V24.21c0-.875-.4-1.75-1.2-2.297l-8.097-5.14z" fill="#8247E5"/>
  <path d="M46 28.5H32a3.5 3.5 0 00-3.5 3.5v14a3.5 3.5 0 003.5 3.5h14a3.5 3.5 0 003.5-3.5V32a3.5 3.5 0 00-3.5-3.5z" fill="#F5F8FB"/>
  <path d="M42.573 36.654a.943.943 0 00-.875 0l-2.042 1.182-1.385.752-2.005 1.182a.943.943 0 01-.875 0l-1.568-.931a.87.87 0 01-.438-.752v-1.791a.88.88 0 01.438-.752l1.568-.896a.944.944 0 01.875 0l1.567.931a.87.87 0 01.438.752v1.183l1.385-.789v-1.217a.88.88 0 00-.437-.753l-2.917-1.683a.943.943 0 00-.875 0l-2.99 1.72a.786.786 0 00-.437.716v3.367a.88.88 0 00.438.752l2.953 1.684a.943.943 0 00.875 0l2.005-1.147 1.385-.788 2.005-1.146a.943.943 0 01.875 0l1.568.896a.87.87 0 01.438.752v1.79a.88.88 0 01-.438.753l-1.531.896a.943.943 0 01-.875 0l-1.568-.896a.87.87 0 01-.437-.752v-1.146l-1.386.788v1.182a.88.88 0 00.438.752l2.953 1.684a.943.943 0 00.875 0l2.953-1.684a.87.87 0 00.438-.752V39.09a.88.88 0 00-.438-.753l-2.953-1.683z" fill="#8247E5"/>
  <path d="M46 28.5H32a3.5 3.5 0 00-3.5 3.5v14a3.5 3.5 0 003.5 3.5h14a3.5 3.5 0 003.5-3.5V32a3.5 3.5 0 00-3.5-3.5z" stroke="#E8EAED"/>
</svg>
