<svg width="50" height="50" viewBox="0 0 50 50" fill="none" xmlns="http://www.w3.org/2000/svg">
<path d="M23.5 47C36.4787 47 47 36.4787 47 23.5C47 10.5213 36.4787 0 23.5 0C10.5213 0 0 10.5213 0 23.5C0 36.4787 10.5213 47 23.5 47Z" fill="url(#paint0_linear_3502_6533)"/>
<path d="M32.7763 23.4998L23.4999 8.65771L14.2236 23.4998L23.4999 29.0656L32.7763 23.4998Z" fill="white"/>
<path d="M32.7763 25.3555L23.4999 30.9213L14.2236 25.3555L23.4999 37.7239L32.7763 25.3555Z" fill="#A5ABC1"/>
<path d="M23.5 47C36.4787 47 47 36.4787 47 23.5C47 10.5213 36.4787 0 23.5 0C10.5213 0 0 10.5213 0 23.5C0 36.4787 10.5213 47 23.5 47Z" fill="url(#paint1_linear_3502_6533)"/>
<path d="M15.6039 11.092L13.0659 13.63V23.688L15.6039 26.226H25.6619V31.302H20.6799V28.764H13.0659V33.84L15.6039 36.378H30.7379L33.2759 33.84V23.688L30.7379 21.15H20.6799V16.074H25.7559V18.612H33.3699V13.536L30.8319 10.998H15.6039V11.092Z" fill="white"/>
<rect x="28.5" y="28.5" width="21" height="21" rx="3.5" fill="white"/>
<g clip-path="url(#clip0_3502_6533)">
<path d="M42.5729 36.6539C42.3177 36.5106 41.9896 36.5106 41.6979 36.6539L39.6562 37.836L38.2708 38.5882L36.2656 39.7703C36.0104 39.9136 35.6823 39.9136 35.3906 39.7703L33.8229 38.839C33.5677 38.6957 33.3854 38.4091 33.3854 38.0867V36.2957C33.3854 36.0091 33.5312 35.7226 33.8229 35.5435L35.3906 34.6479C35.6458 34.5047 35.974 34.5047 36.2656 34.6479L37.8333 35.5793C38.0885 35.7226 38.2708 36.0091 38.2708 36.3315V37.5136L39.6562 36.7255V35.5076C39.6562 35.2211 39.5104 34.9345 39.2187 34.7554L36.3021 33.0718C36.0469 32.9285 35.7187 32.9285 35.4271 33.0718L32.4375 34.7912C32.1458 34.9345 32 35.2211 32 35.5076V38.8748C32 39.1614 32.1458 39.4479 32.4375 39.627L35.3906 41.3106C35.6458 41.4539 35.974 41.4539 36.2656 41.3106L38.2708 40.1644L39.6562 39.3763L41.6615 38.23C41.9167 38.0867 42.2448 38.0867 42.5365 38.23L44.1042 39.1255C44.3594 39.2688 44.5417 39.5554 44.5417 39.8778V41.6688C44.5417 41.9554 44.3958 42.242 44.1042 42.4211L42.5729 43.3166C42.3177 43.4599 41.9896 43.4599 41.6979 43.3166L40.1302 42.4211C39.875 42.2778 39.6927 41.9912 39.6927 41.6688V40.5226L38.3073 41.3106V42.4927C38.3073 42.7793 38.4531 43.0658 38.7448 43.245L41.6979 44.9285C41.9531 45.0718 42.2812 45.0718 42.5729 44.9285L45.526 43.245C45.7812 43.1017 45.9635 42.8151 45.9635 42.4927V39.0897C45.9635 38.8032 45.8177 38.5166 45.526 38.3375L42.5729 36.6539Z" fill="#8247E5"/>
</g>
<rect x="28.5" y="28.5" width="21" height="21" rx="3.5" stroke="#E8EAED"/>
<defs>
<linearGradient id="paint0_linear_3502_6533" x1="23.5" y1="0" x2="23.5" y2="47" gradientUnits="userSpaceOnUse">
<stop stop-color="#34457F"/>
<stop offset="1" stop-color="#142356"/>
</linearGradient>
<linearGradient id="paint1_linear_3502_6533" x1="10.0768" y1="8.3519" x2="39.3578" y2="41.3929" gradientUnits="userSpaceOnUse">
<stop stop-color="#00ADEF"/>
<stop offset="1" stop-color="#0084FF"/>
</linearGradient>
<clipPath id="clip0_3502_6533">
<rect width="14" height="12" fill="white" transform="translate(32 33)"/>
</clipPath>
</defs>
</svg>
