<svg id="Layer_1" data-name="Layer 1" xmlns="http://www.w3.org/2000/svg" viewBox="0 0 130.04 130.04"><defs><style>.cls-1{fill:#fff;}.cls-2{fill:#0083ff;}.cls-3{fill:#006e36;}.cls-4{fill:#00b22b;}</style></defs><title>Tanie_Rif_Tokens_August2020_US$</title><path class="cls-1" d="M52.71,115.19A50.57,50.57,0,0,1,52.71,14a50,50,0,0,1,23,5.52A51,51,0,0,1,90.48,31l0.9-.5a29,29,0,0,1,13.76-3.31l1.22,0c9.26,0.33,15.53,2.85,17.17,3.79l1.73,1a4.44,4.44,0,0,1,2.15,4.39l-0.11.85V37.4c-0.87,12.93-6.57,22.82-16.06,27.84-0.58.3-1.11,0.56-1.64,0.8a27.57,27.57,0,0,1-6.41,2A50.64,50.64,0,0,1,52.71,115.19Z"/><path class="cls-2" d="M98.84,64.62A46.13,46.13,0,1,1,52.71,18.48,46.13,46.13,0,0,1,98.84,64.62"/><rect class="cls-1" x="48.67" y="25.49" width="5" height="5" rx="1.8" ry="1.8"/><rect class="cls-1" x="48.67" y="32.49" width="5" height="5" rx="1.8" ry="1.8"/><rect class="cls-1" x="27.67" y="51.49" width="5" height="5" rx="1.8" ry="1.8"/><rect class="cls-1" x="35.67" y="51.49" width="5" height="5" rx="1.8" ry="1.8"/><rect class="cls-1" x="40.67" y="39.49" width="12" height="5" rx="1.8" ry="1.8"/><rect class="cls-1" x="41.67" y="51.49" width="5" height="12" rx="1.8" ry="1.8"/><rect class="cls-1" x="59.67" y="51.49" width="16" height="5" rx="1.8" ry="1.8"/><rect class="cls-1" x="32.67" y="45.49" width="16" height="5" rx="1.8" ry="1.8"/><rect class="cls-1" x="69.67" y="45.49" width="5" height="5" rx="1.8" ry="1.8"/><rect class="cls-1" x="56.67" y="59.49" width="12" height="5" rx="1.8" ry="1.8"/><rect class="cls-1" x="56.67" y="65.49" width="5" height="5" rx="1.8" ry="1.8"/><rect class="cls-1" x="56.67" y="72.49" width="5" height="5" rx="1.8" ry="1.8"/><rect class="cls-1" x="55.67" y="28.49" width="5" height="16" rx="1.8" ry="1.8"/><rect class="cls-1" x="49.67" y="56.49" width="5" height="16" rx="1.8" ry="1.8"/><rect class="cls-1" x="62.67" y="36.49" width="5" height="12" rx="1.8" ry="1.8"/><path class="cls-3" d="M85.08,57.22l32-18.54s0.7-6.63-11.68-6.5S86,40.41,85.11,47.69s0,9.53,0,9.53"/><path class="cls-4" d="M117.64,37.87l-32,18.54s-0.7,6.63,11.68,6.5,19.4-8.23,20.33-15.51,0-9.53,0-9.53"/><path class="cls-1" d="M121.31,34.85c-0.79-.45-6.32-2.89-15.11-3.2a24.89,24.89,0,0,0-12.74,2.77A22.64,22.64,0,0,0,90,36.67c-7.93,6.25-8.14,14-8.67,18.41l-6.28,3.07a2.61,2.61,0,0,0,1,5,2.66,2.66,0,0,0,1.15-.26h0l0.09,0h0l1.43-.76,2.89-1.52,1.4-.67A31.6,31.6,0,0,0,97,64a24.08,24.08,0,0,0,10.8-2c0.47-.21.93-0.44,1.38-0.67,13-6.9,13.59-22.61,13.73-24.5l0.13-1Zm-3.77,4.54v0.07c-0.9,5-3.55,13.87-11.18,17.91l-0.2.1a20.32,20.32,0,0,1-9.45,2.16A25.79,25.79,0,0,1,90,58.42l-1.9-.81,2.09-1.09L98,52.37a3.08,3.08,0,0,0,1.66-2.67,1.81,1.81,0,0,0,.09-1,3.06,3.06,0,0,0-.13-0.29l0-.08,0,0a2.86,2.86,0,0,0-2.62-1.25,3.12,3.12,0,0,0-1.59.37l-7.8,4.11-1.48.78s1.3-10,8.32-13.49c0.55-.28,1-0.68,1.6-1a18.69,18.69,0,0,1,9.55-2,32,32,0,0,1,11.06,2.61l0.51,0.22,0.44,0.18Z"/><path class="cls-1" d="M23.24,84.11h3.88c3.58,0,5.93,2.09,5.93,5.19s-2.4,5.15-5.93,5.15H23.24V84.11ZM27.13,86H25.6v6.54h1.53a3.21,3.21,0,0,0,3.53-3.27c0-2-1.44-3.23-3.53-3.27h0Z"/><path class="cls-1" d="M39.74,83.76a5.36,5.36,0,0,1,5.72,5.54c0,3.27-2.31,5.5-5.72,5.5S34,92.57,34,89.3A5.36,5.36,0,0,1,39.74,83.76Zm0,8.94a3.45,3.45,0,1,0-3.27-3.45A3.23,3.23,0,0,0,39.74,92.7Z"/><path class="cls-1" d="M46.89,94.45V84.11h2.44v8.25h4.32v2.09H46.89Z"/><path class="cls-1" d="M54.92,94.45V84.11h2.44v8.25h4.32v2.09H54.92Z"/><path class="cls-1" d="M72.5,94.45H69.93l-0.61-1.88H65.17L64.6,94.45H62l3.49-10.34h3.53Zm-6.81-3.62h3.14L67.26,86.2Z"/><path class="cls-1" d="M73.5,84.11h5c2.4,0,4.06,1.4,4.06,3.45a3,3,0,0,1-2.27,2.92L82.8,94.4h-2.7L78,90.78H75.95V94.4H73.5V84.11Zm2.4,1.83v3.14h2.18a1.64,1.64,0,1,0,0-3.18Z"/></svg>