<svg width="48" height="48" viewBox="0 0 48 48" fill="none" xmlns="http://www.w3.org/2000/svg">
<path d="M24 48C37.2548 48 48 37.2548 48 24C48 10.7452 37.2548 0 24 0C10.7452 0 0 10.7452 0 24C0 37.2548 10.7452 48 24 48Z" fill="white"/>
<path d="M24.0012 7.57812L40.0718 23.6486L24.0012 39.7192L7.93073 23.6486L24.0012 7.57812Z" fill="#FFCE45"/>
<path d="M24.0007 28.8931L7.91687 23.6484L24.0007 7.57812L40.0844 23.6484L24.0007 28.8931Z" fill="#FEBE44"/>
<path d="M13.5107 22.5997H20.8533L24.0001 19.1031L27.4966 22.5996H34.8392L24.0001 10.8867L13.5107 22.5997Z" fill="white"/>
<path opacity="0.42" d="M24.0008 39.7186V7.57812L40.071 23.6484L24.0008 39.7186Z" fill="#D9A547"/>
</svg>
