<svg xmlns="http://www.w3.org/2000/svg" width="50" height="50" fill="none"><path fill="#2775CA" d="M23.5 47A23.444 23.444 0 0047 23.5 23.444 23.444 0 0023.5 0 23.444 23.444 0 000 23.5 23.444 23.444 0 0023.5 47z"/><path fill="#fff" d="M29.962 27.22c0-3.426-2.056-4.601-6.168-5.09-2.938-.392-3.525-1.176-3.525-2.547 0-1.37.979-2.252 2.937-2.252 1.763 0 2.742.588 3.232 2.056.098.294.391.49.685.49h1.566a.67.67 0 00.686-.685v-.098a4.892 4.892 0 00-4.406-4.015v-2.35c0-.391-.294-.685-.784-.783h-1.468c-.392 0-.686.294-.784.783v2.252c-2.937.392-4.797 2.35-4.797 4.798 0 3.232 1.958 4.504 6.07 4.994 2.742.49 3.623 1.077 3.623 2.644 0 1.566-1.37 2.643-3.231 2.643-2.546 0-3.427-1.077-3.72-2.545-.099-.392-.393-.588-.686-.588h-1.665a.67.67 0 00-.685.686v.098c.391 2.447 1.958 4.21 5.19 4.7v2.35c0 .391.293.685.782.783h1.47c.391 0 .685-.294.783-.783v-2.35c2.937-.49 4.895-2.547 4.895-5.19z"/><path fill="#fff" d="M18.506 37.502c-7.637-2.742-11.554-11.26-8.714-18.8 1.468-4.113 4.7-7.246 8.714-8.715.392-.196.588-.49.588-.979v-1.37c0-.392-.196-.686-.588-.784-.098 0-.294 0-.392.098C8.812 9.889 3.721 19.779 6.658 29.08c1.763 5.483 5.973 9.694 11.456 11.456.392.196.784 0 .882-.392.098-.097.098-.195.098-.391v-1.371c0-.294-.294-.685-.588-.881zm10.38-30.55c-.392-.196-.784 0-.882.392-.098.097-.098.195-.098.391v1.371c0 .392.294.783.588.98 7.637 2.74 11.554 11.26 8.714 18.8-1.469 4.112-4.7 7.245-8.714 8.714-.392.195-.588.49-.588.979v1.37c0 .393.196.686.588.784.098 0 .293 0 .391-.098 9.302-2.937 14.394-12.827 11.457-22.129-1.763-5.581-6.071-9.792-11.457-11.554z"/><path fill="#F5F8FB" d="M46 28.5H32a3.5 3.5 0 00-3.5 3.5v14a3.5 3.5 0 003.5 3.5h14a3.5 3.5 0 003.5-3.5V32a3.5 3.5 0 00-3.5-3.5z"/><path fill="#8247E5" d="M42.573 36.654a.943.943 0 00-.875 0l-2.042 1.182-1.385.752-2.005 1.182a.943.943 0 01-.875 0l-1.568-.931a.87.87 0 01-.438-.752v-1.791a.88.88 0 01.438-.752l1.568-.896a.944.944 0 01.875 0l1.567.931a.87.87 0 01.438.752v1.183l1.385-.789v-1.217a.88.88 0 00-.437-.753l-2.917-1.683a.943.943 0 00-.875 0l-2.99 1.72a.786.786 0 00-.437.716v3.367a.88.88 0 00.438.752l2.953 1.684a.943.943 0 00.875 0l2.005-1.147 1.385-.788 2.005-1.146a.943.943 0 01.875 0l1.568.896a.87.87 0 01.438.752v1.79a.88.88 0 01-.438.753l-1.531.896a.943.943 0 01-.875 0l-1.568-.896a.87.87 0 01-.437-.752v-1.146l-1.386.788v1.182a.88.88 0 00.438.752l2.953 1.684a.943.943 0 00.875 0l2.953-1.684a.87.87 0 00.438-.752V39.09a.88.88 0 00-.438-.753l-2.953-1.683z"/><path stroke="#E8EAED" d="M46 28.5H32a3.5 3.5 0 00-3.5 3.5v14a3.5 3.5 0 003.5 3.5h14a3.5 3.5 0 003.5-3.5V32a3.5 3.5 0 00-3.5-3.5z"/></svg>