<?xml version="1.0" encoding="UTF-8"?>
<svg xmlns="http://www.w3.org/2000/svg" xmlns:xlink="http://www.w3.org/1999/xlink" width="100px" height="100px" viewBox="0 0 100 100" version="1.1">
<defs>
<linearGradient id="linear0" gradientUnits="userSpaceOnUse" x1="360.879089" y1="351.455292" x2="141.212997" y2="-69.293602" gradientTransform="matrix(0.251446,0,0,-0.320755,0.000000000000007141,100.727336)">
<stop offset="0" style="stop-color:rgb(0%,100%,63.921571%);stop-opacity:1;"/>
<stop offset="1" style="stop-color:rgb(86.274511%,12.156863%,100%);stop-opacity:1;"/>
</linearGradient>
<linearGradient id="linear1" gradientUnits="userSpaceOnUse" x1="264.829102" y1="401.60141" x2="45.162998" y2="-19.147499" gradientTransform="matrix(0.251446,0,0,-0.320755,0.000000000000007141,100.727336)">
<stop offset="0" style="stop-color:rgb(0%,100%,63.921571%);stop-opacity:1;"/>
<stop offset="1" style="stop-color:rgb(86.274511%,12.156863%,100%);stop-opacity:1;"/>
</linearGradient>
<linearGradient id="linear2" gradientUnits="userSpaceOnUse" x1="312.548401" y1="376.687988" x2="92.882202" y2="-44.061001" gradientTransform="matrix(0.251446,0,0,-0.320755,0.000000000000007141,100.727336)">
<stop offset="0" style="stop-color:rgb(0%,100%,63.921571%);stop-opacity:1;"/>
<stop offset="1" style="stop-color:rgb(86.274511%,12.156863%,100%);stop-opacity:1;"/>
</linearGradient>
</defs>
<g id="surface1">
<path style=" stroke:none;fill-rule:nonzero;fill:rgb(15.294118%,45.882353%,79.215688%);fill-opacity:1;" d="M 47 94 C 59.472656 94.03125 71.445312 89.085938 80.265625 80.265625 C 89.085938 71.445312 94.03125 59.472656 94 47 C 94.03125 34.527344 89.085938 22.554688 80.265625 13.734375 C 71.445312 4.914062 59.472656 -0.03125 47 0 C 34.527344 -0.03125 22.554688 4.914062 13.734375 13.734375 C 4.914062 22.554688 -0.03125 34.527344 0 47 C -0.03125 59.472656 4.914062 71.445312 13.734375 80.265625 C 22.554688 89.085938 34.527344 94.03125 47 94 Z M 47 94 "/>
<path style=" stroke:none;fill-rule:nonzero;fill:rgb(100%,100%,100%);fill-opacity:1;" d="M 59.925781 54.441406 C 59.925781 47.589844 55.8125 45.238281 47.589844 44.261719 C 41.710938 43.476562 40.539062 41.90625 40.539062 39.164062 C 40.539062 36.425781 42.496094 34.660156 46.410156 34.660156 C 49.9375 34.660156 51.894531 35.839844 52.875 38.773438 C 53.070312 39.363281 53.65625 39.753906 54.246094 39.753906 L 57.378906 39.753906 C 57.746094 39.761719 58.097656 39.621094 58.355469 39.363281 C 58.617188 39.105469 58.757812 38.75 58.75 38.382812 L 58.75 38.1875 C 57.972656 33.824219 54.355469 30.53125 49.9375 30.15625 L 49.9375 25.457031 C 49.9375 24.675781 49.351562 24.089844 48.371094 23.890625 L 45.433594 23.890625 C 44.648438 23.890625 44.0625 24.480469 43.867188 25.457031 L 43.867188 29.960938 C 37.992188 30.746094 34.273438 34.660156 34.273438 39.558594 C 34.273438 46.023438 38.1875 48.566406 46.410156 49.546875 C 51.894531 50.527344 53.65625 51.699219 53.65625 54.835938 C 53.65625 57.964844 50.917969 60.121094 47.195312 60.121094 C 42.105469 60.121094 40.34375 57.964844 39.757812 55.03125 C 39.558594 54.246094 38.96875 53.855469 38.382812 53.855469 L 35.054688 53.855469 C 34.6875 53.84375 34.335938 53.988281 34.074219 54.246094 C 33.816406 54.507812 33.675781 54.859375 33.683594 55.226562 L 33.683594 55.421875 C 34.464844 60.316406 37.601562 63.84375 44.0625 64.820312 L 44.0625 69.523438 C 44.0625 70.304688 44.648438 70.890625 45.628906 71.089844 L 48.566406 71.089844 C 49.351562 71.089844 49.9375 70.5 50.132812 69.523438 L 50.132812 64.820312 C 56.007812 63.84375 59.925781 59.726562 59.925781 54.441406 Z M 59.925781 54.441406 "/>
<path style=" stroke:none;fill-rule:nonzero;fill:rgb(100%,100%,100%);fill-opacity:1;" d="M 37.011719 75.003906 C 21.738281 69.519531 13.902344 52.484375 19.585938 37.402344 C 22.519531 29.179688 28.984375 22.910156 37.011719 19.972656 C 37.796875 19.582031 38.1875 18.992188 38.1875 18.015625 L 38.1875 15.277344 C 38.1875 14.492188 37.796875 13.902344 37.011719 13.707031 C 36.816406 13.707031 36.425781 13.707031 36.226562 13.902344 C 17.625 19.777344 7.441406 39.558594 13.316406 58.160156 C 16.84375 69.125 25.261719 77.546875 36.226562 81.070312 C 37.011719 81.464844 37.796875 81.070312 37.992188 80.289062 C 38.1875 80.09375 38.1875 79.898438 38.1875 79.507812 L 38.1875 76.765625 C 38.1875 76.175781 37.601562 75.394531 37.011719 75.003906 Z M 57.773438 13.902344 C 56.988281 13.511719 56.203125 13.902344 56.007812 14.6875 C 55.8125 14.882812 55.8125 15.078125 55.8125 15.46875 L 55.8125 18.210938 C 55.8125 18.996094 56.398438 19.777344 56.988281 20.171875 C 72.261719 25.652344 80.097656 42.691406 74.414062 57.773438 C 71.476562 65.996094 65.015625 72.261719 56.988281 75.199219 C 56.203125 75.589844 55.8125 76.179688 55.8125 77.15625 L 55.8125 79.898438 C 55.8125 80.683594 56.203125 81.269531 56.988281 81.464844 C 57.183594 81.464844 57.574219 81.464844 57.769531 81.269531 C 76.375 75.394531 86.558594 55.617188 80.683594 37.011719 C 77.15625 25.851562 68.542969 17.429688 57.769531 13.902344 Z M 57.773438 13.902344 "/>

<g id="something">
<path style="fill-rule:nonzero;fill:rgb(96.078432%,97.254902%,98.431373%);fill-opacity:1;stroke-width:1;stroke-linecap:butt;stroke-linejoin:miter;stroke:rgb(90.980393%,91.764706%,92.941177%);stroke-opacity:1;stroke-miterlimit:4;" d="M 46 28.5 L 32 28.5 C 30.066406 28.5 28.5 30.066406 28.5 32 L 28.5 46 C 28.5 47.933594 30.066406 49.5 32 49.5 L 46 49.5 C 47.933594 49.5 49.5 47.933594 49.5 46 L 49.5 32 C 49.5 30.066406 47.933594 28.5 46 28.5 Z M 46 28.5 " transform="matrix(2,0,0,2,0,0)"/>
</g>

<g id="chain-logo" transform=" translate(64.9,64) scale(0.28)">
<path style=" stroke:none;fill-rule:nonzero;fill:url(#linear0);" d="M 16.242188 76.316406 C 16.847656 75.546875 17.675781 75.097656 18.558594 75.097656 L 98.367188 75.097656 C 99.824219 75.097656 100.554688 77.34375 99.523438 78.660156 L 83.757812 98.769531 C 83.152344 99.539062 82.324219 99.988281 81.441406 99.988281 L 1.632812 99.988281 C 0.175781 99.988281 -0.554688 97.746094 0.476562 96.429688 Z M 16.242188 76.316406 "/>
<path style=" stroke:none;fill-rule:nonzero;fill:url(#linear1);" d="M 16.242188 1.230469 C 16.871094 0.460938 17.703125 0.0117188 18.558594 0.0117188 L 98.367188 0.0117188 C 99.824219 0.0117188 100.554688 2.253906 99.523438 3.570312 L 83.757812 23.683594 C 83.152344 24.453125 82.324219 24.902344 81.441406 24.902344 L 1.632812 24.902344 C 0.175781 24.902344 -0.554688 22.65625 0.476562 21.339844 Z M 16.242188 1.230469 "/>
<path style=" stroke:none;fill-rule:nonzero;fill:url(#linear2);" d="M 83.757812 38.53125 C 83.152344 37.761719 82.324219 37.3125 81.441406 37.3125 L 1.632812 37.3125 C 0.175781 37.3125 -0.554688 39.558594 0.476562 40.875 L 16.242188 60.984375 C 16.847656 61.753906 17.675781 62.203125 18.558594 62.203125 L 98.367188 62.203125 C 99.824219 62.203125 100.554688 59.960938 99.523438 58.644531 Z M 83.757812 38.53125 "/>
</g>
</svg>
