<svg width="50" height="50" viewBox="0 0 50 50" fill="none" xmlns="http://www.w3.org/2000/svg">
<path d="M23.5 47C36.523 47 47 36.523 47 23.5C47 10.477 36.523 0 23.5 0C10.477 0 0 10.477 0 23.5C0 36.523 10.477 47 23.5 47Z" fill="#2775CA"/>
<path d="M29.9625 27.221C29.9625 23.794 27.9063 22.619 23.7938 22.1295C20.8563 21.7378 20.2688 20.9545 20.2688 19.5835C20.2688 18.2126 21.248 17.3315 23.2063 17.3315C24.9688 17.3315 25.948 17.919 26.4375 19.3878C26.5355 19.6815 26.8293 19.8773 27.123 19.8773H28.6895C29.0813 19.8773 29.375 19.5835 29.375 19.192V19.094C28.9833 16.9398 27.2208 15.2753 24.9688 15.0795V12.7295C24.9688 12.3378 24.675 12.044 24.1855 11.946H22.7168C22.325 11.946 22.0313 12.2398 21.9333 12.7295V14.9815C18.9958 15.3733 17.1355 17.3315 17.1355 19.7795C17.1355 23.0108 19.0938 24.2835 23.2063 24.7733C25.948 25.2628 26.8293 25.8503 26.8293 27.417C26.8293 28.9838 25.4583 30.0608 23.598 30.0608C21.052 30.0608 20.1708 28.9835 19.8771 27.5148C19.7793 27.1233 19.4855 26.9273 19.1918 26.9273H17.5271C17.1355 26.9273 16.8418 27.221 16.8418 27.6128V27.7108C17.2333 30.1585 18.8 31.921 22.0313 32.4108V34.7608C22.0313 35.1523 22.325 35.446 22.8145 35.544H24.2833C24.675 35.544 24.9688 35.2503 25.0668 34.7608V32.4108C28.0043 31.921 29.9625 29.8648 29.9625 27.221V27.221Z" fill="white"/>
<path d="M18.5062 37.502C10.8687 34.7605 6.95196 26.2417 9.7917 18.702C11.2604 14.5895 14.4917 11.4563 18.5062 9.9875C18.8979 9.79175 19.0937 9.498 19.0937 9.00826V7.6375C19.0937 7.24576 18.8979 6.95201 18.5062 6.85425C18.4082 6.85425 18.2124 6.85425 18.1144 6.95201C8.81245 9.88951 3.72071 19.7792 6.65821 29.0813C8.42071 34.5645 12.6312 38.775 18.1144 40.5375C18.5062 40.7333 18.8979 40.5375 18.9957 40.1458C19.0937 40.048 19.0937 39.95 19.0937 39.7542V38.3833C19.0937 38.0895 18.7999 37.698 18.5062 37.502ZM28.8854 6.95201C28.4937 6.75625 28.1019 6.95201 28.0042 7.34375C27.9062 7.44175 27.9062 7.53951 27.9062 7.7355V9.10625C27.9062 9.498 28.1999 9.88951 28.4937 10.0855C36.1312 12.827 40.0479 21.3458 37.2082 28.8855C35.7394 32.998 32.5082 36.1313 28.4937 37.6C28.1019 37.7958 27.9062 38.0895 27.9062 38.5792V39.95C27.9062 40.3417 28.1019 40.6355 28.4937 40.7333C28.5917 40.7333 28.7874 40.7333 28.8854 40.6355C38.1874 37.698 43.2791 27.8083 40.3416 18.5063C38.5792 12.925 34.2707 8.71451 28.8854 6.95201V6.95201Z" fill="white"/>
<rect x="28.5" y="28.5" width="21" height="21" rx="3.5" fill="#F5F8FB"/>
<path d="M39.9528 38.915L41.0582 40.6676L37.0405 43.8701L45.1362 38.9463V38.915H39.9528Z" fill="#1C60FF"/>
<path d="M36.9298 43.9351V34.168L32.8306 40.6676L36.9298 43.9351Z" fill="#1C60FF"/>
<rect x="28.5" y="28.5" width="21" height="21" rx="3.5" stroke="#E8EAED"/>
</svg>
