<svg width="50" height="50" fill="none" xmlns="http://www.w3.org/2000/svg">
  <path d="M50 0H0v50h50V0z" fill="#fff"/>
  <path d="M23.5 47A23.444 23.444 0 0047 23.5 23.444 23.444 0 0023.5 0 23.444 23.444 0 000 23.5 23.444 23.444 0 0023.5 47z" fill="#2775CA"/>
  <path d="M29.962 27.22c0-3.426-2.056-4.601-6.168-5.09-2.938-.392-3.525-1.176-3.525-2.547 0-1.37.979-2.252 2.937-2.252 1.763 0 2.742.588 3.232 2.056.098.294.391.49.685.49h1.566a.67.67 0 00.686-.685v-.098a4.892 4.892 0 00-4.406-4.015v-2.35c0-.391-.294-.685-.784-.783h-1.468c-.392 0-.686.294-.784.783v2.252c-2.937.392-4.797 2.35-4.797 4.798 0 3.232 1.958 4.504 6.07 4.994 2.742.49 3.623 1.077 3.623 2.644 0 1.566-1.37 2.643-3.231 2.643-2.546 0-3.427-1.077-3.72-2.545-.099-.392-.393-.588-.686-.588h-1.665a.67.67 0 00-.685.686v.098c.391 2.447 1.958 4.21 5.19 4.7v2.35c0 .391.293.685.782.783h1.47c.391 0 .685-.294.783-.783v-2.35c2.937-.49 4.895-2.547 4.895-5.19z" fill="#fff"/>
  <path d="M18.506 37.502c-7.637-2.742-11.554-11.26-8.714-18.8 1.468-4.113 4.7-7.246 8.714-8.715.392-.196.588-.49.588-.979v-1.37c0-.392-.196-.686-.588-.784-.098 0-.294 0-.392.098C8.812 9.889 3.721 19.779 6.658 29.08c1.763 5.483 5.973 9.694 11.456 11.456.392.196.784 0 .882-.392.098-.097.098-.195.098-.391v-1.371c0-.294-.294-.685-.588-.881zm10.38-30.55c-.392-.196-.784 0-.882.392-.098.097-.098.195-.098.391v1.371c0 .392.294.783.588.98 7.637 2.74 11.554 11.26 8.714 18.8-1.469 4.112-4.7 7.245-8.714 8.714-.392.195-.588.49-.588.979v1.37c0 .393.196.686.588.784.098 0 .293 0 .391-.098 9.302-2.937 14.394-12.827 11.457-22.129-1.763-5.581-6.071-9.792-11.457-11.554z" fill="#fff"/>
  <path d="M46 28.5H32a3.5 3.5 0 00-3.5 3.5v14a3.5 3.5 0 003.5 3.5h14a3.5 3.5 0 003.5-3.5V32a3.5 3.5 0 00-3.5-3.5z" fill="#F5F8FB"/>
  <path d="M40.751 47c-1.166 0-2.017-.258-2.553-.773a2.303 2.303 0 01-.801-1.667 1.033 1.033 0 01.14-.551 1 1 0 01.383-.352 1.436 1.436 0 011.192 0c.16.084.29.206.381.352.1.169.151.359.145.55a.951.951 0 01-.69.97c.193.225.464.38.767.44.34.09.69.137 1.044.138a2.48 2.48 0 001.315-.361c.403-.262.704-.636.858-1.066a4.29 4.29 0 00.28-1.596 4.057 4.057 0 00-.306-1.66 2.087 2.087 0 00-.886-1.031 2.514 2.514 0 00-1.276-.335 2.57 2.57 0 00-1.105.344l-.82.378v-.378l3.684-4.537h-5.106v4.708c-.015.34.083.676.28.964a.951.951 0 00.375.292c.15.066.317.095.483.085a1.52 1.52 0 00.848-.274c.276-.186.515-.412.71-.67a.237.237 0 01.092-.113.198.198 0 01.123-.042c.089.007.173.04.24.094a.447.447 0 01.13.318c-.01.08-.025.158-.046.235-.181.403-.485.75-.875.998a2.316 2.316 0 01-1.229.342c-1.105 0-1.871-.2-2.298-.6a2.218 2.218 0 01-.496-.761 2.077 2.077 0 01-.137-.88v-4.696H33v-.874h2.61v-1.995l-.598-.549V32h1.733l.652.31v2.68l6.745-.018.671.618-4.136 3.816c.25-.092.513-.15.782-.174.53.022 1.048.157 1.511.397.537.233.989.604 1.303 1.066.28.392.48.828.587 1.287.087.362.135.731.14 1.102a4.3 4.3 0 01-.51 2.041 3.141 3.141 0 01-1.532 1.406 5.337 5.337 0 01-2.207.469z" fill="#2C7DF7"/>
  <path d="M46 28.5H32a3.5 3.5 0 00-3.5 3.5v14a3.5 3.5 0 003.5 3.5h14a3.5 3.5 0 003.5-3.5V32a3.5 3.5 0 00-3.5-3.5z" stroke="#E8EAED"/>
</svg>
