<?xml version="1.0" encoding="UTF-8"?>
<svg xmlns="http://www.w3.org/2000/svg" xmlns:xlink="http://www.w3.org/1999/xlink" width="100px" height="100px" viewBox="0 0 100 100" version="1.1">

<defs>
<linearGradient id="linear0" gradientUnits="userSpaceOnUse" x1="360.879089" y1="351.455292" x2="141.212997" y2="-69.293602" gradientTransform="matrix(0.251446,0,0,-0.320755,0.000000000000007141,100.727336)">
<stop offset="0" style="stop-color:rgb(0%,100%,63.921571%);stop-opacity:1;"/>
<stop offset="1" style="stop-color:rgb(86.274511%,12.156863%,100%);stop-opacity:1;"/>
</linearGradient>
<linearGradient id="linear1" gradientUnits="userSpaceOnUse" x1="264.829102" y1="401.60141" x2="45.162998" y2="-19.147499" gradientTransform="matrix(0.251446,0,0,-0.320755,0.000000000000007141,100.727336)">
<stop offset="0" style="stop-color:rgb(0%,100%,63.921571%);stop-opacity:1;"/>
<stop offset="1" style="stop-color:rgb(86.274511%,12.156863%,100%);stop-opacity:1;"/>
</linearGradient>
<linearGradient id="linear2" gradientUnits="userSpaceOnUse" x1="312.548401" y1="376.687988" x2="92.882202" y2="-44.061001" gradientTransform="matrix(0.251446,0,0,-0.320755,0.000000000000007141,100.727336)">
<stop offset="0" style="stop-color:rgb(0%,100%,63.921571%);stop-opacity:1;"/>
<stop offset="1" style="stop-color:rgb(86.274511%,12.156863%,100%);stop-opacity:1;"/>
</linearGradient>
</defs>

<g id="surface1">
<svg id="Layer_1" data-name="Layer 1" xmlns="http://www.w3.org/2000/svg" viewBox="0 0 339.43 295.27"><title>tether-usdt-logo</title><path d="M62.15,1.45l-61.89,130a2.52,2.52,0,0,0,.54,2.94L167.95,294.56a2.55,2.55,0,0,0,3.53,0L338.63,134.4a2.52,2.52,0,0,0,.54-2.94l-61.89-130A2.5,2.5,0,0,0,275,0H64.45a2.5,2.5,0,0,0-2.3,1.45h0Z" style="fill:#50af95;fill-rule:evenodd"/><path d="M191.19,144.8v0c-1.2.09-7.4,0.46-21.23,0.46-11,0-18.81-.33-21.55-0.46v0c-42.51-1.87-74.24-9.27-74.24-18.13s31.73-16.25,74.24-18.15v28.91c2.78,0.2,10.74.67,21.74,0.67,13.2,0,19.81-.55,21-0.66v-28.9c42.42,1.89,74.08,9.29,74.08,18.13s-31.65,16.24-74.08,18.12h0Zm0-39.25V79.68h59.2V40.23H89.21V79.68H148.4v25.86c-48.11,2.21-84.29,11.74-84.29,23.16s36.18,20.94,84.29,23.16v82.9h42.78V151.83c48-2.21,84.12-11.73,84.12-23.14s-36.09-20.93-84.12-23.15h0Zm0,0h0Z" style="fill:#fff;fill-rule:evenodd"/></svg>
</g>
<g id="something">
<path style="fill-rule:nonzero;fill:rgb(96.078432%,97.254902%,98.431373%);fill-opacity:1;stroke-width:1;stroke-linecap:butt;stroke-linejoin:miter;stroke:rgb(90.980393%,91.764706%,92.941177%);stroke-opacity:1;stroke-miterlimit:4;" d="M 46 28.5 L 32 28.5 C 30.066406 28.5 28.5 30.066406 28.5 32 L 28.5 46 C 28.5 47.933594 30.066406 49.5 32 49.5 L 46 49.5 C 47.933594 49.5 49.5 47.933594 49.5 46 L 49.5 32 C 49.5 30.066406 47.933594 28.5 46 28.5 Z M 46 28.5 " transform="matrix(2,0,0,2,0,0)"/>
</g>

<g id="chain-logo" transform=" translate(64.9,64) scale(0.28)">
<path style=" stroke:none;fill-rule:nonzero;fill:url(#linear0);" d="M 16.242188 76.316406 C 16.847656 75.546875 17.675781 75.097656 18.558594 75.097656 L 98.367188 75.097656 C 99.824219 75.097656 100.554688 77.34375 99.523438 78.660156 L 83.757812 98.769531 C 83.152344 99.539062 82.324219 99.988281 81.441406 99.988281 L 1.632812 99.988281 C 0.175781 99.988281 -0.554688 97.746094 0.476562 96.429688 Z M 16.242188 76.316406 "/>
<path style=" stroke:none;fill-rule:nonzero;fill:url(#linear1);" d="M 16.242188 1.230469 C 16.871094 0.460938 17.703125 0.0117188 18.558594 0.0117188 L 98.367188 0.0117188 C 99.824219 0.0117188 100.554688 2.253906 99.523438 3.570312 L 83.757812 23.683594 C 83.152344 24.453125 82.324219 24.902344 81.441406 24.902344 L 1.632812 24.902344 C 0.175781 24.902344 -0.554688 22.65625 0.476562 21.339844 Z M 16.242188 1.230469 "/>
<path style=" stroke:none;fill-rule:nonzero;fill:url(#linear2);" d="M 83.757812 38.53125 C 83.152344 37.761719 82.324219 37.3125 81.441406 37.3125 L 1.632812 37.3125 C 0.175781 37.3125 -0.554688 39.558594 0.476562 40.875 L 16.242188 60.984375 C 16.847656 61.753906 17.675781 62.203125 18.558594 62.203125 L 98.367188 62.203125 C 99.824219 62.203125 100.554688 59.960938 99.523438 58.644531 Z M 83.757812 38.53125 "/>
</g>
</svg>
