<svg xmlns="http://www.w3.org/2000/svg" width="50" height="50" fill="none" viewBox="0 0 50 50"><g clip-path="url(#clip0)"><path fill="#50AF95" fill-rule="evenodd" d="M10.6064 2.20137L2.0367 20.2526C2.00409 20.3198 1.99375 20.3956 2.00721 20.4691C2.02066 20.5425 2.0572 20.6097 2.11147 20.6609L25.2563 42.9014C25.322 42.9647 25.4096 43 25.5007 43C25.5918 43 25.6793 42.9647 25.7451 42.9014L48.8899 20.6623C48.9442 20.6111 48.9807 20.5439 48.9942 20.4705C49.0076 20.397 48.9973 20.3212 48.9647 20.254L40.3949 2.20276C40.3673 2.14213 40.3228 2.09078 40.2668 2.05483C40.2108 2.01888 40.1457 1.99985 40.0792 2.00003H10.9249C10.8581 1.99919 10.7925 2.01776 10.736 2.05349C10.6795 2.08921 10.6345 2.14057 10.6064 2.20137V2.20137V2.20137Z" clip-rule="evenodd"/><path fill="#fff" fill-rule="evenodd" d="M28.4734 22.1061C28.3072 22.1186 27.4487 22.17 25.5337 22.17C24.0106 22.17 22.9292 22.1242 22.5498 22.1061C16.6635 21.8464 12.2699 20.8189 12.2699 19.5886C12.2699 18.3584 16.6635 17.3322 22.5498 17.0684V21.0827C22.9347 21.1105 24.0369 21.1758 25.56 21.1758C27.3878 21.1758 28.3031 21.0994 28.4679 21.0841V17.0712C34.3416 17.3336 38.7255 18.3612 38.7255 19.5886C38.7255 20.8161 34.343 21.8437 28.4679 22.1047L28.4734 22.1061ZM28.4734 16.656V13.0638H36.6707V7.58594H14.3525V13.0638H22.5484V16.6546C15.8867 16.9615 10.877 18.2848 10.877 19.8705C10.877 21.4563 15.8867 22.7782 22.5484 23.0864V34.5976H28.472V23.0823C35.1184 22.7754 40.1199 21.4535 40.1199 19.8691C40.1199 18.2848 35.1226 16.9629 28.472 16.6546L28.4734 16.656Z" clip-rule="evenodd"/></g><rect width="21" height="21" x="28.5" y="28.5" fill="#fff" rx="3.5"/><path fill="url(#paint0_linear)" d="M34.275 41.6324C34.3594 41.5554 34.4756 41.5105 34.5988 41.5105H45.7706C45.9747 41.5105 46.0768 41.7351 45.9325 41.8666L43.7256 43.8781C43.6411 43.9551 43.5249 44 43.4018 44H32.23C32.0258 44 31.9238 43.7755 32.0681 43.6439L34.275 41.6324Z"/><path fill="url(#paint1_linear)" d="M34.2745 34.1219C34.3625 34.0449 34.4786 34 34.5983 34H45.7701C45.9742 34 46.0763 34.2246 45.932 34.3561L43.7251 36.3676C43.6406 36.4446 43.5245 36.4895 43.4013 36.4895H32.2295C32.0253 36.4895 31.9233 36.265 32.0676 36.1334L34.2745 34.1219Z"/><path fill="url(#paint2_linear)" d="M43.7256 37.8531C43.6411 37.7761 43.5249 37.7312 43.4018 37.7312H32.23C32.0258 37.7312 31.9238 37.9558 32.0681 38.0873L34.275 40.0988C34.3594 40.1758 34.4756 40.2207 34.5988 40.2207H45.7706C45.9747 40.2207 46.0768 39.9962 45.9325 39.8646L43.7256 37.8531Z"/><rect width="21" height="21" x="28.5" y="28.5" stroke="#E8EAED" rx="3.5"/><defs><linearGradient id="paint0_linear" x1="44.703" x2="38.038" y1="32.799" y2="46.804" gradientUnits="userSpaceOnUse"><stop stop-color="#00FFA3"/><stop offset="1" stop-color="#DC1FFF"/></linearGradient><linearGradient id="paint1_linear" x1="41.322" x2="34.657" y1="31.19" y2="45.196" gradientUnits="userSpaceOnUse"><stop stop-color="#00FFA3"/><stop offset="1" stop-color="#DC1FFF"/></linearGradient><linearGradient id="paint2_linear" x1="43.002" x2="36.337" y1="31.989" y2="45.995" gradientUnits="userSpaceOnUse"><stop stop-color="#00FFA3"/><stop offset="1" stop-color="#DC1FFF"/></linearGradient><clipPath id="clip0"><rect width="47" height="41" fill="#fff" transform="translate(2 2)"/></clipPath></defs></svg>