<svg width="64" height="64" fill="none" xmlns="http://www.w3.org/2000/svg"><path d="M48.333 21.05c-1.166-.668-2.666-.668-4 0L35 26.567l-6.333 3.51-9.167 5.517c-1.167.668-2.667.668-4 0l-7.167-4.347c-1.166-.668-2-2.006-2-3.51v-8.358c0-1.338.667-2.675 2-3.51l7.167-4.18c1.167-.668 2.667-.668 4 0l7.167 4.346c1.166.67 2 2.006 2 3.511v5.516L35 21.385V15.7c0-1.337-.667-2.675-2-3.51L19.667 4.334c-1.167-.669-2.667-.669-4 0L2 12.358c-1.333.668-2 2.006-2 3.343v15.714c0 1.337.667 2.674 2 3.51l13.5 7.857c1.167.668 2.667.668 4 0l9.167-5.35L35 33.755l9.167-5.35c1.166-.668 2.666-.668 4 0l7.166 4.18c1.167.668 2 2.006 2 3.51v8.358c0 1.338-.666 2.675-2 3.51l-7 4.18c-1.166.669-2.666.669-4 0l-7.166-4.18c-1.167-.668-2-2.005-2-3.51v-5.349l-6.334 3.678v5.516c0 1.337.667 2.675 2 3.51l13.5 7.857c1.167.669 2.667.669 4 0l13.5-7.856c1.167-.669 2-2.006 2-3.51V32.417c0-1.338-.666-2.675-2-3.51l-13.5-7.858z" fill="#8247E5"/></svg>