<svg width="64" height="64" fill="none" xmlns="http://www.w3.org/2000/svg"><path d="M61 43.654a8.657 8.657 0 0 1-4.343 7.506L36.313 62.85a8.656 8.656 0 0 1-8.626 0L7.344 51.16A8.656 8.656 0 0 1 3 43.654V20.346a8.657 8.657 0 0 1 4.344-7.506L27.687 1.15a8.657 8.657 0 0 1 8.626 0l20.343 11.69A8.656 8.656 0 0 1 61 20.346v23.308z" fill="#1D86CC"/><path d="M29.594 4.405 9.51 16.005A5.02 5.02 0 0 0 7 20.355l.013 23.225a5.02 5.02 0 0 0 2.507 4.343l20.107 11.623a5.02 5.02 0 0 0 5.021 0L54.732 47.95a5.02 5.02 0 0 0 2.51-4.35l-.012-23.225a5.021 5.021 0 0 0-2.508-4.343L34.615 4.409a5.02 5.02 0 0 0-5.021 0v-.004z" fill="#fff"/><path d="M22.967 51.696a.94.94 0 0 1 .197-.412c6.008-10.194 12.017-20.387 18.027-30.58.083-.142.16-.287.232-.414-.053-.092-.113-.073-.164-.073-2.568.01-5.135.026-7.705.023a.537.537 0 0 0-.51.341 8205.23 8205.23 0 0 1-5.818 9.607L14.885 50.546c-.037.06-.075.12-.107.181-.073.14-.156.163-.303.077-.639-.377-1.284-.742-1.962-1.132l18.309-29.364c-.04-.119-.12-.09-.183-.091-.981-.03-1.963-.072-2.943-.08a10.88 10.88 0 0 0-4.045.651 5.711 5.711 0 0 0-2.85 2.314 3825.336 3825.336 0 0 1-10.074 15.629c-.053.082-.11.163-.164.244-.193 0-.164-.16-.182-.27a3.253 3.253 0 0 1-.012-.505c0-5.753.02-11.506-.018-17.259a2.48 2.48 0 0 1 1.42-2.396c4.425-2.522 8.82-5.096 13.23-7.644 1.968-1.137 3.942-2.263 5.896-3.424a2.23 2.23 0 0 1 2.486 0c3.592 2.109 7.216 4.168 10.828 6.246a4846.18 4846.18 0 0 0 8.175 4.697c.195.111.385.23.58.34a1.89 1.89 0 0 1 1.002 1.774c.005 6.258.005 12.517 0 18.775.012.154-.004.309-.05.456-.216.21-.294-.025-.373-.137-.325-.456-.616-.937-.918-1.41-2.416-3.781-4.84-7.558-7.272-11.329-.817-1.275-1.644-2.544-2.453-3.824-.188-.299-.223-.303-.411.018-1.22 2.064-2.44 4.129-3.658 6.194a.63.63 0 0 0 .074.736c1.005 1.62 2.008 3.243 3.009 4.866l5.132 8.302c.692 1.122 1.386 2.243 2.081 3.363.129.15.202.34.205.538-.139.276-.428.354-.67.48-.395.285-.83.512-1.29.673-.249-.062-.337-.286-.455-.47-1.589-2.478-3.157-4.969-4.736-7.453-1.623-2.554-3.239-5.117-4.87-7.668-.209-.327-.242-.33-.439 0-1.418 2.386-2.817 4.784-4.239 7.167a.635.635 0 0 0 .035.742c1.916 2.952 3.787 5.93 5.682 8.896.528.827 1.06 1.65 1.58 2.483.1.162.24.324.148.543a8.995 8.995 0 0 1-1.602.995c-1.77 1.03-3.54 2.058-5.312 3.085a1.756 1.756 0 0 1-1.905 0c-2.61-1.51-5.224-3.012-7.843-4.508a1.023 1.023 0 0 1-.45-.351z" fill="#2D374B"/><path d="M53.838 39.828c.004-.155.012-.309.012-.463 0-6.244.002-12.487.006-18.73a1.948 1.948 0 0 0-1.064-1.852A8802.552 8802.552 0 0 1 33.136 7.482a1.825 1.825 0 0 0-1.982-.006c-3.636 2.113-7.276 4.221-10.921 6.323l-8.773 5.08a1.828 1.828 0 0 0-.983 1.723c.015 5.99.023 11.982.025 17.973 0 .133-.054.282.063.4-.693 1.153-1.454 2.26-2.183 3.39a386.5 386.5 0 0 1-1.1 1.691c-.06.09-.127.173-.244.334-.008-.189-.017-.293-.017-.397 0-7.9.001-15.802.004-23.702A4.775 4.775 0 0 1 9.52 15.99c2.542-1.51 5.118-2.963 7.678-4.446 2.16-1.25 4.311-2.51 6.47-3.763 2.012-1.169 4.004-2.373 6.051-3.478a5.01 5.01 0 0 1 5.1.133c1.644.933 3.282 1.883 4.922 2.826l4.628 2.665a4123.3 4123.3 0 0 0 8.496 4.881c.62.357 1.24.713 1.855 1.076a5.205 5.205 0 0 1 2.576 3.706c.029.223.038.448.027.672 0 7.774 0 15.549.002 23.324a5.008 5.008 0 0 1-1.8 3.874c-.325.247-.673.46-1.04.637a1523.664 1523.664 0 0 1-6.328 3.672 4303.33 4303.33 0 0 1-6.737 3.889c-2.16 1.25-4.315 2.505-6.47 3.765-.536.36-1.14.61-1.774.732a5.004 5.004 0 0 1-3.117-.397c-1.074-.576-2.12-1.2-3.18-1.807-1.422-.816-2.843-1.634-4.264-2.453l-1.205-.689c-.148-.084-.249-.17-.134-.362.532-.89 1.055-1.786 1.584-2.678.019-.032.066-.047.1-.071.493.23.97.493 1.429.786 2.32 1.327 4.638 2.66 6.952 4.001a1.64 1.64 0 0 0 1.782-.019c2.198-1.29 4.406-2.56 6.61-3.837.11-.064.221-.121.332-.18.208-.266.485-.469.802-.586 1.99-1.14 3.967-2.304 5.958-3.442.166-.095.316-.241.532-.216l1.95-1.13c.12-.25.373-.33.586-.453.982-.566 1.954-1.148 2.944-1.697a1.682 1.682 0 0 0 .895-1.59c.01-.993 0-1.986.005-2.98a.73.73 0 0 1 .101-.527z" fill="#96BEDC"/><path d="M53.841 39.828c.005 1.232.033 2.467.005 3.698a1.562 1.562 0 0 1-.818 1.415c-1.24.703-2.46 1.446-3.712 2.13-.499-.91-1.074-1.775-1.618-2.658-2.828-4.583-5.659-9.164-8.493-13.742-.17-.274-.325-.56-.515-.819a.415.415 0 0 1 0-.529c.677-1.131 1.342-2.27 2.012-3.405l1.858-3.153a.354.354 0 0 1 .164-.173c.323.498.65 1 .975 1.503a58329.434 58329.434 0 0 1 9.84 15.33c.072.153.175.29.302.403zM47.363 48.2c-.807.53-1.663.98-2.495 1.472-1.509.886-3.026 1.757-4.54 2.634l-.257.142a.714.714 0 0 0-.173-.377l-4.044-6.354a1752.653 1752.653 0 0 0-3.332-5.21.536.536 0 0 1-.03-.65c1.49-2.508 2.972-5.02 4.45-7.536.034-.058.062-.125.15-.144.12.028.15.149.208.24l8.05 12.68c.57.9 1.14 1.803 1.714 2.7.073.153.174.29.298.404l.001-.001z" fill="#28A0F0"/></svg>