<svg width="64" height="64" fill="none" xmlns="http://www.w3.org/2000/svg"><g clip-path="url(#a)"><path d="M32 61.585c16.34 0 29.585-13.246 29.585-29.585C61.585 15.66 48.339 2.415 32 2.415 15.66 2.415 2.415 15.661 2.415 32c0 16.34 13.246 29.585 29.585 29.585z" stroke="#222326" stroke-width="5.031"/><path d="M37.635 42.667c-.2-.201-.2-.604-.402-1.006 0-.403-.201-.805-.201-1.208-.403.403-.805.604-1.208 1.006-.402.403-1.006.604-1.409.805-.603.202-1.006.403-1.811.604-.604.201-1.409.201-2.013.201-1.207 0-2.213-.2-3.22-.603-1.006-.403-1.811-.805-2.616-1.41-.805-.603-1.208-1.408-1.61-2.213-.403-.805-.604-1.811-.604-2.818 0-2.415 1.006-4.427 2.818-5.635 1.81-1.409 4.629-2.012 8.251-2.012h3.422v-1.41c0-1.207-.403-2.012-1.007-2.616-.805-.603-1.811-1.006-3.22-1.006-1.207 0-2.012.201-2.616.805-.604.604-.805 1.208-.805 2.013h-6.038c0-1.007.201-2.013.604-2.818.402-.805 1.006-1.61 2.012-2.415a10.665 10.665 0 0 1 3.02-1.61c1.207-.402 2.616-.604 4.226-.604 1.409 0 2.616.202 3.824.604 1.207.403 2.213.805 3.22 1.61.805.604 1.61 1.61 2.012 2.616.403 1.007.805 2.214.805 3.623v10.063c0 1.208 0 2.214.202 3.019.2.805.402 1.61.603 2.012v.403h-6.239zM31.8 38.441c.604 0 1.207 0 1.61-.202a9.81 9.81 0 0 0 1.409-.603c.402-.202.805-.403 1.006-.806l.805-.804V32H33.61c-1.006 0-1.811 0-2.415.202-.604.2-1.207.402-1.61.805-.402.402-.805.603-1.006 1.207-.201.403-.201 1.006-.201 1.409 0 .805.2 1.409.805 2.013.603.603 1.61.805 2.616.805z" fill="#222326"/></g><defs><clipPath id="a"><path fill="#fff" d="M0 0h64v64H0z"/></clipPath></defs></svg>