<svg width="64" height="64" fill="none" xmlns="http://www.w3.org/2000/svg"><g clip-path="url(#a)"><path d="M32 64c17.673 0 32-14.327 32-32C64 14.327 49.673 0 32 0 14.327 0 0 14.327 0 32c0 17.673 14.327 32 32 32z" fill="#8DC351"/><path d="M42.4 21c-1.6-4-5.4-4.2-10-3.4L30.8 12l-3.4 1 1.6 5.4c-.8.2-1.8.6-2.8.8l-1.6-5.6-3.4 1 1.6 5.6c-.8.2-1.4.4-2.2.6L16 22.4l1 3.6s2.6-.8 2.4-.8c1.4-.4 2 .2 2.4 1l1.8 6.4h.4l-.4.2 2.6 9c0 .4 0 1.2-1 1.6l-2.4.8.4 4.2 4.4-1.2 2.4-.6 1.6 5.6 3.4-1-1.6-5.6c1-.2 1.8-.4 2.8-.8l1.6 5.6 3.4-1-1.6-5.6c5.6-2 9.2-4.6 8.2-10.2-.8-4.4-3.4-5.8-7-5.6 2-2 2.8-4 1.6-7zm-1.2 13.6c1.2 4.2-6.2 5.8-8.6 6.6l-2.2-7.6c2.4-.6 9.4-3.4 10.8 1zm-4.8-10.2c1.2 3.8-5 5.2-7 5.8l-2-6.8c2-.6 8-3 9 1z" fill="#fff"/></g><defs><clipPath id="a"><path fill="#fff" d="M0 0h64v64H0z"/></clipPath></defs></svg>