<svg width="64" height="64" fill="none" xmlns="http://www.w3.org/2000/svg"><g clip-path="url(#a)"><path d="M63.039 39.74c-4.274 17.144-21.638 27.576-38.783 23.302C7.119 58.768-3.314 41.404.961 24.262 5.233 7.117 22.596-3.318 39.736.957 56.88 5.23 67.312 22.597 63.038 39.74h.001z" fill="#F7931A"/><path d="M46.11 27.44c.636-4.257-2.606-6.546-7.039-8.073l1.438-5.768-3.512-.875-1.4 5.616c-.922-.23-1.87-.447-2.812-.662l1.41-5.653-3.509-.875-1.439 5.766c-.764-.174-1.514-.346-2.242-.527l.004-.018-4.842-1.21-.934 3.75s2.605.598 2.55.635c1.422.355 1.68 1.296 1.636 2.042l-1.638 6.57c.098.026.225.062.365.118l-.37-.092-2.297 9.205c-.174.432-.615 1.08-1.609.834.035.05-2.552-.637-2.552-.637l-1.743 4.02 4.57 1.139c.85.213 1.683.436 2.502.646l-1.453 5.835 3.507.875 1.44-5.772c.957.26 1.887.5 2.797.726L27.504 50.8l3.511.875 1.453-5.823c5.987 1.133 10.49.676 12.383-4.738 1.527-4.36-.075-6.875-3.225-8.516 2.294-.531 4.022-2.04 4.483-5.157h.001zm-8.023 11.25c-1.086 4.36-8.426 2.004-10.807 1.412l1.928-7.73c2.38.595 10.011 1.77 8.88 6.318zm1.085-11.312c-.99 3.966-7.1 1.95-9.083 1.457l1.748-7.01c1.983.494 8.367 1.416 7.335 5.553z" fill="#fff"/></g><defs><clipPath id="a"><path fill="#fff" d="M0 0h64v64H0z"/></clipPath></defs></svg>