<svg width="64" height="64" fill="none" xmlns="http://www.w3.org/2000/svg"><g clip-path="url(#a)"><path d="M32 0c17.664 0 32 14.336 32 32S49.664 64 32 64 0 49.664 0 32 14.336 0 32 0z" fill="#FBCC5C"/><path d="M51 28.136C51 19.763 44.226 13 35.839 13a15.132 15.132 0 0 0-13.871 9.081C16.678 24.464 13 29.746 13 35.864 13 44.237 19.774 51 28.161 51a15.132 15.132 0 0 0 13.871-9.081C47.387 39.6 51 34.319 51 28.136zm-12.71 9.983c-.774.193-1.548.257-2.322.257-5.678 0-10.258-4.637-10.258-10.24 0-.773.064-1.482.258-2.19.774-.194 1.548-.258 2.322-.258 5.678 0 10.258 4.573 10.258 10.24-.064.774-.129 1.482-.258 2.19zm-20.322-2.19c0-2.77 1.096-5.217 2.838-7.085.387 7.858 6.71 14.105 14.581 14.427-1.87 1.804-4.387 2.963-7.161 2.963-5.678-.065-10.258-4.637-10.258-10.305zm25.42-.709c-.388-7.857-6.71-14.105-14.581-14.427 1.87-1.803 4.387-2.962 7.16-2.962 5.678 0 10.259 4.572 10.259 10.24-.065 2.834-1.161 5.346-2.839 7.15z" fill="#F9B73E"/><path d="M50.484 28.136c0-7.987-6.516-14.492-14.516-14.492-6.065 0-11.226 3.671-13.42 8.953-5.16 2.19-8.838 7.342-8.838 13.332 0 7.986 6.516 14.491 14.516 14.491 6.065 0 11.226-3.67 13.42-8.952 5.096-2.19 8.838-7.343 8.838-13.332zM28.226 46.813c-6 0-10.903-4.894-10.903-10.884 0-3.414 1.613-6.505 4.129-8.502v.709c0 7.986 6.516 14.491 14.516 14.491h.903c-2.064 2.576-5.161 4.186-8.645 4.186zm10.58-8.18c-.902.258-1.87.387-2.838.387-6 0-10.903-4.895-10.903-10.884 0-.966.129-1.868.387-2.706a10.414 10.414 0 0 1 2.839-.386c6 0 10.903 4.895 10.903 10.885a17.056 17.056 0 0 1-.387 2.705zm3.936-1.996v-.708c0-7.987-6.516-14.492-14.516-14.492h-.903c2-2.576 5.097-4.186 8.58-4.186 6 0 10.904 4.895 10.904 10.885 0 3.477-1.613 6.505-4.065 8.501z" fill="#fff"/></g><defs><clipPath id="a"><path fill="#fff" d="M0 0h64v64H0z"/></clipPath></defs></svg>