<svg width="64" height="64" fill="none" xmlns="http://www.w3.org/2000/svg"><g clip-path="url(#a)"><path d="M32 64c17.673 0 32-14.327 32-32C64 14.327 49.673 0 32 0 14.327 0 0 14.327 0 32c0 17.673 14.327 32 32 32z" fill="#2E3148"/><path d="M32 50.568c10.254 0 18.568-8.313 18.568-18.568S42.254 13.432 32 13.432c-10.255 0-18.568 8.313-18.568 18.568S21.745 50.568 32 50.568z" fill="#1B1E36"/><path d="M32.066 4.083c-3.455 0-6.256 12.528-6.256 27.983s2.801 27.984 6.256 27.984c3.454 0 6.255-12.529 6.255-27.984 0-15.455-2.801-27.983-6.255-27.983zm.431 54.387c-.395.527-.79.132-.79.132-1.59-1.843-2.386-5.267-2.386-5.267-2.782-8.955-2.12-28.181-2.12-28.181 1.308-15.264 3.686-18.87 4.496-19.67a.494.494 0 0 1 .633-.052c1.175.833 2.16 4.313 2.16 4.313 2.909 10.799 2.645 20.939 2.645 20.939.264 8.823-1.457 18.699-1.457 18.699-1.325 7.506-3.18 9.087-3.18 9.087z" fill="#6F7390"/><path d="M56.339 18.14c-1.72-2.998-13.98.808-27.392 8.499C15.535 34.329 6.074 42.995 7.792 45.99c1.719 2.996 13.98-.808 27.392-8.499 13.413-7.69 22.873-16.355 21.155-19.351zM9.379 45.58c-.658-.084-.51-.625-.51-.625.808-2.296 3.378-4.69 3.378-4.69C18.633 33.395 35.64 24.4 35.64 24.4c13.89-6.461 18.203-6.189 19.298-5.887a.494.494 0 0 1 .358.526c-.131 1.434-2.666 4.02-2.666 4.02-7.914 7.9-16.841 12.718-16.841 12.718-7.522 4.62-16.945 8.04-16.945 8.04-7.17 2.584-9.465 1.761-9.465 1.761z" fill="#6F7390"/><path d="M56.278 46.09c1.733-2.989-7.704-11.693-21.069-19.442C21.844 18.9 9.586 15.047 7.854 18.041c-1.731 2.995 7.704 11.694 21.077 19.443 13.372 7.748 25.616 11.601 27.347 8.607zM9.003 19.197c-.256-.607.284-.753.284-.753 2.393-.452 5.753.578 5.753.578 9.143 2.082 25.447 12.294 25.447 12.294C53.039 40.1 54.964 43.968 55.253 45.066a.494.494 0 0 1-.274.574c-1.309.6-4.815-.293-4.815-.293C39.36 42.45 30.718 37.14 30.718 37.14c-7.764-4.187-15.441-10.63-15.441-10.63-5.834-4.913-6.272-7.308-6.272-7.308l-.002-.007z" fill="#6F7390"/><path d="M32 35.292a3.292 3.292 0 1 0 0-6.584 3.292 3.292 0 0 0 0 6.584zM45.497 21.333c1.055 0 1.91-.884 1.91-1.975 0-1.09-.855-1.975-1.91-1.975-1.054 0-1.91.884-1.91 1.975 0 1.091.856 1.975 1.91 1.975zM14.157 28.05c1.054 0 1.91-.885 1.91-1.976s-.856-1.975-1.91-1.975c-1.055 0-1.91.884-1.91 1.975 0 1.09.855 1.975 1.91 1.975zM28.116 52.28c1.054 0 1.91-.885 1.91-1.976 0-1.09-.856-1.975-1.91-1.975-1.055 0-1.91.885-1.91 1.975 0 1.091.855 1.976 1.91 1.976z" fill="#B7B9C8"/></g><defs><clipPath id="a"><path fill="#fff" d="M0 0h64v64H0z"/></clipPath></defs></svg>