<svg width="64" height="64" fill="none" xmlns="http://www.w3.org/2000/svg"><path d="M60.8 0H3.2A3.2 3.2 0 0 0 0 3.2v57.6A3.2 3.2 0 0 0 3.2 64h57.6a3.2 3.2 0 0 0 3.2-3.2V3.2A3.2 3.2 0 0 0 60.8 0z" fill="#FF0420"/><path d="M19.187 43.141c-2.455 0-4.467-.577-6.035-1.733-1.547-1.176-2.32-2.847-2.32-5.014 0-.453.05-1.01.154-1.67.268-1.486.65-3.271 1.145-5.355 1.403-5.674 5.024-8.511 10.863-8.511 1.59 0 3.013.268 4.271.804 1.259.516 2.25 1.3 2.971 2.353.722 1.031 1.084 2.27 1.084 3.714 0 .433-.052.98-.155 1.64a70.08 70.08 0 0 1-1.114 5.354c-.722 2.827-1.97 4.942-3.745 6.345-1.775 1.382-4.147 2.073-7.119 2.073zm.434-4.456c1.155 0 2.135-.34 2.94-1.022.825-.68 1.413-1.722 1.764-3.125.475-1.94.836-3.632 1.083-5.076.083-.433.124-.877.124-1.331 0-1.878-.98-2.816-2.94-2.816-1.155 0-2.146.34-2.971 1.02-.805.682-1.383 1.724-1.733 3.127-.372 1.382-.743 3.074-1.115 5.076a6.608 6.608 0 0 0-.123 1.3c0 1.898.99 2.847 2.97 2.847zM32.743 42.832c-.227 0-.402-.072-.526-.217a.74.74 0 0 1-.093-.557l4.271-20.117a.887.887 0 0 1 .34-.557.945.945 0 0 1 .589-.217h8.232c2.29 0 4.127.475 5.51 1.424 1.402.95 2.104 2.321 2.104 4.116 0 .516-.062 1.052-.186 1.61-.516 2.372-1.558 4.126-3.126 5.26-1.547 1.136-3.673 1.703-6.375 1.703h-4.178l-1.424 6.778a.887.887 0 0 1-.34.557.944.944 0 0 1-.588.217h-4.21zM43.7 31.009c.867 0 1.62-.237 2.26-.712.66-.474 1.093-1.155 1.3-2.042.062-.351.093-.66.093-.929 0-.598-.176-1.052-.527-1.362-.35-.33-.949-.495-1.795-.495h-3.714l-1.176 5.54h3.56z" fill="#fff"/></svg>