<svg width="64" height="64" fill="none" xmlns="http://www.w3.org/2000/svg"><g clip-path="url(#a)"><path d="M0 32a32 32 0 1 0 64.002 0A32 32 0 0 0 0 32z" fill="#F5F8FB"/><path d="M0 32a32 32 0 1 0 64.002 0A32 32 0 0 0 0 32z" fill="url(#b)"/><path fill-rule="evenodd" clip-rule="evenodd" d="m15 22 17.31-10L49 22v20L32.31 52 15 42V22zm11.5 19.5-6-3V25l12-7L44 25l-5 4-6.5-4-6 3.5v13z" fill="#fff"/></g><defs><linearGradient id="b" x1="32" y1="0" x2="32" y2="64" gradientUnits="userSpaceOnUse"><stop stop-color="#FF4500"/><stop offset="1" stop-color="#FFC804"/></linearGradient><clipPath id="a"><path fill="#fff" d="M0 0h64v64H0z"/></clipPath></defs></svg>