<svg width="64" height="64" fill="none" xmlns="http://www.w3.org/2000/svg"><g clip-path="url(#a)"><rect width="64" height="64" rx="32" fill="#3672E1"/><path d="M45.997 36.232c.01-1.153-.08-2.258-.801-3.25-.7-.959-1.704-1.457-2.888-1.81 2.722-.933 3.656-2.183 3.66-4.826.003-2.555.006-5.113 0-7.668-.004-2.975-1.772-4.67-4.887-4.673C35.19 13.997 29.299 14 23.406 14c-3.67 0-5.376 1.622-5.378 5.115 0 7.629.046 15.257-.028 22.883-.023 2.265.757 3.942 2.658 5.314 2.049 1.48 4.133 2.938 5.957 4.688h.763c.263-.489.217-1.016.217-1.541 0-5.268.023-10.533-.023-15.8-.01-1.053.311-1.465 1.439-1.396 1.265.076 2.538-.003 3.806.022 2.342.046 3.692 1.35 3.697 3.586.013 4.577 0 9.155.005 13.732 0 .479-.097.98.27 1.394h.508c2.238-1.735 4.462-3.485 6.718-5.196 1.321-1.001 2-2.25 1.98-3.875a293.04 293.04 0 0 1 0-6.696l.002.002zm-9.483-10.679c-.033 2.167-1.408 3.453-3.684 3.48-1.398.018-2.799-.012-4.197.01-.747.013-1.069-.257-1.048-1.004.01-.365.015-.729.017-1.094.01-1.095-.007-2.192-.007-3.287 0-1.065.018-2.13.007-3.196-.002-.355-.01-.709-.02-1.065-.023-.75.176-1.11 1.056-1.09 2.245.047 4.493.042 6.74.003.901-.015 1.177.329 1.159 1.156-.044 2.027.01 4.06-.023 6.087z" fill="#fff"/></g><defs><clipPath id="a"><path fill="#fff" d="M0 0h64v64H0z"/></clipPath></defs></svg>