<svg width="64" height="64" fill="none" xmlns="http://www.w3.org/2000/svg"><g clip-path="url(#a)"><path d="M32 64c17.673 0 32-14.327 32-32C64 14.327 49.673 0 32 0 14.327 0 0 14.327 0 32c0 17.673 14.327 32 32 32z" fill="#fff"/><path d="m32.002 10.104 21.427 21.427L32.001 52.96 10.575 31.53l21.428-21.427z" fill="#FFCE45"/><path d="m32 38.524-21.444-6.993L32 10.104l21.445 21.427L32 38.524z" fill="#FEBE44"/><path d="M18.015 30.133h9.79L32 25.471l4.662 4.662h9.79L32 14.516 18.016 30.133z" fill="#fff"/><path opacity=".42" d="M32.001 52.958V10.104l21.427 21.427L32 52.958z" fill="#D9A547"/></g><defs><clipPath id="a"><path fill="#fff" d="M0 0h64v64H0z"/></clipPath></defs></svg>