<svg width="64" height="64" viewBox="0 0 64 64" fill="none" xmlns="http://www.w3.org/2000/svg">
<g clip-path="url(#clip0_4846_3814)">
<g clip-path="url(#clip1_4846_3814)">
<path d="M29.1713 18.4226C30.911 20.5907 33.1517 22.3033 35.7004 23.4127C38.2493 24.522 41.0297 24.995 43.8021 24.7908C43.9137 24.7784 44.0266 24.7981 44.1275 24.8476C44.2282 24.8971 44.3129 24.9743 44.3715 25.0703C44.43 25.1663 44.46 25.2768 44.4577 25.3892C44.4556 25.5016 44.4214 25.6109 44.3592 25.7045C42.8355 28.0298 41.9 30.6907 41.633 33.4577C41.3661 36.225 41.7759 39.0155 42.827 41.5891C42.8682 41.6909 42.8801 41.8024 42.8613 41.9106C42.8426 42.019 42.7943 42.1199 42.7212 42.2022C42.6482 42.2844 42.5537 42.3447 42.4483 42.3761C42.3431 42.4075 42.2312 42.4091 42.1251 42.3803C39.4397 41.6465 36.6158 41.5776 33.8979 42.1796C31.18 42.7814 28.6495 44.0358 26.5249 45.8346C26.44 45.9048 26.3372 45.9499 26.2282 45.9654C26.1192 45.9808 26.0082 45.9659 25.9073 45.9221C25.8064 45.8782 25.7196 45.8073 25.6564 45.7171C25.5933 45.6269 25.5564 45.521 25.5498 45.4112C25.4154 42.6355 24.6083 39.9341 23.198 37.5398C21.7878 35.1452 19.8166 33.1296 17.4542 31.6661C17.3611 31.6074 17.2862 31.5238 17.2376 31.425C17.1891 31.3261 17.169 31.2156 17.1794 31.1061C17.1898 30.9963 17.2302 30.8917 17.2964 30.8038C17.3626 30.7159 17.4521 30.6479 17.5546 30.6075C20.1561 29.6237 22.4793 28.0217 24.3237 25.9396C26.168 23.8575 27.4779 21.3579 28.1405 18.6565C28.1665 18.5499 28.2216 18.4526 28.3 18.3757C28.3783 18.2987 28.4763 18.245 28.5834 18.2207C28.6905 18.1964 28.8022 18.2024 28.9061 18.2381C29.01 18.2737 29.1018 18.3376 29.1713 18.4226Z" fill="black"/>
<path d="M31.5906 7.09504C36.5163 7.09504 41.3314 8.55569 45.427 11.2923C49.5226 14.0289 52.7147 17.9185 54.5997 22.4692C56.4847 27.02 56.9781 32.0274 56.0169 36.8585C55.056 41.6895 52.6839 46.1272 49.2009 49.6103C45.7178 53.0932 41.2804 55.4652 36.4493 56.4261C31.6183 57.3872 26.6106 56.8939 22.0599 55.0089C17.5092 53.1239 13.6197 49.9318 10.8831 45.8362C8.14652 41.7407 6.68567 36.9257 6.68567 31.9999C6.69304 25.397 9.3193 19.0667 13.9883 14.3976C18.6572 9.72868 24.9877 7.10242 31.5906 7.09504ZM31.5906 0.40918C25.3425 0.40918 19.2348 2.26195 14.0397 5.73318C8.84461 9.20442 4.79575 14.1382 2.40472 19.9107C0.0136907 25.6831 -0.611915 32.035 0.607019 38.163C1.82595 44.291 4.83467 49.9198 9.25272 54.3378C13.6708 58.7559 19.2996 61.7646 25.4276 62.9837C31.5556 64.2025 37.9074 63.577 43.6798 61.1858C49.4524 58.7949 54.3863 54.7457 57.8575 49.5508C61.3286 44.3557 63.1814 38.2478 63.1814 31.9999C63.1814 23.6216 59.853 15.5863 53.9285 9.66189C48.0041 3.73749 39.9689 0.40918 31.5906 0.40918Z" fill="black"/>
</g>
</g>
<defs>
<clipPath id="clip0_4846_3814">
<rect width="64" height="64" fill="white"/>
</clipPath>
<clipPath id="clip1_4846_3814">
<rect width="64" height="64" fill="white"/>
</clipPath>
</defs>
</svg>
