<svg width="64" height="64" fill="none" xmlns="http://www.w3.org/2000/svg"><g clip-path="url(#a)"><path d="M38.36 64c-4.567 0-7.9-1.1-10-3.3a10.189 10.189 0 0 1-3.14-7.111 4.717 4.717 0 0 1 .55-2.35 4.067 4.067 0 0 1 1.5-1.501 5.232 5.232 0 0 1 4.67 0 4 4 0 0 1 1.491 1.5 4.62 4.62 0 0 1 .57 2.35 4.49 4.49 0 0 1-.8 2.75 3.727 3.727 0 0 1-1.9 1.392 5.19 5.19 0 0 0 3 1.87c1.328.386 2.705.584 4.09.59a9.116 9.116 0 0 0 5.15-1.54 9 9 0 0 0 3.36-4.55 19.766 19.766 0 0 0 1.1-6.81 18.686 18.686 0 0 0-1.2-7.08 8.74 8.74 0 0 0-3.47-4.4 9.227 9.227 0 0 0-5-1.43 9.512 9.512 0 0 0-4.33 1.47l-3.21 1.61v-1.61L45.22 16.492h-20V36.58a7.187 7.187 0 0 0 1.1 4.11 3.79 3.79 0 0 0 3.36 1.61A5.619 5.619 0 0 0 33 41.13a11.987 11.987 0 0 0 2.78-2.86 1 1 0 0 1 .361-.48.74.74 0 0 1 .483-.18c.347.032.676.172.94.4.334.373.516.859.51 1.36-.039.337-.1.67-.18 1a9.682 9.682 0 0 1-3.43 4.258 8.508 8.508 0 0 1-4.812 1.462c-4.33 0-7.33-.853-9-2.56a9.587 9.587 0 0 1-2.48-7V16.492H8V12.76h10.22V4.25l-2.34-2.342V0h6.79l2.55 1.32v11.44l26.42-.08 2.63 2.64-16.2 16.278c.979-.393 2.01-.643 3.06-.74 2.079.091 4.107.67 5.92 1.69 2.101.999 3.871 2.578 5.101 4.552a16.062 16.062 0 0 1 2.3 5.49c.344 1.544.528 3.119.55 4.7a19.662 19.662 0 0 1-2 8.71 12.773 12.773 0 0 1-6 6 19.417 19.417 0 0 1-8.641 2z" fill="#2C7DF7"/></g><defs><clipPath id="a"><path fill="#fff" d="M0 0h64v64H0z"/></clipPath></defs></svg>