<svg width="64" height="64" fill="none" xmlns="http://www.w3.org/2000/svg"><g clip-path="url(#a)"><path d="M32 64c17.673 0 32-14.327 32-32C64 14.327 49.673 0 32 0 14.327 0 0 14.327 0 32c0 17.673 14.327 32 32 32z" fill="#3468D1"/><path fill-rule="evenodd" clip-rule="evenodd" d="M28.432 22.184a3.163 3.163 0 1 1-.001 6.325 3.163 3.163 0 0 1 0-6.325zm7.636 0a3.163 3.163 0 1 1-.001 6.325 3.163 3.163 0 0 1 .001-6.325zm0 13.306a3.163 3.163 0 1 1-.001 6.326 3.163 3.163 0 0 1 .001-6.326zm-7.636 0a3.163 3.163 0 1 1-.001 6.325 3.163 3.163 0 0 1 0-6.325zm-3.927-6.544a3.163 3.163 0 1 1-.002 6.326 3.163 3.163 0 0 1 .002-6.326zm15.49 0a3.163 3.163 0 1 1-.001 6.327 3.163 3.163 0 0 1 .002-6.327zm3.6-5.453a1.963 1.963 0 1 1 0 3.926 1.963 1.963 0 0 1 0-3.926zm0 13.088a1.963 1.963 0 1 1 0 3.926 1.963 1.963 0 0 1 0-3.926zm-22.69 0a1.964 1.964 0 1 1-.002 3.928 1.964 1.964 0 0 1 .002-3.928zm0-13.088a1.963 1.963 0 1 1 0 3.927 1.963 1.963 0 0 1 0-3.927zm11.345-6.544a1.963 1.963 0 1 1 0 3.926 1.963 1.963 0 0 1 0-3.927zm0 26.176a1.963 1.963 0 1 1 0 3.926 1.963 1.963 0 0 1 0-3.926zm8.4 1.963a1.636 1.636 0 1 1-.001 3.273 1.636 1.636 0 0 1 .001-3.273zm-16.8 0a1.636 1.636 0 1 1-.001 3.273 1.636 1.636 0 0 1 .001-3.273zm0-29.448a1.636 1.636 0 1 1-.001 3.273 1.636 1.636 0 0 1 .001-3.273zm16.8 0a1.636 1.636 0 1 1-.001 3.273 1.636 1.636 0 0 1 .001-3.273zm8.509 14.615a1.636 1.636 0 1 1 0 3.272 1.636 1.636 0 0 1 0-3.272zm-33.818 0a1.636 1.636 0 1 1 0 3.273 1.636 1.636 0 0 1 0-3.273zm-1.2-10.034a1.31 1.31 0 1 1 0 2.618 1.31 1.31 0 0 1 0-2.618zm0 20.94a1.309 1.309 0 1 1 0 2.618 1.309 1.309 0 0 1 0-2.617zm36.218 0a1.309 1.309 0 1 1 0 2.618 1.309 1.309 0 0 1 0-2.617zm0-20.94a1.31 1.31 0 1 1 0 2.619 1.31 1.31 0 0 1 0-2.62zM32.25 9.75a1.309 1.309 0 1 1 0 2.618 1.309 1.309 0 0 1 0-2.618zm0 41.882a1.31 1.31 0 1 1 0 2.619 1.31 1.31 0 0 1 0-2.619zm11.563-.872a1.09 1.09 0 1 1 0 2.18 1.09 1.09 0 0 1 0-2.18zm-23.127 0a1.09 1.09 0 1 1 0 2.18 1.09 1.09 0 0 1 0-2.18zm0-39.7a1.09 1.09 0 1 1 0 2.182 1.09 1.09 0 0 1 0-2.183zm23.127 0a1.09 1.09 0 1 1 0 2.183 1.09 1.09 0 0 1 0-2.184zM55.16 30.91a1.09 1.09 0 1 1 0 2.181 1.09 1.09 0 0 1 0-2.182zm-45.818 0a1.09 1.09 0 1 1 0 2.182 1.09 1.09 0 0 1 0-2.183z" fill="#fff"/></g><defs><clipPath id="a"><path fill="#fff" d="M0 0h64v64H0z"/></clipPath></defs></svg>