<svg width="64" height="64" fill="none" xmlns="http://www.w3.org/2000/svg"><path d="M32 64c17.673 0 32-14.327 32-32C64 14.327 49.673 0 32 0 14.327 0 0 14.327 0 32c0 17.673 14.327 32 32 32z" fill="#E84142"/><path d="M40.962 33.636c.88-1.519 2.3-1.519 3.181 0l5.481 9.607c.88 1.518.16 2.757-1.6 2.757H36.981c-1.74 0-2.46-1.239-1.6-2.757l5.581-9.607zM30.36 15.139c.88-1.519 2.281-1.519 3.161 0l1.22 2.197 2.881 5.054c.7 1.438.7 3.135 0 4.574L27.96 43.683A5.083 5.083 0 0 1 23.998 46h-8.022c-1.76 0-2.48-1.219-1.6-2.757L30.36 15.14z" fill="#fff"/></svg>