<svg width="64" height="64" fill="none" xmlns="http://www.w3.org/2000/svg"><g clip-path="url(#a)" fill="#F3BA2F"><path d="M19.57 26.893 32 14.463 44.435 26.9l7.232-7.232L32 0 12.34 19.66l7.23 7.233zM0 32l7.232-7.233 7.232 7.231-7.232 7.233L0 32zm19.57 5.107L32 49.536 44.435 37.1l7.236 7.229-.004.003L32 64 12.34 44.339l-.011-.01 7.242-7.223v.001zm29.966-5.104 7.232-7.232L64 32.002l-7.232 7.233-7.232-7.232z"/><path d="M39.334 31.996h.003L32 24.658l-5.423 5.422-.623.623-1.285 1.286-.01.01.01.01L32 39.342l7.338-7.338.004-.004-.007-.004"/></g><defs><clipPath id="a"><path fill="#fff" d="M0 0h64v64H0z"/></clipPath></defs></svg>