<svg width="64" height="64" fill="none" xmlns="http://www.w3.org/2000/svg"><g clip-path="url(#a)" fill="#E6007A"><path d="M32.469 13.424c6.213 0 11.25-3.005 11.25-6.712S38.682 0 32.47 0s-11.25 3.005-11.25 6.712 5.037 6.712 11.25 6.712zM32.469 63.995c6.213 0 11.25-3.005 11.25-6.712 0-3.706-5.037-6.711-11.25-6.711s-11.25 3.005-11.25 6.711c0 3.707 5.037 6.712 11.25 6.712zM16.79 22.715c3.107-5.52 3.087-11.498-.044-13.352-3.132-1.855-8.189 1.116-11.296 6.635-3.106 5.52-3.086 11.498.045 13.352 3.132 1.855 8.189-1.116 11.296-6.635zM59.484 47.998c3.107-5.52 3.088-11.497-.041-13.35-3.13-1.853-8.185 1.118-11.291 6.638-3.107 5.52-3.089 11.496.04 13.35 3.13 1.853 8.185-1.119 11.292-6.638zM16.748 54.633c3.132-1.854 3.152-7.832.046-13.352-3.107-5.519-8.164-8.49-11.296-6.635-3.131 1.854-3.151 7.832-.045 13.352 3.107 5.52 8.164 8.49 11.295 6.635zM59.443 29.35c3.13-1.853 3.148-7.83.041-13.35-3.107-5.519-8.162-8.49-11.291-6.637-3.13 1.853-3.148 7.83-.041 13.35 3.106 5.519 8.161 8.491 11.29 6.638z"/></g><defs><clipPath id="a"><path fill="#fff" transform="translate(3.138)" d="M0 0h58.667v64H0z"/></clipPath></defs></svg>