<svg width="64" height="64" fill="none" xmlns="http://www.w3.org/2000/svg"><path d="M32 64c17.673 0 32-14.327 32-32C64 14.327 49.673 0 32 0 14.327 0 0 14.327 0 32c0 17.673 14.327 32 32 32z" fill="#00EF8B"/><path d="M46.048 27.005h-9.04v9.04h9.04v-9.04z" fill="#fff"/><path d="M27.971 39.434a3.392 3.392 0 1 1-3.392-3.39h3.392v-9.04H24.58a12.429 12.429 0 1 0 12.429 12.43v-3.39h-9.037v3.39zM40.4 22.486h10.16V13.44H40.4a12.442 12.442 0 0 0-12.428 12.435v1.13h9.036v-1.13a3.392 3.392 0 0 1 3.392-3.389z" fill="#fff"/><path d="M27.972 36.045h9.036v-9.04h-9.036v9.04z" fill="#16FF99"/></svg>