<svg width="64" height="64" viewBox="0 0 64 64" fill="none" xmlns="http://www.w3.org/2000/svg">
<g clip-path="url(#clip0_4846_3796)">
<path d="M47.5966 47.5465C47.5966 47.5465 40.5656 39.3396 38.2218 36.6C37.9561 36.2872 37.8594 35.8619 37.9561 35.4742C38.0285 35.2613 38.1857 35.0236 38.3306 34.8611L39.418 33.6598L51.4139 47.5465H47.5966ZM40.1791 47.5465L31.469 37.3882L31.0339 36.8377C30.6232 36.362 30.6352 35.6239 31.0581 35.1611L47.2945 16.246H51.3173L34.9842 34.9112C34.5616 35.374 34.5494 36.1118 34.9604 36.5875L44.3832 47.5465H40.1791ZM30.0313 32.6217C26.6729 36.5123 17.2259 47.5465 17.2259 47.5465H13.0341L25.8877 32.6592C26.2983 32.1839 26.2983 31.4708 25.8877 31.0079L13.1307 16.246H17.1654L29.9949 31.1329C30.3214 31.5707 30.3817 32.2089 30.0313 32.6217ZM29.8744 41.066L28.6302 42.5172L24.3172 47.5462H20.4155L28.6663 37.9388C28.6663 37.9388 29.5845 39.027 29.8985 39.3899C30.3092 39.8778 30.2973 40.6031 29.8744 41.066ZM24.257 16.246C24.257 16.246 31.1669 24.5152 33.6675 27.0797C34.066 27.4802 33.9935 28.0054 33.6315 28.431C32.3025 29.9946 32.2662 30.0196 32.2662 30.0196L20.3788 16.246H24.257ZM34.6219 22.7265L35.8661 21.275L40.1791 16.2463H44.0811L35.83 25.8537C35.83 25.8537 34.912 24.7654 34.5977 24.4028C34.187 23.9146 34.199 23.189 34.6219 22.7265ZM31.9998 0C14.3269 0 0 14.3266 0 31.9998C0 49.6728 14.3269 63.9997 31.9998 63.9997C49.6731 63.9997 64 49.6728 64 31.9998C64 14.3266 49.6731 0 31.9998 0Z" fill="black"/>
</g>
<defs>
<clipPath id="clip0_4846_3796">
<rect width="64" height="64" fill="white"/>
</clipPath>
</defs>
</svg>
