<svg width="64" height="64" fill="none" xmlns="http://www.w3.org/2000/svg"><g clip-path="url(#a)"><path d="M32 64c17.673 0 32-14.327 32-32C64 14.327 49.673 0 32 0 14.327 0 0 14.327 0 32c0 17.673 14.327 32 32 32z" fill="#172852"/><path d="M25.777 14.3c3.747-1.4 7.965-1.404 11.782-.252 4.97 1.542 9.165 5.293 11.357 10 .605 1.34 1.184 2.74 1.242 4.23-2.794-1.619-5.856-2.668-8.925-3.625-4.909-1.77-10.048-2.999-14.694-5.43-1.082-.647-2.461-1.31-2.756-2.657-.118-1.164 1.114-1.814 1.994-2.265zM14.465 25.629c1.085-2.944 2.864-5.677 5.28-7.703.614 5.053 2.764 9.936 6.316 13.61 4.26 4.425 10.327 7.142 16.5 7.04 2.45.077 4.848-.49 7.238-.947-2.352 8.499-11.667 14.14-20.297 12.784-5.21-.666-10.02-3.75-12.922-8.106-3.274-4.813-4.1-11.203-2.115-16.678z" fill="#FFD83D"/><path d="M41.232 24.653c3.07.957 6.132 2.006 8.925 3.625l.189.1c.26 1.948.448 3.936.102 5.888-1.404-.596-2.544-1.642-3.734-2.567-2.291-1.907-4.63-4.09-5.482-7.046z" fill="#FF6F03"/></g><defs><clipPath id="a"><path fill="#fff" d="M0 0h64v64H0z"/></clipPath></defs></svg>