<svg width="64" height="64" fill="none" xmlns="http://www.w3.org/2000/svg"><g clip-path="url(#a)"><path d="m51.285 3.271-13.354 19.84c-.923 1.351.853 2.987 2.131 1.849l13.141-11.449c.355-.284.852-.071.852.427v35.769c0 .497-.639.71-.923.355L13.354 2.418C12.076.853 10.23 0 8.17 0h-1.42C3.053 0 0 3.058 0 6.827v50.346C0 60.943 3.054 64 6.82 64c2.343 0 4.545-1.209 5.824-3.271l13.354-19.84c.923-1.351-.853-2.987-2.131-1.849L10.726 50.418c-.355.284-.853.07-.853-.427V14.293c0-.497.64-.71.924-.355l39.778 47.644C51.853 63.147 53.77 64 55.76 64h1.42c3.766 0 6.82-3.058 6.82-6.827V6.827C64 3.057 60.946 0 57.18 0a6.877 6.877 0 0 0-5.895 3.271z" fill="#000"/></g><defs><clipPath id="a"><path fill="#fff" d="M0 0h64v64H0z"/></clipPath></defs></svg>