<svg width="64" height="64" fill="none" xmlns="http://www.w3.org/2000/svg"><g clip-path="url(#a)"><path d="M50.194 0a13.78 13.78 0 0 0-9.752 4.036 13.856 13.856 0 0 0-4.058 9.765v15.302A64.61 64.61 0 0 1 32 29.26c-1.508 0-2.955.06-4.384.146V13.801a13.866 13.866 0 0 0-4.122-9.648A13.79 13.79 0 0 0 13.808.176a13.79 13.79 0 0 0-9.686 3.977A13.866 13.866 0 0 0 0 13.801v36.573a13.866 13.866 0 0 0 4.122 9.647A13.79 13.79 0 0 0 13.808 64a13.79 13.79 0 0 0 9.686-3.978 13.866 13.866 0 0 0 4.122-9.647V35.07A64.61 64.61 0 0 1 32 34.916c1.508 0 2.955-.061 4.384-.147v15.606a13.866 13.866 0 0 0 4.122 9.647A13.79 13.79 0 0 0 50.192 64a13.79 13.79 0 0 0 9.686-3.978A13.866 13.866 0 0 0 64 50.374V13.8a13.856 13.856 0 0 0-4.057-9.763A13.78 13.78 0 0 0 50.193 0zM13.806 5.655a8.135 8.135 0 0 1 5.755 2.383 8.18 8.18 0 0 1 2.395 5.763v16.204a46.356 46.356 0 0 0-11.734 3.327 21.326 21.326 0 0 0-4.55 2.724V13.8A8.18 8.18 0 0 1 8.06 8.043a8.135 8.135 0 0 1 5.745-2.388zm8.15 44.719a8.183 8.183 0 0 1-2.387 5.778 8.138 8.138 0 0 1-5.763 2.393 8.138 8.138 0 0 1-5.762-2.393 8.183 8.183 0 0 1-2.387-5.778v-3.67c0-3.24 2.56-6.31 6.851-8.22a40.1 40.1 0 0 1 9.448-2.77v14.66zm28.238 8.146a8.135 8.135 0 0 1-5.755-2.383 8.18 8.18 0 0 1-2.395-5.763V34.169a46.356 46.356 0 0 0 11.734-3.326 21.322 21.322 0 0 0 4.55-2.724v22.255a8.18 8.18 0 0 1-2.389 5.758 8.134 8.134 0 0 1-5.745 2.388zm1.298-32.85a40.099 40.099 0 0 1-9.448 2.77V13.801c0-2.167.859-4.246 2.387-5.778a8.138 8.138 0 0 1 5.763-2.393c2.161 0 4.234.86 5.762 2.393a8.183 8.183 0 0 1 2.387 5.778v3.669c0 3.226-2.56 6.296-6.851 8.2z" fill="url(#b)"/></g><defs><linearGradient id="b" x1="4.053" y1="59.231" x2="59.733" y2="3.551" gradientUnits="userSpaceOnUse"><stop stop-color="#00AEE9"/><stop offset="1" stop-color="#69FABD"/></linearGradient><clipPath id="a"><path fill="#fff" d="M0 0h64v64H0z"/></clipPath></defs></svg>