<svg width="66" height="64" fill="none" xmlns="http://www.w3.org/2000/svg"><path d="M11.396 45.162c.386-.385.917-.61 1.48-.61h51.078c.934 0 1.4 1.123.74 1.78l-10.09 10.059c-.386.385-.917.61-1.48.61H2.046c-.933 0-1.4-1.124-.74-1.781l10.09-10.058z" fill="url(#a)"/><path d="M11.396 7.61c.402-.385.933-.61 1.48-.61h51.078c.934 0 1.4 1.123.74 1.78l-10.09 10.058c-.386.385-.917.61-1.48.61H2.046c-.933 0-1.4-1.123-.74-1.78L11.396 7.61z" fill="url(#b)"/><path d="M54.605 26.265a2.097 2.097 0 0 0-1.481-.61H2.046c-.933 0-1.4 1.124-.74 1.781l10.09 10.058c.386.385.917.61 1.48.61h51.078c.934 0 1.4-1.123.74-1.78l-10.09-10.059z" fill="url(#c)"/><defs><linearGradient id="a" x1="59.075" y1=".992" x2="23.903" y2="68.577" gradientUnits="userSpaceOnUse"><stop stop-color="#00FFA3"/><stop offset="1" stop-color="#DC1FFF"/></linearGradient><linearGradient id="b" x1="43.618" y1="-7.052" x2="8.446" y2="60.533" gradientUnits="userSpaceOnUse"><stop stop-color="#00FFA3"/><stop offset="1" stop-color="#DC1FFF"/></linearGradient><linearGradient id="c" x1="51.297" y1="-3.056" x2="16.125" y2="64.529" gradientUnits="userSpaceOnUse"><stop stop-color="#00FFA3"/><stop offset="1" stop-color="#DC1FFF"/></linearGradient></defs></svg>