<svg width="64" height="64" fill="none" xmlns="http://www.w3.org/2000/svg"><path d="m54.967 12.066-7.706 3.915-37.213 18.9a22.209 22.209 0 0 1-.19-2.886A22.057 22.057 0 0 1 12.8 21.02a22.136 22.136 0 0 1 8.019-8.069 22.217 22.217 0 0 1 22.017-.227l4.411-2.241.658-.335A27.143 27.143 0 0 0 19.7 7.946a27.048 27.048 0 0 0-10.79 9.951 26.942 26.942 0 0 0-3.909 16.16 4.9 4.9 0 0 1-.617 2.777 4.919 4.919 0 0 1-2.058 1.97L0 39.987v5.516l6.848-3.48 2.217-1.13 2.186-1.109 39.23-19.931 4.407-2.239L64 12.985V7.471l-9.033 4.595zM64 18.503l-50.52 25.65-4.41 2.244L0 51.005v5.511l9.009-4.576 7.706-3.915 37.25-18.927a22.056 22.056 0 0 1-2.75 13.893 22.136 22.136 0 0 1-8.03 8.075 22.217 22.217 0 0 1-22.04.204l-.271.143-4.782 2.43a27.143 27.143 0 0 0 28.201 2.208 27.048 27.048 0 0 0 10.792-9.946 26.942 26.942 0 0 0 3.914-16.176 4.902 4.902 0 0 1 .617-2.776 4.922 4.922 0 0 1 2.055-1.97L64 24v-5.497z" fill="#000"/></svg>