<svg width="64" height="64" fill="none" xmlns="http://www.w3.org/2000/svg"><g clip-path="url(#a)"><path d="M32 64c17.673 0 32-14.327 32-32C64 14.327 49.673 0 32 0 14.327 0 0 14.327 0 32c0 17.673 14.327 32 32 32z" fill="#45CD85"/><path d="m42.88 29.952 1.152-3.84H33.728v-.96h10.624l1.152-3.84h-10.56c1.152-1.728 3.136-2.688 5.632-2.688 1.792 0 3.584.512 5.312 1.6l1.28-4.16c-1.856-1.088-4.224-1.664-6.592-1.664-4.8 0-8.768 2.624-10.432 6.848h-2.816l-1.216 3.712h3.264v1.344h-2.048l-1.216 3.712h4.096c1.6 4.16 5.504 6.784 10.304 6.784 2.304 0 4.544-.64 6.4-1.92v-5.056c-1.856 1.792-4.032 2.752-6.336 2.752-2.432 0-4.352-.96-5.568-2.624h7.872zm-14.4 15.744A10.16 10.16 0 0 1 18.304 35.52c0-4.032 2.368-7.68 6.016-9.28v-5.184c-6.464 1.92-10.88 7.808-10.88 14.464 0 8.256 6.784 15.04 15.04 15.04 6.656 0 12.544-4.416 14.464-10.88H37.76c-1.6 3.648-5.248 6.016-9.28 6.016z" fill="#35C071"/><path d="M28.48 49.92c6.272 0 11.584-4.032 13.568-9.6h-3.904c-1.728 3.584-5.44 6.016-9.664 6.016-5.952 0-10.816-4.864-10.816-10.816 0-4.224 2.432-7.936 6.016-9.664v-3.904c-5.568 1.984-9.6 7.296-9.6 13.568 0 7.936 6.464 14.4 14.4 14.4zm12.032-13.76c2.112 0 4.096-.576 5.76-1.6v-3.328c-1.6 1.216-3.52 1.984-5.696 1.984-3.072 0-5.504-1.472-6.656-3.904h8.512l.768-2.56H33.152c-.064-.384-.064-.704-.064-1.088 0-.384 0-.768.064-1.152h10.752l.768-2.56H33.856c1.152-2.496 3.52-3.968 6.72-3.968 1.728 0 3.392.448 4.928 1.28l.896-2.88c-1.728-.896-3.776-1.344-5.824-1.344-4.8 0-8.576 2.752-9.984 6.848h-2.816l-.768 2.432h3.072c-.064.448-.064.896-.064 1.344 0 .448 0 .832.064 1.28h-2.304l-.768 2.432h3.648c1.344 4.096 5.056 6.784 9.856 6.784z" fill="#fff"/></g><defs><clipPath id="a"><path fill="#fff" d="M0 0h64v64H0z"/></clipPath></defs></svg>