<svg width="64" height="64" fill="none" xmlns="http://www.w3.org/2000/svg"><g clip-path="url(#a)"><path d="M32 64c17.673 0 32-14.327 32-32C64 14.327 49.673 0 32 0 14.327 0 0 14.327 0 32c0 17.673 14.327 32 32 32z" fill="#45CD85"/><path d="M27.84 50.496c6.656 0 12.544-4.416 14.464-10.88H37.12c-1.6 3.648-5.248 6.016-9.28 6.016a10.16 10.16 0 0 1-10.176-10.176c0-4.032 2.368-7.68 6.016-9.28v-5.184C17.216 22.912 12.8 28.8 12.8 35.456c0 8.256 6.784 15.04 15.04 15.04zm-1.6-14.208h4.48v-8l.512-.064 2.688 8.064h4.928l-3.776-9.28c1.728-1.152 2.752-3.328 2.752-5.76 0-4.16-2.688-6.464-7.552-6.464H26.24v21.504zm4.48-11.968v-5.504c1.92 0 2.624.768 2.624 2.752 0 1.92-.704 2.688-2.624 2.752zm13.952 7.36.384-3.2c.384.32.512.768.512 1.344 0 .896-.32 1.536-.896 1.856zm-3.968 6.464h3.456l.256-2.24c3.072-.448 5.248-2.944 5.248-6.272 0-2.688-1.344-4.672-3.904-5.76l.512-4.352c.832.384 1.728.96 2.496 1.664V16.32c-.576-.448-1.28-.768-1.984-.96l.32-2.432h-3.456l-.192 2.24c-3.072.512-5.056 2.88-5.056 6.144 0 2.688 1.344 4.8 3.712 5.888l-.448 4.224c-1.024-.384-2.112-1.024-3.2-1.792v4.864c1.024.512 1.856.896 2.56 1.088l-.32 2.56zm2.112-15.68c-.192-.32-.32-.704-.32-1.28 0-.832.256-1.408.704-1.728l-.384 3.008z" fill="#35C071"/><path d="M27.84 49.856c6.272 0 11.584-4.032 13.568-9.6h-3.904c-1.728 3.584-5.44 6.016-9.664 6.016-5.952 0-10.816-4.864-10.816-10.816 0-4.224 2.432-7.936 6.016-9.664v-3.904c-5.568 1.984-9.6 7.296-9.6 13.568 0 7.936 6.464 14.4 14.4 14.4zm-.96-14.208h3.2v-8h.256c.448 0 .96-.064 1.344-.064l2.688 8.064h3.52l-3.584-8.896c1.664-.896 2.88-2.944 2.88-5.504 0-3.776-2.368-5.824-6.912-5.824H26.88v20.224zm3.2-10.688v-6.784h.512c2.368 0 3.392 1.024 3.392 3.392 0 2.304-1.024 3.392-3.392 3.392h-.512zm13.824 7.552.64-5.184c1.024.512 1.664 1.28 1.664 2.496 0 1.472-.768 2.56-2.304 2.688zm-2.496 4.992h2.176l.256-2.176c3.072-.192 5.184-2.56 5.184-5.696 0-2.368-1.152-4.352-3.968-5.376l.64-5.568c.768.192 1.6.576 2.432 1.152v-3.2a6.131 6.131 0 0 0-2.048-.768l.32-2.304h-2.176l-.192 2.176C40.96 16 39.04 18.24 39.04 21.312c0 3.008 1.792 4.736 3.776 5.504l-.64 5.44c-.896-.256-1.92-.704-3.072-1.408v3.264c.896.448 1.792.832 2.624 1.024l-.32 2.368zm1.92-13.824c-1.024-.512-1.472-1.344-1.472-2.496 0-1.536.704-2.496 2.112-2.688l-.64 5.184z" fill="#fff"/></g><defs><clipPath id="a"><path fill="#fff" d="M0 0h64v64H0z"/></clipPath></defs></svg>