<svg width="64" height="64" fill="none" xmlns="http://www.w3.org/2000/svg"><g clip-path="url(#a)"><path d="M32 64c17.673 0 32-14.327 32-32C64 14.327 49.673 0 32 0 14.327 0 0 14.327 0 32c0 17.673 14.327 32 32 32z" fill="#45CD85"/><path d="M30.656 49.408c6.656 0 12.544-4.416 14.464-10.88h-5.184c-1.6 3.648-5.248 6.016-9.28 6.016A10.16 10.16 0 0 1 20.48 34.368c0-4.032 2.368-7.68 6.016-9.28v-5.184c-6.464 1.92-10.88 7.808-10.88 14.464 0 8.256 6.784 15.04 15.04 15.04zM39.552 30.4v-3.648c1.408.448 1.92.96 1.92 1.728 0 .896-.704 1.6-1.92 1.92zm-3.712 6.272h3.84v-2.048c3.776-.64 6.208-3.008 6.208-6.144 0-4.352-3.328-5.504-6.336-6.08v-4.224c1.536.256 3.136.832 4.544 1.664v-4.736a15.773 15.773 0 0 0-4.416-1.024v-1.984h-3.84v1.984c-3.776.64-6.144 2.88-6.144 5.952 0 4.352 3.264 5.632 6.272 6.208v4.16c-1.728-.384-3.712-1.152-6.144-2.56v4.864c2.048 1.088 4.096 1.728 6.016 1.92v2.048zm.128-14.848c-1.344-.384-1.856-.896-1.856-1.792s.64-1.536 1.856-1.792v3.584z" fill="#35C071"/><path d="M30.656 48.768c6.272 0 11.584-4.032 13.568-9.6H40.32c-1.728 3.584-5.44 6.016-9.664 6.016-5.952 0-10.816-4.864-10.816-10.816 0-4.224 2.432-7.936 6.016-9.664V20.8c-5.568 1.984-9.6 7.296-9.6 13.568 0 7.936 6.464 14.4 14.4 14.4zm8.256-17.6V25.92c1.792.448 3.2 1.024 3.2 2.56 0 1.408-1.216 2.432-3.2 2.688zm-2.432 4.864h2.56v-1.984c3.776-.448 6.208-2.624 6.208-5.568 0-4.096-3.264-4.992-6.336-5.568v-5.44c1.472.128 3.072.576 4.544 1.28v-3.2a15.065 15.065 0 0 0-4.416-.896v-1.92h-2.56v1.92c-3.904.448-6.144 2.624-6.144 5.376 0 4.16 3.2 5.12 6.272 5.696v5.44c-1.856-.256-3.84-1.024-6.144-2.24v3.392c1.984.96 4.032 1.6 6.016 1.728v1.984zm.128-13.376c-1.792-.384-3.136-1.024-3.136-2.624 0-1.472 1.152-2.368 3.136-2.56v5.184z" fill="#fff"/></g><defs><clipPath id="a"><path fill="#fff" d="M0 0h64v64H0z"/></clipPath></defs></svg>