<svg width="64" height="64" fill="none" xmlns="http://www.w3.org/2000/svg"><g clip-path="url(#a)"><path d="M0 32a32 32 0 1 0 64 0 32 32 0 0 0-64 0z" fill="#F7BD37"/><path fill-rule="evenodd" clip-rule="evenodd" d="M19.814 17h12.414c7.551 0 13.276 3.967 15.405 9.74H51.5v3.488h-3.053c.06.551.09 1.113.09 1.684v.085c0 .643-.038 1.275-.114 1.893H51.5v3.489h-3.94C45.373 43.07 39.693 47 32.227 47H19.814v-9.621H15.5V33.89h4.314v-3.662H15.5v-3.489h4.314V17zm3.47 20.379v6.491h8.944c5.52 0 9.62-2.6 11.529-6.491H23.284zM44.82 33.89H23.284v-3.662h21.541c.08.576.12 1.167.12 1.77v.085c0 .616-.042 1.22-.125 1.807zM32.228 20.125c5.545 0 9.658 2.668 11.555 6.614H23.284v-6.614h8.944z" fill="#fff"/></g><defs><clipPath id="a"><path fill="#fff" d="M0 0h64v64H0z"/></clipPath></defs></svg>