<svg width="64" height="64" fill="none" xmlns="http://www.w3.org/2000/svg"><g clip-path="url(#a)"><path d="M32 64c17.673 0 32-14.327 32-32C64 14.327 49.673 0 32 0 14.327 0 0 14.327 0 32c0 17.673 14.327 32 32 32z" fill="#988430"/><path d="M32 62.975c17.107 0 30.975-13.868 30.975-30.975S49.107 1.025 32 1.025 1.025 14.893 1.025 32 14.893 62.975 32 62.975z" fill="#7A6A2A"/><path d="M32 62.322c16.747 0 30.322-13.575 30.322-30.322C62.322 15.254 48.747 1.678 32 1.678 15.254 1.678 1.678 15.254 1.678 32c0 16.747 13.576 30.322 30.322 30.322z" fill="#BA9F33"/><path fill-rule="evenodd" clip-rule="evenodd" d="M13.991 28.582c-.181-.165-.373-.33-.549-.497a53.92 53.92 0 0 0-.538-.497l-.539-.512c-.088-.088-.18-.165-.269-.253l-.28-.244c-.714-.678-1.433-1.356-2.138-2.035.73.668 1.445 1.331 2.175 2.01l.254.253c.088.088.181.166.269.254l.538.497c.182.165.358.331.539.512.181.18.357.347.539.512zm-9.486-.102s2.6.27 3.868.45c1.175.166 4.852.73 4.852.73l-8.72-1.18zm0 0c.73.062 1.46.14 2.19.218.373.036.73.077 1.088.113l.549.063.538.077 2.175.347 1.087.181c.358.062.715.13 1.088.192-.358-.036-.73-.088-1.088-.14l-1.087-.155-2.175-.321c-.181-.026-.357-.063-.538-.088l-.55-.063c-.357-.037-.73-.088-1.087-.13-.73-.088-1.46-.181-2.19-.295v.001zm8.461 1.858s-2.775.704-3.712.973c-.922.254-3.713 1.103-3.713 1.103l7.425-2.076z" fill="#CFB66C"/><path fill-rule="evenodd" clip-rule="evenodd" d="M12.966 30.338c-.616.18-1.23.357-1.854.523l-1.854.497c-.616.181-1.229.357-1.843.538l-.922.254c-.305.088-.616.166-.931.254.305-.102.616-.207.921-.295l.922-.295c.616-.192 1.229-.373 1.843-.565.626-.155 1.243-.32 1.87-.471.594-.15 1.221-.3 1.848-.44zm-7.037 3.785c.305-.114 3.826-1.755 4.645-2.138.41-.192 1.6-.615 1.6-.615l-6.245 2.753z" fill="#CFB66C"/><path fill-rule="evenodd" clip-rule="evenodd" d="M5.93 34.123c.268-.102.522-.227.78-.347l.767-.357 1.538-.74c.512-.244 1.01-.512 1.538-.741.27-.114.538-.207.807-.295l.41-.13c.14-.036.27-.077.41-.113-.512.243-1.051.45-1.564.688-.512.254-1.036.461-1.564.689l-1.564.688c-.525.213-1.037.44-1.56.658h.001zm.34 1.434s3.19-1.87 4.287-2.47c.575-.321 2.434-1.243 2.434-1.243l-6.72 3.713z" fill="#CFB66C"/><path fill-rule="evenodd" clip-rule="evenodd" d="M6.27 35.557c.539-.331 1.088-.668 1.637-1.01l.819-.497c.28-.165.549-.32.834-.486.28-.166.548-.331.833-.487.136-.083.278-.156.425-.217l.435-.218c.574-.28 1.15-.564 1.755-.808-.549.348-1.113.643-1.678.948-.28.155-.564.295-.844.45-.28.156-.549.322-.834.472-.28.166-.548.32-.833.471l-.844.46-1.704.922zm6.695-3.303s-1.983 1.522-2.625 2.009c-.642.486-2.532 1.854-2.532 1.854l5.157-3.863z" fill="#CFB66C"/><path fill-rule="evenodd" clip-rule="evenodd" d="m24.347 44.53-1.015-1.92.59-2.403 4.21-1.626-1.792-3.676.886-3.713 1.662-3.324 5.137-.808 3.774-3.598 8.15.616 1.6 8.714-3.08 10.972-1.756 5.681-7.114.27-3.304-2.29-3.868-1.615-4.08-1.28z" fill="#E2CC85"/><path fill-rule="evenodd" clip-rule="evenodd" d="M36.826 44.469s-.984.45-2.662.346c-.486-.652-3.888-.957-3.888-.957s-.424-.13-1.175.18c-.756.308-1.47.27-2.139.436-.668.165-1.331-.704-1.843-.886-.512-.191-1.19-.652-1.19-.652l-1.434-.14-2.88-1.217-4.573-4.556-1.243 1.945-.383 2.408 1.383 2.853 3.723 3.392 7.26 1.843 4.302-1.268 5.39-2.278 1.352-1.45z" fill="#F1D789"/><path fill-rule="evenodd" clip-rule="evenodd" d="m11.034 28.365.922-2.79 1.098-1.803 3.536-.295-1.062 3.096-2.956 5.261 1.227 4.697-2.174 1.087-.669-1.025-.538-2.35-.036-2.642.652-3.236z" fill="#F4ECB4"/><path fill-rule="evenodd" clip-rule="evenodd" d="m15.001 44.277-.678-.947s-.181-.451-.078-.844c.103-.4.088-.425.037-.575-.052-.15-.487-.668-.461-1.114.025-.45-.037-.6.295-.957.346-.347.243-.948.243-.948l.45.28.103-.156s.165.13.165.332c.037-.28-.114-1.575.228-1.87.342-.294.948 1.383.948 1.383l-.373-2.434-.958-2.495-1.704-2.279-.102-2.511v-.218s-.782 1.202-1 2.15c-.155.653.218 1.445.14 2.382-.062.933-.14.86.088 1.23.228.369.782 1.128.565 1.677-.192.471-.845.14-.845.14s-.129.383-.305.523c-.062-.228-.13-.373-.254-.512-.01.088-.036.207-.036.207s-.114-.357-.228-.808c-.155-.6-.32-1.392-.47-1.817-.063.243-.218.984-.218.984l.088 1.139.424 1.564.41 1.024.399 1.253.346.841.28.642.243 1.445 1.175 1.243.627.28.455-.233h.001z" fill="#F3E19D"/><path fill-rule="evenodd" clip-rule="evenodd" d="M11.65 26.087s-.843 1.433-1.087 2.879c-.243 1.445-.46 2.972-.307 4.94.156 1.983.45 3.2.69 4.07.409 1.444 1.47 3.453 1.47 3.453l.036-.078a5.46 5.46 0 0 1-.425-1.061c-.14-.549-.192-1.201-.321-1.496-.114-.295-.306-.55-.399-.912-.088-.347-.102-.895-.372-1.304-.114-.166-.254-.601-.296-1.036-.052-.653.026-1.383-.036-1.983-.114-1-.191-1.678-.088-2.201.103-.523.643-2.009.974-3.19.217-.755.088-1.392.486-2.05.399-.652.643-1.227.73-1.626.103-.362-1.056 1.595-1.056 1.595h.002z" fill="#F2E8B0"/><path fill-rule="evenodd" clip-rule="evenodd" d="M15.654 25.512s-.435.13-.643.357c-.207.218-.295.399-.574.767-.28.367-.295.668-.524 1.128-.227.451-.73 1.13-.792 1.373-.062.243-.165 1.382-.295 1.92-.114.54.13 1.202.13 1.202l.295-.062s0 .383.295.642c.295.254.347-.86.347-.86l1.102-3.723 1.662-1.128.182-.912-1.186-.704z" fill="#F5EEC0"/><path fill-rule="evenodd" clip-rule="evenodd" d="M16.46 27.2s-.781.052-1.164.332c-.155.113-.218.207-.383.346-.306.254-.617.487-.767.82-.165.33-.347.833-.47 1.78-.053.4-.053.767-.089 1.088-.052.435-.13.782-.088 1.024.052.497.565.756.614 1.32l1.062-.538 1-3.94 2.122-1.332-1.201-1.346-.637.444.002.002z" fill="#E6DB9D"/><path fill-rule="evenodd" clip-rule="evenodd" d="m10.86 53.736.014-.118c.155-1.331.181-2.34.295-2.972.165-.895.28-1.229.253-1.564-.036-.538-.077-.932-.025-1.346.077-.549.616-1.201.6-1.652-.01-.357-.191-.59-.347-.807-.155-.218-.279-.4-.279-.4s1.061-.73 1.051-3.67a.284.284 0 0 1 .062.026l.523 1.485.358.435 1.372 2.558 1.766 1.714 2.61 1.755 1.635 1.781.166 4.748-2.139 2.776-.35.634a30.412 30.412 0 0 1-7.565-5.383z" fill="#E5CB7A"/><path fill-rule="evenodd" clip-rule="evenodd" d="M17.393 58.278s.036-.59.523-.973c.077.13.129.254.113.346.089-.155.705-1.149 2.098-1.408 1.393-.253 1.73-1.268 1.73-1.268l2.956-2.688 3.38-3.111 4.112-1.445 1.922-.472s.036.14-.037.45c.357-.025 1.15-.206 1.973-.496.331-.13.642-.181.808-.01.243.227.28.766.295 1.087.398-.088.86-.471 1.229-.435.59.062 1.113.756 1.714.756.792 0 1.149-.487 1.703-.87.332-.228.808-.512 1.077-.704.642-.472 7.436-2.548 7.436-2.548l2.382.155.383 2.558-.205 6.687-.076.074-10.83 5.656-15.012 2.301a30.11 30.11 0 0 1-9.597-3.3l-.076-.342h-.001z" fill="#D8C173"/><path fill-rule="evenodd" clip-rule="evenodd" d="M11.77 54.586c.214-.446.406-.819.44-.952.026.269.075.859.173 1.486-.206-.175-.41-.353-.612-.534z" fill="#F1D789"/><path fill-rule="evenodd" clip-rule="evenodd" d="m22.737 60.88 1.941-.54.166.051s.088.052.088.228c.243-.14.45-.114.6-.207.078.166.156.714.498.782.357.077.74-.156 1.128-.45.383-.306.82-.69 1.15-.845.12.223.228.453.32.689.436-.347 1.192-1.755 2.269-1.73a4.086 4.086 0 0 1 1.495-1.807c1-.678 1.626-.73 2.408-.668.31-.403.694-.746 1.129-1.01.13.052.487.27.932.063.45-.207.958-1.01 1.626-1.114.36-.049.726.028 1.035.218 0 0 1.946-1.932 3.289-2.574-.052-.155-.156-.74 1.418-2.035.088.078.026.296.088.308.026 0 .41-.166.896-.54.6-.45 1.32-.92 1.755-1.05.82-.243 1.688.254 1.688.254a.779.779 0 0 1 .244-.114c.206-.037.357-.063.47-.103-.01.27.14.73 0 1.129.163.091.335.164.513.217-.088.192-.28.679-.6.912.268.129.304.28.688.41-.156.217-.41.59-.523.819-.114.243-.523 1.252-.705 1.636-.191.383-.45 1.087-.575 1.228-.124.142-.574.74-.921 1.035a43.806 43.806 0 0 1 2.097-.642c-.159.233-.963 1.427-1.737 2.575a30.382 30.382 0 0 1-24.873 2.88l.003-.006z" fill="#E0CD81"/><path fill-rule="evenodd" clip-rule="evenodd" d="M16.589 27.06s-.45 0-.538.062c-.088.062.45.192.616.254.165.062.523.347.616.575.088.218 3.236 1.486 3.236 1.486l2.227-.114.767-1.06-1.46-1.28 1.024-3.018-1.356.217-3.263 1.946-1.636.626-.233.306z" fill="#DFC57C"/><path fill-rule="evenodd" clip-rule="evenodd" d="M21.479 28.06a.35.35 0 0 0 .307.165c.46 0 .885.114 1.06.347.296.373 1.114 1.564 1.114 1.564l1.957.704.127-2.305-2.139-1.485-2.433.895v.114h.007z" fill="#E5CC7C"/><path fill-rule="evenodd" clip-rule="evenodd" d="M21.094 28.914s.357.026.808-.14c.45-.166 1.19-.523 1.512-.383.45.191.357.792.844 1.331.295.332.834.321 1.14.679.305.357 1.356.191 1.356.191l.398 2.15-1.6 2.051-.523 2.548h-2.163l-1.976-.784-.974-2.355.487-2.382.691-2.906z" fill="#D2C281"/><path fill-rule="evenodd" clip-rule="evenodd" d="M25.28 29.017c.053.017.109.026.165.026-.062.052-.192.166-.14.461.052.295.217.668.078.896.111.122.194.267.243.425.088.253.114.486.689.523a1.21 1.21 0 0 0-.228.181s.399.347.6.668c.207-.01.756-.18.756-.18l.114.078.244-.102s-.228-.088-.062-.642c.155-.487.295-.461.307-.497.012-.037.114-.55.114-.757.077-.269.14-1.087.14-1.087l-.166-1.807-.932-.564-.758-.732-.714 1.346-.471.47-.036 1.165.056.13z" fill="#E2C270"/><path fill-rule="evenodd" clip-rule="evenodd" d="M27.521 27.506s.166.47.229.833a.802.802 0 0 0 .036-.217s.129.715.155 1.01c.052-.01.102-.026.114.025.011.052.13.627.102.948.216-.356.514-.654.87-.87.207-.13.45-.27.704-.28.399-.01.689.254 1.165.254 1.15 0 2.19-.844 2.957-1.103.564-.191 1.05-.331 1.392-.642.166-.14.462-.45.73-.911.358-.615.73-1.15 1.104-1.217-.169.031-.34.043-.512.036 0 0 .114-.114.307-.269.193-.155.425-.347.756-.347.59 0 .885.088 1.217.088.331-.01.523-.088.523-.088s.347.244 1.128.244c.782.01 1.305.077 1.715.114.409.036 1.78-.114 2.174-.103.257.01.509.072.74.181l-1.268-3.686-4.557-3.983-2.714 1.92-4.174 4.174-4.038 1.497-.844.947v1.445h-.01z" fill="#CCB360"/><path fill-rule="evenodd" clip-rule="evenodd" d="M36.583 25.393s.114-.114.305-.27c.191-.154.425-.346.756-.346.59 0 .885.088 1.217.088.331-.01.523-.088.523-.088s.347.243 1.129.243c.782.01 1.304.077 1.714.114.409.036 1.78-.114 2.174-.103.257.01.509.071.74.181l-.574-1.662-.668-1.268-1.906-2.087-2.304-1.357c-.01-.01-.792-.217-.792-.217l-2.071 1.253-1.88 4.862-.036 1.024 1.217.575c.305-.512.642-.922.958-.974-.285.032-.503.032-.503.032z" fill="#D5B457"/><path fill-rule="evenodd" clip-rule="evenodd" d="M36.557 25.74c-.181.01-.33-.026-.373-.155-.155-.435-.28-.497-.41-.497-.13 0-.305.28-.409.305-.104.025-.227-.321-.227-.321l-.114-.052s-.668.435-1.14.948c-.47.512-1.242 1.382-1.589 1.537-.347.155-1.538.207-1.946.296-.407.088-.86.383-.921.45-.062.067.181.14.218.207.036.062-.4.036-.436.102-.025.052.103.347.166.497a.845.845 0 0 1 .357-.088c.399-.01.69.254 1.165.254 1.15 0 2.19-.844 2.957-1.103.565-.192 1.051-.331 1.393-.642.165-.14.46-.45.73-.911.197-.316.388-.611.58-.829v.002z" fill="#D2B257"/><path fill-rule="evenodd" clip-rule="evenodd" d="M20.07 51.366s-.102-.383-1.05-1.372c-.27-.28-.436-.512-.617-.679-.45-.424-.715-.538-1.036-.782-.704-.523-1.47-.523-2.06-1.165-.59-.642-1.278-1.868-1.756-3.122-.471-1.253-.6-1.652-.6-1.688 0-.036.129-.28.294-.243.166.036.166.357.208.435.082.127.176.246.28.357.243.28.59.614.765 1.113-.036-.425-.18-.896-.18-.896s.91.575 1.687 1.176c.782.6 1.103.807 1.331 1.19.229.384.767 1.394 1.024 1.689.258.295 3.79 1.408 3.79 1.408l1.679 1.252.834 1.828-.653 1.024-1.253.27-2.035-.912-.652-.884z" fill="#D2B159"/><path fill-rule="evenodd" clip-rule="evenodd" d="M15.55 45.07s.424.678 1.46 1.32c.932.564 2.408 1.077 3.723 1.382.756.182 1.512.321 2.19.332 1.828.026 3.086-.497 4.645-.668.844-.088 1.88-.155 2.957-.41 1.382-.331 2.2-.704 3.314-1.229.807-.372 1.548-.652 2.148-1.01.845-.496 1.46-1.05 2.175-1.216-.088.244-.18.678-.885 1.13.373-.011.886-.037.886-.037s-.497.295-1.373.958c-.538.41-1.253 1.102-1.983 1.563-.471.296-.984.512-1.32.69-.82.45-1.15.677-1.688 1.228.191-.01.207 0 .207 0s-.679.088-1.165.347c-.103 0-.28-.037-.59.052-.244.077-.565.254-.896.346-.472.14-.627.078-.627.078l.078.155s-.615-.01-.82.01c.037.011.027.027.027.027a.315.315 0 0 0-.103.036 1.068 1.068 0 0 1-.32.14c-.063.01-.115.01-.192.025.025.063.227.41.32.615-.077.052-1.242.932-1.242.932a.885.885 0 0 1 .088.181c.036.114.052.28.088.357.088.156.14.182.14.182s-.14.026-.384.088c-.207.051-.46.14-.819.191-.11.014-.22.023-.331.026.052.114.28.549-.14 1.051-.42.502-.55.575-.678.896a1.397 1.397 0 0 0-.208-.13c-.14-.062-.331-.155-.398-.28a3.32 3.32 0 0 1-.156.488c-.129.346-.32.688-.357.947-.14-.155-.398-.46-.756-.399-.357.063-.642.55-.704.69 0-.089-.062-.156-.077-.053-.011.114-.208 1.305-1.305 2.268-.01-.243-.01-.782-.037-.958-.102.103-.227.254-.973.575-.73.321-.614.642-.614.642s-.063-.512.331-1.051c.399-.538.642-.792.642-.834a.231.231 0 0 0-.052-.114c-.052-.051-.155-.114-.155-.155.062-.026.678-.32.642-.932-.036-.549-.269-.834-.435-1.035-.026-.026.244-.218.207-.28-.026-.036-.357-.28-.398-.41.01-.077.027-.153.052-.227.036-.114.062-.192.051-.27-.026-.129-.165-.486-.207-.523.036.01.295 0 .295 0s-.207-.33-.243-.486c-.037-.155-.114-.565-.156-.642.088.01.306.025.306 0 .01-.078-.192-.207-.102-.307.062.01.18.062.294.207-.062-.166-.165-.487-.383-.616.102-.037.45-.13.756.051s.41.435.41.435.181.14.46.347c.322.254.73.615 1.383.87.14.078.497.078.756.026.113-.027.221-.07.321-.13a.592.592 0 0 1 .114-.051 2.484 2.484 0 0 0-.191-.322c.088 0 .191.011.191.011s.062-.14-.217-.41c.062-.062.14-.102.14-.207-.088-.01-.244-.14-.28-.191.052-.036.13-.156.218-.192-.078-.062-.27-.321-.358-.347.084-.03.166-.069.244-.114 0 0-.435-.114-.575-.207-.14-.102-.347-.28-.471-.331-.13-.052-.358-.078-.45-.181.087.026.227 0 .33 0 .078 0 .115.01.14.01-.01-.036-.01-.114.192-.14a.947.947 0 0 0 .28-.088s-.192-.01-.41-.217c-.218-.208-.399-.373-.523-.399-.13-.026-.373.088-.523.078-.207-.026-.295-.13-.295-.13s-.689.062-2.216-.87c-1.32-.808-1.895-1.522-1.895-1.522a2.263 2.263 0 0 1-.357-.166c-.497-.259-1.186-.797-1.165-1.502l-.003.005z" fill="#C2A44D"/><path fill-rule="evenodd" clip-rule="evenodd" d="M34.599 13.99c.12.04.226.111.307.208.244.28.399.808-.155 1.372.217.078.307.103.497.078-.192.228-.627.714-.652 1.139-.026.347.191.45.191.45s-.331.384-.347 1.025c.157-.177.328-.34.512-.487.384-.306.912-.652 1.269-.87a.728.728 0 0 0 .036.27s.668-.55 1.229-.306c.254.114.14.471.14.471s.347-.13.59.114c.243.243.587.871.764 1.114.078.114.28.332.486.668.283.472.519.97.705 1.486.01-.269.077-.688.844-.424.766.269 1.636.834 2.366 1.945.73 1.112.911 2.367 1.279 2.845.373.46.756 1.227.782 1.548.026.321-.114 1.357.652 4.158.218-.87.549-2.801.549-2.801l.181-1.704.207-5.271-5.504-4.573-4.303-3.123-2.801.27.176.399z" fill="#CAA13E"/><path fill-rule="evenodd" clip-rule="evenodd" d="M44.825 21.835s-.077-.512-1.372-1.382c-1.294-.86-2.304-.86-3.236-1.59-.715-.574-1.46-1.895-1.945-2.33-.472-.43-.55-1.672-.55-1.672l1.59-1.332 2.364-3.417 1.999-2.2.958 1.331 1.33 1.564.741 3.138.27 4.593-2.15 3.298h.002z" fill="#B59544"/><path fill-rule="evenodd" clip-rule="evenodd" d="M46.426 27.34a5.837 5.837 0 0 0-.254-2.06c-.34-1.062-1.087-2.946-1.433-3.652-.14-.782-.036-.844.114-.932.15-.088.715-.41 1.024-1.538.31-1.128 1.269-1.165 1.269-1.165l.59-.435.896 2.242.781 2.025.244 1.548.181 1.32-.425 2.791-2.096 1.895-.89-2.038z" fill="#C89D3A"/><path fill-rule="evenodd" clip-rule="evenodd" d="M17.165 58.45v-.058a.44.44 0 0 0 .114-.102c.036-.052.062-.114.088-.13.052-.025.295-.102.424-.077.13.024.472.165.653.155.373-.01.808-.295 1.496-.166 1.036.192 1.28.896 1.88 1.295.41.28.834.155.896.155h.14c.025 0 .217-.217.32-.207.208.01.228.181.358.192.305.036.896-.156 1.19-.078a.57.57 0 0 1 .234.947c-.321.295-.627.575-.689.82.08.06.155.124.228.192a30.152 30.152 0 0 1-7.332-2.935v-.004z" fill="#CEB052"/><path fill-rule="evenodd" clip-rule="evenodd" d="M44.738 48.104s.808-1.077 1.088-1.61c.28-.55-.886-7.514-.886-7.514l2.34-7.668-.062-2.496s.114-2.304.384-3.304c.32.575 1.32 1.269 1.538 1.637.102-.705.45-2.19.398-3.775.192.295.653 3.262.653 3.262l.46 1.998.601 2.123L51.92 33l.399 1.548.228.373.192.652.18.705.524 1.651.307 1.357.243 2.46c.053.188.091.38.114.574.01.27-.036.425-.036.471 0 .047.088.59.052 1-.052.41-.052.73-.373 1.024-.321.294-.523 2.05-.523 2.05l-.575-.383s.114-.523-.155-.999a1.01 1.01 0 0 0-1.088-.497c-.295.062-.885.155-1.077.32-.18.166-.626.68-1.035.912-.512.307-1.346.332-1.791.435-.451.102-.948.41-1.471.766-.41.266-.844.494-1.295.683l-.002.002z" fill="#CCA847"/><path fill-rule="evenodd" clip-rule="evenodd" d="M44.738 59.418s.034.022.1.058a30.413 30.413 0 0 0 9.694-7.185c-.03-1.048-.068-2.122-.11-2.52-.088-.844-.026-1.704-.052-2.2-.026-.498-.305-2.522-.435-3.045-.14-.523-.41-.782-.45-.782-.037.01-.254.984-.254 1.228 0 .245-.052.834-.052.984-.036-.01-.052-.102-.052-.14-.052.13-.114.358-.14.384-.026.026.036-.218 0-.27-.036-.051-.102-.025-.088-.155.006-.076.018-.153.036-.227 0 0-.155.227-.269.807-.114.575-.114.59-.155.642-.036.063-.243.27-.254.347-.01.14.192.28.207.357.01.13-.18.73-.243 1.024-.062.294-.036.87-.102 1.165-.052.27-.103.425-.28.539.13.026.254.062.254.062s.18.766-.28 1.419c-.166.227-.207.331-.383.538-.347.383-.616.82-.642 1.103a1.858 1.858 0 0 1-.036-.254s-.539.627-.767.984c-.295.461-.704.435-.819.55-.115.113-.14.32-.102.486-.103.026-.295.062-.425.46a.97.97 0 0 1-.46.55c-.244.139-.54.18-.69.217.13.036.182.036.244.078-.078.129-.435.33-.834.59-.398.243-.59.6-.688.833-.103.218-.254.358-.497.384.102.062.253.207.33.253-.113.026-.306.026-.651.322-.363.3-.487.388-.653.414h-.002z" fill="#C39D3C"/><path fill-rule="evenodd" clip-rule="evenodd" d="M37.533 61.817c.198-.139.413-.253.64-.339.807-.32 1.661-.383 1.998-.486.321-.102.575-.244.973-.321l-.029.256c-1.175.37-2.372.667-3.584.89h.002z" fill="#D2BA6B"/><path fill-rule="evenodd" clip-rule="evenodd" d="M52.43 40.575s-.166.896-.462 1.46c-.295.565-.614 1.346-.614 1.346.002-.176.023-.351.062-.523-.373.218-1.279.74-1.536.974-.243.217-.653.6-.756.782.243-.715.497-1.357.539-1.652-.373.27-2.113 1.703-3.02 2.651l-2.821 2.284a9.782 9.782 0 0 1-1.005.47c-.486.207-1.061.383-1.486.549.114-.306.295-.575.55-.834.269-.254 1.076-1.129 1.2-1.536.114-.425.14-.678-.01-1.036-.14.036-.46.052-.678.114-.218.062-.45.295-.45.295s.165-.947.522-1.843c-.27.01-.73.088-.73.088s.642-1.077 1.74-1.828a5.658 5.658 0 0 0-.983.305c-.642.27-1.346.668-1.869.886.295-.41 2.366-3.366 3.599-6.12 1.228-2.75 1.688-3.454 1.957-4.93.14-.73.102-1.809.14-2.775.036-.958.155-1.818.077-2.393.321.399 1.523 1.523 1.564 4.034.036 2.511-1.15 5.903-2.408 7.73.307.089 1.103.193 1.921-1.228.818-1.42.808-1.817 1.104-2.408.036.295.025.399.025.399s1.191-1.445 1.756-3.262c.114.782.45 1.47-.078 2.905-.471 1.294-1.087 1.61-1.087 1.61s.305-.052.755-.321c.078.191.063.41.192.487.13.077.306.207.331.331.14-.207.358-.471.425-.668-.052.41-.088 2.2.103 3.112.399-.036.807-.062 1.087-.782-.191.705-.191 1.129-.062 1.73.212-.145.404-.404.404-.404h.001z" fill="#C0993A"/><path fill-rule="evenodd" clip-rule="evenodd" d="M38.975 12.034s-.399.165-1.077.165c-.59 0-.425-.227-1.346-.227-1.419 0-6.374.819-7.244.807-.565-.01 1.905.244 1.905.244l6.312.088 1.269-.103.47-.959-.29-.015z" fill="#A88F33"/><path fill-rule="evenodd" clip-rule="evenodd" d="M22.607 24.373s-.808.616-1.15 1.087c-.341.472-.523.782-.911 1.165a.793.793 0 0 0 .27-.036s0 .103-.063.13a.362.362 0 0 1 .295.102c-.114.062-.425.373-.181.74.181.28.564.306.564.306s-.088.254.28.228c.792-.036 1.678-.383 2.086-.295.41.102.643.14.933.642.307.497.574.575.574.575s.182-.461.14-1.15c.149-.37.231-.765.244-1.165l-.27-1.983-1.175-1.486-1.522.844-.114.295v.001z" fill="#E3C571"/><path fill-rule="evenodd" clip-rule="evenodd" d="M24.052 24.078s.114.269.59.294c-.052.114-.052.13-.036.218l.026.217c.052-.025.1-.06.14-.102.026.114-.026.295 0 .425a.945.945 0 0 0 .077.227.453.453 0 0 1 .026-.051c.01-.026.102.28.357.512 0-.036.009-.071.026-.103a.359.359 0 0 0 .062.182.188.188 0 0 1-.051-.037s.025.82.165 1.243a.595.595 0 0 0 .062-.088c0-.026-.01.228-.036.41-.036.181-.01.435-.01.435a1.36 1.36 0 0 1 .305-.182c.155-.062.41-.254.565-.678.09-.24.159-.488.207-.74.05.096.084.2.102.307.01.129.254.062.254.062l.052-.565.307-1.279.28-.792 1.346-2.097 2.432-1.873 2.123.487 1.792-2.434-3.086-1.854-2.92.306-2.651 3.67-2.123 3.33-.383.55z" fill="#D8B65B"/><path fill-rule="evenodd" clip-rule="evenodd" d="M39.348 18.765s-.181.036-.704.307c-.523.271-.886.357-1.088.756a1.959 1.959 0 0 0-.217.715s.357-.155.564-.207c.218-.052.461-.037.435.052a.601.601 0 0 1-.102.165s.41-.01.398.192c-.01.202-.077.424-.154.523-.078.102-.4.254-.435.373-.089.243.036.254-.011.45-.036.192-.207.565-.766 1.217-.575.653-.82 1.113-.82 1.113s-.279-.523-.424-.973c-.102.052-.652.357-.652.357l-1.274-4.437.025-.296s.114-.14.14-.398c-.191-.062-.217-.114-.471-.357s-.46-.539-.885-.741c-.062-.114-.14-.269-.45-.331-.311-.063-.498-.114-.498-.114s.166-.063.244-.192c-.192.026-.347.088-.767.078-.424-.01-.471-.026-.704.01-.233.036-.512.14-.616-.217-.114-.088-.357-.01-.564.295-.208.305-.28.549-.679.668-.028.175-.09.344-.18.497-.115.191-.296.383-.54.668-.383.45-.32 1.19-.932 1.755-.616.564.103-1.564.103-1.564l.983-2.355 2.802-2.74 4.35-.294.424 2.252 2.123.73 1.341 2.046v-.003z" fill="#D3AE4D"/><path fill-rule="evenodd" clip-rule="evenodd" d="m40.036 19.262-1.828-2.635-1.279-.984s-.91-1.678-.973-1.73c-.052-.036-.911-.129-1.46-.165l.102.253c.12.04.226.111.307.208.244.28.4.807-.155 1.372.218.077.307.102.497.077-.191.228-.626.715-.652 1.14-.026.346.191.45.191.45s-.331.383-.346 1.024c.156-.177.327-.34.512-.487.383-.307.91-.652 1.268-.87a.73.73 0 0 0 .036.27s.668-.55 1.23-.306c.253.114.139.471.139.471s.347-.13.59.114c.244.244.59.87.767 1.114.077.114.28.331.486.667.283.472.519.97.704 1.486.01-.207.052-.497.41-.497l-.544-.973-.002.001z" fill="#CAA13E"/><path fill-rule="evenodd" clip-rule="evenodd" d="M12.635 26.75s-.13-.322 0-.948c.129-.626.331-.922.398-1.843.068-.922.668-2.072.668-2.072l1.662-.755 1.176.32.347 1.575-1.487.82s-.077.346-.496.625c-.42.28-1 .497-1.14.782a2.282 2.282 0 0 0-.18.55s-.425-.089-.679.19c-.27.286-.26.54-.27.757v-.002z" fill="#F4EFC8"/><path fill-rule="evenodd" clip-rule="evenodd" d="M15.99 26.33s-.14.088-.244.307c-.103-.165-.347-1.15-.357-2.035-.01-.885-.064-1.105.141-1.41.205-.305 1.008-.626.894-1.176-.114-.523-.59-.74-1.175-.59-.41.102-.715.973-1.14 1.408-.32.332-.704.28-.807.461-.14.243-.01.487-.052.642-.01.052-.14.331-.373.668-.471.678-1.268 1.636-1.372 2.496.036-.487.01-.497.14-1.036l-.078-.13.512-1.677.331-1.382.741-2.315 1.305-2.366 1.268-1.42 1.32.089.156 1.983.756 3.723 1.59 1.958-2.548 1.714-1.01.088h.001z" fill="#EBCC73"/><path fill-rule="evenodd" clip-rule="evenodd" d="M16.782 27.034s-.218.051-.296.01c-.077-.041-.155-.088-.129-.14.026-.052.166-.14.166-.181a.145.145 0 0 0-.13-.155c-.119-.016-.155.062-.155.062s-.114-.088-.207-.103c.055-.006.11-.01.166-.01a1.612 1.612 0 0 0-.45-.13c.129-.077.382-.305.548-.305.165 0 .27-.026.243-.114-.026-.088-.155-.217-.295-.27.052-.061.088-.154-.036-.409-.13-.253-.078-.424-.036-.486.036-.078.166-.218.228-.306s.114-.207.217-.269c.052-.036.218-.102.384-.166.18-.062.33-.14.434-.062.114.078.063.182.063.182s.357-.13.678.036c.32.155 1.103.253 1.103.253l.28.565-1.854 1.59-.766.383-.155.026-.001-.002z" fill="#E5C66B"/><path fill-rule="evenodd" clip-rule="evenodd" d="M19.356 24.435s-.575.383-.704.523c.077.01.206.062.155.14-.063.077-.435.347-.642.6a3.954 3.954 0 0 0-.497.73c-.078.14-.668.55-.87.601.425 0 1.279-.523 1.6-.523-.01.155.088.332.269.347.181.015.704.114 1.408-.32.704-.425.472-.742.767-.948.564-.373.792-.705 1.103-.912.31-.207.47-.254.47-.254s.011-.155.103-.14a.138.138 0 0 1 .114.089s.539-.384 1.23-.487a.072.072 0 0 1-.037-.036s.051-.026.062-.052c0 0 .036-.052.062-.026.026.026.062.217.114.295.114-.052.332-.538.332-.538l.523-1.497V20.66l-.41.078-3.072 1.305-1.864 1.931-.218.461h.002z" fill="#E6BD62"/><path fill-rule="evenodd" clip-rule="evenodd" d="M28.2 17.73c.166-.04.325-.105.473-.192-.063.166-.063.347-.332.74-.27.394-.28.451-.497.86-.217.425-.243 1.036-.45 1.304a.949.949 0 0 1 .294-.087s-.206.181-.294.373c-.089.191-.244.59-.627.833-.383.244-.87.4-1.393.974-.523.564-1.061 1.279-1.331 1.536.14-.243.331-.73.383-1.051.052-.32-.01-.705.078-1.129.088-.424.088-.73.512-1.47.424-.741 1.15-3.315 1.15-3.315l1.563-.497.471 1.119v.002z" fill="#B6933F"/><path fill-rule="evenodd" clip-rule="evenodd" d="M27.07 16.782s-.47.678-.6 1.279c-.129.6-.01.549-.088.844-.046.18-.046.369 0 .549a1.95 1.95 0 0 1 .652-.643c.446-.268.808-.46 1.024-.688.217-.243.399-.642.87-.948-.192-.026-.461-.114-.512-.102.192-.217.766-.549 1.346-.948.575-.41.539-.574 1.47-.983-.305.052-.45-.026-.704 0 .103-.218.461-.321.82-.678.358-.357-.228-.886-.228-.886l-2.73 1.652-1.321 1.553.002-.001z" fill="#C49937"/><path fill-rule="evenodd" clip-rule="evenodd" d="m19.661 15.55.062-.498.782-1.253.818-2.2V8.59l-.062-1.74.13-1.139.098-.362.104-.14.667.347.922 1.253.088 2.418-.896 3.816-2.558 2.791-.155-.285z" fill="#DFC068"/><path fill-rule="evenodd" clip-rule="evenodd" d="M21.696 5.07s-.41.01-.497 1.713c-.087 1.704-.13 2.6-.192 3.444-.062.844-.207 1.356-.28 1.854-.072.497-.114 1.175-.346 1.59-.103.19-.321.791-.834 1.242-.575.497-1.434.844-1.564.87-.228.052-1.383.165-1.854.425-.165.088-.45.191-.766.486-.627.565-1.46 1.574-2.06 2.791-.922 1.818-1.844 6.949-1.844 6.949l.207-.347s.026-.46.487-1.269c.45-.807.321-1.713.947-3.262.244-.59.55-1.356.922-2.009.59-1.061 1.305-1.973 2.025-2.47 1.175-.807 2.47-.983 2.47-.983l1.393-.922s.243-.471.564-1.01c.45-.755 1.024-1.6 1.15-2.827.191-1.817-.27-3.008-.244-4.085.026-1.077.036-1.87.254-2.061.218-.192.062-.12.062-.12z" fill="#A88F33"/><path fill-rule="evenodd" clip-rule="evenodd" d="M21.696 13.199s.614-1.512.896-2.854c.052-.269.155-.538.18-.755.13-1.269.166-1.792 0-2.486-.128-.512-.625-.973-.884-1.331-.254-.373-.373-.512-.321-.59.052-.079.253-.207.45-.192a1.542 1.542 0 0 1 1.103.512c.399.46.714 2.025.714 2.025l.333 2.064.844 2.599-3.314 1.01-.001-.002z" fill="#C99E3D"/><path fill-rule="evenodd" clip-rule="evenodd" d="M27.47 11.625s-.115.051-.322 0a.463.463 0 0 1-.207.435c-.217-.088-2.253.088-2.253.088s-.947-.166-1.243-1.42c-.206-.833.156-1.982.037-2.738-.182-1.114-.435-1.332-.461-1.678-.026-.347-.052-.435-.052-.652-.114-.026-.181-.063-.295-.063-.026-.102.026-.191-.088-.373.062.026.487.078.984.55.41.383.41.522.471.6.078.077.704.614.974 1.15.269.535.792 2.241.91 2.521.037.114.115.228.308.487.3.373.74.99 1.237 1.092z" fill="#B58634"/><path fill-rule="evenodd" clip-rule="evenodd" d="M24.114 6.4c.314.507.596 1.032.844 1.574.306.689.487 1.253.87 1.714-.207-.6-.575-1.781-.792-2.2-.244-.444-.74-.922-.922-1.088z" fill="#A88F33"/><path fill-rule="evenodd" clip-rule="evenodd" d="M20.593 14.913s-.523.13-1.497.642c-.32.165-.626.305-.921.435-.767.347-1.59.667-2.242.844.052.062.077.088.077.088s0 .254.14.398c-.077.078-1.113.782-.808 3.138.207-.077.45-.181.487-.181.062.01.078.181.155.181.078 0 .332-.102.6-.45-.01.14-.165 1.548.669 2.495.155-.18.549-.782.549-.782l.01-.191s.036-.668.254-1.279c.218-.61.642-1.062.642-1.062l2.216-3.163-.332-1.113z" fill="#E6C367"/><path fill-rule="evenodd" clip-rule="evenodd" d="M18.521 19.558a1.222 1.222 0 0 1-.331.166 1.28 1.28 0 0 1 .217-1.01c.358-.523 1.14-1.201 1.357-1.74.14-.348.078-1.217 1.32-2.33 1.243-1.114 1.73-1.497 1.73-1.497l2.009-1.01 2.47.974-1.227 4.81-.953 2.252-3.789-.714-2.803.1z" fill="#DCBA5A"/><path fill-rule="evenodd" clip-rule="evenodd" d="m19.968 18.253.471-.59v-.42s.523-.14 1.087-.715 1.346-1.677 2.035-1.61c.69.078.756 1.496.782 1.895.026.4.114 1.305.254 1.792.155.487-1.678 2.33-1.678 2.33l-1.245.947-1.706-3.63z" fill="#E9CE77"/><path fill-rule="evenodd" clip-rule="evenodd" d="M21.427 23.166s.383-.6.102-.73c.166-.372.471-.766.471-.766s.218-.538.922-1.201c.704-.663 1.14-1.103 1.253-1.548.07-.29.109-.587.114-.886.076.062.158.118.243.166.115.052.653.497.575 1.393-.077.896-.41 1.268-.41 1.268s-.32.321-.548.487c-.244.166-.331.357-.74.373a.492.492 0 0 1 .14-.078s-.425-.051-.653.155c-.228.207-.713.845-.956 1.036-.244.156-.512.332-.512.332h-.001z" fill="#CDAE50"/><path fill-rule="evenodd" clip-rule="evenodd" d="M38.643 13.095a6.234 6.234 0 0 0-1.905-.373c-1.087-.036-2.677.026-4.236.036-1.677.01-3.2-.575-5.312-.678-.347-.207-1.229-1.113-3.982.808.166-.01 1.999-.425 2.635.373.642.792.461 2.138.373 2.459-.165.715-.704 1.755-.921 2.486-.217.73-.166 1.113-.321 1.625-.156.512-.497.767-.296 1.357.27-.166.41-.166.86-1.175.45-1.01.357-1.73 1.103-2.584.73-.86 1.946-2.035 2.408-2.33.462-.296 4.132-2.201 7.974-.384.927-.098 1.62-1.62 1.62-1.62z" fill="#D2A83E"/><path fill-rule="evenodd" clip-rule="evenodd" d="M24.756 12.39a.473.473 0 0 0-.026-.114.83.83 0 0 0-.14-.207s-.911-.165-1.372-.114c-.808.088-1.538 1.088-1.88 1.6-.342.513-.766 1.305-1.227 1.714a.17.17 0 0 0-.026-.114s.026.036-.026.088c-.051.052-.051.078-.026.103l.078.077c.026 0 .74-.321 1.714-1.229 1.036-.947 1.828-1.433 2.242-1.6.221-.094.452-.162.689-.204z" fill="#C29637"/><path fill-rule="evenodd" clip-rule="evenodd" d="M42.434 8.497s-.166.207-.374.435c-.46.487-1.061 1.035-1.574 1.6-.486.538-1.035.958-1.652 1.662-.616.704-1.33 1.486-1.512 1.714-.165.228-.295.6-.295.792-.088-.062-.191-.13-.191-.13.044.082.096.159.155.229.13.181.331.41.435.549.127.177.219.377.27.59.061.01.46.088.957-.73.498-.819 1.15-1.714 1.15-1.714l1.035-1.538.653-1.305.819-1.46.124-.694z" fill="#AC8132"/><path fill-rule="evenodd" clip-rule="evenodd" d="M43.496 7.451s-.627.512-.87.82c-.243.307-.82 1.113-.82 1.113l.208-.026 1.051-.932.41-.73.02-.243V7.45z" fill="#A88F33"/><path fill-rule="evenodd" clip-rule="evenodd" d="M43.303 48.6s-.01-.424.229-.677c.243-.254.859-.627 1.46-2.025.6-1.398.667-1.714.667-1.714s-1.076.922-1.74 1.139c.155-.321.243-.549.32-.715-.087-.077-.46-.165-.496-.207.207-.207.32-.714.74-1.05.539-.41 1.523-1.114 2.287-1.742.765-.627 2.268-2.086 2.46-2.51.114.165.14.268.14.268s-.756.984-1.15 1.61c-.347.54-.321.845-.321.845l.715-.308s.207.767-.73 1.932c.41-.155.574-.062.807-.192-.383.244-.911.575-1.408 1.486-.487.912-1.15 1.973-2.268 2.636-1.087.699-1.714 1.222-1.714 1.222l.002.003z" fill="#A67A2E"/><path fill-rule="evenodd" clip-rule="evenodd" d="M40.497 13.634s-.425.885-.487 1.574c-.01.165-.052.295-.052.486-.01.617.036 1.305-.102 1.626-.052-.13-.078-.217-.13-.269-.077.218-.217.896-.331 1.15-.052-.166-.166-.74-.155-1.42.01-.677.025-.807.025-.947-.025.207-.165.487-.217.653-.078-.14-.166-.321-.27-.471-.062.102-.14.253-.206.331a4.722 4.722 0 0 1-.052-.46c-.01-.27-.026-.617-.01-.69.025-.14.243-.688.704-1.19.549-.601 1.113-1.756 1.279-2.113.165-.357.87-1.843.87-1.843h.538l-.782 1.78s-.471.974-.714 1.332c-.244.358-.756 1.383-.984 1.781.165-.217.305-.331.471-.538.16-.145.605-.772.605-.772z" fill="#8C6228"/><path fill-rule="evenodd" clip-rule="evenodd" d="M43.505 7.384a2.23 2.23 0 0 1-.41.74c-.32.384-1.01.896-1.346 1.305-.307.399-.921 1.486-.642 2.775.102-.28.295-.833.808-1.46.513-.627 1.062-1.346 1.331-1.905.27-.565.305-1.01.305-1.01l.103-.13-.062-.294-.088-.021h.001z" fill="#CBA94C"/><path fill-rule="evenodd" clip-rule="evenodd" d="M53.991 41.73s-.207-.565-.27-1.078c-.061-.512.103-.614-.087-1.2-.114-.358-.321-.308-.373-.358-.052-.05-.088-.59-.078-.886.01-.295-.01-.678-.062-.844-.078-.062-.13-.114-.243-.497-.13-.383-.192-.575-.254-.688-.062-.114-.244-.218-.244-.332 0-.228.207-.346.207-.41-.01-.128-.165-.025-.207-.061-.051-.062.13-.435.063-.487-.026-.026-.207.192-.254.13-.052-.063-.114-.679-.207-1.088-.088-.398-.182-.688-.192-.807-.01-.114-.715-2.124-.885-2.61-.138-.412-.254-.83-.347-1.253-.052-.244-.088-.741-.114-.69-.026.053-.01.306-.052.296-.036-.01-.166-.896-.207-1.035-.036-.14-.254-.615-.307-.958-.052-.347-.166-1.254-.243-1.87-.078-.616-.114-.87-.114-1.024a6.38 6.38 0 0 0-.063-1.128c-.102-.653-.307-1.445-.486-1.906-.347-.87-1.27-3.096-1.434-3.65 0-.14.181-.063.181-.063s.45 1.13.782 1.999c.321.87.627 1.636.705 1.714.062.078.548.932.766 2.33.217 1.398.295 2.687.424 3.547.063.41.114.844.244 1.279.14.471.357.958.642 1.703.243.627.424 1.15.523 1.6.114.575.114 1.01.181 1.295.063.244.155.73.373 1.434s.538 1.61.756 2.175c.425 1.128.614 2.07.678 2.573.057.518.249 2.31.197 2.848h.001z" fill="#A88F33"/><path fill-rule="evenodd" clip-rule="evenodd" d="m43.532 7.322-.026.062s.077.026.062.13c0 .141-.008.283-.026.424-.026.181-.078.321-.088.435 0 .243.036.523-.307 1.217-.102.191-.166.357-.218.47-.129.28-.155.322-.269.451.181-.102.834-.512 1.165-.45-.228.13-.575.383-.792.715.052.01.27.052.614 0 .575-.088 1.217-.296 1.781-.254.617.036.373-.74.373-.74l-.71-1.564-1.347-.947-.212.051z" fill="#BE9C44"/><path fill-rule="evenodd" clip-rule="evenodd" d="M47.043 19.035s-.601-.601-.844-2.663c-.244-2.071-.192-5.12-.192-5.12l-.487-1.19s-.102-.793-.357-1.088c-.255-.295-.756-.792-.984-1.036-.228-.243-.487-.574-.642-.626.078-.13.425-.86 1.755-.87 1.33-.01 1.741.73 1.88 1 .139.269.766 1.433 1 3.652.217 2.216.227 2.382.19 3.148-.025.424-.165 1.408-.409 2.46-.222.89-.466 1.884-.911 2.334v-.002z" fill="#A17C34"/><path fill-rule="evenodd" clip-rule="evenodd" d="M45.158 20.8c.2.015.4-.03.575-.13.192-.01.886.078 1.419-.6.036.155.13.575-.114.948.13-.13.321-.182.347-.218.01.192.192.782-.575 2.216.207-.228.45-.217.668-.243.01.27.155 1.175-.228 1.662-.254.332-.668.228-.668.228a1.315 1.315 0 0 0 0-.218c-.01-.14-.062-.28-.025-.372a1.855 1.855 0 0 1-.54-.373c-.45-.425-1.035-1.15-1.076-1.688-.052-.601.487-.73.487-.73a.574.574 0 0 1-.114-.14c-.026-.088-.052-.228-.156-.342z" fill="#8C6228"/><path fill-rule="evenodd" clip-rule="evenodd" d="M41.165 14.286s-.026-.036-.166.13c.026-.166.052-.322.062-.472.066-.139.152-.268.254-.383-.078.155-.13.295-.13.295s.192-.357.472-.575c.191-.155.435-.227.538-.372.114-.156.088-.182.114-.208 0 0 .254-.165.642-.652.052-.062.13-.13.182-.192.087-.036.295-.13.538-.254.254-.14.539-.33.715-.41.346-.155.714-.139.885-.383.13-.036.27-.424.243-.755.192.077 1.176.688 1.513 2.024.243.948-.192 2.408-.373 3.112-.182.705-.207 1.228-.461 1.548-.321.425-1.357 1.024-1.61 1.321-.218.243-.87.86-.845 1.305.026.331.435.512.523.574.089.063.088.14.254.103.166-.038.228-.114.295-.114.078.01.078.026.114.026a.37.37 0 0 0 .078-.01s-.026.47-1.129.614c-.078.01-.155.036-.254.051.13-.062.207-.062.347-.253-.155-.026-.6-.052-.715-.088.037-.062.156-.228.254-.306.088-.077-.01-.102-.088-.062-.133.09-.261.19-.383.295-.13.114-.243.27-.45.41a1.01 1.01 0 0 1 .191-.886c-.062.01-.181.192-.295.155a1.65 1.65 0 0 1 .036-.564c.062-.233.399-.642.399-.642l1.626-2.905.347-2.2-3.723.723z" fill="#92723A"/><path fill-rule="evenodd" clip-rule="evenodd" d="M41.077 14.41s-.088.063.088.182c-.026.036-.088.165-.166.253-.087.103-.18.166-.217.254-.077.182-.14.306-.14.384 0 .077-.026.574-.243.895-.078.114-.166.306-.228.435-.13.228-.243.41-.27.512-.05.181-.087.678-.087.678l.155-.191c-.062.13-.13.269-.228.373.062-.052.244-.182.55-.45.424-.358 1.087-.959 1.895-1.434-.244.088-.451.088-.617.114.13-.13 1.295-1.497 1.906-1.626a.244.244 0 0 0 .052-.166l-.524-.052-1.061.228-.155-.82-.71.43v.002z" fill="#B18E3E"/><path fill-rule="evenodd" clip-rule="evenodd" d="M42.766 19.07s-.14.14-.27.487c-.1-.104-.185-.22-.254-.347-.191-.32-.486-.73-1.175-.497-.01-.217-.026-.331 0-.486.114-.026.46-.306.808-.715.243-.28.471-.6.626-1.01.103-.077.28-.207.512-.357.332-.228.73-.539.793-.885-.156.062-.487.217-.984.191.191-.088.486-.18.45-.564.078-.052.14-.088.14-.088a.514.514 0 0 0-.181-.026c-.01-.036-.026-.088-.114-.062-.088.025-.103.026-.114.062-.036.01-.156 0-.244.062-.088.063-.331.27-.424.305.036-.062.087-.155.087-.155s-.253.026-.434.103c-.332.114-.715.321-1.103.523.036-.062.052-.103.077-.114.026-.012.088-.026.088-.036 0-.01-.025-.103-.01-.14.116-.246.253-.482.41-.704.18-.244.217-.59.217-.59l.792-.4 2.227-.511 1.445.088-.181 1-.854 1.744-.73 1.59-.834.974-.766.559z" fill="#543E26"/><path fill-rule="evenodd" clip-rule="evenodd" d="M46.374 14.745s-.87 1.077-1.114 1.243c.156-.331 1.114-2.304 1.46-2.853-.077-.062-.18-.062.063-1.024-.207.486-.28.74-.45.87-.171.13-.192.088-.308.088a.217.217 0 0 0 .026-.13s-.73-.088-1.229-.088c-.498 0-1.486.27-2.035.487-.435.181-.678.181-.833.295-.156.13-.244.27-.322.306-.062.036-.357.129-.424.227-.062.103-.166.218-.166.244 0 .026-.026.062.052.036.026-.01.218-.114.435-.244.295-.165.652-.357.911-.47.74-.296.974-.244 1.305-.306.347-.062.844-.207 1.175-.207.332-.01.958 0 1.103.026-.062.052-.114.114-.088.331 0 .062-.052.13-.102.28-.155.424-.45 1.128-.614 1.486-.228.486-.487.896-.615 1.15-.128.253-.41.92-.688 1.278-.28.357-.425.575-.512.653-.088.078-.715.538-.668.704.114-.036.834-.307 1.356-.896.523-.588.627-.947 1.036-1.269.409-.32.73-.859.921-1.304.16-.415.124-.544.326-.912h-.001z" fill="#806031"/><path fill-rule="evenodd" clip-rule="evenodd" d="M27.625 22.783s-.114.471-.373.704c-.253.228-.704.425-.756.808-.062.383.451.575.451.575s-.28.46-.28.808c0 .357-.01.424.026.766a.344.344 0 0 0-.102.102s.025.332.28.539c.253.207.47.331.6.28.02.042.037.085.052.129 0 0 .191-.487.32-.911.13-.435.244-.373.296-.958.051-.586.614-1.59.614-1.59l.384-.859-.626-.486-.886.093z" fill="#B6903C"/><path fill-rule="evenodd" clip-rule="evenodd" d="M28.79 23.627c-.13.133-.248.275-.357.425-.165.228-.294.435-.538.523-.243.088-.399.088-.383.332.015.243.243.346.372.47.14.13.255.347.192.591.078-.036.218-.078.347-.357.13-.28 1.034-1.983 1.034-1.983h-.667z" fill="#685026"/><path fill-rule="evenodd" clip-rule="evenodd" d="M32.358 19.697s.078-.207 0-.357c-.077-.155-.548-.207-.782-.383-.243-.182-.538-.308-.782-.228.037-.088.182-.28.063-.321-.114-.036-.539.155-.653.243-.114.088-.373.192-.424.254-.052.063-.14.181-.192.13-.052-.037-.078-.13-.166-.078-.088.051-.512.398-.59.6-.078.203-.254.653-.782 1.165-.528.513-.756.845-.6 1.036.155.192.227.052.253.217.02.163.011.328-.026.487-.062.27-.165.523-.026.575.358.114.705-.102.782-.036.156.14-.088.642.28.74.373.102.74-.088.74-.088l1.357-.73 1.305-.688.668-1.321-.358-1.103-.069-.114h.002z" fill="#D4B968"/><path fill-rule="evenodd" clip-rule="evenodd" d="M31.079 22.85s-.228-.346.052-.652c.28-.306.678-.435.833-.626a.24.24 0 0 0-.114-.078c.103-.184.26-.333.45-.425a.43.43 0 0 0-.294-.14c-.254 0-.41.156-.643.156-.227 0-.253-.114-.253-.114s.383-.036.347-.207c-.037-.182-.103-.182-.103-.182s.74-.307.87-.47c.13-.164.114-.358.14-.435.088 0 .6-.27.808-.156.207.114.062.425.062.425s.627-.472.946-.934c.28.026.41-.191.614-.191.255 0 .653.347.73 1.087.053.425.13.668.053 1.419-.037.424-.026 1.331.102 1.78.088.358.295.322.295.322a.58.58 0 0 1-.181.28c-.14.13-.156.471-.14.6.02.095.046.188.078.28 0 0-.166.192-.208.321-.036.13-.207.218-.331.218-.125 0-.062-.011-.228 0-.165.01-.217.036-.321 0-.104-.037-.181-.078-.14-.41.036-.331-1.279-1.103-1.279-1.103l-2.15-.766.005.002z" fill="#CCA849"/><path fill-rule="evenodd" clip-rule="evenodd" d="M28.608 26.123s.471.627 2.408.627c.922 0 1.243-.088 1.434-.14.207-.052.983-.357 1.765-1.28.704-.833.55-1.175.55-1.175l-.41-.062-1.332.181-3.939 1.678-.478.17h.002z" fill="#585136"/><path fill-rule="evenodd" clip-rule="evenodd" d="M30.053 26.278s-1.678.373-1.678-.688c0-1.036 1.036-2.123 1.295-2.315.269-.192.911-.41.911-.41h1.548l.295.783-.13 1.687-2.241.943z" fill="#252211"/><path fill-rule="evenodd" clip-rule="evenodd" d="M31.602 23.182s-.321-.295-1.051.103c-.73.397-1.32 1.228-1.357 1.983-.036.668.549 1.165 1.46 1.19.678.027 1.088-.051 1.295-.101-.052-.063-.321-.4-.321-.4l-.026-2.775z" fill="#C3B378"/><path fill-rule="evenodd" clip-rule="evenodd" d="M31.286 23.347s-.077-.062-.307.062c-.192.103-.471.373-.689.565-.14.114-.228.166-.307.254-.321.383-.59 1.01-.435 1.32.156.31.668.668 1.973.425l-.239-2.625h.004z" fill="#E6D89C"/><path fill-rule="evenodd" clip-rule="evenodd" d="M30.86 23.99s-.206.32-.206.833c0 .523.295 1.357 1.382 1.419.834.052 1.393-1.201 1.999-1.688.46-.373.74-.383.74-.383s-.47-.512-1.729-1.175c-1.243-.668-2.636-.756-3.392.269.358-.026 1.512-.321 1.512-.321l.565.181-.87.865z" fill="#252211"/><path fill-rule="evenodd" clip-rule="evenodd" d="M32.486 24.668c-.036-.078-.062-.181.089-.207.15-.026.217-.01.269.102.052.113.102.207.026.254-.078.042-.28 0-.384-.15zm-.243-.73s-.052.036-.026-.037c.01-.087.078-.243.244-.206.165.036.13.217.102.269-.027.052-.166.14-.27.102a.087.087 0 0 1-.064-.09.085.085 0 0 1 .013-.039h.001z" fill="#6F674D"/><path fill-rule="evenodd" clip-rule="evenodd" d="M18.227 24.269s.41.307.886.295c.471-.01 1.077-.497 1.356-.808.166-.181.308-.373.461-.523.13-.13.218-.191.28-.28.088-.102.181-.294.228-.357-.114.088-.28.244-.45.347a5.329 5.329 0 0 1-.669.347c-.14.052-1.59.82-1.59.82l-.502.159z" fill="#AC924C"/><path fill-rule="evenodd" clip-rule="evenodd" d="M18.854 20.443s.227-.155.668-.254c.424-.103 1.279-.181 1.279-.181l.704.307.28 1.061-.513 1.104-.652.41-.74-1.192-1.025-1.253-.002-.002z" fill="#9F8E57"/><path fill-rule="evenodd" clip-rule="evenodd" d="m17.931 21.39-.244.182s.063-.114.114-.46c.052-.347.322-1.191.715-1.678.394-.487.384-.461.384-.461a.26.26 0 0 0-.208.052c.052-.115.384-.525.715-.73.332-.204.46-.269.808-.102.346.167.435.254.689.243.253-.01.47-.28.47-.28s.053.166-.139.55c-.191.383-.948 1.165-.948 1.165l-1.574 1.077-.782.443z" fill="#EAC970"/><path fill-rule="evenodd" clip-rule="evenodd" d="M19.096 20.314s1.14.155 1.486-.166c.01.036.052.036.052.062a.09.09 0 0 1-.026.052.837.837 0 0 1 .114-.01.672.672 0 0 0 .14.025.807.807 0 0 0 .114-.01.194.194 0 0 1-.078.13c.052 0 .103.01.103.05 0 .042.01.167-.052.193a.235.235 0 0 1-.155-.01.64.64 0 0 0 .077.28c.103.19.321.409.615.346 0 0 .155.373-.498 1.201-.087.114-.18.27-.294.399-.045.098-.08.2-.103.305 0 0 1.103-.424 1.42-1.393.32-.973.382-1.931.32-2.827-.01-.254-.052-.435-.114-.564-.155-.322-.59-.27-.766-.088-.254.254-.679.885-1.269 1.32-.6.435-.626.512-1.087.704h.001z" fill="#D7BC6B"/><path fill-rule="evenodd" clip-rule="evenodd" d="M17.73 21.712s-.218.129-.332.614c-.114.497.103 1.103.228 1.294.125.192.41.715 1 .741.145 0 .29-.03.424-.088.206-.094.4-.215.575-.357.254-.192.46-.357.435-.373-.062-.026-1.564-1.269-1.564-1.269l-.564-.63-.203.068z" fill="#585136"/><path fill-rule="evenodd" clip-rule="evenodd" d="M19.149 23.772s.305-.025.487-.14c.181-.113-1.062-1.346-1.062-1.346l.088 1.332.487.154z" fill="#453A25"/><path fill-rule="evenodd" clip-rule="evenodd" d="M17.827 21.618s-.155.295-.155.373c-.026.254.052 1.051.114 1.305.062.27.399.678.834.678.269 0 .642-.166.642-.207 0-.052-.383-.102-.487-.295-.062-.103-.088-.357-.102-.614-.01-.166-.01-.347.052-.41.14-.155.165-.6.165-.6l.497-.924h-.653l-.782.487-.125.207z" fill="#84754B"/><path fill-rule="evenodd" clip-rule="evenodd" d="M17.637 21.903s.512-.678.973-.834c.462-.155.668-.062.668-.062l-.27.689-.382.424.025.218s-.062.575.321.973c.384.4.668.384.834.384.166 0 .642-.14.886-.715.217-.538.398-1.229-.037-1.921-.425-.689-1.175-.716-1.32-.716-.145 0-1.284.058-1.698 1.559v.001z" fill="#252211"/><path fill-rule="evenodd" clip-rule="evenodd" d="M30.784 24.207c-.192-.088-.01-.626.18-.792.192-.166.436-.357.86-.383.156-.01.306.088.28.191-.036.192-.305.461-.549.653-.336.264-.554.43-.771.331z" fill="#F7F7E7"/><path fill-rule="evenodd" clip-rule="evenodd" d="M20.427 21.271c.14-.01.321.103.358.254.036.166-.088.497-.358.497-.217 0-.331-.27-.331-.347a.397.397 0 0 1 .052-.181c.01-.016.036-.197.28-.223z" fill="#F8F6DE"/><path fill-rule="evenodd" clip-rule="evenodd" d="M18.408 21.39s-.357.166-.523.512a1.358 1.358 0 0 0-.102.82c.026.129.155.45.243.564.088.114.207.192.295.181.088-.01.27-.243.27-.383s.01-.73.18-1.051c.15-.321-.362-.642-.362-.642z" fill="#D4C38B"/><path fill-rule="evenodd" clip-rule="evenodd" d="M18.46 21.364c-.063.037-.166.088-.14.156.025.062.243.102.32.254.089.155.089.32.063.398a.632.632 0 0 0 .181-.13c.114-.129.254-.305.373-.305.077 0 .155.037.228.037.114 0 .227-.037.243-.156.026-.155-.217-.295-.357-.269.026-.102.062-.253-.052-.357-.114-.104-.471.078-.549.13-.078.051-.31.243-.31.243z" fill="#E2D59D"/><path fill-rule="evenodd" clip-rule="evenodd" d="m26.687 32.243.766-.226.218.155s.155.332.399.373c-.078.166-.28.307-.27.425.01.117.114.207.114.207s-.689 1.139.668 2.287c-.321.13-.73.307-.947.41.155.036.486.102.626.227.14.126.14.166.27.244.129.078.206.181.18.227-.087-.051-.383-.206-.434-.062-.052.145-1.28.089-1.28.089l-2.07.398s.077-.207-.14-.398c-.254-.228-.565.01-.896-.244-.435-.331-.45-.715-.59-.86.14-.087.424-.217 1.103-.307-.026-.052-.114-.207-.063-.346.063-.182.321-.296.244-.512.114-.026.165-.026.45-.384.27-.357.435-.435.642-.46.208-.026.332 0 .715-.358.27-.254.181-.47.181-.47s.176-.058.114-.415z" fill="#CBAC5A"/><path fill-rule="evenodd" clip-rule="evenodd" d="M24.425 32.358c.01-.051.052-.077.331-.051.28.025 2.05-.166 2.532-.192.487-.036 2.201-.01 3.035.166.834.176 1.678.383 2.087.486.41.114.538.155.522.207-.01.052-.102.103-.155.088-.051-.01-1.408-.424-1.827-.512-.42-.087-1.87-.321-2.663-.307-.74.01-1.035-.01-1.662.062-.626.078-1.662.181-1.973.14-.307-.036-.243-.036-.228-.088l.001.001z" fill="#D6BC6F"/><path fill-rule="evenodd" clip-rule="evenodd" d="M28.593 36.417s1.061.575 1.444 1.279c.28.523-.165.782-.165.782s.6 0 .523.331c-.036.207-1.036.766-1.704 1.061-.678.296-.652.28-.983.332-.322.052-1.202-.102-1.383.155-.181.258-.103.523-.052.565.052.036.471.088.471.088s-.088.243-.958.27c-.87.025-1.087.087-1.139.18-.052.088.166.036.565.103.398.062.957.102.957.102s-.18.156-.652.28c-.538.14-1.383.269-1.636.424.13.088.321.218.41.228-.218.052-.524.166-.575.207.077.052.18.114.18.114s-.434.523-.688.653c-.254.13-1.714.807-2.216.678-1.253-.331-1.409-1.704-1.714-1.807-.46-.155-.678.155-1.088-.062.182-.13.28-.207.472-.295-.207-.103-1.28-.782-1.28-.782a7.95 7.95 0 0 0-.372-.715c-.207-.357-.512-.834-.74-1.253-.498-.922-.524-1.346-.974-1.87.078-.102.347-.087.347-.087l3.775 1.242 6.694.194 1.74-2.485.74.088z" fill="#DFC677"/><path fill-rule="evenodd" clip-rule="evenodd" d="M18.677 40.207c.04.045.087.083.14.114.13.088.32.192.45.347.052-.078.181-.218.41 0 .228.217.512.062.688.114.181.062.192.088.192.088s.102-.088.33-.181c.14-.052.306-.089.488-.14.165-.036.346-.088.471-.088.114.077.523.512 2.164-.13 1.549-.6 1.906-.668 2.165-.575.026-.062.052-.18.45-.165 0-.166-.331-.73-.331-.73l-1.828-.627h-1l-2.998.55-1.66.947-.13.478-.001-.002z" fill="#C4A859"/><path fill-rule="evenodd" clip-rule="evenodd" d="M17.678 39.156s.036.28.45.575c.41.295.539.47.539.47s.077-.102.14-.206c.062-.114.114-.243.217-.28.207-.088.678.078.782.052.088-.026.062-.207.155-.207.218-.01.357.14.435.14.078 0 .27-.01.295-.052.026-.041.036-.471.332-.678.32-.228.714-.13.819-.078 0 .078.01.27.217.28.207.01.228-.026.41.036.182.062.398-.01.497.295.088-.026.295-.052.243-.347.102-.078.192-.13.41-.435.052-.077.14-.165.207-.28.181 0 .398-.036.688.218-.088.062-.14.102-.165.166.075.075.145.156.207.243.077.102.13.228.228.254.217.062.574-.026.973 0 .383.026.704.165.844.253.052-.025.052-.036.181-.01.13.026.228.036.088-.13.078.037.166.115.244.037.078-.078.14-.191.357-.217.217-.026.295.01.383-.218.114-.28-.28-.28-.28-.28s.182-.165.384-.383c.243-.227.523-.523.59-.885.114-.668-.538-.756-.538-.756l-3.164.974-3.868-.192-3.298 1.641h-.002z" fill="#927D49"/><path fill-rule="evenodd" clip-rule="evenodd" d="M14.835 30.017s-.102.13-.165.435c-.063.305-.036.269-.088.486-.052.218-.69 2.382-.45 3.112.239.73.652 1 .91 1.59.053.13.103.207.13.321.088.383.01.678.114 1.062.036.13.13.28.27.435.307.32.807.626 1.024.843.305.322.74.974 1.294 1.036.295.036.715-.088 1.062-.295.307-.192.496-.46.819-.614.227-.114.47-.156.688-.208.45-.088.86-.102 1.103-.051.373.077 1.253.347 1.741.347.381-.006.76-.059 1.129-.156.74-.217 1.636-.59 2.226-.756.347-.102.627-.129.912-.191.487-.114.895-.27 1.129-.565-.156-.181-.347-.46-1.383-.45-1.175.026-2.532.678-3.2.782-.668.103-.958.191-1.704-.078-.73-.272-.755-.452-.755-.452s-.768-.537-1.089-1.906c-.321-1.368 0-2.366.834-3.314.217-.243.165-.46.165-.46s.55-.74.4-1.434c-.166-.689-1.228-.549-1.228-.549l-5.887 1.03z" fill="#6E6342"/><path fill-rule="evenodd" clip-rule="evenodd" d="M15.72 32.321a.536.536 0 0 0-.062.28c.01.14.052.32.471.73.357.357.28.756.28.756s.18.036.668-.193c.383-.18.511.14.511.14.112-.058.233-.097.358-.114a.78.78 0 0 0 .32-.102s.451.46.845.678c.357.192.564.322.74.192.166-.114.166-.347.155-.45a1.352 1.352 0 0 0-.154-.27c-.114-.165-.296-.357-.308-.512-.026-.357.27-.782.207-.885-.062-.104-.295-.13-.87.078-.595.196-3.163-.327-3.163-.327h.002z" fill="#39331F"/><path fill-rule="evenodd" clip-rule="evenodd" d="M17.077 34.636s-.295-.28-.192-1.637c.125-.001.25.01.373.037 0 0 .16 1.05-.181 1.6z" fill="#292311"/><path fill-rule="evenodd" clip-rule="evenodd" d="M14.975 28.981a.82.82 0 0 0 .114-.102c-.102.191-.575.957-.191 2.164.383 1.201 1.346 2.097 2.532 2.139 1.185.041 1.809-.539 2.521-1.409.28-.346.601-.782.886-1.077.424-.46.756-.59.756-1.035 0-.912-.932-1.32-2.305-1.73-1.372-.409-2.61-.358-3.251-.078-.627.305-.896.626-1.062 1.128z" fill="#252211"/><path fill-rule="evenodd" clip-rule="evenodd" d="m19.38 35.045.103-.052s.026-.41.192-.399c.165.026.243.244.227.321-.01.078-.051.208-.217.192-.217.005-.305-.062-.305-.062z" fill="#3F3824"/><path fill-rule="evenodd" clip-rule="evenodd" d="M18.92 33.305s.103-.036.229.088c.102 0 .548-.052.688.036.14.088.182.166.182.166s-.523.114-.808 0c-.29-.099-.29-.29-.29-.29z" fill="#2D2815"/><path fill-rule="evenodd" clip-rule="evenodd" d="M21.225 33.382c0-.026-.28-.217-.575-.28-.052-.01-.063.026-.102.026-.026-.01-.037-.088-.037-.088l-.168.089s-.026.036.063.102c.077.062.207.114.243.218.036.103.036.14.052.155.01.01.191 0 .28-.052.087-.052.253-.137.243-.17z" fill="#82764F"/><path fill-rule="evenodd" clip-rule="evenodd" d="M18.61 34.434s.05-.357.398-.373c.357-.026.425.32.425.32l-.207.208c0-.005-.156-.223-.615-.155h-.002z" fill="#2D2816"/><path fill-rule="evenodd" clip-rule="evenodd" d="M20.862 32.896s-.191.207-.616.269c-.036-.052-.114-.155 0-.32.114-.166.244-.218.373-.167a.302.302 0 0 1 .243.218z" fill="#574F35"/><path fill-rule="evenodd" clip-rule="evenodd" d="M21.644 33.15c.01-.052-.025-.063 0-.088.026-.026.166-.078.192-.052.01.01 0 .052 0 .102 0 .05 0 .102-.026.14-.036.052-.14.078-.191.062-.052-.015-.062-.088-.062-.102.025-.01.087-.036.087-.062zm.884-.56c0-.025.088-.077.14-.077.078 0 .078.062.088.078.026.01.026-.011.052.036.026.046.062.13.036.18-.026.053-.13.089-.155.078-.036-.026-.15-.258-.16-.294z" fill="#82764F"/><path fill-rule="evenodd" clip-rule="evenodd" d="M20.748 33.269s.114.025.27.155c-.053.036-.13.077-.13.077s-.01-.119-.14-.233z" fill="#6E6342"/><path fill-rule="evenodd" clip-rule="evenodd" d="M20.494 32.13c-.026-.026.078-.088.14-.078.062.01.088.052.155.062.067.01.078-.026.103-.052.024-.026.114-.01.129 0 .01.012.018.024.026.036a.145.145 0 0 1 .052-.102.164.164 0 0 1 .14-.026c.01.036.062.166.051.191-.01.026-.165.063-.191.037.025.062.14.191.155.217.015.026-.114.088-.166.078-.072-.005-.518-.264-.595-.363h.001zm.679-.86a.12.12 0 0 0-.052-.062c-.037-.01-.156 0-.156.062s.103.41.218.59c.13.182.217.331.305.373a.12.12 0 0 0 .156-.052c.01-.026.036-.217.026-.668-.01-.45-.026-.885-.052-.911-.026-.026-.13-.026-.166.026-.036.051-.27.564-.28.642z" fill="#585136"/><path fill-rule="evenodd" clip-rule="evenodd" d="M20.712 33.921s-.181-.114-.357-.036c-.166.078-.156.383-.156.383a.246.246 0 0 0 .228-.026c.114-.077.26-.207.285-.32v-.001z" fill="#574F35"/><path fill-rule="evenodd" clip-rule="evenodd" d="M21.054 34.33c-.01-.102-.103-.102-.103-.155a.116.116 0 0 1 .114-.088c.052 0 .102.062.166.102.062.036.155.103.165.181.01.08-.102.295-.227.295-.126 0-.088-.233-.114-.336l-.001.001zm.999-.14s-.207.062-.192 0c.015-.062.063-.077.13-.077a.204.204 0 0 1 .13-.063.112.112 0 0 1 .077.026s.14-.062.181-.026c.041.037.01.037.036.078.033.046.054.1.063.155 0 .042-.156.13-.28.114-.145-.03-.12-.18-.145-.207zm1.206-.233s.062.036.01.078c-.035.036-.217.102-.372.114-.155 0-.295.026-.295-.026 0-.051.13-.155.207-.181a.164.164 0 0 1 .13-.062c.061 0 .305-.026.372-.037.062-.01.114.026.078.078-.016.036-.13.036-.13.036zm.358-1.599s-.078.166-.166.166c-.088-.01-.088-.036-.088-.062 0-.036.088-.13.078-.156-.026 0-.088 0-.078-.062 0-.051.088-.114.166-.102a.341.341 0 0 1 .207-.078c.088 0 .165.026.165.078 0 .052-.102.165-.14.192-.04.041-.093.068-.144.025zm-1.181 3.06s-.102.011-.102.063c0 .026.025.026.062.01a.278.278 0 0 0 .062-.01c.01.01.01.062.088.062a.49.49 0 0 0 .181-.063c.062-.025.114-.051.114-.102-.026-.088-.078-.13-.155-.13a.206.206 0 0 0-.114.026s-.026-.052-.114 0c-.088.052-.078.052-.052.078.046.042.031.068.031.068l-.001-.002zm-.585.539c0-.026.13-.078.166-.062.036.01.14.207.14.228 0 .026-.13.088-.182.088-.052 0-.14-.088-.14-.103 0-.01.062-.025.062-.036.016-.026-.046-.088-.046-.114v-.001zm-.41-.756c.026-.01.026-.036.062-.062a.09.09 0 0 1 .078-.01.125.125 0 0 1 .088-.063c.063-.01.114 0 .103.026 0 .078.052.13.052.192s-.037.14-.166.191a.914.914 0 0 1-.331.026c-.026-.01-.052-.114-.026-.166a.43.43 0 0 1 .14-.134z" fill="#82764F"/><path fill-rule="evenodd" clip-rule="evenodd" d="M21.606 35.236s-.088.052-.088.078a.231.231 0 0 0-.01.077c0 .016.114-.01.13-.026.004-.01-.032-.102-.032-.129z" fill="#6E6342"/><path fill-rule="evenodd" clip-rule="evenodd" d="M20.836 34.993c.052.01.14 0 .207.026.052.026.088.078.036.14-.052.062-.102.155-.217.14-.13-.01-.254-.078-.254-.13a.249.249 0 0 1 .062-.181c.052-.041.078-.016.166.005z" fill="#585136"/><path fill-rule="evenodd" clip-rule="evenodd" d="M20.774 35.045s-.166.129-.207.191c-.052.063-.306.384-.383.45a.976.976 0 0 1 .088-.129.529.529 0 0 0-.218.28c-.062.192.347.295.616.373.27.078.373.102.373.102a2.885 2.885 0 0 1-.254-.47c-.102-.244-.155-.27-.088-.384.052-.114.13-.191.13-.28a1.587 1.587 0 0 0-.057-.133z" fill="#574F35"/><path fill-rule="evenodd" clip-rule="evenodd" d="M14.87 35.454a.312.312 0 0 0 .115 0c.077-.01.885-.307 1.73-.254a9.251 9.251 0 0 1 1.869.307c1.061.28 2.381.834 3.236 1.15.227.088.45.243.614.305.653.254.678.254 1.062.321.45.062.911-.088 1.393-.191.59-.13 1.6-.192 2.485-.322.286-.04.569-.103.844-.191 0 0-.704.704-2.392.958a7.486 7.486 0 0 1-2.061.026 6.287 6.287 0 0 1-1.165-.208c-.306-.087-.932-.32-1.704-.511-.538-.14-1.139-.244-1.828-.373-1.698-.311-3.541-.668-4.198-1.015v-.002z" fill="#252211"/><path fill-rule="evenodd" clip-rule="evenodd" d="M12.965 32.254c-.41.347-.844.678-1.268.999l-1.28.983c-.434.32-.859.652-1.294.973-.435.321-.87.627-1.331.922.41-.347.844-.668 1.279-.984.435-.316.886-.625 1.305-.945l1.28-.984c.44-.321.864-.653 1.31-.963v-.001zm-2.262 3.625s.46-.384 1.035-.922c.715-.668 1.59-1.522 1.87-1.677l-2.906 2.599z" fill="#CFB66C"/><path fill-rule="evenodd" clip-rule="evenodd" d="M10.703 35.878c.228-.227.472-.45.715-.668l.373-.32c.114-.103.243-.218.357-.332.228-.228.45-.471.678-.704.113-.117.232-.228.358-.332a.966.966 0 0 1 .206-.14c.063-.036.13-.102.218-.114-.052.078-.114.114-.166.182-.062.051-.114.114-.165.165-.114.114-.244.218-.358.321-.243.208-.497.41-.74.627-.243.216-.471.45-.715.668-.264.222-.507.44-.76.648zm3.097-2.071s-1.688 1.652-2.035 1.921l2.035-1.921z" fill="#CFB66C"/><path fill-rule="evenodd" clip-rule="evenodd" d="M13.8 33.807a5.523 5.523 0 0 1-.488.497l-.512.487c-.165.165-.32.331-.497.497-.181.155-.347.307-.538.45l.497-.486c.165-.166.347-.306.523-.471l.497-.487c.17-.17.336-.337.518-.487zm.077.896c-.155.434-.339.858-.549 1.268-.435.87-1.087 1.958-1.372 2.512l1.921-3.78z" fill="#CFB66C"/><path fill-rule="evenodd" clip-rule="evenodd" d="M13.877 34.703c0 .192-.052.357-.114.523-.06.166-.13.328-.207.487a8.323 8.323 0 0 1-.254.471c-.088.15-.191.305-.27.461l-.522.922c-.181.307-.358.616-.55.91.13-.33.306-.641.472-.947.182-.307.347-.614.512-.932.081-.158.153-.32.218-.486.077-.166.155-.321.217-.472.078-.165.14-.32.218-.47.087-.161.16-.317.28-.467z" fill="#CFB66C"/><path fill-rule="evenodd" clip-rule="evenodd" d="M15.72 38.949s-.512.678-.46 1.538c.14-.45.315-1.14.46-1.538zm.487.68s-.181 1.843-.331 2.75c.212-1.048.253-.96.331-2.75zm3.392 2.858s-.767 2.253-.782 2.879c.165-.644.486-1.959.782-2.88v.001z" fill="#DEC270"/><path fill-rule="evenodd" clip-rule="evenodd" d="M21.39 38.81s1.243 2.05 2.176 3.8c-.253-.88-.833-2.496-2.175-3.8z" fill="#CBAF59"/><path fill-rule="evenodd" clip-rule="evenodd" d="M24.73 41.828a37.716 37.716 0 0 1 1.844 3.723c-.104-.88-.384-2.387-1.844-3.723z" fill="#E3C677"/><path fill-rule="evenodd" clip-rule="evenodd" d="M34.547 44.851c.207-.13.616-.834.974-1.01.357-.18.626-.217.947-.574.321-.373.41-.6 1.113-.896.984-.425.308-.974.308-.974.108-.106.224-.205.346-.295.254-.191.55-.424.524-.833-.037-.689-.166-1.688-.73-2.268.548-.114 1.6-.192 2.252-.357.756-.192 1.103-.462 1.103-.462s-.435-.74.27-1.485c.704-.746 1.278-1.191 1.703-2.025-.487-.062-1.229-.32-3.122.399.102.048.2.103.295.165 0 0-1.165.321-1.59.679-.74.626-.834 1.139-1.636 1.522-.803.383-1.61.28-2.278.59-.668.31-.766.575-1.01.689.052.062-.01.166.088.254-.062.088-.425.678-.792.678.036.14.346.243.346.243s-.227.166-.807.207c.295.308.575.642 1.346 1.13-.062.129-.321.32-.217.564.114.243.41.575 1.59.844-.602.025-1.305.165-2.254.036-.947-.114-1.102-.181-1.687-.036.062.062.227.062.372.228-.155.01-1.128-.114-1.46.32-.347.451-.497 1.192-.471 1.689-.181.088-.357.243-.27.564.089.321.55.425.845.627.295.217.32.294.6.243.296-.062.73-.357.984-.357s.435.191.435.191.689-.331.756-.269c.062.062.01.46.078.523.068.047.844-.414 1.051-.544h-.002z" fill="#ECD592"/><path fill-rule="evenodd" clip-rule="evenodd" d="M49.6 24.13c-3.236-8.358-11.236-9.906-11.236-9.906H15.539l.088 8.513h4.546v19.008h-4.634v8.497h22.193c5.349 0 9.636-5.375 9.636-5.375C54.234 35.123 49.6 24.13 49.6 24.13zM37.851 39.14s-1.74 2.512-3.634 2.512h-3.79l-.09-18.895H35.2s2.253.471 3.827 4.93c0 0 2.087 6.383-1.176 11.453z" fill="#fff" fill-opacity=".8"/></g><defs><clipPath id="a"><path fill="#fff" d="M0 0h64v64H0z"/></clipPath></defs></svg>