<svg width="64" height="64" fill="none" xmlns="http://www.w3.org/2000/svg"><g clip-path="url(#a)" fill-rule="evenodd" clip-rule="evenodd" fill="#0D022B"><path d="M51.27 12.7c-.25-.25-.4-.5-.4-.85s.15-.6.4-.85c.501-.45 1.303-.45 1.854 0 .251.25.401.5.401.85s-.15.6-.4.85c-.251.2-.602.35-.903.35-.35.05-.701-.05-.952-.35zM48.063 16.15c-.2-.25-.351-.5-.351-.85s.15-.6.35-.85c.452-.45 1.254-.45 1.705 0 .2.25.35.5.35.85s-.15.6-.35.85c-.25.2-.501.35-.852.35s-.602-.15-.852-.35zM44.555 19.45c-.2-.2-.35-.5-.35-.85s.15-.6.35-.85c.451-.45 1.253-.45 1.704 0 .2.2.35.5.35.85s-.15.6-.35.85a1.1 1.1 0 0 1-.852.35c-.35 0-.652-.15-.852-.35zM41.197 22.8c-.25-.2-.401-.5-.401-.85s.15-.6.4-.85c.502-.45 1.304-.45 1.855 0 .25.2.401.5.401.85s-.15.65-.4.85c-.251.25-.602.35-.903.35-.35 0-.651-.05-.952-.35zM37.989 26.15c-.251-.2-.351-.5-.351-.85s.15-.6.35-.85c.452-.45 1.254-.45 1.705 0 .25.2.35.5.35.85s-.15.65-.35.85c-.201.25-.502.35-.852.35a.849.849 0 0 1-.852-.35zM34.13 28.65c0-.35.15-.6.35-.85.452-.45 1.254-.45 1.705 0 .25.25.35.5.35.85s-.15.6-.35.85c-.2.2-.502.35-.852.35-.351 0-.602-.15-.852-.35-.25-.2-.351-.5-.351-.85zM27.866 36.05c-.201-.2-.351-.5-.351-.85s.15-.6.35-.85c.452-.45 1.253-.45 1.705 0 .25.25.35.5.35.85s-.15.6-.35.85c-.201.25-.502.35-.852.35-.301.05-.602-.05-.852-.35zM24.408 39.4c-.25-.2-.401-.5-.401-.85s.15-.6.4-.85c.502-.45 1.304-.45 1.855 0 .25.25.401.5.401.85s-.15.6-.4.85c-.252.25-.602.35-.903.35-.4.05-.702-.1-.952-.35zM21.15 42.8a1.205 1.205 0 0 1 0-1.7c.45-.45 1.253-.45 1.704 0 .2.2.35.5.35.85s-.15.6-.35.85a1.1 1.1 0 0 1-.852.35c-.351 0-.552-.15-.852-.35zM17.791 46.15c-.25-.2-.35-.5-.35-.85s.15-.6.35-.85c.451-.45 1.253-.45 1.704 0 .2.25.351.5.351.85s-.15.65-.35.85a1.1 1.1 0 0 1-.853.35c-.3 0-.651-.1-.852-.35zM14.334 49.5c-.251-.2-.401-.5-.401-.85s.15-.6.4-.85c.502-.45 1.304-.45 1.755 0 .25.25.4.5.4.85s-.15.65-.4.85c-.25.2-.602.35-.902.35-.351 0-.652-.1-.852-.35zM11.026 52.85c-.251-.25-.351-.5-.351-.85s.15-.6.35-.85c.452-.45 1.254-.45 1.705 0 .25.25.35.5.35.85s-.15.6-.35.85c-.2.2-.502.35-.852.35-.251.05-.552-.1-.852-.35zM12.73 12.7c.2-.25.35-.5.35-.85s-.15-.6-.35-.85c-.451-.45-1.253-.45-1.704 0-.251.25-.351.5-.351.85s.15.6.35.85c.201.2.502.35.853.35.35.05.651-.05.852-.35zM16.087 16.15c.25-.25.401-.5.401-.85s-.15-.6-.4-.85c-.502-.45-1.304-.45-1.855 0-.25.25-.401.5-.401.85s.15.6.401.85c.25.2.601.35.902.35.35-.05.702-.15.952-.35zM19.495 19.45c.2-.2.351-.5.351-.85s-.15-.6-.35-.85c-.452-.45-1.254-.45-1.705 0-.2.2-.35.5-.35.85s.15.6.35.85c.25.25.501.35.852.35.301 0 .602-.15.852-.35zM22.854 22.8c.2-.2.35-.5.35-.85s-.15-.6-.35-.85c-.451-.45-1.253-.45-1.704 0a1.205 1.205 0 0 0 0 1.7c.25.25.5.35.852.35.3 0 .601-.05.852-.35zM26.162 26.15c.25-.2.4-.5.4-.85s-.15-.6-.4-.85c-.451-.45-1.303-.45-1.754 0-.25.2-.401.5-.401.85s.15.65.4.85c.251.25.602.35.903.35.3.05.651-.05.852-.35zM29.92 28.65c0-.35-.15-.6-.35-.85-.452-.45-1.253-.45-1.704 0-.251.25-.351.5-.351.85s.15.6.35.85c.2.2.502.35.853.35.35 0 .6-.15.852-.35.25-.2.35-.5.35-.85zM32.927 32.9c.25-.25.35-.5.35-.85s-.15-.6-.35-.85c-.451-.45-1.253-.45-1.704 0-.25.25-.35.5-.35.85s.15.6.35.85a1.21 1.21 0 0 0 1.704 0zM36.285 36.05c.25-.2.4-.5.4-.85s-.15-.6-.4-.85c-.501-.45-1.303-.45-1.754 0-.25.25-.401.5-.401.85s.15.6.4.85c.251.25.602.35.903.35.25.05.601-.05.852-.35zM39.693 39.4c.2-.2.35-.5.35-.85s-.15-.6-.35-.85c-.451-.45-1.253-.45-1.704 0-.201.25-.351.5-.351.85s.15.6.35.85c.251.25.502.35.852.35.251.05.602-.1.852-.35zM43.05 42.8a1.205 1.205 0 0 0 0-1.7c-.45-.45-1.252-.45-1.703 0-.2.2-.35.5-.35.85s.15.6.35.85c.25.25.501.35.852.35.35 0 .601-.15.852-.35zM46.208 46.15c.25-.2.351-.5.351-.85s-.15-.6-.35-.85c-.452-.45-1.254-.45-1.705 0-.2.25-.35.5-.35.85s.15.65.35.85c.25.25.501.35.852.35.3 0 .652-.1.852-.35zM49.767 49.5c.25-.2.35-.5.35-.85s-.15-.6-.35-.85c-.451-.45-1.253-.45-1.704 0-.25.25-.351.5-.351.85s.15.65.35.85c.201.2.502.35.853.35.35 0 .651-.1.852-.35zM53.125 52.85c.25-.25.4-.5.4-.85s-.15-.6-.4-.85c-.501-.45-1.303-.45-1.754 0-.25.25-.401.5-.401.85s.15.6.4.85c.251.2.602.35.903.35.25.05.551-.1.852-.35zM20.698 13.65c3.408-2.25 7.167-3.3 11.327-3.35 4.06 0 7.818 1.1 11.326 3.35l7.217-7.2C44.905 2.15 38.791 0 32.025 0S19.045 2.15 13.53 6.45l7.167 7.2zM13.482 43.2c-2.306-3.5-3.408-7.2-3.408-11.2 0-4.05 1.102-7.8 3.408-11.2l-7.167-7.15C2.105 19.15 0 25.25 0 32.05c0 6.7 2.105 12.85 6.365 18.45l7.117-7.3zM43.301 50.35c-3.408 2.3-7.166 3.5-11.226 3.55-4.16 0-7.969-1.1-11.377-3.5l-7.217 7.15c5.563 4.35 11.778 6.5 18.594 6.45 6.766-.05 12.88-2.25 18.393-6.45l-7.167-7.2zM50.368 20.7c2.306 3.5 3.508 7.3 3.408 11.4-.05 4-1.203 7.65-3.408 11l7.217 7.15c4.26-5.5 6.465-11.6 6.465-18.3.05-6.8-2.105-13-6.465-18.55l-7.217 7.3zM57.886 52.6c2.756 0 5.062 2.25 5.062 5.05 0 2.75-2.255 5.05-5.062 5.05-2.756 0-5.062-2.25-5.062-5.05s2.256-5.05 5.062-5.05zM6.265 52.6c2.756 0 5.011 2.25 5.011 5.05 0 2.75-2.255 5.05-5.011 5.05-2.757 0-5.012-2.25-5.012-5.05s2.255-5.05 5.012-5.05zM57.986 1.1c2.757 0 5.012 2.25 5.012 5.05s-2.255 5.05-5.012 5.05c-2.756 0-5.011-2.25-5.011-5.05S55.23 1.1 57.986 1.1zM6.164 1.1c2.757 0 5.062 2.25 5.062 5s-2.255 5-5.062 5c-2.756 0-5.061-2.25-5.061-5s2.255-5 5.061-5z"/></g><defs><clipPath id="a"><path fill="#fff" d="M0 0h64v64H0z"/></clipPath></defs></svg>