<svg width="64" height="64" fill="none" xmlns="http://www.w3.org/2000/svg"><g clip-path="url(#a)"><path d="M10.435 25.948c.638 1.345 2.235 4.035 2.235 4.035L30.951 0 13.15 12.341a8.528 8.528 0 0 0-2.554 2.769c-1.677 3.402-1.677 7.357-.16 10.838z" fill="url(#b)"/><path d="M3.25 35.758c.4 5.775 3.353 11.154 7.984 14.635L30.952 64S18.578 46.358 8.2 28.796a17.382 17.382 0 0 1-2.076-6.012 8.527 8.527 0 0 1 0-2.848 81.83 81.83 0 0 1-.798 1.503 25.076 25.076 0 0 0-2.155 6.803c-.24 2.532-.24 5.063.08 7.516z" fill="#A0A8D4"/><path d="M53.545 38.131c-.639-1.345-2.235-4.035-2.235-4.035L33.028 64l17.883-12.262a8.528 8.528 0 0 0 2.554-2.769c1.597-3.402 1.677-7.357.08-10.838z" fill="url(#c)"/><path d="M60.809 28.242c-.4-5.775-3.353-11.154-7.983-14.635L33.107 0S45.481 17.642 55.86 35.204a17.38 17.38 0 0 1 2.076 6.012c.16.95.16 1.899 0 2.848.24-.474.798-1.503.798-1.503a25.444 25.444 0 0 0 2.156-6.724c.16-2.61.16-5.063-.08-7.595z" fill="#A0A8D4"/><path d="M10.595 15.11c.639-1.107 1.437-2.057 2.555-2.769L30.952 0 12.671 29.904s-1.597-2.69-2.236-4.035c-1.516-3.402-1.516-7.357.16-10.759zM3.251 35.758c.399 5.775 3.352 11.154 7.983 14.635L30.952 64S18.578 46.358 8.2 28.796a17.381 17.381 0 0 1-2.076-6.012 8.527 8.527 0 0 1 0-2.848 81.83 81.83 0 0 1-.798 1.503 25.077 25.077 0 0 0-2.155 6.803c-.24 2.532-.24 5.063.08 7.516zm50.293 2.373c-.638-1.345-2.235-4.035-2.235-4.035L33.028 64 50.91 51.738a8.528 8.528 0 0 0 2.554-2.769c1.597-3.402 1.677-7.357.08-10.838zm7.185-9.81c-.4-5.775-3.353-11.154-7.983-14.635L33.107 0S45.481 17.642 55.86 35.204a17.382 17.382 0 0 1 2.076 6.012c.16.95.16 1.899 0 2.848.24-.474.798-1.503.798-1.503a25.44 25.44 0 0 0 2.156-6.724c.16-2.61.16-5.063-.16-7.516z" fill="url(#d)"/></g><defs><linearGradient id="b" x1="31.783" y1=".75" x2="8.557" y2="26.158" gradientUnits="userSpaceOnUse"><stop offset=".58" stop-color="#A0A8D4"/><stop offset=".73" stop-color="#8791C7"/><stop offset=".91" stop-color="#6470B4"/></linearGradient><linearGradient id="c" x1="32.277" y1="63.303" x2="55.494" y2="37.913" gradientUnits="userSpaceOnUse"><stop offset=".58" stop-color="#A0A8D4"/><stop offset=".73" stop-color="#8791C7"/><stop offset=".91" stop-color="#6470B4"/></linearGradient><linearGradient id="d" x1="32.008" y1="-.316" x2="32.008" y2="64.237" gradientUnits="userSpaceOnUse"><stop stop-color="#513EFF"/><stop offset=".18" stop-color="#5157FF"/><stop offset=".57" stop-color="#5298FF"/><stop offset="1" stop-color="#52E5FF"/></linearGradient><clipPath id="a"><path fill="#fff" d="M0 0h64v64H0z"/></clipPath></defs></svg>