<svg xmlns="http://www.w3.org/2000/svg" xmlns:xlink="http://www.w3.org/1999/xlink" width="64" height="64" version="1.1" viewBox="0 0 64 64"><g id="surface1"><path style="stroke:none;fill-rule:evenodd;fill:#1969ff;fill-opacity:1" d="M 64 32 C 64 49.671875 49.671875 64 32 64 C 14.328125 64 0 49.671875 0 32 C 0 14.328125 14.328125 0 32 0 C 49.671875 0 64 14.328125 64 32 Z M 64 32"/><path style="stroke:none;fill-rule:nonzero;fill:#fff;fill-opacity:1" d="M 30.058594 10.175781 C 31.136719 9.609375 32.777344 9.609375 33.855469 10.175781 L 44.855469 15.976562 C 45.507812 16.316406 45.863281 16.828125 45.925781 17.355469 L 45.9375 17.355469 L 45.9375 46.507812 C 45.921875 47.082031 45.5625 47.652344 44.855469 48.023438 L 33.855469 53.824219 C 32.777344 54.390625 31.136719 54.390625 30.058594 53.824219 L 19.058594 48.023438 C 18.355469 47.652344 18.019531 47.078125 18 46.507812 C 18 46.457031 18 46.410156 18 46.359375 L 18 17.550781 C 18 17.511719 18 17.46875 18 17.429688 L 18 17.355469 L 18.007812 17.355469 C 18.054688 16.824219 18.394531 16.324219 19.058594 15.976562 Z M 44.1875 33.5625 L 33.851562 39.027344 C 32.777344 39.597656 31.136719 39.597656 30.0625 39.027344 L 19.75 33.574219 L 19.75 46.417969 L 30.0625 51.84375 C 30.671875 52.167969 31.304688 52.484375 31.921875 52.5 L 31.957031 52.5 C 32.574219 52.5 33.171875 52.1875 33.777344 51.890625 L 44.1875 46.371094 Z M 16.277344 45.875 C 16.277344 46.992188 16.40625 47.726562 16.660156 48.246094 C 16.871094 48.671875 17.191406 49 17.769531 49.398438 L 17.804688 49.421875 C 17.929688 49.507812 18.070312 49.601562 18.242188 49.707031 L 18.445312 49.832031 L 19.0625 50.207031 L 18.175781 51.6875 L 17.484375 51.265625 L 17.367188 51.195312 C 17.167969 51.070312 17 50.960938 16.847656 50.855469 C 15.191406 49.730469 14.574219 48.503906 14.5625 45.953125 L 14.5625 45.875 Z M 31.125 25.8125 C 31.042969 25.839844 30.96875 25.871094 30.902344 25.90625 L 19.917969 31.726562 C 19.90625 31.734375 19.894531 31.738281 19.882812 31.746094 L 19.875 31.75 L 19.890625 31.761719 L 19.917969 31.773438 L 30.902344 37.59375 C 30.96875 37.628906 31.042969 37.660156 31.125 37.6875 Z M 32.875 25.8125 L 32.875 37.6875 C 32.953125 37.660156 33.027344 37.628906 33.097656 37.59375 L 44.082031 31.773438 C 44.09375 31.765625 44.105469 31.761719 44.117188 31.753906 L 44.125 31.75 L 44.109375 31.738281 L 44.082031 31.726562 L 33.097656 25.90625 C 33.027344 25.871094 32.953125 25.839844 32.875 25.8125 Z M 44.1875 19.4375 L 34.3125 24.625 L 44.1875 29.8125 Z M 19.75 19.4375 L 19.75 29.8125 L 29.625 24.625 Z M 33.089844 11.726562 C 32.515625 11.425781 31.484375 11.425781 30.910156 11.726562 L 19.917969 17.539062 C 19.90625 17.546875 19.894531 17.550781 19.882812 17.558594 L 19.875 17.5625 L 19.890625 17.570312 L 19.917969 17.585938 L 30.910156 23.398438 C 31.484375 23.699219 32.515625 23.699219 33.089844 23.398438 L 44.082031 17.585938 C 44.09375 17.578125 44.105469 17.574219 44.117188 17.566406 L 44.125 17.5625 L 44.109375 17.554688 L 44.082031 17.539062 Z M 45.824219 12.3125 L 46.515625 12.734375 L 46.632812 12.804688 C 46.832031 12.929688 47 13.039062 47.152344 13.144531 C 48.808594 14.269531 49.425781 15.496094 49.4375 18.046875 L 49.4375 18.125 L 47.722656 18.125 C 47.722656 17.007812 47.59375 16.273438 47.339844 15.753906 C 47.128906 15.328125 46.808594 15 46.230469 14.601562 L 46.195312 14.578125 C 46.050781 14.480469 45.90625 14.386719 45.757812 14.292969 L 45.554688 14.167969 L 44.9375 13.792969 Z M 45.824219 12.3125"/></g></svg>