<svg width="64" height="64" fill="none" xmlns="http://www.w3.org/2000/svg"><g clip-path="url(#a)"><path d="M32 64c17.673 0 32-14.327 32-32C64 14.327 49.673 0 32 0 14.327 0 0 14.327 0 32c0 17.673 14.327 32 32 32z" fill="url(#b)"/><path d="M44.832 35.234a11.818 11.818 0 0 0 4.913-9.8c-.095-6.454-5.575-11.706-12.212-11.706h-.128l-2.191 8.18h1.673a3.709 3.709 0 0 1 0 7.417h-3.662l-2.19 8.179h5.35l5.947 11.04h9.832l-7.332-13.31zM23.043 37.504h5.113l2.192-8.18h-7.305v-7.417h9.293l2.192-8.179h-16.62a3.922 3.922 0 0 0-3.92 3.921v26.974a3.921 3.921 0 0 0 3.92 3.921h5.135v-11.04z" fill="#fff"/></g><defs><linearGradient id="b" x1="9.372" y1="9.372" x2="54.627" y2="54.627" gradientUnits="userSpaceOnUse"><stop offset=".03" stop-color="#F95BFF"/><stop offset=".1" stop-color="#D147E9"/><stop offset=".19" stop-color="#AB34D4"/><stop offset=".28" stop-color="#8B24C3"/><stop offset=".38" stop-color="#7117B4"/><stop offset=".49" stop-color="#5C0DA9"/><stop offset=".61" stop-color="#4E05A1"/><stop offset=".76" stop-color="#46019C"/><stop offset="1" stop-color="#43009B"/></linearGradient><clipPath id="a"><path fill="#fff" d="M0 0h64v64H0z"/></clipPath></defs></svg>