<svg width="64" height="64" fill="none" xmlns="http://www.w3.org/2000/svg"><g clip-path="url(#a)"><path d="M32 64c17.673 0 32-14.327 32-32C64 14.327 49.673 0 32 0 14.327 0 0 14.327 0 32c0 17.673 14.327 32 32 32z" fill="#00EF8B"/><path d="M32 21.76a2.56 2.56 0 0 1-2.56 2.56H11.52V44.8h17.92A2.56 2.56 0 0 0 32 42.24a2.56 2.56 0 0 1 2.56-2.56h17.92V19.2H34.56A2.56 2.56 0 0 0 32 21.76z" fill="#fff"/><path d="M32 25.61 25.61 32 32 38.39 38.39 32 32 25.61z" fill="#16FF99"/></g><defs><clipPath id="a"><path fill="#fff" d="M0 0h64v64H0z"/></clipPath></defs></svg>