<svg width="64" height="64" fill="none" xmlns="http://www.w3.org/2000/svg"><g clip-path="url(#a)"><path fill-rule="evenodd" clip-rule="evenodd" d="M43.364 31.803v.394c0 5.645 4.736 10.264 10.524 10.264h5.78c2.392 0 4.332 1.892 4.332 4.225V64H45.955c-2.393 0-4.333-1.892-4.333-4.226V52.66c0-5.644-4.735-10.263-10.523-10.263h-.404c-5.787 0-10.523 4.619-10.523 10.263V64H0V0h20.172v11.478c0 5.645 4.736 10.263 10.524 10.263h.403c5.788 0 10.523-4.618 10.523-10.263V4.226c0-2.334 1.94-4.226 4.333-4.226H64v17.314c0 2.334-1.94 4.226-4.332 4.226h-5.78c-5.788 0-10.524 4.619-10.524 10.264z" fill="#6F41E8"/></g><defs><clipPath id="a"><path fill="#fff" d="M0 0h64v64H0z"/></clipPath></defs></svg>