<svg width="64" height="64" fill="none" xmlns="http://www.w3.org/2000/svg"><g clip-path="url(#a)"><path d="M32 60.536c15.76 0 28.536-12.776 28.536-28.536 0-15.76-12.776-28.537-28.537-28.537C16.24 3.463 3.463 16.24 3.463 32S16.239 60.536 32 60.536z" fill="#fff"/><path d="M32 0a32 32 0 1 0 32 32A31.907 31.907 0 0 0 32.186 0H32zm.542 33.085L29.211 44.32h17.82a.9.9 0 0 1 .93.867v.295l-1.55 5.346a1.155 1.155 0 0 1-1.162.852H17.976l4.571-15.574-5.114 1.55 1.163-3.564 5.113-1.55 6.431-21.85a1.17 1.17 0 0 1 1.163-.852h6.896a.898.898 0 0 1 .93.868v.294l-5.424 18.441 5.113-1.55-1.084 3.72-5.192 1.472z" fill="#345D9D"/></g><defs><clipPath id="a"><path fill="#fff" d="M0 0h64v64H0z"/></clipPath></defs></svg>