<svg width="64" height="64" fill="none" xmlns="http://www.w3.org/2000/svg"><g clip-path="url(#a)"><path d="M32 64c17.673 0 32-14.327 32-32C64 14.327 49.673 0 32 0 14.327 0 0 14.327 0 32c0 17.673 14.327 32 32 32z" fill="url(#b)"/><path fill-rule="evenodd" clip-rule="evenodd" d="M22.672 20.8v24h20l-20-24z" fill="url(#c)"/><path fill-rule="evenodd" clip-rule="evenodd" d="M2.672 44.8h20v-24l-20 24z" fill="#fff"/><path fill-rule="evenodd" clip-rule="evenodd" d="M6.4 51.2a32.773 32.773 0 0 0 6.4 6.4h38.4a32.773 32.773 0 0 0 6.4-6.4H6.4z" fill="#FC9965"/><path fill-rule="evenodd" clip-rule="evenodd" d="M12.8 57.6c5.344 4.016 12 6.4 19.2 6.4 7.2 0 13.856-2.384 19.2-6.4H12.8z" fill="#FF2D55"/><path fill-rule="evenodd" clip-rule="evenodd" d="M42.928 33.6v17.6H57.6L42.928 33.6z" fill="url(#d)"/><path fill-rule="evenodd" clip-rule="evenodd" d="M42.928 44.8H2.672A31.863 31.863 0 0 0 6.4 51.2h36.544v-6.4h-.016z" fill="#FFBC5B"/><path fill-rule="evenodd" clip-rule="evenodd" d="M28.273 51.2h14.655V33.6L28.273 51.2z" fill="#fff"/><path d="M42.928 28.8a8 8 0 1 0 0-16 8 8 0 0 0 0 16zM22.672 16a4 4 0 1 0 0-8 4 4 0 0 0 0 8z" fill="#FFC95B"/></g><defs><linearGradient id="b" x1="54.627" y1="9.373" x2="9.373" y2="54.627" gradientUnits="userSpaceOnUse"><stop stop-color="#FF2D55"/><stop offset="1" stop-color="#FFBC5B"/></linearGradient><linearGradient id="c" x1="32.665" y1="20.8" x2="32.665" y2="44.8" gradientUnits="userSpaceOnUse"><stop stop-color="#A524B3"/><stop offset="1" stop-color="#FF2D55"/></linearGradient><linearGradient id="d" x1="50.259" y1="33.6" x2="50.259" y2="51.2" gradientUnits="userSpaceOnUse"><stop stop-color="#A524B3"/><stop offset="1" stop-color="#FF2D55"/></linearGradient><clipPath id="a"><path fill="#fff" d="M0 0h64v64H0z"/></clipPath></defs></svg>