<svg width="64" height="64" fill="none" xmlns="http://www.w3.org/2000/svg"><path fill-rule="evenodd" clip-rule="evenodd" d="m24.831 27.676 7.17 15.993 10.646-6.194h.02v-12.39l-17.836 2.59z" fill="#2BBDF7"/><path fill-rule="evenodd" clip-rule="evenodd" d="m56.423 15.792-6.647-2.512-7.111-.585v38.61L53.331 57.5l8.503-17.454-5.392-16.793-.019-7.46z" fill="#2891F9"/><path fill-rule="evenodd" clip-rule="evenodd" d="m55.807 12.695-2.474 6.195v38.513L64 51.208V12.695h-8.193z" fill="#2BBDF7"/><path fill-rule="evenodd" clip-rule="evenodd" d="m53.331 6.5-10.666 6.195 10.666 6.195 10.667-6.195L53.33 6.5z" fill="#2B6DEF"/><path fill-rule="evenodd" clip-rule="evenodd" d="M32 31.28 21.332 19.24 0 12.696v38.513l10.666 6.195L13.72 36.09l7.614 1.383 10.666 6.195v-12.39z" fill="#2891F9"/><path fill-rule="evenodd" clip-rule="evenodd" d="M10.666 6.5 0 12.695l32 18.584 4.83-2.805 5.836-3.39-32-18.584z" fill="#2B6DEF"/><path fill-rule="evenodd" clip-rule="evenodd" d="M10.668 31.28v26.122l10.666-6.194V37.474l-10.666-6.195z" fill="#2BBDF7"/></svg>