<svg width="64" height="64" fill="none" xmlns="http://www.w3.org/2000/svg"><g clip-path="url(#a)"><path d="M58.926 12.042a6.678 6.678 0 0 0-2.844-2.276l-8.532-3.6L34.182.523A6.637 6.637 0 0 0 31.596 0v40.25l27.341 11.538a6.768 6.768 0 0 0 1.254-3.93V15.99a6.766 6.766 0 0 0-1.265-3.947z" fill="url(#b)"/><path d="M29.009.524 7.839 9.455l-.73.311a6.707 6.707 0 0 0-2.988 2.486A6.782 6.782 0 0 0 3 15.989v31.87c0 1.409.438 2.783 1.254 3.929L31.595 40.25V0c-.888 0-1.767.178-2.586.524z" fill="url(#c)"/><path d="M31.596 40.25 4.254 51.787a6.696 6.696 0 0 0 2.818 2.277l17.616 7.557 4.29 1.84a6.66 6.66 0 0 0 5.247 0l2.982-1.281 18.918-8.116a6.695 6.695 0 0 0 2.818-2.277L31.596 40.25z" fill="url(#d)"/><path opacity=".41" d="M31.595 45.491V40.25l-7.292 3.08a13.345 13.345 0 0 0 7.291 2.162z" fill="#fff"/><path style="mix-blend-mode:color-burn" opacity=".45" d="M51.544 16.63a4.952 4.952 0 0 0-2.076-1.753L43.24 12.1l-9.758-4.34a4.619 4.619 0 0 0-3.775 0l-15.45 6.88-.535.237c-.84.378-1.56.986-2.076 1.753a5.414 5.414 0 0 0-.926 3.038v24.544a5.412 5.412 0 0 0 .915 3.025 4.938 4.938 0 0 0 2.056 1.753l12.858 5.821 3.127 1.416a4.628 4.628 0 0 0 3.829 0l2.177-.987 13.807-6.25a4.938 4.938 0 0 0 2.056-1.753 5.412 5.412 0 0 0 .915-3.025V19.668a5.414 5.414 0 0 0-.917-3.038z" fill="url(#e)"/><path style="mix-blend-mode:soft-light" opacity=".76" d="m56.08 9.766-8.53-3.6L34.18.523a6.644 6.644 0 0 0-5.173 0L7.84 9.455l-.73.311a6.677 6.677 0 0 0-2.844 2.276l27.33 11.726 27.33-11.726a6.676 6.676 0 0 0-2.844-2.276z" fill="url(#f)"/><path style="mix-blend-mode:soft-light" d="m58.926 12.043-27.33 11.725V64a6.67 6.67 0 0 0 2.623-.539l2.983-1.28 18.917-8.116a6.712 6.712 0 0 0 2.962-2.487 6.787 6.787 0 0 0 1.11-3.72V15.99a6.766 6.766 0 0 0-1.265-3.947z" fill="url(#g)"/><path d="M31.594 45.485c7.444 0 13.478-6.08 13.478-13.58 0-7.499-6.034-13.578-13.478-13.578s-13.479 6.08-13.479 13.579c0 7.5 6.035 13.58 13.479 13.58z" fill="url(#h)"/></g><defs><linearGradient id="b" x1="38.833" y1="25.894" x2="62.244" y2="25.894" gradientUnits="userSpaceOnUse"><stop stop-color="#6B32C1"/><stop offset="1" stop-color="#C81D5E"/></linearGradient><linearGradient id="c" x1="3" y1="25.894" x2="31.595" y2="25.894" gradientUnits="userSpaceOnUse"><stop stop-color="#EC663C"/><stop offset="1" stop-color="#F9B426"/></linearGradient><linearGradient id="d" x1="33.172" y1="42.569" x2="29.55" y2="63.426" gradientUnits="userSpaceOnUse"><stop stop-color="#0081DD"/><stop offset=".19" stop-color="#0589E0"/><stop offset=".48" stop-color="#11A0E9"/><stop offset=".84" stop-color="#25C5F8"/><stop offset="1" stop-color="#2FD7FF"/></linearGradient><linearGradient id="e" x1="31.596" y1="48.741" x2="31.596" y2="7.359" gradientUnits="userSpaceOnUse"><stop stop-color="#4E4D4C"/><stop offset=".12" stop-color="#5A5858"/><stop offset=".47" stop-color="#747273"/><stop offset=".77" stop-color="#848183"/><stop offset="1" stop-color="#8A8789"/></linearGradient><linearGradient id="f" x1="15.883" y1="4.317" x2="48.727" y2="19.228" gradientUnits="userSpaceOnUse"><stop stop-color="#fff"/><stop offset=".14" stop-color="#fff" stop-opacity=".97"/><stop offset=".35" stop-color="#fff" stop-opacity=".89"/><stop offset=".61" stop-color="#fff" stop-opacity=".75"/><stop offset=".9" stop-color="#fff" stop-opacity=".57"/><stop offset="1" stop-color="#fff" stop-opacity=".5"/></linearGradient><linearGradient id="g" x1="42.214" y1="21.024" x2="49.725" y2="58.506" gradientUnits="userSpaceOnUse"><stop stop-color="#fff"/><stop offset=".12" stop-color="#fff" stop-opacity=".98"/><stop offset=".28" stop-color="#fff" stop-opacity=".92"/><stop offset=".45" stop-color="#fff" stop-opacity=".82"/><stop offset=".63" stop-color="#fff" stop-opacity=".67"/><stop offset=".82" stop-color="#fff" stop-opacity=".5"/><stop offset="1" stop-color="#fff" stop-opacity=".3"/></linearGradient><radialGradient id="h" cx="0" cy="0" r="1" gradientUnits="userSpaceOnUse" gradientTransform="matrix(17.875 0 0 18.0088 27.649 27.684)"><stop stop-color="#fff"/><stop offset=".21" stop-color="#FEFEFE" stop-opacity=".99"/><stop offset=".39" stop-color="#FCFCFB" stop-opacity=".96"/><stop offset=".55" stop-color="#F9F9F6" stop-opacity=".9"/><stop offset=".71" stop-color="#F4F4EE" stop-opacity=".82"/><stop offset=".85" stop-color="#EDEEE5" stop-opacity=".72"/><stop offset="1" stop-color="#E5E6D9" stop-opacity=".6"/></radialGradient><clipPath id="a"><path fill="#fff" d="M0 0h64v64H0z"/></clipPath></defs></svg>