<svg width="64" height="64" fill="none" xmlns="http://www.w3.org/2000/svg"><path d="M17.812 9.802c1.217-1.378 2.337-2.545 3.404-3.535C3.21 5.692 8.454 18.641 2.553 31.784c-6.754 15.15.8 20.92 12.05 22.724a24.339 24.339 0 0 1-3.803-6.187c-7.26-9.13-4.319-25.773 7.012-38.519z" fill="#EFE812"/><path d="M61.135 25.942a51.091 51.091 0 0 1-9.091 15.14 43.555 43.555 0 0 1-11.047 9.52A29.945 29.945 0 0 1 24.7 55.206c-3.367.03-6.73-.203-10.06-.698a20.548 20.548 0 0 0 6.727 5.241c16.28 7.831 17.303-6.708 34.526-14.088 9.669-4.145 9.704-12.242 5.234-19.72M40.998 10.828a21.467 21.467 0 0 1 6.719 2.369 37.389 37.389 0 0 1 13.419 12.745c2.932-8.22 1.564-14.672-4.844-15.839C49.236 8.822 43.726 8.406 38.43 4.73 31.907.222 26.183 1.69 21.225 6.276l1.075.044c6.878.407 13.455 1.768 18.662 4.49" fill="#EDE70A"/><path d="M17.812 9.803C6.48 22.548 3.539 39.19 10.835 48.32a27.584 27.584 0 0 1 1.573-24.748c6.141-10.182 18.467-14.601 28.59-12.745-5.244-2.758-11.82-4.083-18.663-4.49l-1.075-.053a47.17 47.17 0 0 0-3.448 3.518z" fill="#DEC21C"/><path d="M47.717 13.179a21.468 21.468 0 0 0-6.719-2.351c6.896 3.606 11.473 9.722 11.473 19.392a24.23 24.23 0 0 1-3.117 11.65 24.39 24.39 0 0 1-8.356 8.731 43.38 43.38 0 0 0 11.047-9.519 51.093 51.093 0 0 0 9.09-15.14 37.388 37.388 0 0 0-13.418-12.763z" fill="#E5CB22"/><path d="M40.998 10.828C30.876 8.972 18.55 13.39 12.41 23.528a27.558 27.558 0 0 0-1.573 24.792 24.09 24.09 0 0 0 3.804 6.188c3.33.495 6.693.728 10.06.698a29.946 29.946 0 0 0 16.298-4.605 24.382 24.382 0 0 0 8.358-8.731 24.222 24.222 0 0 0 3.115-11.65c0-9.67-4.576-15.786-11.473-19.392zm-1.137 35.177a16.909 16.909 0 0 1-12.637 2.28 16.833 16.833 0 0 1-10.576-7.247c-5.03-7.716-2.541-17.677 5.003-22.98 8.443-5.966 19.267-3.615 23.213 4.967 3.848 8.361 2.79 18.022-5.003 22.98z" fill="#CCA727"/></svg>