<svg width="64" height="64" fill="none" xmlns="http://www.w3.org/2000/svg"><path d="M25.758 57.587a25.652 25.652 0 0 1-18.172-7.555A25.842 25.842 0 0 1 .059 31.794c0-6.841 2.707-13.402 7.527-18.24A25.651 25.651 0 0 1 25.758 6 25.322 25.322 0 0 1 37.44 8.814a25.916 25.916 0 0 1 7.502 5.853l.458-.255a14.687 14.687 0 0 1 6.989-1.688h.62c4.703.169 7.888 1.453 8.72 1.933l.88.51a2.261 2.261 0 0 1 1.091 2.237l-.055.434v.091c-.442 6.592-3.338 11.634-8.158 14.193-.294.153-.564.286-.833.408a13.97 13.97 0 0 1-3.256 1.02 25.855 25.855 0 0 1-8.103 17.087 25.671 25.671 0 0 1-17.537 6.95z" fill="#fff"/><path d="M49.188 31.806a23.579 23.579 0 0 1-3.95 13.064 23.45 23.45 0 0 1-10.517 8.66 23.351 23.351 0 0 1-13.538 1.336A23.404 23.404 0 0 1 9.187 48.43a23.544 23.544 0 0 1-6.411-12.041A23.597 23.597 0 0 1 4.11 22.8a23.498 23.498 0 0 1 8.63-10.554 23.357 23.357 0 0 1 21.985-2.172 23.427 23.427 0 0 1 7.602 5.099 23.523 23.523 0 0 1 5.08 7.631 23.592 23.592 0 0 1 1.781 9.002z" fill="#0083FF"/><path d="M25.33 11.858h-.71a.916.916 0 0 0-.915.918v.713c0 .507.41.918.914.918h.712c.504 0 .914-.41.914-.918v-.713a.916.916 0 0 0-.915-.918zM25.33 15.426h-.71a.916.916 0 0 0-.915.918v.714c0 .506.41.917.914.917h.712c.504 0 .914-.41.914-.917v-.714a.916.916 0 0 0-.915-.918zM14.665 25.113h-.712a.916.916 0 0 0-.914.917v.714c0 .507.41.918.914.918h.712c.504 0 .914-.411.914-.918v-.714a.916.916 0 0 0-.915-.917zM18.728 25.113h-.711a.916.916 0 0 0-.915.917v.714c0 .507.41.918.915.918h.71c.506 0 .915-.411.915-.918v-.714a.916.916 0 0 0-.914-.917zM24.823 18.995h-4.267a.916.916 0 0 0-.914.918v.713c0 .507.409.918.914.918h4.267c.505 0 .914-.41.914-.918v-.713a.916.916 0 0 0-.914-.918zM21.775 25.113h-.711a.916.916 0 0 0-.915.917v4.283c0 .507.41.917.915.917h.71c.506 0 .915-.41.915-.917V26.03a.916.916 0 0 0-.914-.917zM36.506 25.113h-6.299a.916.916 0 0 0-.914.917v.714c0 .507.41.918.914.918h6.299c.505 0 .914-.411.914-.918v-.714a.916.916 0 0 0-.914-.917zM22.79 22.054h-6.298a.916.916 0 0 0-.914.917v.714c0 .507.41.918.914.918h6.299c.505 0 .914-.411.914-.918v-.714a.916.916 0 0 0-.914-.917zM35.998 22.054h-.712a.916.916 0 0 0-.914.917v.714c0 .507.41.918.914.918h.712c.504 0 .914-.411.914-.918v-.714a.916.916 0 0 0-.914-.917zM32.95 29.19h-4.267a.916.916 0 0 0-.914.919v.713c0 .507.409.918.914.918h4.267c.505 0 .914-.41.914-.918v-.713a.916.916 0 0 0-.914-.918zM29.394 32.25h-.711a.916.916 0 0 0-.914.918v.713c0 .507.409.918.914.918h.711c.505 0 .914-.41.914-.918v-.713a.916.916 0 0 0-.914-.918zM29.394 35.818h-.711a.916.916 0 0 0-.914.918v.714c0 .506.409.917.914.917h.711c.505 0 .914-.41.914-.917v-.714a.916.916 0 0 0-.914-.918zM28.886 13.387h-.711a.916.916 0 0 0-.914.918v6.321c0 .507.41.918.914.918h.711c.505 0 .914-.41.914-.918v-6.321a.916.916 0 0 0-.914-.918zM25.838 27.662h-.71a.916.916 0 0 0-.915.917v6.322c0 .507.41.917.914.917h.711c.505 0 .915-.41.915-.917v-6.322a.916.916 0 0 0-.915-.917zM32.442 17.466h-.711a.916.916 0 0 0-.915.918v4.282c0 .507.41.918.915.918h.71c.506 0 .915-.411.915-.918v-4.282a.916.916 0 0 0-.914-.918z" fill="#fff"/><path d="m42.2 28.034 16.253-9.452s.356-3.38-5.932-3.314c-6.289.066-9.854 4.196-10.306 7.907-.453 3.712 0 4.858 0 4.858" fill="#006E36"/><path d="M58.738 18.169 42.484 27.62s-.355 3.38 5.933 3.313c6.288-.066 9.854-4.195 10.326-7.907.473-3.711 0-4.858 0-4.858" fill="#00B22B"/><path d="M60.602 16.63c-.401-.23-3.21-1.474-7.675-1.632a12.604 12.604 0 0 0-6.47 1.412c-.62.328-1.209.712-1.758 1.148-4.028 3.186-4.135 7.137-4.404 9.385l-3.19 1.565a1.328 1.328 0 0 0-.768 1.48 1.331 1.331 0 0 0 1.276 1.07c.202 0 .402-.046.584-.133h.046l.726-.388 1.468-.775.711-.341a16.007 16.007 0 0 0 7.106 2.07c1.883.088 3.76-.26 5.486-1.02.239-.107.472-.224.7-.342 6.604-3.517 6.904-11.526 6.975-12.49l.066-.51-.879-.5zm-1.915 2.314v.036c-.457 2.549-1.803 7.07-5.678 9.13l-.102.052a10.291 10.291 0 0 1-4.8 1.1 13.06 13.06 0 0 1-3.408-.616l-.965-.413 1.061-.556 3.967-2.116a1.567 1.567 0 0 0 .843-1.36.925.925 0 0 0 .046-.51c-.02-.05-.041-.1-.066-.148v-.041a1.454 1.454 0 0 0-1.33-.637 1.58 1.58 0 0 0-.808.188l-3.962 2.095-.752.398s.66-5.098 4.226-6.877c.28-.143.508-.347.813-.51a9.465 9.465 0 0 1 4.85-1.02c1.937.104 3.84.555 5.618 1.331l.26.112.223.092-.036.27zM10.79 41.743h1.97c1.818 0 3.012 1.065 3.012 2.646 0 1.58-1.22 2.625-3.012 2.625h-1.97v-5.271zm1.975.963h-.777v3.334h.777a1.624 1.624 0 0 0 1.665-.99c.09-.214.133-.445.128-.677 0-1.02-.732-1.646-1.793-1.667zM19.17 41.564a2.714 2.714 0 0 1 2.078.764 2.733 2.733 0 0 1 .827 2.06c0 1.668-1.174 2.804-2.906 2.804-1.732 0-2.915-1.136-2.915-2.804a2.742 2.742 0 0 1 .83-2.064 2.72 2.72 0 0 1 2.085-.76zm0 4.558a1.748 1.748 0 0 0 1.682-1.02 1.765 1.765 0 0 0-.32-1.947 1.751 1.751 0 0 0-3.024 1.208 1.653 1.653 0 0 0 1 1.63c.21.088.434.132.661.129zM22.8 47.014v-5.271h1.24v4.206h2.194v1.065h-3.433zM26.88 47.014v-5.271h1.24v4.206h2.194v1.065H26.88zM35.81 47.014h-1.306l-.31-.958h-2.107l-.29.958h-1.32l1.772-5.271h1.793l1.768 5.271zm-3.46-1.846h1.596l-.798-2.36-.797 2.36zM36.317 41.743h2.54c1.22 0 2.062.713 2.062 1.758a1.534 1.534 0 0 1-1.153 1.49l1.275 1.998H39.67l-1.067-1.846h-1.041v1.846h-1.245v-5.246zm1.22.933v1.6h1.107a.83.83 0 0 0 .952-.443.84.84 0 0 0-.577-1.185.83.83 0 0 0-.375.007l-1.108.02z" fill="#fff"/></svg>