<svg width="64" height="64" fill="none" xmlns="http://www.w3.org/2000/svg"><path d="M26.045 57.164a25.164 25.164 0 0 1 0-50.328c3.979-.012 7.902.93 11.442 2.746a25.396 25.396 0 0 1 7.353 5.675l.448-.246a14.415 14.415 0 0 1 6.846-1.644h.605c4.607.162 7.727 1.417 8.544 1.885l.861.492a2.21 2.21 0 0 1 1.069 2.185l-.055.424v.103c-.433 6.432-3.273 11.354-7.992 13.854a13.717 13.717 0 0 1-4.006 1.383 25.198 25.198 0 0 1-25.115 23.471z" fill="#fff"/><path d="M48.944 31.99a22.955 22.955 0 1 1-45.91.02 22.955 22.955 0 0 1 45.91-.02z" fill="#0083FF"/><path d="M24.145 19.436h-.177a.896.896 0 0 0-.896.895v.177c0 .495.401.896.896.896h.177a.896.896 0 0 0 .896-.896v-.177a.896.896 0 0 0-.896-.895zM24.145 22.88h-.177a.896.896 0 0 0-.896.896v.177c0 .495.401.896.896.896h.177a.896.896 0 0 0 .896-.896v-.177a.896.896 0 0 0-.896-.896zM14.795 33.216h-.178a.896.896 0 0 0-.895.895v.178c0 .494.4.895.895.895h.178a.896.896 0 0 0 .895-.895v-.178a.896.896 0 0 0-.895-.895zM17.747 33.216h-.177a.896.896 0 0 0-.896.895v.178c0 .494.4.895.896.895h.177a.896.896 0 0 0 .895-.895v-.178a.896.896 0 0 0-.895-.895zM24.637 26.326h-4.114a.896.896 0 0 0-.896.895v.178c0 .494.401.895.896.895h4.114a.896.896 0 0 0 .896-.895v-.178a.896.896 0 0 0-.896-.895zM21.192 33.216h-.177a.896.896 0 0 0-.896.895v4.115c0 .495.401.896.896.896h.177a.896.896 0 0 0 .896-.896v-4.114a.896.896 0 0 0-.896-.896zM35.957 33.216h-6.575a.896.896 0 0 0-.896.895v.178c0 .494.401.895.896.895h6.575a.896.896 0 0 0 .896-.895v-.178a.896.896 0 0 0-.896-.895zM23.16 29.77h-6.575a.896.896 0 0 0-.896.896v.177c0 .495.401.896.896.896h6.575a.896.896 0 0 0 .896-.896v-.177a.896.896 0 0 0-.896-.896zM34.48 29.278h-.177a.896.896 0 0 0-.896.896v.177c0 .495.401.896.896.896h.177a.896.896 0 0 0 .896-.896v-.177a.896.896 0 0 0-.896-.896zM32.02 36.169h-4.115a.896.896 0 0 0-.895.895v.177c0 .495.4.896.895.896h4.115a.896.896 0 0 0 .896-.896v-.177a.896.896 0 0 0-.896-.895zM28.083 39.614h-.177a.896.896 0 0 0-.896.896v.177c0 .494.4.895.895.895h.178a.896.896 0 0 0 .895-.895v-.177a.896.896 0 0 0-.895-.896zM28.083 43.06h-.177a.896.896 0 0 0-.896.895v.177c0 .495.4.896.895.896h.178a.896.896 0 0 0 .895-.896v-.177a.896.896 0 0 0-.895-.896zM27.59 21.404h-.177a.896.896 0 0 0-.895.895v6.576c0 .494.4.895.895.895h.177a.896.896 0 0 0 .896-.895v-6.576a.896.896 0 0 0-.896-.895zM25.13 34.692h-.178a.896.896 0 0 0-.895.896v6.575c0 .495.4.896.895.896h.177a.896.896 0 0 0 .896-.896v-6.575a.896.896 0 0 0-.895-.896zM31.527 25.341h-.177a.896.896 0 0 0-.896.896v4.115c0 .494.401.895.896.895h.177a.896.896 0 0 0 .896-.895v-4.115a.896.896 0 0 0-.896-.896z" fill="#fff"/><path d="m42.1 28.319 15.945-9.223s.35-3.303-5.812-3.239c-6.162.064-9.651 4.095-10.119 7.722-.467 3.627 0 4.745 0 4.745" fill="#006E36"/><path d="m58.301 18.702-15.95 9.213s-.35 3.297 5.812 3.238c6.162-.059 9.656-4.085 10.118-7.717.463-3.632 0-4.744 0-4.744" fill="#00B22B"/><path d="M60.18 17.186c-.388-.226-3.144-1.437-7.52-1.594a12.388 12.388 0 0 0-6.338 1.378 11.27 11.27 0 0 0-1.718 1.122c-3.937 3.11-4.05 6.944-4.311 9.159l-3.126 1.526a1.3 1.3 0 0 0-.797 1.2 1.339 1.339 0 0 0 1.344 1.3c.207-.03.413-.073.615-.128l.699-.38 1.432-.757.694-.335a15.72 15.72 0 0 0 6.924 2.043 11.98 11.98 0 0 0 5.375-1.01c.231-.103.462-.216.684-.334 6.482-3.445 6.762-11.25 6.831-12.19l.064-.493-.851-.507zm-1.874 2.26v.034c-.448 2.46-1.767 6.89-5.562 8.913l-.103.049a10.11 10.11 0 0 1-4.705 1.088 12.834 12.834 0 0 1-3.357-.596l-.945-.404 1.044-.54 3.907-2.068a1.53 1.53 0 0 0 .827-1.329.901.901 0 0 0 .045-.492 1.545 1.545 0 0 0-.064-.143v-.039a1.423 1.423 0 0 0-1.3-.625 1.55 1.55 0 0 0-.787.182l-3.878 2.047-.734.384s.615-4.975 4.1-6.713c.27-.137.517-.334.797-.492a9.302 9.302 0 0 1 4.75-.984c1.896.101 3.76.541 5.502 1.3l.231.078.241.098-.01.251z" fill="#fff"/></svg>