<svg width="64" height="64" fill="none" xmlns="http://www.w3.org/2000/svg"><g clip-path="url(#a)"><path d="M32 64c17.734 0 32-14.266 32-32S49.734 0 32 0 0 14.266 0 32s14.266 32 32 32z" fill="#2775CA"/><path d="M40.8 37.066c0-4.666-2.8-6.266-8.4-6.935-4-.534-4.8-1.6-4.8-3.465 0-1.866 1.334-3.066 4-3.066 2.4 0 3.734.8 4.4 2.8.134.4.534.666.934.666h2.135c.534 0 .934-.4.934-.935v-.134a6.66 6.66 0 0 0-6-5.466v-3.2c0-.534-.4-.934-1.066-1.065h-2c-.534 0-.934.4-1.065 1.065v3.066c-4 .534-6.535 3.2-6.535 6.534 0 4.4 2.666 6.135 8.266 6.8 3.734.666 4.934 1.466 4.934 3.6 0 2.135-1.865 3.6-4.4 3.6-3.465 0-4.665-1.465-5.065-3.465-.134-.535-.534-.8-.934-.8h-2.266c-.535 0-.934.4-.934.934v.134c.534 3.335 2.665 5.735 7.065 6.4v3.2c0 .535.4.935 1.066 1.066h2c.534 0 .934-.4 1.065-1.066v-3.2c3.997-.668 6.666-3.468 6.666-7.068z" fill="#fff"/><path d="M25.2 51.066C14.8 47.33 9.467 35.73 13.336 25.466c2-5.6 6.4-9.866 11.866-11.866.534-.265.8-.665.8-1.334V10.4c0-.534-.266-.934-.8-1.066-.135 0-.4 0-.535.135-12.665 4-19.6 17.465-15.6 30.134 2.4 7.466 8.135 13.2 15.6 15.6.535.266 1.066 0 1.2-.534.135-.135.135-.266.135-.535V52.27c0-.403-.4-.935-.8-1.203zm14.132-41.6c-.535-.266-1.066 0-1.2.534-.135.134-.135.266-.135.534V12.4c0 .534.4 1.066.8 1.335 10.4 3.734 15.735 15.334 11.866 25.6-2 5.6-6.4 9.865-11.866 11.865-.534.266-.8.666-.8 1.334V54.4c0 .534.266.934.8 1.066.135 0 .4 0 .535-.135 12.665-4 19.6-17.465 15.6-30.134-2.4-7.597-8.266-13.331-15.6-15.731z" fill="#fff"/></g><defs><clipPath id="a"><path fill="#fff" d="M0 0h64v64H0z"/></clipPath></defs></svg>