<svg width="64" height="64" fill="none" xmlns="http://www.w3.org/2000/svg"><g clip-path="url(#a)"><path d="M14.546 54.69a21.723 21.723 0 0 0 6.791 5.17 21.8 21.8 0 0 0 8.268 2.16 13.713 13.713 0 0 0 9.07-4.09 157.743 157.743 0 0 1 14.887-11.25l2.909-1.194c1.198-.511 3.251-1.704 5.134-3.92C63.658 38.838 64 35.94 64 34.918a18.7 18.7 0 0 0-3.08-9.034A56.687 56.687 0 0 1 41.44 46.207a56.97 56.97 0 0 1-26.893 8.484z" fill="#0293D6"/><path d="M21.048 6.281a13.69 13.69 0 0 1 4.522-3.147 13.736 13.736 0 0 1 5.403-1.114 8.931 8.931 0 0 1 6.503 2.216 29.854 29.854 0 0 0 16.77 5.454c1.54.17 4.62.682 6.673 3.239 1.54 2.045 1.712 4.261 1.712 5.284a23.614 23.614 0 0 1-1.712 7.67L21.048 6.281z" fill="#EBE638"/><path d="M14.546 54.69c-1.54-.17-3.594-.682-5.99-1.704C6.16 51.963 3.251 50.77 1.37 47.53.171 45.486 0 43.441 0 42.077a23.45 23.45 0 0 1 2.567-10.398 47.916 47.916 0 0 0 3.251-12.443l.856-3.41c.513-1.704.855-3.409 2.053-5.113l1.883-2.046a16.308 16.308 0 0 1 10.438-2.386 53.061 53.061 0 0 0-9.16 23.417 52.987 52.987 0 0 0 2.658 24.992z" fill="#BAD147"/><path d="M21.049 6.281c-.172 0 9.24.512 15.058 2.557l4.792 2.046c-1.883-.17-13.861-.682-22.93 8.352-11.466 11.59-7.701 27.443-7.53 28.295A17.34 17.34 0 0 1 6.674 35.77a40.78 40.78 0 0 1 4.092-16.241A40.93 40.93 0 0 1 21.05 6.28z" fill="#78B650"/><path d="M43.979 48.384a33.98 33.98 0 0 0-3.08-37.5 23.473 23.473 0 0 1 13.005 6.818c2.053 1.704 4.62 4.261 7.016 8.182a50.303 50.303 0 0 1-16.941 22.5z" fill="#2F8260"/><path d="M49.455 18.384c-2.738-4.603-6.674-6.648-8.385-7.5-1.37-.341-14.203-2.387-23.957 6.988-7.872 7.5-8.385 17.216-8.385 19.091a29.075 29.075 0 0 0 6.16 17.727 40.882 40.882 0 0 0 15.401 0c2.567-.511 8.556-1.534 13.69-5.966.684-.681 8.214-7.67 8.727-18.75 0-1.875 0-6.647-3.251-11.59zm-6.16 24.715a16.94 16.94 0 0 1-5.671 4.035 16.998 16.998 0 0 1-6.822 1.42c-1.026 0-7.871-.17-12.663-5.796-.684-.852-4.107-4.943-3.935-11.079.342-8.182 6.844-12.955 8.213-13.977 1.198-.853 4.107-2.728 8.385-2.898 1.027-.17 4.62-.34 8.214 1.705 7.872 4.26 8.214 14.488 8.214 15.17 0 1.875 0 6.989-3.936 11.42z" fill="#085229"/></g><defs><clipPath id="a"><path fill="#fff" d="M0 0h64v64H0z"/></clipPath></defs></svg>