<svg width="64" height="64" fill="none" xmlns="http://www.w3.org/2000/svg"><path fill-rule="evenodd" clip-rule="evenodd" d="M11.718 4.275.05 28.93a.48.48 0 0 0 .102.558l31.516 30.377a.48.48 0 0 0 .666 0L63.849 29.49a.48.48 0 0 0 .102-.558L52.28 4.277a.474.474 0 0 0-.43-.277H12.153a.47.47 0 0 0-.434.275z" fill="#50AF95"/><path fill-rule="evenodd" clip-rule="evenodd" d="M36.049 31.462c-.226.017-1.395.087-4.003.087-2.074 0-3.547-.062-4.063-.087-8.015-.354-13.998-1.758-13.998-3.438 0-1.68 5.983-3.082 13.998-3.442v5.482a59.97 59.97 0 0 0 4.099.128c2.489 0 3.735-.105 3.96-.126v-5.48c7.998.358 13.967 1.761 13.967 3.438 0 1.676-5.967 3.08-13.968 3.436l.008.002zm0-7.444v-4.906h11.162V11.63h-30.39v7.482h11.16v4.904c-9.071.42-15.893 2.227-15.893 4.393S18.91 32.38 27.98 32.8v15.723h8.066V32.796c9.05-.42 15.861-2.225 15.861-4.39 0-2.163-6.805-3.969-15.86-4.39l.001.002z" fill="#fff"/></svg>