<svg width="64" height="64" fill="none" xmlns="http://www.w3.org/2000/svg"><g clip-path="url(#a)"><path d="m52.185 13.431-1.757 1.757a24.877 24.877 0 0 1 0 33.576l1.757 1.757a27.39 27.39 0 0 0 0-37.13v.04zM15.23 13.584a24.877 24.877 0 0 1 33.576 0l1.757-1.758a27.39 27.39 0 0 0-37.131 0l1.798 1.758zM13.584 48.782a24.877 24.877 0 0 1 0-33.558l-1.758-1.757a27.39 27.39 0 0 0 0 37.131l1.758-1.816zM48.782 50.404a24.877 24.877 0 0 1-33.575 0l-1.758 1.758a27.39 27.39 0 0 0 37.132 0l-1.799-1.758z" fill="#5A5564"/><path d="M43.095 26.137c-.352-3.667-3.515-4.897-7.516-5.272v-5.05h-3.092v4.956h-2.472v-4.956h-3.07V20.9h-6.273v3.31s2.284-.042 2.25 0a1.599 1.599 0 0 1 1.756 1.358v13.918a1.083 1.083 0 0 1-.374.756 1.072 1.072 0 0 1-.797.269c.041.035-2.25 0-2.25 0l-.585 3.696h6.215v5.166h3.093v-5.09h2.472v5.067h3.098v-5.108c5.225-.316 8.869-1.605 9.325-6.496.37-3.936-1.481-5.693-4.44-6.402 1.799-.885 2.912-2.525 2.66-5.207zm-4.335 11c0 3.843-6.584 3.403-8.68 3.403v-6.818c2.096.006 8.68-.597 8.68 3.415zm-1.435-9.606c0 3.514-5.494 3.087-7.24 3.087V24.42c1.746 0 7.24-.55 7.24 3.11z" fill="#F09242"/><path d="M31.994 64A32 32 0 1 1 32.005.001 32 32 0 0 1 31.995 64zm0-61.505a29.487 29.487 0 1 0 .047 58.975 29.487 29.487 0 0 0-.047-58.975z" fill="#282138"/></g><defs><clipPath id="a"><path fill="#fff" d="M0 0h64v64H0z"/></clipPath></defs></svg>