<svg width="64" height="64" fill="none" xmlns="http://www.w3.org/2000/svg"><g clip-path="url(#a)"><path d="M54.857 0H9.143A9.143 9.143 0 0 0 0 9.143v45.714A9.143 9.143 0 0 0 9.143 64h45.714A9.143 9.143 0 0 0 64 54.857V9.143A9.143 9.143 0 0 0 54.857 0z" fill="#003371"/><path d="M48.316 15.834a5.159 5.159 0 0 0-3.649-1.507 5.171 5.171 0 0 0-3.648 1.507L28.454 28.36a5.142 5.142 0 0 0-1.512 3.637 5.129 5.129 0 0 0 1.512 3.637L41.02 48.16a5.151 5.151 0 0 0 3.648 1.507 5.17 5.17 0 0 0 3.65-1.507 5.141 5.141 0 0 0 1.51-3.637 5.132 5.132 0 0 0-1.51-3.638l-7.705-7.674a1.709 1.709 0 0 1 0-2.428l7.704-7.675a5.143 5.143 0 0 0 1.512-3.637 5.134 5.134 0 0 0-1.512-3.637z" fill="#04795B"/><path d="M41.017 48.158a5.17 5.17 0 0 0 7.296 0 5.132 5.132 0 0 0 0-7.273L35.748 28.36a5.17 5.17 0 0 0-7.296 0 5.132 5.132 0 0 0 0 7.273l12.565 12.526z" fill="#0DB50A"/><path d="M35.752 28.36 23.187 15.834a5.159 5.159 0 0 0-3.649-1.507 5.173 5.173 0 0 0-3.649 1.507 5.14 5.14 0 0 0-1.511 3.637 5.129 5.129 0 0 0 1.511 3.637l7.699 7.675a1.715 1.715 0 0 1 .374 1.871 1.714 1.714 0 0 1-.374.557l-7.699 7.675a5.137 5.137 0 0 0-1.118 5.605 5.157 5.157 0 0 0 4.767 3.175 5.17 5.17 0 0 0 3.649-1.506l8.913-8.892 3.652-3.634a5.145 5.145 0 0 0 1.511-3.637 5.134 5.134 0 0 0-1.511-3.637zM44.665 24.617c2.85 0 5.159-2.302 5.159-5.143 0-2.84-2.31-5.143-5.16-5.143-2.848 0-5.158 2.303-5.158 5.143s2.31 5.143 5.159 5.143z" fill="#0AE33A"/></g><defs><clipPath id="a"><path fill="#fff" d="M0 0h64v64H0z"/></clipPath></defs></svg>