<svg width="64" height="64" fill="none" xmlns="http://www.w3.org/2000/svg"><path d="m54 26.446-9.172 4.108-24.333 12.444L44.828 54.75V35.324L54 31.17v28.702l-9.172 4.108L9 46.754v-9.156l24.8-12.223L9 13.4V4.113l9.318-4.11L54 17.26v9.186z" fill="#49C1BF"/><path d="m9 4.113 35.828 17.256L54 17.26 18.318.004 9 4.113z" fill="#077A8F"/><path d="M44.827 21.33 54 17.222v9.185l-9.172 4.109V21.33z" fill="#298E97"/><path d="M9 4.121v9.288l24.8 11.974L9 37.606v9.157L44.828 63.99v-9.215L20.495 43.006l24.333-12.443v-9.186L9 4.121z" fill="#49C1BF"/><path d="M44.827 63.92 54 59.813V31.11l-9.172 4.153v28.658z" fill="#298E97"/></svg>